<?xml version="1.0" standalone="no"?>
<!DOCTYPE svg PUBLIC "-//W3C//DTD SVG 20010904//EN"
 "http://www.w3.org/TR/2001/REC-SVG-20010904/DTD/svg10.dtd">
<svg version="1.0" xmlns="http://www.w3.org/2000/svg"
 width="1024.000000pt" height="1024.000000pt" viewBox="0 0 1024.000000 1024.000000"
 preserveAspectRatio="xMidYMid meet">

<g transform="translate(0.000000,1024.000000) scale(0.100000,-0.100000)"
fill="#000000" stroke="none">
<path d="M3405 9231 c-17 -10 -43 -33 -58 -50 l-27 -33 -2 -791 c-1 -436 -2
-887 -3 -1003 l0 -210 27 -41 c40 -61 94 -83 204 -83 l89 -1 -40 -32 c-250
-200 -476 -525 -574 -825 -70 -213 -97 -464 -71 -657 6 -49 14 -119 16 -155 6
-76 24 -47 -217 -361 -202 -266 -306 -411 -330 -463 -43 -95 -12 -229 69 -297
54 -44 162 -93 277 -123 56 -15 107 -31 115 -36 13 -8 12 -22 -9 -97 -14 -48
-27 -116 -29 -151 -3 -53 0 -69 22 -106 14 -24 38 -53 52 -63 22 -16 25 -23
16 -40 -6 -11 -14 -42 -17 -69 -8 -59 8 -102 59 -163 20 -24 36 -47 36 -51 0
-5 -11 -60 -25 -122 -46 -214 -42 -337 16 -450 49 -95 161 -174 304 -214 144
-39 524 -24 771 31 19 4 25 -5 50 -83 27 -81 29 -98 29 -242 -1 -122 -7 -190
-29 -318 -15 -90 -26 -173 -24 -185 l3 -22 525 -5 c289 -3 982 -3 1540 0 1005
5 1015 5 1018 25 1 11 -42 151 -97 311 -259 756 -354 1131 -338 1333 9 115 27
159 125 309 351 539 518 884 617 1278 94 377 81 773 -36 1113 -44 127 -147
331 -230 455 -104 155 -315 381 -428 458 l-24 17 39 16 c51 21 73 42 95 90 18
38 19 90 19 1014 0 969 0 975 -21 1018 -14 29 -35 52 -63 68 -42 25 -46 25
-270 25 -255 0 -279 -5 -324 -74 l-24 -34 -4 -714 c-3 -392 -4 -799 -4 -905
l0 -192 -122 44 c-140 49 -338 96 -513 122 -173 25 -623 25 -785 0 -297 -46
-484 -103 -775 -233 -7 -3 -11 295 -11 935 l-1 940 -25 39 c-45 68 -65 72
-325 72 -204 0 -231 -2 -258 -19z m363 -405 c10 -10 11 -18 2 -38 -11 -24 -16
-25 -126 -31 -62 -3 -122 -3 -134 0 -25 7 -27 49 -2 76 16 18 26 19 132 12 71
-4 120 -11 128 -19z m2938 -19 c-4 -17 -11 -36 -17 -42 -6 -6 -65 -10 -142
-10 l-132 0 2 35 c1 19 8 39 16 45 8 6 65 9 147 7 l132 -3 -6 -32z m-339 -99
c-2 -18 -4 -4 -4 32 0 36 2 50 4 33 2 -18 2 -48 0 -65z m-853 -1414 c430 -54
820 -202 1119 -428 346 -260 588 -635 680 -1051 18 -87 21 -131 22 -330 0
-252 -9 -325 -66 -530 -61 -215 -196 -527 -316 -729 -75 -127 -199 -325 -268
-431 -122 -185 -152 -290 -142 -504 9 -212 87 -522 268 -1064 54 -165 99 -301
99 -303 0 -3 -579 -4 -1286 -3 l-1286 1 6 37 c35 211 32 417 -8 571 -13 52
-24 95 -23 95 158 42 459 169 692 292 162 86 305 170 305 179 0 2 -19 -4 -42
-12 -149 -52 -754 -208 -1043 -267 -300 -63 -441 -80 -640 -81 -262 -1 -341
24 -394 128 -33 63 -33 154 0 292 41 175 30 264 -44 341 -29 31 -30 34 -18 73
19 64 38 76 135 90 47 7 86 14 86 16 0 8 -78 42 -157 69 -46 16 -97 40 -114
54 l-31 26 22 65 c13 39 24 99 27 150 4 75 1 89 -19 124 -41 70 -85 96 -225
133 -182 48 -243 83 -243 138 0 18 119 181 380 519 213 276 219 292 183 481
-22 119 -22 349 0 466 79 405 343 792 707 1036 332 222 747 355 1180 377 108
5 328 -5 454 -20z"/>
<path d="M2849 8905 c-14 -8 -35 -27 -45 -42 -18 -27 -19 -60 -22 -728 l-2
-700 22 -45 c35 -69 68 -81 210 -78 108 3 118 5 143 28 57 54 55 17 55 818 0
561 -3 741 -12 750 -18 18 -315 16 -349 -3z m109 -258 c2 -10 -4 -20 -13 -23
-21 -8 -25 -3 -18 24 6 25 26 24 31 -1z"/>
<path d="M7042 8908 c-9 -9 -12 -189 -12 -747 0 -720 0 -736 20 -777 30 -61
64 -74 198 -74 97 0 113 3 142 23 18 12 41 38 51 57 18 33 19 72 19 730 0 654
-1 697 -18 729 -33 61 -66 71 -237 71 -104 0 -155 -4 -163 -12z m225 -224 c-3
-3 -12 -4 -19 -1 -8 3 -5 6 6 6 11 1 17 -2 13 -5z m-57 -28 c0 -27 -17 -43
-31 -29 -12 12 1 53 17 53 8 0 14 -10 14 -24z"/>
<path d="M2445 8346 c-49 -21 -55 -49 -55 -236 l0 -170 29 -32 29 -33 121 -3
121 -4 -2 244 -3 243 -105 2 c-70 2 -115 -2 -135 -11z"/>
<path d="M7557 8347 c-16 -11 -17 -35 -15 -242 l3 -230 123 0 124 0 29 33 29
32 0 173 c0 192 -4 207 -66 233 -43 18 -203 19 -227 1z"/>
<path d="M4100 8115 l0 -235 88 0 c574 -1 1930 -2 1940 -1 10 1 12 51 10 234
l-3 232 -1017 3 -1018 2 0 -235z"/>
<path d="M2036 7168 c-19 -27 -20 -58 -3 -80 6 -9 57 -45 112 -79 55 -34 136
-85 180 -112 44 -27 124 -77 178 -111 53 -33 108 -68 121 -76 52 -31 115 26
89 82 -9 21 -109 87 -510 340 -102 64 -142 73 -167 36z"/>
<path d="M7895 7038 c-132 -83 -266 -167 -297 -187 -31 -20 -62 -46 -67 -58
-15 -33 5 -82 36 -89 27 -7 39 -2 133 57 36 23 163 102 284 177 120 75 225
147 233 159 26 39 -6 93 -55 93 -17 0 -112 -54 -267 -152z"/>
<path d="M2882 6868 c-12 -6 -25 -23 -29 -36 -5 -20 1 -31 26 -54 17 -15 40
-28 50 -28 10 0 30 -9 45 -21 30 -24 40 -20 54 21 9 24 7 33 -9 55 -11 14 -26
25 -33 25 -7 0 -23 11 -36 25 -26 27 -34 29 -68 13z"/>
<path d="M7364 6861 c-48 -22 -97 -67 -91 -84 2 -6 12 -14 23 -16 10 -1 27
-10 37 -19 14 -13 21 -13 42 -2 46 25 78 66 71 94 -10 39 -35 48 -82 27z"/>
<path d="M1940 6460 c-27 -27 -26 -71 3 -97 20 -18 48 -22 295 -37 259 -17
275 -17 293 0 25 22 25 76 0 98 -15 14 -57 20 -213 31 -106 8 -230 17 -275 20
-74 5 -84 4 -103 -15z"/>
<path d="M7971 6460 c-257 -20 -262 -22 -264 -85 -2 -61 16 -68 163 -60 69 3
166 10 215 15 50 6 113 10 141 10 65 0 95 22 96 69 1 44 -30 72 -81 70 -20 -1
-141 -10 -270 -19z"/>
</g>
</svg>
