<?xml version="1.0" standalone="no"?>
<!DOCTYPE svg PUBLIC "-//W3C//DTD SVG 20010904//EN"
 "http://www.w3.org/TR/2001/REC-SVG-20010904/DTD/svg10.dtd">
<svg version="1.0" xmlns="http://www.w3.org/2000/svg"
 width="1024.000000pt" height="1024.000000pt" viewBox="0 0 1024.000000 1024.000000"
 preserveAspectRatio="xMidYMid meet">

<g transform="translate(0.000000,1024.000000) scale(0.100000,-0.100000)"
fill="#000000" stroke="none">
<path d="M4476 9429 c-22 -5 -54 -21 -72 -34 -24 -19 -45 -25 -81 -25 -175 -1
-459 -193 -556 -377 -53 -100 -87 -241 -87 -358 0 -105 32 -250 73 -331 72
-143 245 -298 392 -353 139 -52 205 -65 345 -65 146 0 217 12 356 62 242 85
423 268 504 506 87 257 53 529 -85 673 -23 24 -49 43 -58 43 -9 0 -17 5 -17
11 0 7 -17 34 -37 61 -63 83 -207 156 -363 184 -85 15 -255 17 -314 3z m355
-110 c104 -29 216 -89 204 -110 -4 -5 -1 -9 5 -9 6 0 8 -5 5 -10 -4 -6 -11 -7
-17 -4 -6 4 -8 -2 -4 -17 3 -13 3 -18 0 -12 -7 16 -54 -13 -54 -33 0 -8 -6
-14 -13 -14 -7 0 -18 -9 -24 -19 -10 -16 -171 -143 -224 -176 -54 -34 -96 -64
-107 -78 -7 -8 -21 -13 -32 -10 -13 3 -21 0 -21 -8 -1 -8 -5 6 -9 31 -16 89
-59 307 -76 377 -9 39 -14 78 -11 86 6 17 54 26 120 22 27 -2 47 1 47 7 0 15
123 1 211 -23z m-457 -69 c43 -224 119 -556 129 -562 6 -4 37 -12 67 -18 30
-6 100 -24 155 -40 215 -63 412 -118 442 -125 18 -3 35 -11 39 -16 10 -16 -41
-112 -94 -176 -54 -64 -178 -154 -267 -194 -138 -60 -352 -91 -496 -70 -206
29 -389 139 -493 295 -112 170 -116 422 -9 616 43 78 165 201 246 249 68 40
212 91 247 88 21 -2 26 -9 34 -47z m796 -166 c38 -32 71 -95 101 -194 28 -91
30 -191 5 -274 l-17 -58 -37 7 c-20 4 -95 26 -167 49 -71 24 -201 61 -287 82
-87 21 -158 41 -158 44 0 3 45 37 101 75 55 39 128 90 161 115 34 25 102 75
152 112 50 37 96 67 103 68 6 0 26 -12 43 -26z"/>
<path d="M4693 9173 c-22 -15 -33 -63 -15 -63 17 0 44 39 40 58 -3 18 -5 19
-25 5z"/>
<path d="M3910 8710 c-23 -16 17 -43 50 -35 33 9 35 12 20 30 -14 17 -48 19
-70 5z"/>
<path d="M4271 8531 c-7 -5 -9 -11 -5 -14 5 -3 15 1 22 9 14 16 5 18 -17 5z"/>
<path d="M4864 8408 c3 -13 6 -26 6 -30 0 -12 38 -9 46 3 4 7 -4 20 -17 30
-32 25 -43 24 -35 -3z"/>
<path d="M4416 8271 c-24 -26 -13 -61 18 -61 30 0 48 22 44 52 -4 30 -39 35
-62 9z"/>
<path d="M5417 9352 c-23 -25 -21 -39 4 -47 31 -10 55 16 40 44 -14 26 -23 26
-44 3z"/>
<path d="M5796 9303 c-3 -4 -6 -15 -6 -25 0 -20 29 -25 31 -5 1 6 5 -1 9 -18
l8 -30 1 30 c0 17 -3 35 -7 40 -9 12 -27 16 -36 8z"/>
<path d="M3580 9291 c0 -6 4 -13 10 -16 6 -3 7 1 4 9 -7 18 -14 21 -14 7z"/>
<path d="M7851 9284 c0 -11 3 -14 6 -6 3 7 2 16 -1 19 -3 4 -6 -2 -5 -13z"/>
<path d="M7862 9219 c-2 -28 -6 -36 -19 -35 -23 1 -29 -30 -7 -38 27 -10 36 7
31 60 -3 39 -4 42 -5 13z"/>
<path d="M8408 9222 c20 -22 25 -21 16 2 -3 9 -12 16 -20 16 -11 0 -10 -4 4
-18z"/>
<path d="M5823 9170 c0 -25 2 -35 4 -22 2 12 2 32 0 45 -2 12 -4 2 -4 -23z"/>
<path d="M5760 9100 c-14 -56 -7 -100 15 -100 30 0 55 98 33 128 -23 30 -36
23 -48 -28z"/>
<path d="M6090 9136 c0 -2 7 -9 15 -16 9 -7 15 -8 15 -2 0 5 -7 12 -15 16 -8
3 -15 4 -15 2z"/>
<path d="M6200 9100 c0 -13 7 -20 18 -20 11 0 18 7 18 20 0 13 -7 20 -18 20
-11 0 -18 -7 -18 -20z"/>
<path d="M2989 9064 c-16 -20 -1 -48 29 -52 16 -2 23 3 28 22 3 14 3 30 -1 35
-9 16 -41 13 -56 -5z"/>
<path d="M7543 9041 c3 -17 0 -32 -6 -35 -7 -2 -3 -5 9 -5 29 -1 34 7 22 40
-13 38 -31 38 -25 0z"/>
<path d="M7965 9029 c-158 -18 -287 -85 -378 -194 -60 -72 -93 -139 -112 -232
-27 -128 -14 -236 47 -383 17 -41 31 -93 31 -115 1 -58 -10 -144 -21 -158 -20
-26 -74 -218 -67 -240 2 -6 6 -24 9 -39 4 -15 19 -42 35 -60 15 -18 32 -44 36
-58 22 -72 92 -119 178 -120 36 0 74 11 144 42 101 44 146 84 157 140 3 17 19
46 36 65 16 18 30 44 30 57 0 23 67 133 93 153 6 6 55 29 107 52 184 80 301
198 361 367 32 87 31 246 -1 329 -34 90 -79 153 -158 226 -140 129 -333 191
-527 168z m182 -98 c55 -12 117 -33 155 -53 92 -48 191 -146 230 -226 32 -64
33 -72 32 -182 0 -139 -18 -193 -93 -286 -60 -74 -131 -123 -241 -166 -70 -27
-90 -41 -140 -95 l-57 -63 -69 21 c-38 12 -72 23 -76 25 -6 4 1 38 17 75 5 13
1 15 -19 12 -16 -3 -26 -1 -26 6 0 6 -7 11 -16 11 -8 0 -12 5 -9 10 3 6 1 10
-4 10 -11 0 -16 -19 -13 -53 1 -10 -2 -16 -7 -13 -5 3 -11 -1 -15 -9 -3 -8
-14 -15 -24 -15 -20 0 -121 48 -123 58 -1 4 -3 45 -4 92 -2 72 -8 99 -40 180
-32 80 -39 110 -43 191 -11 243 108 411 337 475 66 18 143 16 248 -5z m-339
-1096 c73 -24 83 -30 80 -48 -2 -14 -11 -23 -25 -25 -57 -8 -244 63 -264 101
-8 14 -6 23 6 37 17 18 19 18 69 -10 28 -16 88 -41 134 -55z m-180 -58 c38
-24 244 -97 273 -97 41 0 50 -63 12 -86 -24 -15 -131 -2 -212 26 -125 42 -174
98 -137 155 20 30 18 30 64 2z m50 -227 c15 0 21 -4 16 -12 -4 -7 -3 -8 4 -4
7 4 20 2 29 -3 15 -8 11 -10 -20 -11 -23 0 -36 4 -32 10 3 5 0 7 -9 4 -9 -3
-19 3 -26 18 -10 19 -10 21 1 11 7 -7 24 -13 37 -13z"/>
<path d="M7875 8568 c-40 -31 -54 -73 -45 -133 4 -27 5 -55 3 -62 -6 -15 23
-64 44 -76 7 -4 13 -14 13 -20 0 -9 13 -11 41 -9 l42 4 -7 -33 c-25 -120 -17
-129 33 -35 33 62 35 64 93 80 149 41 239 153 181 225 -16 19 -29 22 -112 24
-87 2 -96 4 -124 30 -39 36 -119 39 -162 5z m93 -47 c9 -5 25 -12 35 -15 11
-3 17 -15 17 -34 0 -26 15 -52 31 -52 3 0 19 18 33 41 26 39 28 40 46 24 10
-9 33 -17 52 -18 64 -4 45 -55 -38 -103 -29 -17 -63 -26 -113 -30 -95 -7 -112
4 -129 83 -15 75 -15 78 4 97 18 18 37 20 62 7z"/>
<path d="M5725 8943 c-14 -21 -25 -43 -25 -49 0 -21 41 -64 62 -64 17 0 18 2
8 15 -10 13 -9 15 11 16 l24 1 -24 7 c-50 14 -54 65 -6 77 34 8 55 -11 55 -52
0 -28 3 -32 18 -27 18 7 32 22 32 36 0 5 -5 5 -12 1 -7 -4 -8 -3 -4 4 7 12
-10 52 -28 64 -6 4 -28 8 -48 8 -32 0 -41 -5 -63 -37z"/>
<path d="M7211 8822 c-14 -27 12 -54 68 -70 104 -32 139 11 47 56 -68 34 -102
38 -115 14z"/>
<path d="M2665 8790 c-44 -10 -97 -25 -117 -34 -31 -13 -49 -14 -108 -6 -118
17 -235 -15 -382 -102 -49 -29 -80 -41 -103 -40 -52 4 -174 -26 -228 -56 -124
-67 -200 -174 -213 -300 -6 -52 -14 -71 -56 -128 -64 -88 -92 -180 -86 -274
14 -189 148 -281 362 -250 64 10 89 10 99 2 8 -7 54 -27 103 -46 49 -19 114
-44 144 -56 67 -28 163 -29 268 -5 48 11 77 13 85 7 7 -5 45 -21 85 -36 85
-30 177 -34 282 -12 39 8 93 12 130 9 164 -13 328 77 365 200 8 28 15 63 15
77 0 20 10 34 40 55 83 57 153 172 165 270 8 64 -7 152 -40 223 -28 62 -132
170 -184 191 -25 11 -39 29 -66 86 -55 114 -156 198 -280 231 -66 18 -181 15
-280 -6z m310 -89 c56 -25 103 -66 146 -128 42 -60 39 -69 -24 -65 -44 3 -117
-9 -202 -33 -18 -5 -24 3 -44 60 -17 46 -39 83 -74 121 -41 45 -48 58 -36 65
25 18 180 4 234 -20z m-555 -29 c0 -4 -17 -25 -38 -45 -32 -31 -49 -39 -101
-48 -62 -10 -141 1 -141 20 0 20 98 62 170 74 46 8 110 7 110 -1z m168 -38
c52 -26 112 -84 112 -108 0 -11 -21 -7 -86 15 -47 16 -108 31 -135 35 -27 4
-49 8 -49 10 0 11 77 73 91 74 8 0 38 -12 67 -26z m-508 -104 c18 -11 17 -11
-47 -44 -59 -29 -69 -19 -26 26 28 29 48 34 73 18z m-180 -16 c0 -3 -17 -27
-38 -53 -21 -25 -47 -58 -58 -74 -15 -22 -192 -122 -201 -113 -1 1 3 20 9 42
16 53 127 163 188 186 45 17 100 23 100 12z m620 -15 c63 -6 102 -17 148 -41
34 -17 59 -35 55 -39 -4 -4 -39 -9 -78 -12 -38 -3 -77 -7 -86 -9 -9 -2 -36 15
-60 37 -24 22 -57 45 -73 50 -37 13 -51 42 -15 31 13 -4 62 -11 109 -17z
m-277 -15 c3 -3 -8 -33 -24 -67 -16 -34 -32 -79 -35 -100 -4 -20 -11 -40 -15
-43 -13 -7 -11 -107 2 -159 6 -24 27 -62 47 -85 l35 -42 -44 -38 c-50 -45 -75
-49 -113 -19 -28 22 -33 50 -16 93 6 18 6 26 -1 26 -6 0 -7 5 -4 10 14 22 -16
8 -31 -15 -22 -34 -30 -32 -45 12 -8 25 -10 73 -6 149 5 87 3 115 -8 130 -13
18 -15 18 -31 2 -12 -12 -18 -38 -20 -93 -3 -70 -6 -79 -38 -117 -32 -37 -56
-104 -56 -158 0 -23 0 -23 -36 -10 l-27 11 5 87 c6 90 33 187 66 232 11 14 39
35 63 48 24 13 53 32 64 42 35 31 199 109 231 110 17 0 33 -3 37 -6z m132 -50
c14 -9 25 -22 25 -29 0 -23 -39 -62 -67 -68 -15 -3 -36 -9 -45 -12 -24 -9 -24
24 -2 68 32 63 46 69 89 41z m799 -94 c0 -62 -5 -97 -20 -129 l-19 -43 -46 59
c-39 51 -138 130 -181 146 -19 7 2 26 48 42 25 9 72 14 129 12 l90 -2 -1 -85z
m162 4 c61 -60 86 -120 92 -217 4 -71 2 -82 -27 -142 -42 -85 -121 -148 -215
-169 -28 -7 -29 -7 -21 26 5 18 9 80 10 138 2 101 4 107 38 164 39 63 61 146
55 207 -5 52 11 51 68 -7z m-857 7 c13 -23 6 -30 -20 -24 -22 6 -26 43 -4 43
8 0 19 -8 24 -19z m121 -11 c0 -5 -7 -10 -16 -10 -8 0 -12 5 -9 10 3 6 10 10
16 10 5 0 9 -4 9 -10z m182 -60 c11 -73 9 -155 -4 -168 -21 -21 -44 -13 -69
26 -17 26 -32 37 -49 38 -59 1 -66 36 -18 85 44 43 89 70 113 67 15 -2 22 -13
27 -48z m133 -6 c83 -55 156 -144 154 -186 -1 -22 -231 -189 -243 -177 -3 2 7
49 20 104 19 80 23 115 18 175 -3 41 -8 83 -10 93 -7 25 15 21 61 -9z m-546
-3 c12 -8 8 -27 -24 -110 -20 -56 -41 -101 -45 -101 -19 0 -50 88 -50 142 0
52 2 57 28 66 35 13 73 14 91 3z m116 -21 c-3 -5 -11 -10 -16 -10 -6 0 -7 5
-4 10 3 6 11 10 16 10 6 0 7 -4 4 -10z m-759 -17 c-15 -52 -25 -104 -32 -156
l-6 -58 -30 28 c-16 15 -38 44 -48 63 -24 46 -11 71 56 111 57 33 67 35 60 12z
m779 -103 c-7 -30 -13 -68 -13 -84 0 -21 -8 -37 -28 -53 -16 -13 -35 -28 -42
-34 -19 -16 -44 19 -36 50 9 39 119 189 130 178 2 -2 -3 -27 -11 -57z m137
-15 c13 -30 4 -43 -32 -47 -20 -2 -26 2 -28 20 -2 14 4 29 15 37 25 20 32 18
45 -10z m-1097 -72 c11 -20 49 -58 87 -85 57 -42 67 -54 73 -88 4 -21 22 -71
41 -111 19 -39 32 -75 28 -78 -3 -3 -45 -6 -92 -6 -109 0 -154 20 -197 89 -45
74 -47 150 -5 244 18 39 36 72 39 72 4 0 15 -17 26 -37z m455 -120 c0 -2 -17
-3 -37 -1 -38 3 -38 3 -41 51 -2 27 2 55 9 63 9 11 17 3 40 -47 16 -33 29 -63
29 -66z m755 50 c-9 -50 -39 -105 -65 -121 -18 -11 -35 -10 -98 2 -42 8 -93
17 -112 18 -34 3 -33 4 42 41 42 20 79 37 83 37 4 0 20 9 35 20 23 17 76 35
114 39 4 1 5 -16 1 -36z m341 -50 c-11 -105 -11 -106 -60 -100 -22 3 -58 12
-80 22 l-39 16 45 32 c25 18 65 47 88 65 24 17 45 32 48 32 2 0 1 -30 -2 -67z
m-1267 -47 c14 -8 30 -33 42 -67 18 -51 18 -55 2 -66 -27 -20 -37 -16 -54 25
-20 45 -34 122 -22 122 4 -1 19 -7 32 -14z m189 -41 c7 -7 -28 -45 -43 -45
-10 0 -35 40 -35 57 0 7 70 -4 78 -12z m231 -18 c17 -9 34 -39 62 -109 20 -54
36 -98 34 -98 -10 0 -85 36 -107 51 -17 13 -52 21 -103 26 -51 4 -84 12 -98
24 -22 18 -22 18 -2 32 11 8 40 31 65 51 49 39 102 47 149 23z m211 -22 c30
-8 70 -15 90 -16 72 -1 75 -10 23 -61 -51 -49 -138 -108 -160 -108 -9 0 -13
16 -12 53 1 36 -5 66 -20 95 -27 53 -27 66 2 58 12 -4 47 -13 77 -21z m513
-21 c34 -9 65 -18 70 -21 13 -8 -35 -82 -80 -124 -23 -21 -67 -51 -96 -65
l-53 -26 -80 40 c-109 55 -114 62 -75 109 17 21 39 49 50 63 16 20 31 26 83
31 106 10 118 10 181 -7z m252 -61 c-7 -40 -13 -50 -54 -97 -32 -35 -115 -76
-158 -76 l-32 0 53 53 c28 28 62 73 74 99 20 44 24 47 64 51 24 2 47 4 52 5 4
1 5 -15 1 -35z m-1266 -54 c13 -17 20 -33 17 -36 -7 -7 -96 28 -96 38 0 9 30
28 46 29 5 0 20 -14 33 -31z m248 -70 c85 -25 86 -44 3 -36 -49 4 -140 38
-140 52 0 12 71 3 137 -16z m369 1 c5 -5 34 -23 64 -39 l55 -31 -51 0 c-49 0
-144 25 -144 38 0 7 48 39 61 41 3 1 9 -3 15 -9z"/>
<path d="M6380 8555 c0 -8 2 -15 4 -15 2 0 6 7 10 15 3 8 1 15 -4 15 -6 0 -10
-7 -10 -15z"/>
<path d="M7300 8490 c13 -23 20 -26 20 -6 0 8 -7 16 -15 20 -13 4 -14 2 -5
-14z"/>
<path d="M7161 8491 c-8 -5 -11 -16 -8 -25 5 -13 20 -16 69 -14 35 0 49 3 30
5 -18 3 -38 13 -45 24 -13 21 -25 23 -46 10z"/>
<path d="M5400 8313 c-37 -7 -61 -33 -58 -62 3 -25 6 -26 68 -28 306 -11 510
-44 561 -92 l28 -26 -43 -171 c-25 -94 -58 -215 -75 -269 -18 -53 -33 -116
-34 -139 -1 -22 -5 -43 -9 -46 -4 -3 -9 -21 -11 -40 -5 -41 -85 -301 -97 -313
-4 -5 -31 3 -60 18 -119 60 -175 68 -530 72 -179 2 -330 6 -337 8 -10 3 -9 14
3 47 20 57 113 361 159 523 21 72 40 136 42 143 8 19 -19 14 -43 -9 -13 -12
-46 -29 -75 -38 l-51 -17 -34 -115 c-18 -63 -50 -172 -70 -244 -20 -71 -56
-199 -81 -284 -47 -163 -48 -191 -10 -216 22 -14 276 -36 747 -65 163 -10 165
-10 190 -38 40 -45 55 -53 122 -63 82 -11 154 3 208 42 l41 30 202 -11 c111
-6 285 -17 387 -26 379 -30 342 -31 378 2 36 35 41 51 147 564 41 195 81 388
89 428 9 40 16 86 16 101 0 44 -33 78 -84 85 -40 6 -46 11 -60 47 -18 45 -28
50 -148 79 -170 40 -322 60 -478 65 -159 4 -239 -4 -322 -31 -47 -15 -48 -15
-110 15 -35 17 -96 38 -137 46 -125 26 -358 41 -431 28z m1045 -163 c159 -9
471 -53 487 -69 8 -7 -23 -133 -85 -346 -42 -145 -62 -227 -88 -360 -29 -143
-57 -233 -77 -243 -10 -6 -85 -1 -187 10 -107 13 -245 20 -375 21 -189 1 -210
-1 -265 -21 -32 -12 -61 -22 -62 -22 -6 0 31 144 158 620 43 162 83 314 89
337 10 40 14 43 63 57 104 29 107 29 342 16z m570 -171 c31 -19 36 -25 30 -48
-4 -14 -31 -136 -60 -271 -30 -135 -70 -315 -90 -400 -20 -85 -42 -182 -48
-215 l-13 -60 -50 0 c-27 1 -143 9 -259 18 -383 32 -449 37 -545 37 -83 0 -97
3 -107 19 -11 17 -8 21 28 35 48 20 178 35 256 30 102 -6 296 -25 353 -34 30
-5 94 -12 142 -15 76 -4 88 -3 96 13 11 20 65 238 82 327 22 116 81 370 95
410 7 22 21 70 31 108 9 37 18 67 20 67 2 0 19 -10 39 -21z m-1611 -819 c92
-13 202 -44 231 -66 20 -15 20 -15 1 -30 -11 -8 -27 -12 -35 -10 -25 8 -380
34 -536 41 -336 13 -353 17 -307 58 14 13 45 17 147 19 202 5 410 0 499 -12z"/>
<path d="M7313 8248 c-36 -22 -41 -39 -18 -58 12 -10 21 -8 49 9 36 22 46 38
39 59 -6 17 -33 14 -70 -10z"/>
<path d="M3720 7810 c0 -5 9 -10 20 -10 11 0 20 5 20 10 0 6 -9 10 -20 10 -11
0 -20 -4 -20 -10z"/>
<path d="M8336 7484 c-4 -9 -1 -23 6 -31 10 -12 13 -12 20 1 9 15 1 46 -12 46
-4 0 -11 -7 -14 -16z"/>
<path d="M3830 7467 c-19 -26 -45 -105 -38 -112 11 -12 34 9 66 57 25 39 30
54 21 64 -16 20 -32 17 -49 -9z"/>
<path d="M1440 7456 c0 -2 7 -7 16 -10 8 -3 12 -2 9 4 -6 10 -25 14 -25 6z"/>
<path d="M3956 7425 c10 -15 26 -25 40 -25 22 0 23 2 12 25 -8 18 -19 25 -40
25 -28 0 -28 0 -12 -25z"/>
<path d="M8371 7434 c0 -11 3 -14 6 -6 3 7 2 16 -1 19 -3 4 -6 -2 -5 -13z"/>
<path d="M1330 7356 c0 -3 9 -10 20 -16 11 -6 20 -8 20 -6 0 3 -9 10 -20 16
-11 6 -20 8 -20 6z"/>
<path d="M3720 7350 c-11 -7 -11 -10 -2 -10 10 0 10 -3 0 -14 -7 -8 -17 -12
-22 -9 -9 6 -1 -23 19 -72 14 -34 30 -50 62 -57 16 -4 23 0 27 17 5 19 15 24
58 30 29 4 77 17 106 30 52 24 73 43 28 25 -15 -5 -37 -5 -57 0 -18 5 -42 7
-55 4 -12 -3 -36 1 -52 10 -29 15 -31 15 -37 -4 -4 -11 -10 -20 -15 -20 -12 0
-41 60 -34 71 7 12 -7 11 -26 -1z"/>
<path d="M3482 7320 c0 -14 2 -19 5 -12 2 6 2 18 0 25 -3 6 -5 1 -5 -13z"/>
<path d="M2140 7251 c-74 -16 -220 -52 -325 -80 -104 -28 -266 -67 -359 -86
-92 -19 -172 -38 -177 -41 -16 -9 -10 -54 8 -61 34 -13 207 18 479 88 443 113
515 129 576 129 51 0 59 -3 76 -27 17 -25 178 -424 281 -693 169 -447 336
-775 480 -945 28 -32 48 -62 43 -66 -4 -3 -70 -21 -147 -39 -192 -44 -973
-295 -1170 -375 l-90 -37 -34 18 c-55 30 -168 151 -236 254 -217 327 -377 701
-485 1130 -43 170 -112 466 -114 490 -1 12 17 16 86 21 93 6 121 19 116 53 -3
20 -9 21 -130 21 -117 0 -129 -2 -149 -21 -20 -20 -21 -27 -12 -100 9 -75 101
-444 164 -661 102 -351 244 -676 436 -995 171 -285 231 -358 294 -358 66 0
509 143 944 305 99 36 275 98 390 136 225 75 255 93 255 150 0 21 -12 43 -43
77 -72 79 -112 132 -177 241 -67 112 -150 276 -150 298 0 8 12 13 30 13 16 0
52 5 80 11 37 8 50 15 46 25 -3 8 -2 14 3 14 12 0 9 30 -3 31 -6 1 -33 2 -61
4 -27 1 -73 5 -101 10 -60 9 -59 7 -131 200 -58 154 -83 236 -77 247 3 4 -1 5
-9 2 -8 -3 -17 2 -20 13 -5 17 -87 218 -191 468 -30 71 -56 120 -76 138 -28
25 -37 27 -108 26 -44 0 -135 -12 -212 -28z m830 -1105 c0 -8 3 -23 6 -33 5
-12 4 -15 -3 -8 -16 15 -26 55 -14 55 6 0 11 -6 11 -14z"/>
<path d="M8895 7240 c3 -5 19 -10 36 -10 16 0 29 5 29 10 0 6 -16 10 -36 10
-21 0 -33 -4 -29 -10z"/>
<path d="M2886 7119 c5 -30 2 -39 -17 -53 -13 -9 -19 -16 -13 -16 6 0 19 9 29
20 15 17 16 25 7 52 l-11 33 5 -36z"/>
<path d="M3981 7126 c-8 -9 -10 -28 -6 -49 6 -32 5 -35 -26 -46 -17 -6 -52
-11 -75 -11 -24 0 -43 -3 -42 -7 0 -5 -2 -16 -7 -27 -5 -12 -3 -21 5 -26 9 -6
0 -10 -26 -13 -35 -3 -34 -4 12 -5 28 -1 76 3 105 9 30 6 61 11 69 12 9 1 26
-19 42 -50 40 -79 61 -105 80 -98 9 4 14 13 11 21 -8 22 24 17 48 -7 25 -25
21 -79 -7 -110 -10 -11 -12 -19 -6 -19 19 0 64 76 67 112 6 83 -26 118 -95
104 -27 -5 -31 -2 -45 30 -20 48 -20 47 18 64 27 12 29 15 12 18 -24 5 -56 32
-50 42 3 4 -3 7 -12 6 -10 -1 -19 10 -25 32 -9 34 -28 41 -47 18z"/>
<path d="M3805 7090 c-4 -6 -11 -8 -16 -4 -6 3 -13 -3 -16 -15 -3 -12 -9 -21
-14 -21 -5 0 -9 -4 -9 -8 0 -5 7 -9 14 -9 8 0 15 3 14 6 0 3 1 15 2 26 2 18 3
18 9 -3 6 -23 6 -23 18 7 11 31 10 41 -2 21z"/>
<path d="M7384 6950 c-41 -16 -60 -58 -98 -211 -21 -85 -63 -239 -94 -344 -30
-104 -70 -246 -88 -315 -18 -69 -55 -212 -83 -317 -28 -106 -51 -208 -51 -227
0 -39 20 -60 49 -51 22 7 26 18 86 250 59 228 84 321 132 495 25 91 62 226 82
300 35 130 37 135 61 132 53 -7 430 -85 520 -107 52 -13 208 -49 345 -79 138
-30 396 -91 575 -134 179 -43 343 -83 365 -88 25 -6 40 -15 39 -24 -1 -14
-107 -427 -219 -850 -30 -113 -86 -331 -125 -485 -38 -154 -74 -290 -79 -301
-9 -21 -12 -21 -73 -9 -299 60 -695 146 -898 195 -135 32 -359 82 -498 111
-272 55 -287 55 -280 0 3 -22 12 -28 78 -48 106 -33 305 -84 515 -133 99 -23
272 -63 385 -90 251 -60 743 -160 785 -160 48 0 92 33 104 77 9 38 84 318 168
633 180 675 312 1211 313 1263 0 66 -31 95 -151 140 -115 42 -567 148 -1054
247 -159 33 -346 71 -415 85 -122 26 -315 55 -355 54 -11 0 -30 -4 -41 -9z
m241 -110 c72 -11 148 -25 170 -31 22 -6 103 -23 180 -39 342 -69 569 -123
591 -141 6 -5 14 -6 18 -2 4 4 4 0 1 -9 -8 -20 51 -44 70 -28 22 18 148 3 290
-35 77 -21 177 -48 223 -60 46 -12 88 -27 94 -33 15 -15 -19 -142 -38 -142 -7
0 -154 36 -326 79 -172 44 -392 96 -488 117 -193 41 -250 53 -515 114 -99 23
-216 48 -260 55 -187 33 -245 48 -245 64 0 33 22 97 38 109 9 7 28 10 42 7 14
-3 84 -14 155 -25z"/>
<path d="M9197 6933 c-16 -15 -5 -23 28 -21 37 2 45 12 19 22 -20 8 -39 8 -47
-1z"/>
<path d="M3075 6860 c-22 -4 -37 -8 -33 -9 4 0 3 -12 -2 -25 -8 -21 -6 -26 13
-32 21 -7 20 -8 -8 -15 -29 -6 -28 -7 10 -8 35 -2 44 -7 69 -43 27 -39 29 -41
42 -23 22 29 17 71 -12 102 -24 26 -24 28 -8 40 10 7 13 13 7 13 -6 0 -17 2
-25 4 -7 1 -31 0 -53 -4z"/>
<path d="M3850 6840 c-6 -11 -7 -32 -4 -47 l7 -27 9 24 c5 12 6 32 2 43 -4 14
-3 17 6 12 9 -5 11 -4 6 3 -10 16 -14 15 -26 -8z"/>
<path d="M1285 6784 c-46 -24 -63 -43 -81 -90 -22 -58 -12 -108 30 -150 79
-79 216 -61 267 36 37 68 15 164 -45 201 -39 24 -129 25 -171 3z m145 -54 c30
-30 28 -119 -3 -148 -34 -32 -77 -42 -114 -27 -84 36 -84 144 1 181 46 20 93
17 116 -6z"/>
<path d="M4015 6730 c-4 -6 3 -10 14 -10 25 0 27 6 6 13 -8 4 -17 2 -20 -3z"/>
<path d="M3965 6700 c3 -5 13 -10 21 -10 8 0 14 5 14 10 0 6 -9 10 -21 10 -11
0 -17 -4 -14 -10z"/>
<path d="M4100 6690 c-13 -9 -13 -10 0 -10 8 0 22 5 30 10 13 9 13 10 0 10 -8
0 -22 -5 -30 -10z"/>
<path d="M5312 6688 c-16 -16 -15 -53 1 -67 11 -8 18 -6 32 9 15 17 16 24 7
45 -13 28 -22 31 -40 13z"/>
<path d="M2771 6667 c-13 -21 -12 -21 5 -5 10 10 16 20 13 22 -3 3 -11 -5 -18
-17z"/>
<path d="M5930 6626 c5 -13 6 -27 2 -31 -4 -4 3 -2 16 4 18 10 20 15 12 31
-16 30 -42 26 -30 -4z"/>
<path d="M4178 6616 c-64 -42 -37 -77 42 -56 44 12 59 32 41 54 -20 24 -50 25
-83 2z"/>
<path d="M3206 6546 c4 -10 1 -16 -7 -17 -21 -1 43 -28 67 -29 26 0 38 24 19
40 -7 6 -29 14 -49 17 -31 5 -35 3 -30 -11z"/>
<path d="M4216 6508 c-29 -42 24 -67 59 -28 15 16 15 22 5 35 -18 22 -46 19
-64 -7z"/>
<path d="M693 6470 c0 -25 2 -35 4 -22 2 12 2 32 0 45 -2 12 -4 2 -4 -23z"/>
<path d="M6340 6489 c-68 -11 -127 -38 -155 -71 -37 -44 -32 -61 24 -87 43
-21 52 -22 83 -11 45 17 103 6 134 -26 23 -22 24 -25 10 -53 -15 -28 -36 -39
-197 -101 -31 -12 -69 -35 -85 -51 -27 -28 -29 -37 -31 -114 l-2 -85 -40 -38
c-59 -56 -55 -114 11 -148 82 -42 188 30 188 127 0 38 40 127 68 152 11 10 65
35 120 56 165 63 204 96 222 189 13 69 -2 115 -57 173 -68 72 -181 107 -293
88z"/>
<path d="M3700 6466 c0 -27 14 -40 34 -33 21 8 8 57 -15 57 -13 0 -19 -7 -19
-24z"/>
<path d="M4975 6408 c-48 -14 -107 -21 -188 -24 -180 -5 -274 -36 -367 -120
-105 -95 -101 -251 7 -323 25 -17 67 -37 93 -46 35 -12 55 -26 73 -53 29 -45
87 -86 143 -102 36 -11 40 -15 36 -39 -3 -21 4 -34 31 -58 29 -25 48 -33 100
-38 146 -16 237 28 237 115 0 33 4 36 57 59 64 28 119 78 139 127 8 19 22 34
31 34 29 0 161 69 182 96 11 14 27 45 37 70 36 95 -18 201 -133 261 -122 64
-336 83 -478 41z m395 -93 c99 -40 146 -97 137 -168 -3 -21 -16 -50 -29 -64
-22 -24 -88 -63 -106 -63 -6 0 -13 20 -17 45 -12 86 -95 145 -200 145 -34 0
-43 5 -58 29 -9 16 -31 41 -47 55 -17 13 -30 27 -30 30 0 11 51 14 175 12 98
-2 141 -7 175 -21z m-627 -11 c3 -3 -5 -23 -18 -43 -14 -20 -27 -51 -31 -68
-4 -22 -19 -40 -45 -59 -46 -32 -75 -75 -84 -126 -8 -44 -22 -47 -71 -17 -61
37 -82 102 -55 164 31 70 120 126 228 145 66 11 69 11 76 4z m192 -23 c72 -33
117 -91 70 -91 -7 0 -27 -17 -45 -37 -23 -25 -36 -34 -45 -27 -50 37 -69 46
-105 51 -22 3 -40 8 -40 12 0 13 40 65 67 87 34 28 47 29 98 5z m283 -155 c51
-28 82 -116 46 -130 -26 -10 -149 -7 -183 5 l-33 11 36 30 c23 19 38 41 42 63
6 31 10 35 38 35 17 -1 41 -6 54 -14z m-172 -23 c-10 -10 -19 5 -10 18 6 11 8
11 12 0 2 -7 1 -15 -2 -18z m-215 -4 c24 -12 16 -29 -15 -29 -22 0 -46 17 -46
32 0 11 38 10 61 -3z m-114 -59 c23 -28 29 -30 93 -30 123 0 91 -31 -54 -51
-100 -14 -116 -10 -116 29 0 25 32 82 46 82 3 0 17 -13 31 -30z m314 -106 c27
-10 79 -17 132 -17 48 -1 87 -5 87 -8 0 -15 -77 -70 -113 -81 -29 -9 -46 -9
-71 0 -49 18 -118 14 -191 -9 -56 -19 -71 -20 -105 -10 -21 6 -54 24 -71 39
l-32 27 101 12 c68 8 120 20 154 36 65 31 57 30 109 11z m34 -214 c0 -41 -128
-65 -186 -34 -42 21 -32 38 27 45 87 11 159 6 159 -11z"/>
<path d="M1435 6376 c-22 -9 -57 -33 -77 -55 -32 -34 -38 -47 -38 -83 0 -87
62 -142 160 -142 144 -1 220 150 126 251 -25 27 -40 35 -81 38 -31 3 -65 0
-90 -9z m122 -28 c-1 -7 5 -32 12 -55 20 -60 8 -109 -32 -133 -38 -24 -68 -25
-106 -6 -75 39 -76 123 -2 164 21 12 52 22 69 22 17 0 34 5 37 10 9 14 23 12
22 -2z"/>
<path d="M3686 6369 c-21 -17 -36 -49 -22 -49 2 0 19 -6 37 -14 l34 -14 1 35
c0 19 6 38 13 42 10 6 9 10 -4 15 -25 9 -30 8 -59 -15z"/>
<path d="M3251 6234 c0 -11 3 -14 6 -6 3 7 2 16 -1 19 -3 4 -6 -2 -5 -13z"/>
<path d="M1713 5992 c-21 -13 -18 -46 8 -94 5 -10 9 -38 9 -62 0 -37 -5 -48
-32 -71 -78 -66 -205 15 -168 106 16 38 64 69 107 69 29 0 53 20 53 44 0 14
-70 4 -115 -18 -68 -31 -105 -76 -105 -127 0 -131 157 -198 273 -117 52 37 73
114 48 180 -14 37 -66 97 -78 90z"/>
<path d="M3675 5891 c-27 -5 -70 -16 -95 -25 -66 -25 -170 -97 -176 -122 -3
-13 5 -42 20 -72 14 -28 26 -62 26 -76 0 -13 8 -34 19 -47 16 -19 30 -24 89
-27 68 -4 72 -6 120 -52 104 -100 283 -99 337 2 18 34 18 38 3 70 -16 33 -15
34 23 104 51 94 62 175 29 217 -21 26 -25 27 -103 26 -45 -1 -118 1 -162 4
-44 3 -102 2 -130 -2z m211 -60 c44 -5 90 -8 104 -7 23 1 24 -2 21 -39 -1 -22
-11 -58 -21 -81 -17 -39 -20 -41 -71 -48 -66 -9 -122 -22 -217 -49 -63 -18
-75 -19 -83 -6 -7 11 -9 11 -9 -3 0 -12 -8 -18 -23 -18 -36 0 -63 26 -77 74
-7 25 -19 51 -26 57 -8 6 -14 15 -14 19 0 5 43 31 96 59 105 55 106 55 167 5
28 -24 67 -32 67 -15 0 4 -9 20 -20 33 -21 27 -17 41 11 33 9 -3 52 -9 95 -14z
m52 -252 c-2 -16 -11 -22 -34 -24 -17 -1 -58 -15 -91 -30 -60 -26 -62 -26 -88
-9 l-28 18 44 19 c24 10 68 23 98 27 29 5 56 12 59 15 3 3 14 5 24 5 14 0 19
-6 16 -21z m1 -105 c-19 -19 -106 -33 -95 -16 7 12 58 30 91 31 18 1 18 0 4
-15z"/>
<path d="M5610 5750 c-24 -24 -17 -48 18 -57 33 -8 80 40 61 63 -17 20 -56 17
-79 -6z"/>
<path d="M6598 5653 c7 -3 16 -2 19 1 4 3 -2 6 -13 5 -11 0 -14 -3 -6 -6z"/>
<path d="M4342 5628 c-26 -26 -11 -76 26 -83 26 -5 45 24 40 63 -2 20 -9 28
-28 30 -14 2 -31 -3 -38 -10z"/>
<path d="M5993 5610 c-62 -37 -86 -127 -43 -162 44 -35 154 -16 180 31 20 39
12 91 -19 122 -35 34 -72 37 -118 9z"/>
<path d="M1760 5556 c-118 -60 -121 -200 -5 -255 57 -27 100 -27 155 2 81 40
111 118 73 190 -25 49 -55 87 -69 87 -24 0 -26 -39 -5 -74 30 -47 28 -110 -4
-141 -37 -38 -103 -35 -150 6 -21 18 -35 40 -35 54 0 35 37 74 98 103 31 15
58 33 60 40 6 21 -69 14 -118 -12z"/>
<path d="M4874 5535 c-9 -21 3 -33 44 -45 53 -14 77 -13 103 9 20 16 21 21 10
35 -18 22 -149 23 -157 1z"/>
<path d="M6503 5523 c9 -2 23 -2 30 0 6 3 -1 5 -18 5 -16 0 -22 -2 -12 -5z"/>
<path d="M4929 5421 c-40 -33 -2 -71 56 -57 32 8 38 33 15 56 -25 25 -42 25
-71 1z"/>
<path d="M767 5369 c-48 -25 -119 -140 -177 -289 -41 -103 -63 -287 -40 -330
12 -22 157 -128 218 -159 69 -35 220 -81 266 -81 35 0 55 10 131 65 115 83
175 134 175 147 0 6 23 59 51 118 48 101 50 109 40 147 -11 41 -154 267 -199
316 -35 37 -99 54 -267 72 -169 18 -152 18 -198 -6z m232 -80 c129 -14 153
-25 195 -84 93 -131 146 -211 146 -222 0 -11 -53 -27 -75 -23 -25 5 -35 -2
-35 -25 0 -31 20 -40 60 -27 36 13 39 2 11 -43 -10 -17 -23 -46 -30 -66 -6
-19 -27 -50 -46 -69 -31 -30 -35 -31 -50 -16 -9 9 -25 16 -36 16 -10 0 -19 5
-19 10 0 6 -4 10 -10 10 -5 0 -10 -6 -10 -13 0 -7 -9 -30 -19 -51 -11 -21 -18
-43 -15 -50 3 -7 -4 -20 -14 -29 -17 -16 -25 -14 -133 29 -114 46 -278 133
-300 160 -16 19 13 160 52 261 41 103 107 231 127 243 9 6 37 8 62 5 25 -3 87
-10 139 -16z m117 -634 c-11 -8 -22 -12 -25 -9 -6 6 19 24 34 24 6 -1 1 -7 -9
-15z"/>
<path d="M3930 5363 c-42 -21 -46 -47 -8 -51 36 -4 90 24 86 46 -4 24 -37 26
-78 5z"/>
<path d="M4552 5368 c-16 -16 -15 -29 8 -82 13 -32 25 -46 38 -46 45 0 53 59
16 115 -18 27 -43 32 -62 13z"/>
<path d="M4303 5353 c-19 -7 -16 -38 7 -84 23 -45 43 -57 64 -40 16 14 9 53
-19 94 -18 28 -33 36 -52 30z"/>
<path d="M6739 5324 c-7 -9 -14 -35 -14 -58 -1 -30 -9 -53 -28 -78 -32 -42
-34 -68 -7 -75 29 -8 25 -26 -15 -62 -38 -34 -40 -42 -25 -71 8 -16 22 -19 73
-19 34 0 78 -1 97 -3 28 -2 36 1 47 22 7 14 36 43 64 65 68 52 93 86 84 114
-4 12 -52 58 -106 102 -104 82 -142 96 -170 63z m92 -71 c8 -9 38 -34 67 -55
52 -39 52 -39 35 -63 -22 -30 -129 -89 -149 -81 -8 3 -14 18 -14 35 0 16 -5
31 -12 33 -9 3 -6 19 10 56 12 28 22 60 22 71 0 25 22 27 41 4z m-11 -223 c0
-5 -4 -10 -10 -10 -5 0 -10 5 -10 10 0 6 5 10 10 10 6 0 10 -4 10 -10z"/>
<path d="M3979 5271 c-20 -16 -22 -23 -13 -38 14 -23 53 -23 68 0 8 12 8 22 0
34 -16 25 -28 26 -55 4z"/>
<path d="M5410 5286 c0 -8 31 -36 41 -36 5 0 1 9 -8 20 -16 18 -33 26 -33 16z"/>
<path d="M6128 5209 c-116 -60 -135 -89 -70 -104 22 -4 42 3 93 37 36 24 76
49 88 56 25 15 26 55 1 59 -8 1 -58 -20 -112 -48z"/>
<path d="M4885 5115 c-160 -23 -268 -55 -379 -112 -68 -36 -124 -33 -165 8
-26 26 -36 29 -91 29 -139 0 -281 -122 -388 -335 -60 -121 -114 -269 -143
-390 -13 -60 -31 -109 -43 -124 -12 -12 -113 -99 -226 -191 -302 -248 -453
-382 -520 -463 -219 -264 -188 -523 79 -665 147 -79 469 -129 761 -118 96 3
190 9 208 12 l33 6 -6 -38 c-3 -22 -19 -136 -35 -254 -62 -441 -147 -890 -227
-1205 -50 -197 -50 -198 -18 -224 24 -18 41 -21 116 -21 80 0 89 2 89 19 0 12
-12 24 -32 32 -59 24 -59 21 -12 207 115 455 206 1002 234 1411 14 208 15 207
-176 185 -265 -32 -703 19 -869 101 -119 58 -171 135 -159 234 18 151 125 279
479 576 346 290 392 335 411 405 100 359 201 573 318 676 64 56 111 73 134 50
16 -15 12 -21 -45 -71 -57 -51 -133 -150 -133 -174 0 -22 22 -10 73 38 84 78
144 119 202 137 44 14 57 15 69 4 42 -34 8 -90 -97 -161 -90 -61 -143 -119
-133 -145 5 -14 10 -13 41 10 82 63 201 96 233 64 19 -19 14 -53 -10 -75 -13
-11 -54 -41 -93 -65 -38 -25 -78 -54 -87 -64 -38 -43 -57 -109 -68 -239 -13
-152 -33 -207 -103 -282 -25 -27 -78 -92 -119 -145 -112 -148 -295 -353 -423
-475 -63 -61 -115 -115 -115 -121 0 -20 39 -44 62 -39 44 11 121 71 237 183
l116 111 100 13 c54 6 142 13 195 15 l95 3 65 -62 c124 -119 261 -195 437
-243 85 -23 117 -27 243 -27 194 -1 306 26 486 117 71 36 191 126 248 186 26
27 36 31 84 31 30 0 114 -7 186 -16 l131 -17 75 -71 c91 -88 199 -174 262
-210 52 -30 104 -32 122 -4 13 22 -9 47 -119 133 -108 84 -287 272 -415 434
-58 74 -135 167 -171 207 -79 86 -92 120 -120 299 -11 73 -28 148 -40 172 -23
48 -80 99 -149 133 -59 29 -90 58 -90 85 0 33 20 45 75 45 51 0 143 -36 207
-81 21 -16 33 -18 41 -10 8 8 0 23 -29 58 -37 43 -77 74 -166 128 -18 11 -41
36 -50 55 -15 29 -16 37 -4 55 35 53 165 5 295 -110 41 -36 78 -65 82 -65 36
0 -15 85 -108 182 -70 72 -74 94 -17 85 147 -24 292 -276 418 -727 21 -76 58
-110 422 -390 120 -92 239 -194 325 -280 185 -183 239 -269 239 -379 0 -139
-123 -223 -400 -272 -165 -30 -497 -37 -684 -15 -170 20 -210 20 -225 2 -7 -8
-21 -150 -36 -357 -13 -189 -29 -389 -35 -444 -28 -276 -51 -531 -65 -730 -9
-121 -20 -223 -23 -227 -4 -4 -25 -14 -47 -21 -32 -11 -40 -19 -40 -38 0 -23
3 -24 80 -25 90 -1 136 13 160 49 13 21 14 29 4 45 -13 21 -12 49 42 627 26
275 46 584 55 821 l7 190 111 -19 c94 -15 148 -17 346 -13 241 4 355 17 505
56 174 46 301 134 352 246 22 50 25 66 21 142 -5 102 -28 160 -109 277 -98
142 -250 275 -689 602 -181 135 -185 139 -199 188 -36 128 -116 356 -152 432
-90 197 -239 343 -372 367 -46 9 -99 -7 -147 -42 -43 -33 -59 -31 -163 18 -98
46 -231 84 -346 99 -103 13 -169 12 -286 -4z m379 -139 c97 -27 201 -72 199
-87 -1 -8 -6 -30 -11 -49 -5 -22 -5 -52 2 -80 11 -44 10 -46 -19 -65 -38 -26
-55 -60 -55 -108 0 -72 47 -128 157 -187 95 -50 101 -61 118 -220 20 -185 33
-223 106 -311 22 -26 39 -52 39 -59 0 -26 -55 -149 -95 -210 -90 -140 -232
-246 -410 -306 -202 -67 -380 -67 -577 0 -135 46 -198 86 -308 196 -99 98
-139 160 -179 274 l-21 59 34 52 c53 80 75 157 86 309 5 76 15 144 22 156 7
11 41 37 76 56 120 67 162 119 162 198 0 39 -6 52 -36 86 -34 38 -35 41 -24
75 7 20 10 54 8 76 -3 35 0 43 22 58 42 30 180 78 270 95 108 20 348 15 434
-8z m-1119 -1333 c17 -36 32 -70 33 -75 2 -4 -39 -8 -92 -8 l-96 0 48 61 c26
34 51 67 57 75 5 8 12 14 15 14 3 0 19 -30 35 -67z m1805 -11 c25 -31 47 -60
48 -64 2 -4 -33 -8 -77 -8 -45 0 -81 3 -81 6 0 12 54 124 60 123 3 0 25 -26
50 -57z"/>
<path d="M5355 4159 c-95 -31 -163 -34 -209 -10 -46 24 -66 15 -66 -30 0 -31
31 -59 66 -59 18 0 24 -8 29 -40 8 -49 38 -88 81 -106 59 -25 107 11 124 92 6
30 9 57 6 62 -3 5 15 18 39 30 46 22 57 46 33 70 -15 15 -30 14 -103 -9z"/>
<path d="M4467 4163 c-19 -19 -4 -45 39 -65 l45 -23 -5 -56 c-5 -47 -3 -60 15
-83 17 -21 29 -26 66 -26 39 0 50 5 84 39 28 28 39 47 39 69 0 26 5 32 35 42
44 15 65 35 65 64 0 39 -23 50 -61 30 -41 -21 -125 -21 -194 0 -52 16 -117 21
-128 9z"/>
<path d="M5425 3980 c3 -5 11 -10 16 -10 6 0 7 5 4 10 -3 6 -11 10 -16 10 -6
0 -7 -4 -4 -10z"/>
<path d="M4902 3831 c-11 -7 -10 -10 3 -15 29 -11 55 -7 55 9 0 16 -36 20 -58
6z"/>
<path d="M4832 3721 c-125 -31 -232 -123 -232 -199 0 -80 41 -101 144 -73 179
48 288 50 438 6 85 -25 122 -23 156 8 26 24 30 83 7 126 -30 58 -128 119 -223
140 -76 16 -206 12 -290 -8z"/>
<path d="M3477 5056 c-71 -20 -84 -36 -69 -90 6 -24 9 -60 5 -80 -3 -22 -1
-42 7 -51 19 -22 73 -19 96 6 18 21 18 22 1 33 -39 23 -45 32 -50 74 -6 48 5
54 53 25 42 -24 105 -9 105 26 0 26 -35 57 -75 65 -14 3 -47 -1 -73 -8z"/>
<path d="M6321 5012 c-87 -39 -109 -58 -98 -86 9 -22 49 -20 80 4 63 50 159
66 190 32 24 -26 21 -36 -18 -66 -23 -18 -35 -35 -35 -52 0 -40 39 -30 100 24
l54 49 -19 42 c-45 101 -114 115 -254 53z"/>
<path d="M3746 4995 c-15 -11 -17 -18 -8 -27 8 -8 0 -23 -34 -62 -78 -86 -102
-156 -53 -156 23 0 53 28 75 72 9 18 41 58 71 89 49 50 54 59 44 78 -14 25
-66 28 -95 6z"/>
<path d="M2680 4950 c0 -11 5 -20 10 -20 6 0 10 9 10 20 0 11 -4 20 -10 20 -5
0 -10 -9 -10 -20z"/>
<path d="M2538 4929 c-10 -5 -18 -21 -18 -34 0 -18 7 -25 29 -30 17 -3 39 -1
51 5 l21 11 -22 20 c-12 10 -27 19 -33 19 -6 0 -4 5 4 10 13 9 13 10 0 10 -8
-1 -23 -5 -32 -11z"/>
<path d="M6432 4783 c-22 -8 -35 -43 -21 -59 16 -20 46 -17 59 5 17 32 -6 65
-38 54z"/>
<path d="M1528 4623 c-9 -10 -21 -28 -27 -40 -10 -20 -9 -22 6 -16 10 3 23 10
29 14 6 5 15 5 19 1 5 -4 5 -1 1 6 -4 6 -2 12 3 12 6 0 11 9 11 20 0 25 -22
26 -42 3z"/>
<path d="M3396 4515 c-47 -17 -60 -29 -53 -49 9 -23 59 -20 102 5 66 39 29 73
-49 44z"/>
<path d="M6569 4481 c-20 -16 -22 -23 -13 -38 16 -26 53 -43 78 -34 24 9 42
51 33 75 -9 23 -69 21 -98 -3z m41 -51 c0 -5 -5 -10 -11 -10 -5 0 -7 5 -4 10
3 6 8 10 11 10 2 0 4 -4 4 -10z"/>
<path d="M2940 4455 c0 -8 29 -12 39 -5 9 5 4 8 -13 8 -14 0 -26 -2 -26 -3z"/>
<path d="M1620 4420 c0 -5 5 -10 11 -10 5 0 7 5 4 10 -3 6 -8 10 -11 10 -2 0
-4 -4 -4 -10z"/>
<path d="M2378 4378 c6 -6 18 -8 28 -6 14 3 12 5 -9 10 -19 3 -25 2 -19 -4z"/>
<path d="M7720 4320 c0 -5 5 -10 11 -10 5 0 7 5 4 10 -3 6 -8 10 -11 10 -2 0
-4 -4 -4 -10z"/>
<path d="M6981 4248 c-11 -17 -10 -23 3 -36 13 -13 23 -14 63 -5 31 7 64 8 93
3 66 -13 68 -13 62 15 -4 21 -1 24 14 20 11 -3 4 2 -14 10 -30 14 -35 14 -83
-12 -51 -26 -51 -26 -82 -8 -18 10 -34 22 -37 26 -3 5 -12 -1 -19 -13z"/>
<path d="M8928 4173 c6 -2 18 -2 25 0 6 3 1 5 -13 5 -14 0 -19 -2 -12 -5z"/>
<path d="M2658 4153 c6 -2 18 -2 25 0 6 3 1 5 -13 5 -14 0 -19 -2 -12 -5z"/>
<path d="M7269 4138 c9 -12 26 -17 50 -16 l36 1 -35 4 c-19 3 -42 10 -50 16
-13 10 -13 10 -1 -5z"/>
<path d="M7642 4079 c-19 -7 -21 -12 -12 -29 14 -27 36 -25 44 2 7 29 -3 38
-32 27z"/>
<path d="M8910 4053 c-9 -10 -26 -33 -39 -51 -13 -19 -27 -29 -30 -24 -7 12
-42 11 -57 -2 -7 -7 2 -21 27 -43 41 -37 84 -44 94 -14 5 15 23 151 20 151 0
0 -7 -8 -15 -17z"/>
<path d="M2730 4010 c0 -11 -3 -19 -7 -19 -5 1 -16 1 -27 0 -15 -1 -16 -4 -6
-16 7 -8 21 -15 31 -15 15 0 19 7 19 35 0 19 -2 35 -5 35 -3 0 -5 -9 -5 -20z"/>
<path d="M7114 3915 c-4 -9 -2 -21 4 -27 15 -15 44 -1 40 19 -4 23 -36 29 -44
8z"/>
<path d="M4830 968 c0 -9 -6 -19 -12 -21 -10 -4 -10 -6 0 -6 14 -1 28 26 18
36 -3 4 -6 -1 -6 -9z"/>
<path d="M4860 955 c0 -24 3 -25 55 -25 47 0 55 3 55 19 0 23 -19 31 -71 31
-35 0 -39 -3 -39 -25z"/>
</g>
</svg>
