<?xml version="1.0" standalone="no"?>
<!DOCTYPE svg PUBLIC "-//W3C//DTD SVG 20010904//EN"
 "http://www.w3.org/TR/2001/REC-SVG-20010904/DTD/svg10.dtd">
<svg version="1.0" xmlns="http://www.w3.org/2000/svg"
 width="1024.000000pt" height="1024.000000pt" viewBox="0 0 1024.000000 1024.000000"
 preserveAspectRatio="xMidYMid meet">

<g transform="translate(0.000000,1024.000000) scale(0.100000,-0.100000)"
fill="#000000" stroke="none">
<path d="M6030 9113 c-68 -11 -248 -14 -905 -16 l-820 -2 -41 -22 c-65 -35
-102 -87 -184 -258 -153 -318 -218 -443 -280 -536 -35 -52 -69 -108 -77 -126
-27 -65 -11 -438 23 -522 31 -79 120 -131 222 -131 22 0 60 -3 84 -6 l45 -6 7
-117 c10 -167 25 -361 32 -394 3 -16 19 -44 36 -63 46 -52 101 -64 295 -64
l164 0 -3 73 -3 72 -142 5 c-78 3 -147 10 -152 15 -8 8 -34 465 -27 472 1 2
315 3 697 4 682 2 966 9 1002 24 28 12 41 45 153 397 58 183 128 398 155 476
49 144 59 208 37 230 -7 7 -39 12 -75 12 -62 0 -63 0 -57 -25 10 -42 -268
-871 -305 -909 -40 -40 -77 -41 -1048 -36 -827 4 -934 7 -948 21 -34 34 -50
284 -23 364 l13 40 975 5 c760 4 980 8 997 18 58 33 102 135 196 452 154 517
156 529 91 556 -18 8 -37 13 -41 13 -4 -1 -46 -8 -93 -16z m-44 -145 c16 -16
15 -23 -15 -120 -58 -183 -153 -441 -187 -510 -26 -51 -40 -69 -60 -74 -18 -5
-1601 1 -1662 6 -1 0 4 10 12 23 15 23 105 227 228 512 l73 170 120 6 c66 3
425 5 797 5 622 -1 679 -2 694 -18z"/>
<path d="M1889 8538 c-9 -7 -18 -20 -21 -28 -12 -35 12 -59 119 -116 158 -83
564 -304 592 -322 l25 -15 -87 -82 c-123 -116 -116 -139 38 -124 221 20 488
70 518 97 25 22 18 44 -64 184 -132 228 -229 358 -264 358 -29 0 -40 -33 -50
-155 -3 -44 -10 -84 -15 -89 -10 -10 -106 28 -493 196 -248 107 -274 116 -298
96z"/>
<path d="M8235 8521 c-38 -15 -133 -56 -210 -91 -200 -89 -444 -190 -461 -190
-8 0 -14 11 -15 28 -1 79 -18 193 -29 207 -7 8 -21 15 -31 15 -47 0 -350 -480
-334 -530 11 -33 184 -73 460 -105 167 -19 172 -19 186 7 10 19 3 29 -77 106
-104 99 -115 77 101 194 83 44 179 98 215 118 36 20 119 65 185 100 66 34 126
68 134 75 19 19 17 66 -5 82 -25 18 -39 16 -119 -16z"/>
<path d="M6331 8012 c-112 -368 -303 -977 -312 -994 -9 -17 -37 -18 -464 -18
l-455 0 0 -57 c0 -112 -20 -103 233 -103 278 0 700 17 750 31 48 13 61 38 127
254 79 259 193 614 245 765 65 190 77 243 65 274 -9 24 -14 26 -72 26 l-63 0
-54 -178z"/>
<path d="M6567 7868 c-135 -415 -178 -561 -170 -569 4 -4 49 -25 98 -47 107
-46 205 -102 294 -167 l65 -48 80 40 c100 50 230 146 279 205 97 118 120 256
62 373 -69 138 -241 262 -510 368 -49 19 -100 38 -111 41 -20 6 -26 -7 -87
-196z"/>
<path d="M3476 8024 c-213 -83 -394 -198 -472 -301 -112 -147 -93 -322 51
-466 64 -64 183 -147 276 -192 l57 -28 58 45 c120 92 270 167 492 244 37 13
52 23 52 36 0 14 -8 18 -32 18 -44 0 -124 22 -174 48 -66 34 -128 110 -153
189 -20 66 -41 258 -41 384 0 41 -4 59 -12 59 -7 -1 -53 -16 -102 -36z"/>
<path d="M2921 7234 c-1 -6 10 -55 24 -109 55 -217 204 -461 459 -750 53 -60
290 -301 525 -535 365 -362 438 -439 490 -519 192 -291 224 -452 239 -1191 7
-341 7 -345 31 -378 56 -79 175 -121 367 -129 260 -12 444 42 501 145 19 35
21 60 27 407 3 204 11 422 16 485 25 286 93 485 231 671 72 97 313 348 544
567 437 413 714 750 846 1027 43 90 104 284 97 307 -2 4 -24 -21 -51 -56 -132
-180 -440 -341 -862 -451 -943 -248 -2196 -192 -2976 133 -227 94 -409 229
-496 368 -6 10 -12 14 -12 8z m654 -605 c759 -261 2049 -289 2903 -62 52 13
96 23 98 20 16 -15 -419 -136 -588 -163 -60 -9 -108 -21 -108 -27 0 -5 -10 -7
-23 -5 -13 2 -29 -1 -35 -9 -16 -16 -56 -18 -46 -1 5 8 -4 9 -32 5 -21 -4 -46
-7 -55 -7 -11 0 -26 -27 -48 -87 -99 -269 -222 -626 -286 -829 -166 -523 -184
-667 -164 -1272 7 -210 9 -385 5 -390 -14 -13 -192 -5 -248 12 -30 8 -65 27
-78 41 -27 29 -25 4 -50 642 -17 453 -51 608 -176 820 -86 146 -179 250 -584
653 -388 386 -511 522 -595 654 -28 45 -33 57 -19 51 11 -5 69 -26 129 -46z
m3208 10 c-10 -17 -25 -36 -33 -42 -8 -7 -4 3 9 22 l24 33 -24 -6 c-18 -4 -17
-2 6 9 17 8 31 14 33 15 2 0 -5 -14 -15 -31z m-713 -772 c0 -2 -17 -19 -37
-38 l-38 -34 34 38 c33 34 41 42 41 34z m-80 -80 c0 -2 -15 -16 -32 -33 l-33
-29 29 33 c28 30 36 37 36 29z m-160 -171 c0 -2 -8 -10 -17 -17 -16 -13 -17
-12 -4 4 13 16 21 21 21 13z m-363 -598 c-3 -8 -6 -5 -6 6 -1 11 2 17 5 13 3
-3 4 -12 1 -19z m-10 -40 c-3 -8 -6 -5 -6 6 -1 11 2 17 5 13 3 -3 4 -12 1 -19z
m-10 -40 c-3 -8 -6 -5 -6 6 -1 11 2 17 5 13 3 -3 4 -12 1 -19z m-10 -60 c-3
-7 -5 -2 -5 12 0 14 2 19 5 13 2 -7 2 -19 0 -25z m-10 -75 c-3 -10 -5 -4 -5
12 0 17 2 24 5 18 2 -7 2 -21 0 -30z m-10 -95 c-2 -13 -4 -5 -4 17 -1 22 1 32
4 23 2 -10 2 -28 0 -40z m-10 -165 c-2 -21 -4 -6 -4 32 0 39 2 55 4 38 2 -18
2 -50 0 -70z m0 -75 c-3 -8 -6 -5 -6 6 -1 11 2 17 5 13 3 -3 4 -12 1 -19z
m-10 -220 c-2 -24 -4 -7 -4 37 0 44 2 63 4 43 2 -21 2 -57 0 -80z m-21 -125
c-3 9 -1 17 4 17 17 0 12 -236 -5 -271 -15 -28 -61 -56 -73 -44 -3 3 1 5 8 5
9 0 7 5 -6 14 -17 13 -19 27 -19 120 l0 105 34 35 c32 33 35 34 48 18 14 -16
14 -16 9 1z"/>
<path d="M4707 7234 c-9 -9 -9 -291 -1 -412 l7 -92 69 65 c37 36 72 65 76 65
5 0 42 -31 84 -70 l76 -70 3 103 c2 56 2 172 -1 257 l-5 155 -151 3 c-82 1
-153 -1 -157 -4z"/>
<path d="M4103 3600 c-58 -26 -56 -48 12 -122 30 -32 58 -70 61 -83 6 -25 19
-30 48 -19 21 8 20 24 -12 129 -39 129 -37 128 -109 95z"/>
<path d="M6065 3608 c-2 -7 -18 -56 -35 -108 -27 -88 -28 -96 -13 -107 26 -20
39 -16 52 15 7 16 34 51 62 78 56 55 64 92 27 118 -27 19 -87 21 -93 4z"/>
<path d="M4780 3456 c-17 -130 -67 -428 -86 -514 l-16 -72 -32 19 c-118 73
-333 67 -465 -12 -91 -55 -165 -161 -178 -256 -5 -38 -6 -39 -54 -44 -109 -13
-208 -86 -260 -193 -28 -57 -33 -76 -32 -142 0 -99 18 -140 95 -213 l59 -58
-20 -39 c-23 -45 -86 -102 -114 -102 -72 0 -78 -69 -10 -111 63 -39 236 -24
217 19 -4 9 -9 36 -12 59 -3 32 1 46 17 62 25 25 47 26 101 5 31 -13 40 -21
35 -33 -4 -9 -9 -46 -12 -82 -5 -57 -2 -73 22 -128 61 -135 223 -221 416 -221
138 0 280 43 381 116 45 32 52 34 67 20 9 -8 43 -27 76 -42 112 -52 250 -42
354 24 l44 28 66 -43 c87 -58 202 -94 316 -100 118 -7 192 8 293 57 149 74
202 175 182 345 l-5 40 59 15 c57 14 58 14 77 -9 23 -28 25 -88 4 -118 -13
-19 -13 -22 3 -28 82 -32 190 -22 237 21 28 26 31 62 5 74 -87 40 -112 57
-133 89 -43 63 -43 74 7 115 27 22 56 59 73 94 37 75 40 191 6 264 -47 103
-164 192 -270 205 l-51 6 -6 46 c-16 116 -90 212 -211 272 -74 37 -93 42 -172
46 -98 6 -174 -6 -241 -39 -24 -11 -45 -19 -47 -17 -6 7 -64 321 -85 464 -11
77 -23 154 -25 171 l-5 32 -48 -12 -47 -12 -3 -55 c-4 -68 13 -309 33 -465 31
-243 93 -497 156 -638 22 -50 48 -64 91 -47 41 15 42 41 8 138 -50 139 -42
220 27 285 41 39 94 58 161 58 114 0 219 -53 273 -138 53 -85 34 -214 -44
-301 l-22 -23 25 7 c14 4 46 18 72 31 61 31 117 39 162 24 120 -39 172 -177
110 -291 -47 -86 -140 -132 -269 -132 -53 -1 -93 5 -117 16 -21 9 -38 14 -38
11 0 -3 17 -26 39 -52 102 -124 106 -231 11 -323 -64 -63 -128 -84 -245 -83
-193 2 -348 108 -362 248 -7 65 -11 63 -43 -17 -34 -85 -94 -142 -180 -168
-65 -20 -72 -20 -130 -5 -69 18 -102 38 -150 93 -29 33 -41 54 -72 133 -9 23
-12 19 -24 -39 -17 -80 -49 -129 -110 -169 -182 -121 -426 -100 -529 46 -26
38 -30 52 -30 105 1 72 21 117 85 190 23 26 40 47 38 47 -1 0 -25 -7 -52 -15
-116 -35 -258 -7 -344 69 -91 80 -80 257 19 323 56 37 121 34 216 -11 41 -20
77 -36 79 -36 2 0 -11 20 -30 45 -45 59 -59 104 -54 179 3 48 10 71 35 107 56
81 153 129 262 129 142 0 231 -80 231 -209 0 -18 -14 -74 -31 -123 -35 -104
-35 -128 5 -147 49 -23 73 -1 113 104 93 244 158 637 158 959 l0 140 -46 11
-47 12 -12 -91z"/>
<path d="M3670 2825 c-21 -25 -2 -50 53 -68 28 -10 60 -20 69 -23 29 -10 34
24 7 52 -46 50 -105 68 -129 39z"/>
<path d="M6515 2811 c-16 -10 -38 -28 -49 -39 -22 -25 -14 -57 12 -48 9 3 41
13 69 23 55 18 74 43 53 68 -17 20 -49 19 -85 -4z"/>
<path d="M4865 2162 c-27 -57 -45 -131 -45 -191 0 -68 6 -63 13 9 3 30 17 91
31 135 14 43 24 80 22 82 -1 1 -11 -14 -21 -35z"/>
<path d="M5370 2197 c0 -21 42 -152 51 -161 15 -15 3 43 -23 109 -19 49 -28
65 -28 52z"/>
<path d="M3487 2156 c-9 -23 18 -40 43 -26 12 6 19 17 17 23 -6 18 -53 21 -60
3z"/>
<path d="M6714 2145 c-8 -21 4 -35 32 -35 17 0 24 6 24 19 0 29 -46 43 -56 16z"/>
<path d="M3587 1933 c-16 -15 -6 -33 18 -33 18 0 25 5 25 20 0 20 -28 28 -43
13z"/>
<path d="M6624 1919 c-3 -6 1 -18 9 -27 13 -13 19 -13 32 -2 12 10 13 16 4 26
-14 17 -35 18 -45 3z"/>
</g>
</svg>
