<?xml version="1.0" standalone="no"?>
<!DOCTYPE svg PUBLIC "-//W3C//DTD SVG 20010904//EN"
 "http://www.w3.org/TR/2001/REC-SVG-20010904/DTD/svg10.dtd">
<svg version="1.0" xmlns="http://www.w3.org/2000/svg"
 width="1024.000000pt" height="1024.000000pt" viewBox="0 0 1024.000000 1024.000000"
 preserveAspectRatio="xMidYMid meet">

<g transform="translate(0.000000,1024.000000) scale(0.100000,-0.100000)"
fill="#000000" stroke="none">
<path d="M5014 9335 c-70 -15 -113 -35 -166 -77 -38 -30 -108 -118 -108 -136
0 -5 42 -36 92 -67 l93 -57 15 23 c51 79 110 119 174 119 107 0 172 -87 130
-175 -11 -24 -43 -57 -92 -92 -108 -81 -152 -158 -152 -270 l0 -53 125 0 125
0 0 57 c0 55 1 58 47 97 130 112 181 170 197 225 46 156 -10 294 -151 368 -96
51 -209 64 -329 38z"/>
<path d="M4182 8794 c-43 -30 -29 -55 81 -151 161 -140 192 -163 220 -163 29
0 51 29 41 54 -6 17 -256 245 -287 263 -28 16 -29 16 -55 -3z"/>
<path d="M5888 8669 c-76 -72 -138 -139 -138 -148 0 -24 20 -41 46 -41 21 0
97 60 247 195 58 53 72 86 45 113 -31 31 -61 13 -200 -119z"/>
<path d="M4992 8323 l3 -118 129 0 129 0 0 40 c1 22 0 75 -1 118 l-2 77 -130
0 -131 0 3 -117z"/>
<path d="M3893 8324 c-15 -24 -15 -29 -2 -53 13 -24 23 -27 114 -38 220 -28
361 -39 383 -32 26 10 30 50 7 69 -14 12 -408 80 -462 80 -13 0 -30 -11 -40
-26z"/>
<path d="M6110 8319 c-96 -16 -190 -32 -208 -35 -41 -6 -63 -44 -41 -70 12
-14 27 -16 114 -10 150 10 355 35 376 47 28 14 35 56 14 79 -23 26 -41 25
-255 -11z"/>
<path d="M4965 8009 c-91 -12 -153 -44 -177 -89 -17 -33 -18 -68 -18 -506 1
-259 3 -474 6 -477 3 -3 36 5 72 17 l67 23 3 410 c3 479 -6 445 113 451 101 6
219 -7 219 -23 0 -9 -10 -12 -30 -10 -26 4 -30 1 -30 -21 0 -14 -5 -35 -11
-47 -11 -20 -10 -20 16 3 l27 25 -26 -39 c-14 -21 -26 -48 -27 -60 0 -12 -1
-61 -1 -111 l-1 -90 -7 65 -7 65 -1 -64 c-2 -55 -4 -62 -17 -51 -8 7 -15 22
-15 34 0 11 -4 27 -8 33 -8 13 -8 -2 4 -240 6 -123 7 -129 26 -123 14 3 18 2
11 -5 -6 -6 -17 -11 -25 -13 -8 -1 -26 -9 -39 -17 -13 -9 -49 -22 -79 -29 -30
-7 -61 -17 -67 -23 -13 -9 -19 -107 -7 -107 3 0 40 9 82 19 93 23 225 47 347
64 l90 12 8 260 c4 143 6 329 5 413 l-3 154 -37 33 c-20 19 -60 41 -90 50 -64
20 -273 28 -373 14z"/>
<path d="M3420 7657 c-206 -86 -799 -427 -864 -499 -24 -26 -27 -37 -23 -71 3
-22 14 -48 24 -58 10 -9 83 -57 163 -105 343 -206 714 -384 802 -384 60 0 101
33 125 99 l17 48 209 6 c116 4 268 7 339 7 l128 0 45 35 c25 19 75 51 111 71
36 20 63 38 61 41 -6 5 -998 -17 -1008 -23 -4 -2 -10 -33 -14 -69 -3 -36 -11
-65 -17 -65 -36 0 -741 369 -780 408 -17 17 252 176 623 370 151 79 152 79
164 1 4 -25 10 -51 14 -57 5 -8 165 -9 574 -5 l567 6 0 70 0 70 -452 -6 c-249
-4 -483 -10 -519 -13 l-66 -7 -6 39 c-8 51 -32 83 -73 100 -46 19 -80 17 -144
-9z"/>
<path d="M5063 7573 c9 -2 23 -2 30 0 6 3 -1 5 -18 5 -16 0 -22 -2 -12 -5z"/>
<path d="M5548 7355 l-3 -74 95 -47 c124 -62 217 -151 250 -239 65 -174 -12
-310 -271 -480 l-98 -64 -3 -91 c-2 -49 -2 -90 -1 -90 11 0 141 78 233 139
223 148 338 298 348 454 9 150 -58 288 -193 395 -81 64 -238 143 -327 165
l-26 7 -4 -75z"/>
<path d="M6905 7292 c-52 -18 -79 -54 -90 -118 l-6 -41 -102 -6 c-159 -10
-532 -40 -536 -43 -2 -2 2 -27 9 -56 22 -98 16 -91 79 -85 245 27 449 47 521
52 47 3 102 8 123 11 l37 6 0 70 c0 68 1 70 23 65 66 -15 757 -350 757 -368 0
-19 -76 -1 -290 71 -255 86 -311 100 -392 100 -70 0 -289 -19 -570 -50 -97
-11 -197 -20 -221 -20 l-44 0 -7 -62 c-3 -34 -18 -86 -32 -117 -26 -58 -125
-195 -151 -210 -12 -6 -9 -10 13 -15 34 -8 194 -76 209 -88 6 -5 51 -34 100
-65 103 -65 88 -63 349 -38 187 19 172 20 179 -12 10 -44 44 -93 75 -104 56
-22 113 -6 253 71 74 41 184 105 244 143 167 106 444 307 463 335 26 40 21 96
-11 130 -34 35 -254 154 -493 265 -353 166 -438 197 -489 179z m-378 -868 c-3
-3 -12 -4 -19 -1 -8 3 -5 6 6 6 11 1 17 -2 13 -5z"/>
<path d="M5540 7005 c-275 -39 -510 -90 -690 -152 -513 -174 -840 -506 -840
-852 l0 -91 84 43 83 42 6 51 c17 157 177 361 385 491 230 143 515 229 1020
309 l243 38 -7 40 c-3 23 -12 56 -20 74 -12 29 -16 32 -56 31 -24 -1 -117 -12
-208 -24z"/>
<path d="M5290 6693 c-194 -47 -415 -111 -470 -137 l-45 -21 -3 -170 c-1 -93
-1 -174 2 -181 3 -8 23 -8 78 2 106 20 313 27 463 16 72 -5 131 -9 131 -8 5 4
21 501 17 517 -7 24 2 24 -173 -18z m-167 -260 c3 -56 1 -102 -5 -108 -5 -5
-39 -10 -76 -10 l-66 0 -23 40 -23 40 0 -34 c0 -49 -6 -35 -14 32 -5 49 -4 58
11 64 10 3 25 12 34 20 22 18 108 52 135 53 20 0 22 -6 27 -97z m37 -63 c0
-16 -4 -30 -8 -30 -5 0 -7 14 -4 30 2 17 6 30 8 30 2 0 4 -13 4 -30z"/>
<path d="M5560 6585 c-19 -14 -30 -25 -24 -25 10 1 73 50 63 50 -3 0 -20 -11
-39 -25z"/>
<path d="M5881 6397 c-12 -13 -48 -39 -81 -58 -33 -19 -60 -37 -60 -40 0 -4
23 -9 50 -13 159 -21 369 -112 469 -203 161 -145 166 -316 15 -469 -115 -117
-302 -220 -583 -320 l-161 -58 0 -83 c0 -46 2 -83 5 -83 15 0 246 78 345 117
367 144 610 338 672 535 70 227 -44 432 -322 577 -80 41 -154 69 -306 115 -14
4 -27 -1 -43 -17z"/>
<path d="M4620 6399 c-25 -4 -60 -11 -79 -14 -22 -4 -53 -25 -89 -58 -47 -45
-112 -126 -112 -140 0 -3 46 8 103 23 56 15 135 33 175 40 l72 13 0 74 c0 52
-4 73 -12 72 -7 -1 -33 -5 -58 -10z"/>
<path d="M3845 6142 c-193 -120 -313 -282 -323 -436 -5 -74 12 -176 29 -176 5
0 9 4 9 8 0 5 31 43 70 85 38 43 73 89 76 104 16 64 60 132 135 205 72 70 79
81 79 116 0 22 5 63 10 92 6 29 9 54 8 55 -2 2 -43 -23 -93 -53z"/>
<path d="M5025 6104 c-576 -55 -1000 -214 -1288 -484 -94 -88 -146 -162 -189
-267 -27 -67 -32 -94 -36 -190 -5 -118 10 -193 61 -303 108 -234 396 -471 748
-615 91 -37 291 -94 377 -107 78 -13 92 -25 92 -82 0 -26 -7 -26 190 5 149 24
310 60 403 91 l67 23 0 242 0 242 -32 5 c-18 3 -100 12 -183 21 -144 16 -258
34 -355 54 -25 6 -57 10 -72 11 l-28 0 0 -105 0 -105 -27 -2 c-16 -1 -41 -1
-56 0 -16 1 -70 -5 -120 -13 -50 -9 -109 -16 -131 -15 -94 4 -82 -5 97 -76
104 -41 126 -46 177 -42 l58 4 7 -59 c4 -32 5 -60 2 -63 -7 -7 -261 70 -353
106 -314 125 -578 328 -678 520 -164 316 -14 602 429 820 66 33 174 77 240 99
466 155 1069 160 1472 11 66 -25 216 -100 265 -133 l37 -26 41 51 c22 28 40
57 40 64 0 7 -32 36 -72 64 -165 116 -408 200 -676 235 -108 14 -433 26 -507
19z m47 -1515 c20 -5 40 -14 43 -18 3 -5 6 -92 7 -193 l1 -183 -28 -3 c-15 -2
-58 4 -96 13 l-69 17 0 194 0 195 53 -7 c28 -3 69 -10 89 -15z m88 -69 c0 -16
-2 -30 -4 -30 -2 0 -6 14 -8 30 -3 17 -1 30 4 30 4 0 8 -13 8 -30z"/>
<path d="M4946 5824 c-82 -7 -154 -15 -160 -17 -14 -5 -8 -669 6 -678 6 -4 45
-12 87 -18 247 -39 336 -53 419 -66 50 -8 105 -15 120 -15 l29 0 6 212 c4 116
7 295 7 398 l0 187 -61 7 c-93 9 -286 5 -453 -10z m174 -169 c6 -59 6 -60 14
-22 5 20 6 46 3 57 -4 15 0 20 14 20 18 0 19 -9 19 -144 0 -136 -1 -145 -20
-151 -27 -9 -32 -35 -28 -145 l3 -92 -46 5 c-25 3 -71 17 -102 32 l-57 26 0
224 0 223 33 11 c55 17 70 19 117 18 l45 -2 5 -60z"/>
<path d="M4560 5756 c-41 -12 -101 -31 -133 -40 -51 -16 -62 -24 -88 -64 -16
-25 -31 -54 -35 -64 -9 -28 -22 -22 -44 22 -23 46 -19 46 -118 -17 l-53 -34
35 -63 c32 -57 34 -65 20 -77 -8 -7 -24 -30 -35 -51 l-19 -38 37 -15 c21 -9
50 -19 66 -22 24 -5 27 -3 27 21 0 14 4 26 8 26 4 0 30 -23 57 -50 43 -44 62
-54 135 -77 47 -14 128 -36 180 -48 l95 -22 3 36 c6 62 -6 101 -31 101 -45 0
-213 96 -260 147 -17 19 -17 22 4 77 30 77 86 137 185 198 125 76 110 99 -36
54z"/>
<path d="M5730 5744 c-19 -2 -72 -9 -117 -15 l-83 -11 0 -42 0 -41 270 0 c148
0 270 2 270 5 -1 12 -140 83 -190 96 -52 13 -74 15 -150 8z"/>
<path d="M6592 5580 c-27 -39 -37 -62 -29 -65 284 -98 452 -216 522 -367 72
-155 -12 -318 -227 -443 -48 -27 -87 -52 -87 -55 0 -3 17 -16 38 -29 21 -13
53 -37 70 -53 l33 -31 41 23 c74 41 128 81 198 148 186 175 201 412 38 611
-82 99 -257 212 -439 284 -115 45 -110 46 -158 -23z"/>
<path d="M6405 5379 c-22 -17 -49 -37 -59 -45 -18 -12 -18 -15 -3 -31 9 -10
28 -45 44 -78 38 -84 44 -210 14 -318 -26 -96 -26 -97 4 -97 13 0 49 -9 80
-21 31 -12 57 -19 59 -17 1 1 12 32 25 68 35 97 41 264 13 357 -26 84 -106
214 -131 213 -3 0 -24 -14 -46 -31z"/>
<path d="M3822 5319 c-18 -34 -32 -67 -32 -73 1 -37 308 -199 492 -260 255
-85 675 -169 1068 -216 200 -23 555 -75 665 -96 272 -52 497 -134 617 -225 79
-59 119 -106 154 -184 23 -50 26 -67 22 -131 -3 -41 -7 -76 -10 -79 -6 -6
-189 45 -386 108 l-164 53 -36 -31 c-20 -17 -52 -42 -71 -54 l-33 -24 113 -32
c63 -18 242 -69 399 -113 308 -88 627 -180 648 -187 8 -3 24 19 42 60 16 36
35 65 43 65 38 0 647 -565 647 -600 0 -8 -290 -87 -462 -125 -232 -52 -422
-85 -432 -75 -5 5 -3 31 4 61 11 47 11 54 -4 65 -17 12 -312 96 -766 219 -135
36 -274 75 -310 86 -36 10 -155 46 -265 80 -110 33 -208 62 -217 65 -16 5 -18
-3 -18 -75 l0 -80 53 -16 c28 -8 147 -42 262 -76 116 -33 278 -79 360 -100
250 -66 667 -179 718 -195 l47 -16 0 -53 c0 -65 31 -109 88 -125 110 -33 1062
194 1107 263 20 32 28 73 20 104 -17 68 -686 697 -780 733 -69 26 -140 -2
-174 -68 l-20 -39 -115 31 -116 31 8 35 c4 19 7 80 7 135 0 94 -2 104 -36 175
-44 91 -86 140 -181 213 -228 174 -568 274 -1213 357 -782 101 -1113 173
-1445 315 -88 37 -218 113 -240 140 -7 8 -16 15 -20 15 -3 0 -21 -28 -38 -61z"/>
<path d="M3002 5128 c-111 -59 -424 -299 -651 -498 -148 -130 -164 -156 -133
-220 21 -44 71 -69 352 -181 319 -127 574 -209 650 -209 75 0 140 68 140 147
l0 30 88 12 c48 6 137 21 197 32 l110 21 36 76 37 76 -27 20 c-65 49 -205 196
-250 260 -58 85 -102 184 -126 284 -20 82 -13 79 -133 56 -45 -9 -84 -15 -85
-13 -1 2 -11 22 -22 43 -39 77 -111 103 -183 64z m77 -150 c11 -29 23 -77 15
-60 -10 20 -22 14 -77 -39 -40 -40 -93 -73 -234 -144 -101 -51 -183 -92 -183
-90 0 11 447 355 462 355 4 0 12 -10 17 -22z m257 -85 c-17 -3 -25 -8 -18 -12
6 -4 -14 -7 -46 -7 l-57 -1 50 13 c28 6 61 12 75 12 21 -1 20 -2 -4 -5z m-147
-27 c-2 -2 -17 -6 -34 -10 -22 -5 -26 -4 -15 4 14 9 59 15 49 6z m-588 -412
c119 -51 203 -80 332 -113 61 -16 151 -44 199 -62 85 -33 88 -35 88 -66 0 -20
-5 -33 -12 -33 -52 1 -542 174 -762 269 l-49 22 34 28 c34 29 34 29 60 10 15
-10 64 -35 110 -55z"/>
<path d="M5805 5068 l-109 -42 32 -13 c43 -18 210 -61 297 -78 39 -7 101 -20
138 -29 94 -22 96 -21 52 25 -74 76 -243 181 -289 178 -6 0 -60 -19 -121 -41z"/>
<path d="M3802 5058 c5 -23 11 -44 13 -46 5 -6 85 18 85 26 0 7 -92 62 -103
62 -3 0 -1 -19 5 -42z"/>
<path d="M4100 4930 c8 -5 20 -10 25 -10 6 0 3 5 -5 10 -8 5 -19 10 -25 10 -5
0 -3 -5 5 -10z"/>
<path d="M3910 4851 c50 -66 78 -94 89 -87 14 9 -4 36 -24 36 -16 0 -67 59
-61 69 3 4 -1 8 -9 8 -11 0 -9 -6 5 -26z"/>
<path d="M4357 4801 c-37 -22 -82 -50 -100 -63 -39 -28 -77 -33 -77 -11 0 15
-41 53 -69 64 -9 3 -27 -1 -40 -10 -13 -8 -32 -15 -42 -16 -10 0 -20 -4 -21
-10 -2 -14 121 -117 133 -110 5 4 7 11 4 16 -4 5 -1 9 6 9 7 0 24 10 38 23 19
17 17 12 -7 -18 -18 -22 -32 -44 -32 -50 0 -6 31 -26 68 -44 l68 -33 72 50
c64 44 115 69 305 149 20 9 35 18 33 20 -3 4 -207 60 -251 70 -12 2 -48 -13
-88 -36z m-316 -68 c13 -16 12 -17 -3 -4 -17 13 -22 21 -14 21 2 0 10 -8 17
-17z"/>
<path d="M6639 4778 c-10 -18 -8 -24 7 -35 11 -8 33 -13 49 -11 41 4 47 39 10
56 -37 17 -53 15 -66 -10z"/>
<path d="M5870 4549 l-45 -40 -146 7 -146 6 -6 -47 c-4 -26 -4 -51 -1 -56 3
-5 31 -9 62 -10 l57 0 -55 -21 c-30 -11 -59 -24 -63 -28 -5 -4 -3 -33 4 -64
10 -44 10 -58 0 -70 -12 -14 70 14 127 43 9 5 37 17 62 27 67 27 231 137 301
201 l61 57 -78 18 c-44 9 -81 17 -84 17 -3 0 -25 -18 -50 -40z m23 -56 c-7 -2
-19 -2 -25 0 -7 3 -2 5 12 5 14 0 19 -2 13 -5z"/>
<path d="M6120 4459 c-480 -451 -1483 -673 -1962 -433 -26 13 -49 24 -51 24
-6 0 11 -98 23 -136 17 -52 62 -79 179 -108 153 -38 265 -49 441 -43 347 13
692 101 1030 263 201 97 342 195 484 336 67 66 115 122 110 127 -5 4 -40 16
-79 26 -38 10 -74 19 -80 21 -5 2 -48 -33 -95 -77z"/>
<path d="M6450 4440 c0 -5 -14 -26 -32 -46 l-32 -37 34 7 c54 11 140 36 140
41 0 5 -89 45 -101 45 -5 0 -9 -4 -9 -10z"/>
<path d="M3893 4317 c-38 -64 -55 -131 -60 -239 -5 -91 -2 -117 17 -179 44
-145 113 -254 244 -384 429 -426 1212 -581 1869 -369 119 39 243 91 234 100
-3 3 -34 12 -68 20 -80 18 -117 33 -127 50 -6 10 -32 6 -125 -21 -192 -55
-303 -70 -542 -70 -244 0 -339 14 -534 77 -260 84 -450 196 -594 348 -175 186
-236 392 -168 570 12 30 17 56 12 58 -5 2 -34 18 -66 37 -32 19 -61 35 -65 35
-5 0 -17 -15 -27 -33z"/>
<path d="M5335 3754 c-105 -32 -301 -71 -392 -78 -39 -3 -90 -8 -112 -12 l-41
-7 0 -128 0 -128 53 -16 c28 -8 79 -20 112 -26 33 -5 80 -14 105 -20 25 -5
122 -12 216 -16 l171 -6 6 150 c3 82 3 186 0 231 -7 95 0 92 -118 56z m-187
-176 c7 -7 12 -39 12 -74 0 -49 -4 -63 -17 -68 -22 -9 -97 2 -155 21 -41 14
-47 21 -53 51 -3 19 -3 38 2 43 9 9 136 37 174 38 14 1 30 -4 37 -11z"/>
<path d="M4780 2983 c0 -21 -9 -186 -20 -368 -21 -346 -27 -455 -61 -988 l-20
-327 20 -33 c11 -19 42 -45 69 -60 174 -95 603 -85 737 17 59 45 59 48 36 423
-11 186 -25 424 -31 528 -6 105 -17 303 -25 440 -8 138 -15 269 -15 293 l0 42
-148 0 c-151 0 -318 17 -427 44 -125 30 -115 31 -115 -11z m236 -144 c32 -5
80 -17 105 -25 42 -13 47 -18 53 -52 8 -52 7 -309 -2 -297 -4 6 -13 10 -19 9
-7 -1 -17 -2 -23 -3 -6 -1 -10 -63 -10 -165 l0 -165 30 1 c18 1 31 7 33 17 3
9 5 -13 4 -49 0 -61 0 -63 -7 -20 -4 25 -8 36 -8 25 -3 -27 -31 -67 -43 -59
-6 4 -9 -104 -8 -300 l1 -306 26 6 c23 4 24 4 9 -6 -10 -6 -23 -10 -30 -7 -7
2 -30 -2 -52 -10 -49 -17 -102 -9 -132 20 -27 24 -29 44 -8 83 16 31 22 231 6
206 -11 -19 -22 -17 -35 5 -9 16 -12 14 -18 -17 -7 -36 -5 49 12 475 5 132 12
331 16 443 7 229 -2 210 100 191z m161 -476 c-3 -10 -5 -4 -5 12 0 17 2 24 5
18 2 -7 2 -21 0 -30z m-300 -785 c-3 -8 -6 -5 -6 6 -1 11 2 17 5 13 3 -3 4
-12 1 -19z"/>
<path d="M5120 2771 c0 -17 5 -33 10 -36 6 -4 10 8 10 29 0 20 -4 36 -10 36
-5 0 -10 -13 -10 -29z"/>
</g>
</svg>
