<?xml version="1.0" standalone="no"?>
<!DOCTYPE svg PUBLIC "-//W3C//DTD SVG 20010904//EN"
 "http://www.w3.org/TR/2001/REC-SVG-20010904/DTD/svg10.dtd">
<svg version="1.0" xmlns="http://www.w3.org/2000/svg"
 width="1024.000000pt" height="1024.000000pt" viewBox="0 0 1024.000000 1024.000000"
 preserveAspectRatio="xMidYMid meet">

<g transform="translate(0.000000,1024.000000) scale(0.100000,-0.100000)"
fill="#000000" stroke="none">
<path d="M6940 8610 l0 -760 -82 0 c-104 0 -157 -22 -181 -73 -14 -29 -17 -69
-17 -235 l0 -199 -82 -5 c-97 -6 -131 -20 -158 -63 -19 -30 -20 -51 -20 -284
l0 -251 -113 0 c-129 0 -168 -14 -200 -71 -17 -31 -18 -53 -15 -284 l3 -250
-160 -5 c-250 -8 -245 0 -245 -364 l0 -254 -158 -4 c-172 -3 -193 -9 -229 -65
-16 -25 -18 -53 -15 -304 l3 -276 -172 -7 c-189 -8 -217 -15 -249 -69 -19 -30
-20 -52 -20 -313 l0 -281 -46 -7 c-26 -3 -105 -6 -177 -6 -113 0 -134 -3 -162
-20 -62 -38 -65 -57 -65 -367 l0 -280 -220 -6 c-242 -7 -265 -12 -300 -70 -19
-30 -20 -52 -20 -329 l0 -298 -175 0 c-96 0 -175 -2 -175 -4 0 -2 15 -35 33
-74 l33 -71 789 -6 c499 -4 800 -10 816 -16 15 -6 31 -20 37 -32 6 -12 16 -93
22 -181 7 -87 15 -190 19 -227 7 -71 -3 -118 -31 -135 -7 -5 -314 -11 -683
-14 l-670 -5 -9 -28 c-8 -21 -7 -35 5 -55 l15 -27 803 -3 c762 -2 803 -1 796
15 -27 70 -29 103 -12 174 24 101 119 291 174 350 24 26 66 56 92 68 59 25 99
86 110 165 4 28 21 78 38 111 17 33 40 84 52 112 43 112 105 162 236 188 44 9
108 29 143 45 34 16 105 40 158 55 53 14 108 34 124 45 32 23 79 117 116 233
30 93 75 187 98 206 9 8 16 19 16 25 0 19 66 92 103 114 34 22 153 52 282 73
60 10 74 14 55 19 -19 5 -11 9 35 14 33 5 103 16 155 27 160 32 264 39 555 39
200 0 296 -4 338 -14 37 -9 57 -10 57 -3 0 6 2 8 5 5 7 -6 65 -204 65 -220 0
-7 22 -21 49 -31 27 -9 61 -31 75 -47 43 -51 48 -90 30 -230 l-16 -126 45
-139 c24 -77 51 -167 58 -200 11 -50 36 -95 157 -275 80 -118 147 -217 149
-219 2 -3 -1 9 -6 25 -5 16 -25 83 -45 149 -20 66 -63 210 -96 320 -209 690
-213 703 -405 1355 -37 124 -75 252 -85 285 -10 33 -39 132 -65 220 -25 88
-68 234 -95 325 -27 91 -81 273 -119 405 -38 132 -103 359 -146 505 -43 146
-115 393 -160 550 -95 327 -198 673 -248 840 -20 63 -45 151 -56 195 -24 90
-61 139 -121 155 -19 5 -86 10 -147 10 l-113 0 0 699 c0 384 -3 726 -6 760
l-7 61 -73 0 -74 0 0 -760z m359 -913 c14 -6 28 -23 32 -37 4 -14 19 -70 34
-125 14 -55 29 -108 32 -119 3 -12 1 -16 -6 -12 -6 4 -11 2 -11 -3 0 -6 -7
-11 -15 -11 -8 0 -16 -8 -16 -17 -1 -10 -5 -2 -9 17 l-7 35 -2 -44 c-2 -81 -2
-81 -261 -81 -175 0 -230 3 -238 13 -12 15 -29 355 -19 381 6 14 34 16 234 16
161 0 235 -4 252 -13z m-464 -487 c-18 -20 -17 -20 116 -20 236 -1 256 -3 278
-25 17 -17 21 -43 30 -180 6 -88 13 -174 16 -191 4 -22 -1 -39 -16 -57 l-20
-27 -329 0 c-282 0 -329 2 -340 15 -14 17 -37 422 -26 451 4 11 31 14 134 14
116 0 131 2 147 20 10 11 20 20 23 20 3 0 -3 -9 -13 -20z m258 -632 c20 -21
24 -40 35 -193 7 -93 16 -184 19 -202 4 -25 0 -37 -21 -57 l-25 -26 -424 0
c-348 0 -427 2 -436 14 -12 15 -29 441 -18 470 6 14 48 16 427 16 l421 0 22
-22z m-143 -614 c24 -24 25 -31 41 -268 l13 -179 -29 -25 -29 -24 -548 5
c-411 4 -552 8 -563 17 -12 10 -15 53 -15 250 0 130 3 240 7 244 4 3 253 5
555 4 538 -3 548 -3 568 -24z m-249 -619 c38 -20 49 -49 50 -138 0 -40 6 -128
13 -197 14 -131 10 -162 -23 -179 -31 -17 -1282 -15 -1304 2 -14 10 -17 48
-23 270 l-7 257 632 0 c551 0 636 -2 662 -15z m-294 -667 c26 -27 28 -34 34
-160 4 -73 10 -173 14 -223 7 -83 6 -92 -15 -117 l-21 -28 -702 0 c-386 0
-707 4 -713 8 -17 11 -38 520 -22 539 10 12 112 14 705 11 l693 -3 27 -27z
m-405 -659 c29 -16 35 -39 42 -154 4 -60 11 -158 17 -217 9 -90 8 -111 -5
-136 -8 -16 -23 -32 -31 -36 -9 -3 -342 -6 -740 -6 -566 0 -725 3 -733 13 -13
16 -33 516 -21 539 8 15 62 16 731 11 421 -3 730 -9 740 -14z m-1157 -663
c160 -3 390 -5 512 -5 292 -1 275 11 284 -202 4 -85 10 -193 14 -241 7 -84 7
-87 -18 -112 l-26 -26 -794 0 c-619 0 -797 3 -809 13 -22 17 -36 548 -15 566
9 7 102 12 278 13 145 2 269 2 274 1 6 -1 141 -5 300 -7z"/>
<path d="M7290 9330 c-128 -16 -130 -17 -130 -57 0 -35 0 -35 38 -29 20 3 87
9 148 12 134 8 198 -2 395 -61 80 -24 181 -51 225 -60 102 -22 282 -31 323
-17 36 13 45 4 32 -31 -6 -14 -22 -81 -37 -149 -22 -100 -28 -153 -30 -283
l-3 -160 -38 -8 c-50 -11 -209 -2 -301 18 -41 8 -122 31 -180 51 -173 57 -225
67 -362 66 -69 0 -144 -5 -167 -11 -40 -11 -43 -14 -43 -46 l0 -35 58 7 c94
13 261 7 332 -11 36 -10 118 -35 182 -56 64 -22 156 -46 204 -55 102 -18 267
-20 330 -4 70 18 75 32 68 184 -7 148 7 256 57 443 17 62 27 122 24 133 -10
30 -38 36 -118 27 -143 -17 -299 5 -522 73 -203 62 -336 78 -485 59z"/>
<path d="M7650 9060 l-43 -60 -56 -1 c-31 -1 -67 -4 -80 -8 -24 -6 -23 -8 31
-66 l55 -59 -28 -70 c-15 -39 -26 -74 -23 -77 2 -4 37 7 78 24 l74 30 70 -51
c38 -29 72 -52 76 -52 6 0 4 18 -9 121 l-6 46 60 39 c34 21 61 41 61 44 0 3
-33 16 -73 29 l-73 23 -28 74 c-15 41 -31 74 -35 74 -4 0 -27 -27 -51 -60z"/>
<path d="M3603 6270 c-30 -12 -76 -77 -128 -181 -48 -95 -115 -256 -115 -276
0 -7 11 -20 25 -29 l26 -17 102 99 c57 54 134 126 171 158 95 83 115 143 70
212 -26 40 -97 56 -151 34z"/>
<path d="M2191 6184 c-41 -17 -58 -38 -66 -82 -10 -56 12 -98 136 -253 123
-154 140 -167 173 -130 17 18 16 24 -7 123 -14 56 -33 140 -42 185 -21 99 -44
139 -90 159 -43 17 -61 17 -104 -2z"/>
<path d="M3910 5801 c-67 -70 -128 -137 -136 -149 -31 -44 16 -69 66 -35 59
40 179 131 228 172 42 37 52 51 52 76 0 38 -26 65 -63 65 -20 0 -52 -28 -147
-129z"/>
<path d="M2873 5910 c-38 -15 -46 -46 -40 -147 5 -86 16 -123 38 -123 4 0 11
10 15 22 3 12 22 54 40 94 45 96 45 127 -3 153 -25 13 -21 12 -50 1z"/>
<path d="M1648 5878 c-16 -13 -22 -34 -19 -70 1 -21 191 -251 225 -273 19 -13
29 -14 45 -5 12 6 21 16 21 22 0 21 -182 318 -201 328 -24 14 -52 12 -71 -2z"/>
<path d="M3282 5543 c2 -20 8 -28 23 -28 31 0 28 49 -3 53 -20 3 -23 0 -20
-25z"/>
<path d="M1400 5460 c-45 -45 -15 -100 67 -124 83 -24 281 -42 295 -28 10 10
8 17 -8 32 -23 24 -285 140 -314 140 -11 0 -29 -9 -40 -20z"/>
<path d="M4015 5444 c-122 -26 -165 -43 -165 -69 0 -19 53 -32 160 -39 103 -8
188 5 207 30 19 25 16 68 -5 87 -24 22 -53 21 -197 -9z"/>
<path d="M2695 5424 c-11 -2 -45 -9 -75 -15 -85 -17 -212 -82 -268 -138 -44
-44 -53 -49 -103 -53 -30 -2 -75 -14 -100 -26 -92 -45 -355 -296 -442 -421
-76 -111 -88 -225 -35 -332 39 -79 239 -283 371 -378 62 -45 86 -68 83 -80
-17 -56 -128 -639 -197 -1036 l-81 -470 -78 -125 c-127 -204 -264 -439 -316
-539 -79 -155 -70 -232 36 -291 41 -23 55 -25 165 -24 100 0 137 5 220 28 221
62 234 77 458 526 108 216 129 268 181 437 33 106 62 193 65 193 3 0 17 -16
31 -34 14 -19 81 -101 151 -183 l125 -149 -12 -145 c-7 -79 -20 -218 -28 -309
-22 -230 -21 -327 3 -367 30 -49 97 -82 184 -92 184 -21 479 42 535 114 40 51
24 132 -39 201 -18 19 -19 39 -17 390 l3 369 -32 85 c-39 103 -211 470 -294
625 -55 104 -59 117 -59 177 0 110 48 530 62 543 2 2 50 24 108 49 278 122
548 323 625 466 41 77 42 170 3 251 -58 116 -208 274 -433 456 -134 107 -173
127 -257 128 -63 1 -70 3 -125 47 -71 55 -99 70 -185 96 -66 21 -194 35 -233
26z m172 -158 c68 -18 129 -48 171 -83 l33 -28 -15 -37 c-37 -87 -5 -190 86
-278 l59 -58 -10 -55 c-13 -72 -33 -119 -76 -178 -158 -214 -517 -235 -697
-41 -138 149 -166 340 -77 528 84 178 325 283 526 230z m439 -172 c21 -14 55
-40 74 -58 19 -18 68 -58 108 -90 107 -86 256 -248 287 -311 47 -96 33 -150
-65 -245 -124 -122 -369 -268 -565 -339 l-80 -29 -22 -108 c-32 -161 -53 -338
-60 -503 l-5 -146 58 -110 c61 -116 217 -445 287 -605 l42 -95 0 -381 0 -380
28 -43 c34 -51 33 -52 -68 -78 -47 -12 -109 -17 -191 -18 -158 0 -158 0 -150
115 4 47 11 144 16 215 5 72 16 207 25 300 8 94 15 176 15 183 0 7 -28 43 -62
81 -35 37 -127 142 -206 233 -168 195 -279 304 -380 372 -56 38 -75 47 -84 38
-9 -9 -2 -25 30 -70 23 -31 62 -86 87 -122 l45 -65 -34 -110 c-83 -272 -140
-414 -257 -645 -176 -349 -184 -358 -333 -406 -93 -29 -255 -39 -278 -16 -20
19 24 101 282 532 19 30 56 90 83 132 56 88 53 79 107 378 22 124 51 286 65
360 14 74 48 263 76 420 27 157 59 328 70 380 46 215 51 250 45 274 -8 34 -17
33 -39 -5 l-17 -31 -38 28 c-177 131 -334 276 -384 353 -32 52 -37 110 -13
168 21 50 138 186 238 277 125 113 182 152 158 109 -14 -28 -41 -170 -41 -218
0 -24 -4 -45 -8 -47 -5 -1 -28 -29 -51 -60 -41 -55 -46 -58 -86 -58 -28 0 -50
-6 -60 -17 -16 -16 -16 -17 1 -30 10 -7 29 -13 44 -13 15 0 84 -36 167 -87 77
-49 155 -96 173 -106 22 -12 30 -22 26 -33 -10 -27 11 -43 44 -34 22 6 36 3
66 -18 117 -79 327 -90 464 -23 24 11 53 18 65 15 16 -4 32 5 61 34 21 21 53
42 69 46 50 12 163 65 252 118 46 27 97 54 114 60 36 13 37 33 2 50 -18 8 -48
47 -83 105 -64 106 -114 164 -157 182 -38 15 -78 57 -92 94 -39 103 41 164
135 101z m23 -458 l22 -23 -36 -22 c-20 -11 -38 -21 -39 -21 -2 0 4 20 13 45
9 25 16 45 17 45 0 0 11 -11 23 -24z m-1116 -16 c4 -17 2 -18 -14 -9 -11 5
-17 14 -14 20 10 15 22 10 28 -11z"/>
<path d="M3526 5391 c-8 -12 21 -34 34 -26 17 11 11 35 -9 35 -11 0 -22 -4
-25 -9z"/>
<path d="M7435 3810 c-133 -9 -246 -22 -325 -39 -25 -5 -69 -12 -99 -15 -30
-3 -60 -11 -66 -16 -7 -6 -18 -45 -24 -88 -7 -42 -39 -192 -71 -332 -32 -140
-61 -268 -64 -285 l-7 -30 -323 -1 c-300 -1 -326 -2 -357 -20 -103 -59 -124
-305 -41 -466 2 -5 -5 -8 -15 -8 -41 0 -287 -69 -311 -87 -15 -11 -38 -42 -52
-69 -23 -44 -25 -58 -24 -184 0 -115 3 -142 21 -180 24 -52 52 -84 91 -104 32
-16 223 -38 587 -66 143 -11 357 -29 474 -40 282 -26 319 -25 508 10 165 31
418 92 430 103 3 4 9 23 12 43 l6 36 115 -1 c144 -2 213 9 245 39 13 12 28 19
34 16 6 -4 39 -7 74 -8 66 -1 108 16 127 52 11 20 39 219 46 325 3 44 8 82 11
85 10 10 49 -51 113 -176 80 -155 109 -184 183 -184 101 1 205 74 232 162 27
93 14 121 -228 479 l-180 269 -40 0 -40 0 6 38 c4 20 19 148 34 284 30 271 28
292 -24 301 -15 3 -49 9 -75 12 -44 6 -48 8 -48 35 0 15 -8 38 -19 51 -16 20
-34 24 -192 40 -210 22 -547 31 -724 19z m620 -95 c77 -8 157 -17 179 -21 l39
-6 -7 -107 c-14 -198 -110 -854 -192 -1306 -19 -104 -34 -193 -34 -198 0 -4
-66 -6 -147 -5 l-148 3 -3 105 c-4 137 1 161 38 182 36 21 39 50 7 82 -21 21
-22 25 -9 45 12 17 12 26 2 50 -8 20 -11 74 -8 165 3 123 5 136 26 158 12 14
22 36 22 51 0 19 -6 28 -22 32 -38 8 -392 34 -565 41 -188 8 -173 -6 -144 135
31 149 73 438 67 454 -3 8 -12 15 -20 15 -10 0 -20 -33 -35 -117 -36 -196 -92
-467 -97 -473 -5 -5 -136 -1 -142 4 -1 2 25 122 57 268 33 145 65 293 70 328
6 35 15 68 20 73 5 5 40 13 78 18 37 4 95 13 128 19 164 31 571 33 840 5z
m359 -135 l38 -15 -6 -50 c-12 -90 -46 -388 -56 -480 -5 -49 -20 -205 -34
-345 -47 -469 -58 -551 -74 -548 -36 7 -37 32 -13 255 12 120 26 241 31 268 5
28 12 86 15 130 3 44 14 130 25 190 10 61 23 160 29 220 6 61 14 131 17 158 3
26 2 47 -3 47 -14 0 -82 -485 -98 -695 -5 -74 -33 -300 -56 -459 -5 -37 -16
-77 -23 -88 -17 -23 -55 -52 -62 -46 -2 3 11 90 30 194 19 104 40 216 45 249
6 33 18 101 26 150 18 101 64 439 97 708 12 97 25 176 28 175 3 -2 22 -10 44
-18z m139 -737 c239 -363 305 -477 307 -524 0 -18 -30 -46 -77 -72 -47 -26
-64 -12 -116 95 -44 89 -117 215 -178 306 -16 24 -29 55 -29 70 0 24 5 20 39
-33 53 -79 97 -132 106 -123 9 8 -44 105 -97 176 l-40 53 7 75 c4 41 9 74 11
74 2 0 32 -44 67 -97z m-1658 27 c248 -11 533 -20 634 -20 170 0 183 -1 176
-17 -24 -57 -32 -192 -16 -250 9 -31 8 -33 -22 -37 -103 -16 -403 -27 -597
-23 -199 4 -559 24 -825 45 l-90 7 -18 35 c-34 66 -10 241 37 272 19 13 250 9
721 -12z m-325 -441 c443 -26 539 -30 680 -31 l155 0 -95 -25 c-115 -31 -251
-33 -525 -9 -236 21 -437 35 -610 43 -129 6 -137 7 -105 19 40 15 272 16 500
3z m1107 -111 c-14 -61 -18 -161 -8 -232 6 -44 9 -81 6 -84 -6 -6 -233 -58
-418 -96 l-126 -26 -158 14 c-87 8 -232 22 -323 30 -244 23 -633 57 -732 63
-105 7 -114 15 -129 104 -15 93 4 220 35 232 20 8 954 -54 1261 -83 87 -8 110
-6 180 11 72 17 387 85 409 88 4 1 6 -9 3 -21z"/>
<path d="M7500 3452 c-19 -16 -21 -22 -11 -40 6 -12 17 -22 24 -22 18 0 75
-62 62 -66 -32 -12 -125 -88 -125 -103 0 -26 21 -41 56 -41 26 0 40 8 68 43
19 24 47 49 61 57 23 12 28 11 56 -16 21 -20 28 -35 25 -50 -11 -41 68 -70
109 -41 23 17 14 63 -14 72 -11 3 -31 21 -45 40 l-27 35 33 29 c25 22 40 28
60 24 20 -4 30 0 43 21 16 25 16 27 0 52 -14 22 -22 25 -47 20 -17 -3 -37 -6
-45 -6 -10 0 -12 -6 -8 -19 5 -15 -4 -25 -38 -45 -62 -37 -78 -33 -130 24 -48
54 -72 61 -107 32z"/>
<path d="M8510 2797 c0 -4 37 -69 81 -144 130 -221 145 -246 169 -290 23 -41
40 -55 40 -33 0 18 -84 170 -146 265 -33 50 -63 97 -69 106 -19 31 -75 102
-75 96z"/>
<path d="M7297 2783 c-98 -7 -53 -23 62 -23 124 0 187 9 156 21 -20 8 -110 8
-218 2z"/>
<path d="M7026 2771 c-9 -14 20 -21 87 -21 64 0 107 8 107 19 0 10 -188 12
-194 2z"/>
<path d="M6641 2640 c43 -13 499 -43 547 -36 28 4 50 2 58 -5 15 -12 128 -12
319 1 l110 7 -110 4 c-60 2 -150 5 -200 5 -132 2 -129 2 -116 18 11 12 -33 14
-311 14 -178 0 -311 -4 -297 -8z"/>
<path d="M5895 2239 c-7 -11 36 -18 195 -29 74 -6 200 -15 280 -21 80 -6 174
-7 210 -3 l65 8 -62 7 c-66 8 -445 35 -596 42 -48 3 -90 1 -92 -4z"/>
<path d="M6738 2183 c7 -3 16 -2 19 1 4 3 -2 6 -13 5 -11 0 -14 -3 -6 -6z"/>
<path d="M6798 2183 c12 -2 32 -2 45 0 12 2 2 4 -23 4 -25 0 -35 -2 -22 -4z"/>
<path d="M5890 2104 c0 -5 26 -11 58 -12 31 -1 145 -9 252 -17 495 -37 703
-50 796 -50 l102 0 10 -27 c13 -36 34 -36 134 -2 88 30 94 49 11 39 -35 -4
-59 -3 -68 5 -7 6 -39 10 -72 8 -32 -1 -103 3 -158 10 -292 35 -1065 68 -1065
46z"/>
</g>
</svg>
