<?xml version="1.0" standalone="no"?>
<!DOCTYPE svg PUBLIC "-//W3C//DTD SVG 20010904//EN"
 "http://www.w3.org/TR/2001/REC-SVG-20010904/DTD/svg10.dtd">
<svg version="1.0" xmlns="http://www.w3.org/2000/svg"
 width="1024.000000pt" height="1024.000000pt" viewBox="0 0 1024.000000 1024.000000"
 preserveAspectRatio="xMidYMid meet">

<g transform="translate(0.000000,1024.000000) scale(0.100000,-0.100000)"
fill="#000000" stroke="none">
<path d="M2954 9040 c-12 -4 -31 -21 -43 -36 l-21 -27 0 -1082 c0 -1035 1
-1083 18 -1098 26 -24 68 -21 86 5 14 20 16 138 16 1070 l0 1048 2494 0 2493
0 6 -82 c4 -46 7 -230 7 -409 0 -260 3 -329 13 -338 10 -8 25 -3 60 19 l47 30
0 410 c0 451 0 454 -60 485 -26 13 -317 15 -2562 14 -1393 0 -2543 -4 -2554
-9z"/>
<path d="M7070 8815 c0 -8 5 -15 10 -15 6 0 10 7 10 15 0 8 -4 15 -10 15 -5 0
-10 -7 -10 -15z"/>
<path d="M6941 8713 c80 -5 94 -24 50 -67 -24 -23 -35 -26 -126 -29 -55 -1
103 -4 351 -5 396 -2 453 -4 458 -17 3 -9 6 -229 6 -491 1 -291 4 -472 10
-469 5 3 19 36 30 74 11 37 31 89 45 115 l25 47 0 384 c0 266 -4 392 -11 409
-25 55 -40 56 -491 54 -227 -1 -383 -3 -347 -5z m544 -10 c-27 -2 -61 -6 -75
-9 l-25 -6 25 -13 c14 -8 19 -14 13 -15 -7 0 -13 -6 -13 -14 0 -8 6 -17 13
-19 6 -3 -46 -6 -118 -6 -72 0 -124 3 -117 8 7 4 12 12 11 17 -4 21 2 34 16
34 21 0 19 18 -2 23 -10 3 59 4 152 4 94 0 148 -2 120 -4z m230 -3 c3 -5 -3
-10 -14 -10 -12 0 -21 -6 -21 -14 0 -7 -10 -16 -22 -20 -42 -11 -49 -8 -42 20
5 19 4 25 -5 20 -6 -4 -11 -2 -11 3 0 14 107 15 115 1z m-242 -37 c-7 -2 -19
-2 -25 0 -7 3 -2 5 12 5 14 0 19 -2 13 -5z m211 -21 c3 -5 -1 -9 -9 -9 -8 0
-12 4 -9 9 3 4 7 8 9 8 2 0 6 -4 9 -8z m-37 -18 c-3 -3 -12 -4 -19 -1 -8 3 -5
6 6 6 11 1 17 -2 13 -5z m133 -566 c-1 -103 -2 -111 -15 -88 -8 14 -14 21 -15
17 -1 -22 -40 17 -41 41 -1 24 -2 23 -9 -8 -7 -32 -7 -31 -9 18 -1 33 3 51 9
47 6 -3 10 1 10 9 0 9 11 18 25 22 15 4 28 16 31 30 3 13 8 24 10 24 2 0 4
-51 4 -112z"/>
<path d="M5378 8613 c12 -2 30 -2 40 0 9 3 -1 5 -23 4 -22 0 -30 -2 -17 -4z"/>
<path d="M6113 8613 c15 -2 37 -2 50 0 12 2 0 4 -28 4 -27 0 -38 -2 -22 -4z"/>
<path d="M6413 8613 c9 -2 25 -2 35 0 9 3 1 5 -18 5 -19 0 -27 -2 -17 -5z"/>
<path d="M8294 8070 c-225 -34 -418 -207 -468 -420 -45 -188 6 -368 142 -510
l67 -69 -35 -6 c-83 -15 -197 -71 -333 -162 -78 -52 -151 -104 -163 -114 -11
-11 -23 -19 -26 -19 -12 0 -142 175 -182 245 -77 133 -165 191 -278 183 l-43
-3 -180 272 c-99 150 -202 307 -230 349 -27 43 -59 81 -71 85 -34 12 -69 -11
-72 -48 -4 -35 60 -140 308 -514 l137 -205 -27 -31 c-39 -43 -56 -129 -41
-198 13 -56 36 -98 136 -250 188 -285 290 -407 380 -451 48 -23 64 -26 138
-23 74 4 93 9 168 46 46 23 85 40 86 39 1 -1 -2 -40 -7 -87 -24 -210 -31 -551
-24 -1103 l7 -570 23 -23 c28 -28 45 -29 73 -5 20 17 20 21 24 822 4 797 7
876 43 1187 7 65 -3 133 -21 133 -7 0 -15 -13 -18 -29 -3 -16 -20 -60 -37 -97
-30 -67 -33 -70 -113 -116 -156 -88 -251 -100 -325 -41 -73 59 -242 284 -379
505 -78 124 -14 257 111 234 46 -9 88 -45 120 -102 48 -86 240 -334 264 -340
17 -5 61 20 201 114 196 132 245 160 340 191 118 39 180 44 339 32 349 -29
507 -120 626 -364 80 -165 173 -470 196 -648 14 -108 12 -234 -4 -272 -7 -18
-28 -46 -47 -61 -29 -24 -39 -28 -81 -24 -56 6 -92 34 -115 88 -10 21 -19 93
-24 183 -6 102 -15 166 -29 207 -28 84 -146 323 -169 344 -38 35 -38 32 -57
-314 -3 -58 0 -163 6 -235 7 -71 15 -213 18 -313 7 -177 8 -184 31 -203 28
-23 49 -24 75 -4 18 13 19 27 17 171 -1 107 1 154 8 149 6 -3 11 -12 11 -18 0
-7 16 -36 35 -64 43 -64 105 -102 177 -110 113 -11 201 39 251 144 29 63 30
73 30 187 0 256 -121 695 -252 915 -81 136 -200 238 -329 282 -34 11 -62 22
-62 24 0 2 22 17 50 35 255 164 316 541 126 785 -49 62 -94 102 -161 143 -96
58 -250 89 -361 72z m151 -125 c150 -32 252 -109 315 -238 120 -248 -13 -535
-281 -607 -28 -7 -85 -11 -140 -8 -76 3 -105 8 -152 30 -125 59 -224 193 -249
337 -10 59 -9 81 5 147 21 97 46 146 105 208 73 75 154 119 252 136 65 11 68
11 145 -5z m317 -2050 c3 -14 1 -28 -3 -31 -5 -3 -9 9 -9 25 0 38 6 40 12 6z"/>
<path d="M3310 6740 c-9 -6 -10 -10 -3 -10 6 0 15 5 18 10 8 12 4 12 -15 0z"/>
<path d="M2827 6443 c-17 -20 -22 -49 -11 -77 9 -24 65 -34 243 -41 124 -6
159 -10 145 -18 -34 -19 -359 -264 -374 -282 -8 -10 -14 -36 -14 -58 2 -72 6
-73 305 -81 237 -6 264 -5 280 10 22 20 25 63 5 90 -13 17 -31 19 -200 24
l-186 5 68 52 c37 29 122 93 189 142 128 94 143 111 143 160 0 70 -20 74 -390
87 -174 6 -186 5 -203 -13z"/>
<path d="M2643 6217 c-6 -10 -7 -9 36 -24 38 -14 64 -3 55 22 -6 15 -82 17
-91 2z"/>
<path d="M3486 6164 c-10 -25 -7 -32 14 -39 30 -9 52 12 39 36 -12 23 -45 25
-53 3z"/>
<path d="M7297 6081 c-3 -12 -1 -19 4 -15 10 6 10 7 14 -56 1 -25 6 -57 10
-70 8 -24 8 -24 16 -5 11 28 11 155 0 155 -5 0 -16 3 -24 6 -9 3 -16 -3 -20
-15z m40 -123 c-3 -8 -6 -5 -6 6 -1 11 2 17 5 13 3 -3 4 -12 1 -19z"/>
<path d="M2398 6049 c-26 -15 -22 -56 7 -75 13 -8 57 -22 97 -31 40 -8 77 -18
82 -23 10 -10 -25 -74 -73 -134 -38 -48 -41 -92 -8 -107 17 -8 39 -6 84 5 34
9 78 16 98 16 l38 0 -6 -59 c-5 -62 3 -81 35 -81 47 0 64 135 22 181 -17 19
-26 21 -91 15 -84 -8 -86 -5 -47 61 14 24 29 67 33 94 12 72 -8 90 -124 118
-49 12 -99 23 -110 26 -11 3 -28 0 -37 -6z"/>
<path d="M3790 5963 c0 -5 53 -7 117 -5 211 4 231 8 56 10 -95 1 -173 -1 -173
-5z"/>
<path d="M4203 5963 c37 -2 97 -2 135 0 37 2 6 3 -68 3 -74 0 -105 -1 -67 -3z"/>
<path d="M4623 5963 c87 -2 227 -2 310 0 84 1 13 3 -158 3 -170 0 -239 -2
-152 -3z"/>
<path d="M5138 5963 c12 -2 30 -2 40 0 9 3 -1 5 -23 4 -22 0 -30 -2 -17 -4z"/>
<path d="M5412 5963 c92 -2 245 -2 340 0 95 1 20 3 -167 3 -187 0 -265 -2
-173 -3z"/>
<path d="M6198 5963 c78 -2 206 -2 285 0 78 1 14 3 -143 3 -157 0 -221 -2
-142 -3z"/>
<path d="M6735 5960 c39 -4 60 -7 49 -8 -12 -1 -25 -9 -28 -18 -3 -8 -10 -12
-16 -9 -6 4 -9 -4 -8 -19 2 -17 6 -22 12 -16 13 13 46 13 46 0 0 -5 3 -9 8 -9
4 1 18 1 32 0 20 -1 22 -3 10 -11 -10 -6 42 -9 155 -8 94 1 146 3 116 5 -52 4
-53 5 -48 32 3 15 2 33 -3 41 -8 12 2 16 58 21 37 3 -50 5 -193 5 -144 0 -229
-2 -190 -6z"/>
<path d="M3748 5949 c-11 -6 -18 -22 -18 -38 0 -22 6 -31 28 -39 17 -7 215
-12 530 -16 l502 -5 -7 27 c-3 15 -6 32 -6 39 0 13 -64 36 -78 28 -4 -3 -83
-7 -175 -9 -110 -3 -170 -8 -172 -15 -2 -6 -28 -11 -58 -11 -34 0 -53 -4 -49
-10 3 -5 0 -11 -7 -12 -7 0 7 -4 32 -8 33 -5 13 -7 -72 -8 -65 -1 -117 1 -117
6 3 17 -2 32 -16 45 -20 20 -178 32 -232 18 -44 -12 -85 -5 -61 10 19 12 -3
10 -24 -2z"/>
<path d="M5455 5931 c-76 -6 -80 -7 -84 -31 -1 -14 -8 -28 -15 -32 -6 -4 75
-7 179 -6 105 1 169 3 143 5 -32 3 -45 8 -42 16 2 7 -1 21 -9 30 -15 22 -62
27 -172 18z"/>
<path d="M6710 5900 c0 -6 -4 -9 -9 -6 -4 3 -19 -3 -31 -14 l-23 -20 54 1 c30
1 46 3 36 6 -11 3 -16 11 -13 19 3 7 1 16 -4 19 -6 4 -10 1 -10 -5z"/>
<path d="M5019 5881 c11 -7 4 -11 -25 -14 -21 -2 8 -4 66 -4 58 0 86 2 62 4
-23 2 -40 8 -37 14 4 5 -12 9 -37 9 -30 0 -39 -3 -29 -9z m48 -7 c-3 -3 -12
-4 -19 -1 -8 3 -5 6 6 6 11 1 17 -2 13 -5z"/>
<path d="M6198 5863 c7 -3 16 -2 19 1 4 3 -2 6 -13 5 -11 0 -14 -3 -6 -6z"/>
<path d="M1778 5684 c-246 -44 -478 -215 -588 -434 -56 -111 -82 -216 -84
-331 l-1 -106 -47 -26 c-82 -46 -122 -133 -121 -262 0 -125 36 -217 138 -359
l57 -79 -81 -246 c-111 -336 -132 -423 -140 -561 l-6 -115 -88 -5 c-106 -6
-127 -22 -127 -97 0 -86 76 -119 106 -46 14 33 16 34 70 32 l55 -2 32 -60 c42
-81 114 -152 183 -184 47 -21 72 -26 139 -26 l81 0 -108 -208 c-116 -222 -127
-260 -88 -299 20 -20 33 -20 595 -20 522 0 579 -2 608 -17 45 -24 171 -24 214
0 29 16 80 17 608 17 562 0 575 0 595 20 11 11 20 31 20 45 0 28 -100 239
-234 492 l-86 162 29 6 c16 3 49 19 74 36 l44 29 183 1 c100 0 184 -1 186 -4
2 -2 -32 -56 -75 -119 -83 -120 -104 -175 -80 -205 40 -48 51 -203 19 -283
-27 -68 -25 -94 9 -132 l29 -33 615 0 c713 0 646 -11 701 115 18 41 65 142
105 223 39 82 74 159 77 173 3 13 8 24 11 24 9 0 80 -38 130 -69 64 -41 141
-48 172 -16 32 33 36 85 10 119 -29 37 -208 121 -301 140 -23 5 -28 12 -28 36
l0 30 199 0 198 0 44 -47 c24 -27 130 -149 235 -273 106 -124 266 -313 358
-420 l165 -195 -2830 -3 c-2312 -2 -2831 -4 -2835 -15 -2 -7 -6 -103 -7 -214
l-2 -200 179 -7 c99 -3 1290 -6 2648 -6 l2468 0 0 -205 c0 -205 0 -206 25
-230 31 -31 49 -31 80 0 25 24 25 24 25 235 l0 210 179 0 179 0 26 31 c26 30
26 31 26 215 l0 183 -67 83 c-241 300 -785 924 -832 955 -33 22 -42 23 -244
23 l-211 0 -29 28 -28 27 -604 0 -603 0 -38 -30 c-38 -29 -42 -30 -119 -25
l-80 5 -7 81 c-10 108 -68 330 -120 462 -46 116 -122 239 -168 272 -18 13 -39
47 -60 98 -123 296 -273 482 -463 576 -50 25 -131 55 -178 67 l-86 21 21 41
c30 61 29 184 -3 250 -24 48 -67 92 -106 107 -13 5 -26 24 -34 52 -33 110
-128 257 -213 332 -53 47 -173 114 -238 135 -43 13 -279 41 -340 40 -25 0 -79
-7 -122 -15z m279 -125 c13 -5 44 -9 68 -9 54 0 142 -32 210 -75 99 -63 196
-197 240 -332 16 -50 53 -93 80 -93 33 0 85 -93 85 -152 0 -41 -16 -98 -34
-123 -12 -17 -15 -14 -31 34 l-17 53 -19 -42 c-15 -32 -19 -66 -19 -144 0
-164 -36 -266 -131 -370 -60 -66 -159 -127 -243 -151 -72 -21 -242 -24 -306
-6 -25 7 -78 26 -117 43 l-73 30 -38 81 c-39 83 -211 318 -299 408 -45 47
-133 99 -166 99 -15 0 -17 11 -17 88 0 111 18 181 77 296 106 206 303 343 545
376 69 9 165 4 205 -11z m-808 -878 c23 -12 68 -57 117 -117 43 -54 95 -116
115 -138 56 -64 85 -106 118 -172 l31 -61 0 -209 c0 -332 -36 -714 -80 -856
-51 -166 -191 -256 -333 -214 -113 33 -176 124 -185 268 -9 145 14 245 144
642 42 126 76 248 77 271 2 33 -5 50 -28 79 -118 147 -165 247 -165 348 0 146
81 214 189 159z m1677 -96 c228 -69 381 -256 546 -670 82 -204 158 -494 158
-599 0 -60 -26 -120 -66 -158 -73 -68 -189 -95 -614 -144 -227 -26 -237 -28
-290 -60 -30 -19 -85 -41 -122 -50 -62 -15 -71 -15 -143 1 -167 37 -193 146
-63 273 70 68 295 154 633 242 168 43 184 49 195 71 8 15 5 29 -14 62 -13 23
-38 77 -55 119 -53 133 -117 265 -134 271 -33 12 -36 -15 -16 -133 17 -99 28
-150 55 -242 3 -11 0 -18 -9 -18 -14 0 -101 -24 -262 -71 -142 -41 -312 -102
-368 -132 -72 -38 -137 -94 -162 -141 l-20 -36 -121 0 -121 0 -17 127 c-19
136 -46 249 -78 328 -11 27 -24 60 -29 73 -14 35 -26 19 -33 -46 -4 -33 -14
-68 -22 -78 -14 -17 -15 -15 -10 36 4 30 9 148 13 263 3 114 7 207 8 207 2 0
20 -7 41 -16 247 -105 558 -52 745 128 106 101 168 215 184 335 13 99 10 96
63 88 26 -3 83 -17 128 -30z m-1145 -1221 c4 -21 9 -75 10 -119 l4 -79 -50 3
c-27 1 -51 3 -52 4 -3 4 38 185 48 210 16 37 32 29 40 -19z m1993 -141 l7 -53
-32 0 c-26 0 -30 3 -24 18 5 9 13 43 19 76 11 64 17 57 30 -41z m1451 -210
c-26 -49 -64 -116 -83 -150 l-36 -63 -573 0 c-315 0 -573 3 -573 7 0 3 26 43
58 87 32 45 78 109 101 144 l42 62 555 0 556 0 -47 -87z m-3109 -1 c6 -4 14
-23 18 -43 11 -61 60 -117 130 -150 35 -16 86 -32 114 -36 l51 -6 3 -166 c2
-91 2 -177 0 -191 l-4 -25 -569 -1 c-313 0 -569 2 -569 5 0 3 7 15 15 25 8 11
15 27 15 36 0 8 42 94 94 190 116 215 127 234 173 290 l36 45 141 16 c152 17
334 23 352 11z m3176 -122 c-7 -19 -7 -31 0 -38 15 -15 -9 -77 -95 -244 -69
-135 -70 -137 -84 -111 -7 14 -16 50 -19 79 -7 54 -7 54 42 107 34 36 66 88
104 168 41 88 56 110 58 92 2 -13 -1 -37 -6 -53z m-1849 -105 c73 -137 119
-227 184 -357 l14 -28 -518 0 c-285 0 -542 -3 -570 -6 l-53 -7 0 196 0 195 50
7 c27 4 87 25 132 46 74 36 94 41 217 54 161 16 372 43 421 54 19 4 36 7 36 7
1 -1 40 -73 87 -161z m2168 48 c28 -17 40 -43 19 -43 -6 0 -24 10 -40 22 -50
37 -33 53 21 21z m-531 -137 c0 -7 -7 -30 -15 -49 -8 -20 -15 -59 -15 -87 0
-39 -4 -52 -17 -56 -43 -14 -63 -28 -53 -38 6 -6 18 -5 36 3 15 6 28 10 29 9
1 -2 9 -22 18 -45 l17 -43 -560 0 -561 0 16 30 c31 60 31 166 -1 273 -5 16 26
17 550 17 466 0 556 -2 556 -14z m-2730 -688 c-59 -17 -110 -21 -110 -9 0 6
-41 12 -112 14 -70 2 -42 3 72 4 137 1 176 -2 150 -9z m1307 5 c-7 -7 -128 -5
-136 2 -2 3 29 5 69 5 40 0 70 -3 67 -7z m2411 -77 c-2 -11 2 -20 7 -19 6 1
12 -7 12 -19 1 -14 -3 -18 -13 -14 -9 3 -12 2 -9 -5 4 -5 1 -16 -5 -24 -10
-12 -10 -15 1 -15 12 0 12 -2 0 -9 -25 -16 -58 7 -57 40 1 16 5 29 9 29 5 0 5
5 2 10 -3 6 4 10 17 11 13 0 18 3 12 5 -7 3 -10 13 -7 24 7 26 35 13 31 -14z
m-4470 -36 c23 0 42 -3 42 -8 0 -4 -24 -16 -52 -26 -29 -10 -74 -29 -100 -41
l-46 -22 -4 27 c-9 58 19 83 82 75 19 -3 54 -5 78 -5z"/>
<path d="M2510 4815 c0 -10 40 -49 45 -44 6 7 -24 49 -36 49 -5 0 -9 -2 -9 -5z"/>
<path d="M2331 4683 c-36 -21 -66 -44 -69 -50 -6 -20 118 -17 146 3 34 24 26
84 -11 84 -1 0 -31 -17 -66 -37z"/>
<path d="M1893 4464 c-48 -40 -53 -58 -22 -74 48 -26 107 28 93 85 -8 33 -21
31 -71 -11z"/>
<path d="M4780 3040 c-8 -6 -44 -8 -80 -6 -36 3 -146 2 -245 -3 -151 -7 -163
-8 -75 -9 58 -1 163 -5 233 -9 112 -5 127 -8 121 -22 -4 -9 -7 -26 -7 -37 1
-21 -4 -21 -211 -29 -200 -7 -351 -20 -281 -24 386 -22 773 -29 833 -16 36 9
13 28 -58 49 -52 16 -65 17 -86 5 -14 -7 -46 -13 -72 -13 -42 -1 -47 2 -50 22
-6 39 23 61 64 52 20 -5 43 -15 52 -22 25 -22 59 -20 65 3 5 17 15 19 117 19
97 0 111 2 101 14 -15 17 -66 23 -261 30 -90 4 -151 2 -160 -4z"/>
<path d="M1637 2683 c-21 -5 -18 -27 5 -31 9 -2 18 6 21 18 3 11 2 19 -1 19
-4 -1 -15 -3 -25 -6z"/>
<path d="M1535 2455 c-5 -2 -40 -6 -77 -10 -36 -3 -74 -13 -85 -22 -17 -14
-17 -14 2 -8 11 4 79 11 150 16 160 12 216 27 100 27 -44 0 -84 -1 -90 -3z"/>
<path d="M3275 2454 c17 -2 81 -11 143 -21 61 -9 115 -13 119 -9 18 18 -26 27
-153 31 -76 2 -125 2 -109 -1z"/>
<path d="M2258 2003 c6 -2 18 -2 25 0 6 3 1 5 -13 5 -14 0 -19 -2 -12 -5z"/>
<path d="M6038 1903 c7 -3 16 -2 19 1 4 3 -2 6 -13 5 -11 0 -14 -3 -6 -6z"/>
<path d="M3440 5633 c-69 -6 -103 -50 -73 -92 l14 -21 2090 0 2089 0 11 24 c7
14 9 40 5 60 l-7 36 -2042 -2 c-1123 -1 -2062 -3 -2087 -5z"/>
<path d="M8172 5388 c-8 -8 -12 -47 -12 -110 0 -112 10 -126 58 -86 58 46 64
120 15 178 -27 32 -42 37 -61 18z"/>
<path d="M4995 5244 c-214 -32 -396 -180 -454 -370 -63 -203 -20 -381 132
-539 37 -38 67 -71 67 -71 0 -1 -18 -4 -41 -8 -130 -21 -267 -93 -370 -196
-68 -67 -84 -90 -136 -200 -65 -135 -110 -258 -143 -387 -26 -106 -26 -154 1
-179 20 -18 21 -18 57 3 24 13 38 29 40 44 12 107 81 306 163 476 86 179 197
266 407 319 115 29 304 48 387 39 196 -23 402 -81 495 -140 77 -49 180 -189
181 -247 0 -13 -2 -52 -5 -88 -3 -51 -2 -60 6 -42 6 12 15 22 20 22 5 0 6 -5
2 -12 -5 -8 -2 -9 9 -5 12 5 19 -1 23 -19 9 -34 -13 -48 -43 -29 -20 13 -22
13 -25 -8 -6 -45 4 -78 27 -87 33 -13 40 -29 37 -86 -3 -36 1 -54 12 -63 9 -8
16 -23 16 -35 0 -17 2 -18 10 -6 7 11 10 2 10 -31 0 -41 4 -51 35 -78 43 -37
50 -38 70 -7 54 83 -9 486 -106 686 -81 164 -230 281 -434 339 l-80 23 78 78
c87 88 119 147 143 262 56 266 -118 546 -386 622 -61 17 -159 26 -205 20z
m169 -139 c93 -28 174 -90 233 -176 35 -53 63 -121 62 -152 -1 -21 -1 -21 -8
3 -5 17 -9 21 -15 12 -4 -7 -12 -10 -17 -7 -5 4 -9 -1 -9 -10 0 -9 -4 -13 -10
-10 -5 3 -10 1 -10 -5 0 -6 -4 -9 -9 -6 -5 3 -11 -13 -15 -35 -4 -23 -14 -55
-22 -71 -9 -17 -11 -27 -5 -24 29 18 4 -13 -56 -70 -77 -73 -145 -110 -218
-119 -57 -7 -114 -33 -116 -52 -1 -7 -2 -18 -3 -23 0 -6 -8 -15 -16 -20 -12
-8 -12 -10 5 -11 12 0 15 -3 7 -6 -20 -8 -138 54 -182 96 -22 21 -55 71 -76
115 -68 142 -55 294 33 414 56 75 152 141 238 162 51 13 158 10 209 -5z m-177
-791 c-3 -3 -12 -4 -19 -1 -8 3 -5 6 6 6 11 1 17 -2 13 -5z m880 -871 c-3 -10
-5 -4 -5 12 0 17 2 24 5 18 2 -7 2 -21 0 -30z"/>
<path d="M4820 4385 c0 -2 10 -10 23 -16 20 -11 21 -11 8 4 -13 16 -31 23 -31
12z"/>
<path d="M6790 5244 c-265 -48 -445 -238 -466 -496 -5 -57 -2 -92 15 -157 26
-105 57 -159 141 -243 l66 -66 -85 -22 c-217 -58 -363 -174 -457 -365 l-44
-90 26 -72 c15 -40 29 -73 33 -73 3 1 36 63 73 139 59 121 76 146 131 198 110
102 262 162 472 184 104 11 309 5 348 -11 17 -7 18 -9 5 -9 -12 -1 -18 -9 -18
-25 0 -34 -51 -82 -107 -99 -27 -9 -87 -18 -135 -22 -163 -11 -305 -68 -377
-151 -36 -40 -81 -127 -104 -199 -15 -47 -32 -149 -44 -272 -3 -31 -11 -54
-19 -57 -12 -4 -14 23 -14 155 0 120 -3 160 -12 157 -6 -2 -29 -55 -51 -117
-38 -109 -39 -118 -40 -254 l-2 -141 25 -12 c71 -34 309 -80 520 -100 152 -15
197 -16 345 -5 94 6 220 21 280 32 61 11 131 24 157 29 27 5 58 16 70 24 18
13 52 16 161 16 135 0 138 1 164 26 26 26 26 27 20 138 -9 147 -40 276 -122
501 -49 135 -105 227 -188 308 -77 75 -184 133 -297 163 -36 9 -71 18 -78 20
-8 2 10 23 43 51 269 218 223 666 -86 846 -91 53 -259 87 -349 71z m215 -148
c33 -12 59 -25 58 -31 -1 -12 -58 -22 -158 -30 -178 -13 -284 -82 -351 -230
-31 -68 -35 -140 -10 -220 9 -27 16 -70 16 -94 0 -44 0 -44 -20 -26 -12 11
-35 48 -53 84 -30 61 -32 74 -32 166 0 93 2 105 34 173 61 130 175 212 321
232 69 9 119 3 195 -24z"/>
<path d="M8530 5235 c-220 -50 -390 -231 -420 -448 -24 -168 29 -319 151 -439
l69 -66 -33 -7 c-219 -44 -406 -176 -492 -347 l-38 -77 29 -65 c16 -36 31 -65
34 -65 3 0 18 29 35 66 38 86 113 192 167 236 152 123 384 179 669 163 69 -5
132 -12 139 -16 11 -7 9 -18 -12 -57 -39 -70 -72 -84 -229 -94 -259 -17 -414
-105 -483 -275 -18 -43 -76 -328 -76 -370 0 -2 -7 -4 -15 -4 -13 0 -19 11 -17
32 5 35 2 241 -3 246 -12 13 -35 -31 -66 -126 -28 -89 -29 -98 -19 -175 5 -45
11 -109 13 -142 l2 -60 71 -27 c161 -61 488 -104 729 -94 140 5 345 32 425 56
19 5 48 10 65 10 16 0 45 9 63 20 25 15 52 20 115 21 45 1 114 4 152 8 69 6
70 6 89 45 18 36 18 46 7 132 -16 124 -42 230 -97 401 -101 316 -250 471 -520
544 l-82 22 51 41 c61 49 132 152 153 221 9 27 18 93 21 146 7 115 -14 197
-72 294 -48 79 -86 118 -165 170 -122 80 -277 110 -410 80z m198 -120 c76 -18
103 -31 171 -85 57 -45 62 -62 11 -36 l-31 15 6 -32 c3 -18 16 -72 27 -121 19
-77 20 -97 11 -153 -30 -173 -183 -274 -382 -252 -45 5 -100 16 -124 25 -80
30 -86 30 -82 -2 l3 -29 -34 39 c-51 59 -77 148 -72 254 3 75 8 97 37 154 59
119 180 210 305 228 77 11 86 11 154 -5z"/>
<path d="M5821 3634 c0 -11 3 -14 6 -6 3 7 2 16 -1 19 -3 4 -6 -2 -5 -13z"/>
<path d="M4389 3566 c-16 -35 -37 -101 -45 -147 -9 -46 -21 -87 -27 -91 -6 -3
11 -10 38 -14 79 -11 80 -9 83 165 2 103 -1 151 -8 151 -6 0 -24 -29 -41 -64z"/>
<path d="M5627 3623 c-4 -3 -7 -82 -7 -173 0 -200 -2 -195 97 -184 39 5 56 10
41 12 -25 3 -28 7 -29 45 0 23 -2 53 -4 67 -28 174 -67 265 -98 233z"/>
<path d="M6058 3343 c4 -189 9 -207 10 -38 0 77 -3 148 -7 158 -3 10 -5 -44
-3 -120z"/>
<path d="M5845 2750 c11 -5 27 -9 35 -9 13 -1 13 0 0 9 -8 5 -24 9 -35 9 l-20
0 20 -9z"/>
<path d="M5570 2280 c36 -4 69 -3 75 2 5 4 -25 7 -65 6 l-75 -1 65 -7z"/>
</g>
</svg>
