<?xml version="1.0" standalone="no"?>
<!DOCTYPE svg PUBLIC "-//W3C//DTD SVG 20010904//EN"
 "http://www.w3.org/TR/2001/REC-SVG-20010904/DTD/svg10.dtd">
<svg version="1.0" xmlns="http://www.w3.org/2000/svg"
 width="1024.000000pt" height="1024.000000pt" viewBox="0 0 1024.000000 1024.000000"
 preserveAspectRatio="xMidYMid meet">

<g transform="translate(0.000000,1024.000000) scale(0.100000,-0.100000)"
fill="#000000" stroke="none">
<path d="M3267 8766 c-161 -29 -298 -82 -419 -162 -221 -147 -373 -368 -428
-624 -60 -273 -44 -520 46 -754 41 -107 90 -189 163 -275 52 -61 53 -65 35
-78 -32 -24 -212 -107 -333 -154 -86 -33 -123 -53 -151 -82 l-36 -37 -220 -11
c-120 -6 -292 -9 -381 -5 -103 4 -182 2 -215 -5 -158 -33 -266 -177 -303 -400
-19 -119 -19 -212 0 -276 32 -108 142 -171 249 -144 24 6 46 11 48 11 2 0 12
-16 22 -35 34 -63 118 -97 190 -77 l36 10 0 -46 c0 -26 -9 -93 -20 -150 -24
-123 -25 -173 -5 -212 21 -40 72 -56 118 -36 75 31 89 96 58 266 -12 63 -21
138 -21 166 l0 52 40 -5 c81 -11 163 43 227 149 l28 47 250 5 c138 3 261 8
275 11 19 5 34 -1 63 -27 37 -33 37 -33 25 -73 -7 -23 -12 -98 -13 -180 0
-121 3 -150 24 -213 57 -174 175 -263 305 -229 l29 8 -7 -98 c-20 -295 -21
-269 7 -297 36 -36 98 -36 132 -1 22 21 25 33 25 92 -1 37 -7 97 -15 133 -8
36 -14 87 -15 113 l0 49 48 -3 c91 -5 103 -1 149 45 l44 44 46 -14 c25 -8 60
-14 77 -14 44 1 107 32 139 69 l26 32 7 -27 c10 -41 -4 -238 -22 -313 -9 -36
-34 -109 -56 -161 l-40 -95 12 -67 c13 -65 12 -70 -20 -170 -17 -57 -61 -184
-97 -283 -265 -736 -329 -980 -409 -1570 -63 -465 -87 -537 -229 -685 -111
-116 -107 -187 15 -247 93 -46 189 -63 390 -70 196 -6 336 9 473 51 91 29 138
56 163 94 20 31 22 127 4 252 -15 106 -13 367 5 482 19 127 56 270 106 415 95
271 375 883 404 883 35 0 82 -127 135 -360 159 -712 179 -779 334 -1171 39
-98 66 -182 66 -203 0 -52 -23 -100 -84 -175 -92 -114 -97 -142 -38 -201 71
-71 221 -109 462 -117 194 -6 339 11 486 58 97 31 200 92 228 134 30 45 19 88
-85 353 -229 583 -313 906 -355 1362 -19 216 -15 580 10 800 52 468 60 1052
17 1330 -116 754 -301 1217 -579 1443 -89 72 -189 132 -281 169 -42 17 -77 31
-79 33 -1 1 12 56 30 121 30 111 32 130 32 284 0 117 -5 186 -17 236 -61 267
-204 486 -407 624 -129 87 -325 165 -495 195 -128 22 -333 27 -428 11z m234
-146 c35 0 40 -4 59 -41 20 -38 20 -42 4 -53 -24 -18 -9 -36 31 -36 27 0 40
-8 74 -49 23 -27 41 -53 41 -58 0 -6 -9 -18 -21 -29 -26 -23 -50 -69 -42 -78
12 -12 30 -6 74 24 24 16 50 30 56 30 7 0 44 -19 82 -42 70 -43 70 -43 64 -78
-11 -51 -9 -94 2 -99 6 -3 20 11 32 30 51 78 37 73 138 52 88 -19 90 -20 96
-52 10 -49 26 -60 39 -27 5 15 10 34 10 42 0 8 6 14 13 14 6 0 29 3 49 6 l37
6 36 -73 c127 -251 121 -576 -15 -854 -179 -364 -555 -556 -1005 -513 -182 17
-377 93 -504 197 -113 92 -239 299 -282 466 -26 104 -36 320 -20 435 55 374
306 660 659 750 86 21 217 40 240 34 8 -2 31 -4 53 -4z m199 -30 c-20 -13 -60
-13 -60 0 0 6 17 10 38 10 27 0 33 -3 22 -10z m111 -21 c133 -44 198 -85 282
-179 55 -63 77 -96 77 -114 0 -25 -2 -27 -37 -21 -21 4 -52 11 -70 17 -32 9
-32 11 -26 53 5 37 3 46 -12 51 -13 5 -25 -2 -45 -26 -31 -38 -45 -36 -110 11
-39 28 -41 32 -26 48 17 19 21 56 8 65 -4 3 -19 -2 -33 -9 -13 -8 -30 -17 -37
-21 -8 -4 -29 9 -53 32 l-39 39 21 16 c15 11 20 23 16 38 -7 27 3 27 84 0z
m451 -291 c19 -27 19 -28 0 -28 -10 0 -24 11 -30 25 -7 14 -23 29 -36 34 -16
7 -25 19 -28 41 l-5 31 40 -38 c21 -21 48 -50 59 -65z m379 -1193 c117 -61
264 -190 333 -294 175 -262 298 -665 366 -1196 29 -223 29 -706 0 -1040 -30
-347 -32 -359 -53 -382 -11 -13 -26 -23 -33 -23 -16 0 -30 48 -38 123 -12 108
-63 167 -147 167 -67 0 -102 -17 -177 -84 -50 -44 -70 -56 -96 -56 -44 0 -81
30 -113 93 -39 78 -73 118 -118 138 -64 30 -111 24 -226 -26 -117 -50 -168
-56 -228 -26 -46 24 -74 60 -132 169 -87 165 -144 191 -237 107 -27 -25 -55
-45 -61 -45 -20 0 -12 71 19 165 40 125 50 197 50 350 0 120 -5 168 -29 313
l-8 54 41 19 c22 10 129 52 236 93 107 41 211 81 230 89 35 15 37 15 90 -19
148 -93 201 -76 430 137 232 216 250 234 250 258 0 12 -6 21 -15 21 -45 0
-235 -120 -395 -249 -41 -34 -79 -61 -84 -61 -4 0 -5 12 -1 28 4 15 9 83 11
151 3 123 3 124 34 156 41 43 39 55 -12 55 -41 0 -44 2 -61 45 -53 128 -151
230 -252 261 -30 10 -55 22 -55 28 0 6 -4 17 -9 25 -7 11 -13 11 -32 -3 -13
-9 -36 -16 -52 -16 -28 0 -28 0 15 33 24 18 73 54 110 80 37 26 106 79 153
118 112 93 107 118 -12 64 l-53 -24 58 67 c31 37 77 97 100 134 l44 67 63 -23
c34 -13 78 -32 96 -41z m-1750 -355 c216 -130 574 -175 879 -110 52 11 97 20
99 20 3 0 -6 -11 -18 -24 -13 -13 -29 -41 -36 -63 -13 -37 -17 -40 -186 -115
-176 -80 -196 -86 -229 -68 -15 8 -21 6 -30 -9 -5 -11 -36 -29 -67 -41 -32
-11 -105 -47 -163 -79 -58 -33 -157 -83 -221 -113 -64 -31 -133 -67 -154 -81
-46 -31 -55 -24 -55 42 0 35 6 51 26 72 32 34 24 49 -24 49 -36 0 -39 2 -70
65 -33 67 -39 99 -22 110 25 15 9 35 -28 35 -32 0 -43 6 -73 43 -31 37 -34 45
-25 70 14 38 -4 56 -36 35 -21 -14 -27 -14 -52 -1 -16 8 -24 18 -20 23 5 4 68
35 139 67 72 33 157 74 190 91 33 17 67 31 76 32 9 0 53 -23 100 -50z m1281
-241 c42 -11 111 -60 141 -101 l21 -28 -27 -28 c-15 -15 -27 -32 -27 -36 0 -4
21 -6 47 -5 46 3 46 3 61 -36 7 -22 16 -79 19 -127 l6 -86 -31 -16 c-60 -31
-352 -149 -562 -228 -224 -83 -279 -108 -297 -130 -6 -7 -13 -52 -17 -101 -12
-144 -39 -195 -95 -176 -58 20 -96 105 -116 258 -8 61 -19 108 -27 112 -21 14
-44 10 -62 -10 -15 -17 -17 -40 -14 -203 3 -193 -3 -228 -41 -228 -25 0 -66
43 -91 95 -25 51 -50 163 -50 225 0 44 -21 90 -41 90 -5 0 -18 -9 -29 -20 -18
-18 -20 -34 -21 -157 -1 -153 -14 -226 -42 -231 -27 -5 -47 16 -78 81 -55 117
-63 312 -18 418 37 85 69 106 354 232 157 69 413 192 793 381 118 58 160 74
180 70 15 -3 44 -10 64 -15z m-2710 -26 c95 -22 340 -21 637 2 120 10 229 15
243 12 28 -7 127 -105 168 -167 33 -49 90 -188 90 -219 0 -13 -9 -21 -32 -25
-65 -12 -454 -18 -543 -8 -117 13 -126 7 -185 -112 -50 -100 -80 -128 -112
-99 -29 26 -31 89 -9 200 12 56 18 108 15 116 -13 35 -63 27 -84 -13 -6 -11
-30 -82 -55 -157 -24 -76 -56 -155 -70 -175 -80 -118 -123 54 -73 294 24 115
20 136 -21 123 -29 -9 -68 -80 -100 -183 -43 -137 -74 -182 -116 -166 -68 27
-72 284 -7 436 34 78 117 156 169 158 6 0 45 -8 85 -17z m2443 -1883 c82 -163
162 -224 291 -223 60 1 86 7 168 42 53 23 99 41 102 41 28 0 79 -39 101 -79
54 -94 85 -131 128 -157 83 -48 155 -33 247 52 105 98 133 81 153 -87 11 -99
69 -159 153 -159 l42 0 0 -132 c0 -577 118 -1132 375 -1768 47 -115 85 -216
85 -224 0 -19 -121 -72 -220 -96 -123 -30 -364 -38 -488 -16 -51 9 -109 23
-128 31 l-34 14 36 48 c64 83 89 148 88 228 0 64 -8 90 -92 302 -129 327 -170
456 -272 867 -116 466 -114 459 -154 543 -42 88 -110 163 -179 198 -76 37
-117 30 -117 -21 0 -11 -14 -48 -30 -80 -80 -156 -236 -497 -298 -654 -106
-268 -164 -463 -207 -702 l-17 -98 -129 0 -129 0 0 53 c0 70 -17 101 -56 105
-25 2 -38 -5 -71 -41 l-41 -45 -44 29 -43 29 3 67 c2 38 14 142 28 233 51 343
111 586 219 895 31 88 105 301 164 473 l108 314 53 18 c30 10 68 33 89 54 19
20 44 36 53 36 12 0 32 -28 63 -90z m-751 -2131 c14 -11 26 -27 26 -35 0 -33
32 -27 66 12 l33 39 1 -38 c0 -72 4 -74 137 -72 65 2 139 6 166 10 l47 7 0
-68 c0 -38 7 -142 16 -232 9 -89 14 -169 11 -177 -7 -17 -104 -48 -225 -72
-156 -31 -439 -19 -541 23 l-34 14 40 43 c69 75 103 134 138 241 19 57 42 154
52 215 10 64 23 111 29 111 6 0 23 -9 38 -21z"/>
<path d="M2815 7921 c-50 -23 -87 -62 -118 -126 -87 -175 13 -358 171 -315 88
23 153 93 177 188 28 110 -9 212 -91 252 -50 25 -87 25 -139 1z m134 -156 c17
-17 24 -34 24 -62 0 -95 -96 -142 -155 -77 -43 49 -25 133 34 159 39 17 64 11
97 -20z"/>
<path d="M3570 7908 c-64 -34 -104 -111 -96 -187 6 -67 46 -150 92 -190 63
-56 111 -75 194 -75 64 -1 82 3 122 26 117 69 117 237 -1 354 -56 56 -121 86
-201 91 -55 4 -72 1 -110 -19z m170 -141 c32 -16 70 -73 70 -106 0 -60 -68
-110 -124 -91 -49 16 -78 52 -83 104 -5 40 -2 48 25 76 33 33 70 38 112 17z"/>
<path d="M3175 7376 c-141 -35 -241 -136 -261 -263 -9 -61 9 -98 57 -117 47
-19 72 -20 154 -5 77 15 110 1 139 -56 27 -50 76 -81 105 -65 26 13 27 49 4
93 -22 43 -33 108 -22 129 5 10 18 22 28 28 33 17 66 -21 96 -109 35 -106 50
-118 120 -104 85 18 144 48 155 79 33 87 -87 267 -226 341 -112 60 -235 77
-349 49z"/>
<path d="M4965 8496 c-44 -19 -250 -245 -237 -258 14 -14 107 19 217 75 108
56 145 90 145 132 0 58 -57 81 -125 51z"/>
<path d="M5140 8073 c-105 -11 -225 -34 -237 -46 -11 -11 -11 -16 5 -30 22
-20 191 -48 304 -50 72 -2 79 0 105 26 27 26 27 29 13 55 -27 48 -70 58 -190
45z"/>
<path d="M1846 7814 c-9 -8 -16 -21 -16 -28 0 -8 -3 -27 -6 -44 -5 -22 -1 -35
15 -51 19 -19 32 -21 170 -21 87 0 152 4 156 10 20 32 -43 74 -184 121 -98 33
-114 35 -135 13z"/>
<path d="M8878 7674 c-32 -10 -19 -33 25 -44 92 -24 157 -54 224 -104 86 -65
103 -72 103 -45 0 84 -146 188 -274 195 -33 1 -69 1 -78 -2z"/>
<path d="M8910 7466 c0 -7 14 -20 32 -27 18 -7 65 -44 104 -81 39 -37 75 -68
79 -68 14 0 -4 70 -26 101 -33 46 -106 89 -151 89 -26 0 -38 -4 -38 -14z"/>
<path d="M6168 7460 c-73 -22 -168 -112 -207 -196 -22 -47 -26 -132 -7 -137 5
-1 23 24 40 57 36 72 116 159 193 212 32 22 58 47 58 55 0 17 -38 21 -77 9z"/>
<path d="M8563 7455 c-155 -35 -315 -161 -386 -306 -123 -250 -60 -507 165
-668 l47 -34 -51 -59 c-28 -32 -59 -63 -70 -69 -11 -6 -26 -26 -34 -45 -18
-42 -40 -57 -134 -85 -113 -34 -150 -83 -150 -202 0 -86 35 -137 94 -137 34 0
66 -43 66 -90 0 -43 20 -65 50 -55 18 6 21 14 19 50 -4 57 11 74 59 68 57 -8
88 22 103 98 15 74 33 89 111 89 53 0 59 2 85 35 33 41 40 43 47 13 2 -13 4
18 2 69 -1 57 -7 97 -15 107 -18 22 -31 11 -31 -27 -1 -18 -7 -43 -15 -57 -11
-21 -15 -22 -20 -9 -3 10 -5 25 -3 35 2 12 -7 23 -24 32 -19 9 -28 21 -28 38
0 20 -5 24 -29 24 -17 0 -33 5 -36 10 -3 6 -15 10 -26 10 -17 0 -10 12 35 63
l56 63 87 -15 c77 -13 95 -13 177 1 144 24 231 70 335 175 l85 86 55 -11 c113
-24 239 -130 292 -249 45 -97 52 -175 46 -478 -4 -148 -11 -292 -17 -320 -23
-103 -70 -412 -70 -455 0 -67 25 -243 61 -436 18 -94 30 -178 26 -187 -19 -49
-167 -85 -289 -71 l-77 9 -6 -33 c-3 -19 -3 -37 0 -41 4 -3 75 -6 158 -6 176
0 238 15 283 68 24 29 26 37 21 97 -3 36 -21 164 -41 285 -44 269 -46 365 -11
560 41 228 58 421 59 660 1 245 -7 296 -67 410 -47 88 -155 192 -247 237 -41
20 -90 39 -108 43 l-34 7 9 51 c4 29 7 93 7 142 -3 151 -57 277 -162 377 -122
117 -302 169 -459 133z m115 -97 c-3 -7 -14 -17 -26 -23 -12 -5 -22 -17 -22
-27 0 -26 -60 -69 -81 -57 -26 13 -29 12 -29 -16 0 -32 -54 -63 -82 -46 -24
15 -25 15 -32 -13 -7 -29 -59 -54 -79 -37 -11 8 -19 5 -36 -15 -33 -38 -37
-21 -7 30 50 85 178 177 281 202 68 17 118 17 113 2z m117 -3 c59 -10 149 -62
196 -112 22 -24 55 -74 72 -111 30 -64 32 -73 32 -187 -1 -113 -2 -124 -31
-185 -63 -131 -157 -214 -292 -257 -71 -22 -95 -25 -167 -21 -162 11 -296 104
-368 255 -29 63 -32 76 -32 168 0 80 4 107 18 128 19 29 47 36 47 12 0 -23 19
-18 29 9 12 30 90 64 102 44 5 -7 9 -16 9 -20 0 -5 7 -8 15 -8 10 0 15 10 15
30 0 26 7 33 51 55 48 25 52 25 69 10 25 -23 43 -10 36 26 -4 24 1 33 34 59
28 22 46 29 60 25 14 -4 20 -2 20 8 0 9 -5 17 -10 19 -19 6 20 69 38 64 10 -2
35 -7 57 -11z m-394 -1161 c33 -31 45 -70 28 -91 -7 -8 -39 -28 -71 -44 -60
-30 -78 -55 -78 -104 0 -13 -5 -36 -10 -51 -10 -25 -12 -26 -26 -12 -8 8 -18
37 -22 63 -4 27 -13 50 -19 52 -15 5 -33 -37 -33 -76 0 -15 -6 -36 -14 -47
-23 -30 -39 -4 -44 71 -3 46 -8 65 -18 65 -12 0 -34 -56 -34 -87 0 -22 -23
-26 -37 -8 -17 25 -17 97 1 140 16 38 44 54 136 79 30 9 78 31 105 51 58 41
93 40 136 -1z"/>
<path d="M8597 6923 c-28 -28 32 -103 82 -103 68 0 150 55 123 82 -22 22 -187
39 -205 21z"/>
<path d="M8410 6842 c-55 -25 -110 -88 -110 -126 0 -26 68 -21 113 9 41 29 53
58 38 98 -11 28 -16 30 -41 19z"/>
<path d="M8584 6729 c-41 -12 -91 -59 -100 -94 -24 -96 100 -130 130 -35 16
51 51 54 71 6 l15 -36 38 15 c20 9 46 24 56 35 18 18 18 19 0 51 -36 60 -121
84 -210 58z"/>
<path d="M6670 7404 c-180 -39 -321 -163 -381 -335 -28 -82 -31 -242 -6 -339
26 -100 91 -222 153 -290 l56 -59 -49 -30 c-79 -49 -93 -61 -93 -81 0 -24 -35
-35 -170 -55 -58 -9 -121 -24 -140 -34 -101 -51 -149 -250 -89 -363 15 -28 69
-58 105 -58 20 0 39 -9 58 -29 27 -28 27 -31 21 -109 -7 -79 -7 -80 19 -97 24
-16 28 -16 51 -1 20 13 25 25 25 59 0 23 -5 62 -11 86 -13 59 3 76 67 72 33
-2 51 2 66 16 25 22 53 77 62 120 9 37 18 46 68 62 29 10 45 10 71 0 45 -16
74 -7 124 36 23 19 44 32 47 27 3 -4 8 -30 11 -58 5 -37 1 -68 -15 -123 -40
-131 -12 -292 56 -323 21 -10 22 -13 9 -20 -20 -12 -19 -54 1 -62 36 -14 46
-7 42 29 -2 22 0 35 8 35 6 0 28 12 49 26 l38 25 27 -26 c59 -56 140 -47 178
20 8 15 14 16 42 7 61 -22 122 11 140 77 5 20 10 67 10 105 l0 69 63 61 c34
34 90 86 125 116 110 98 69 123 -65 40 -100 -62 -191 -143 -210 -189 -10 -24
-13 -54 -8 -105 10 -124 -26 -130 -83 -13 -17 37 -38 67 -45 67 -28 0 -37 -25
-37 -101 0 -90 -5 -109 -31 -109 -25 0 -40 31 -59 120 -15 68 -19 75 -40 75
-21 0 -26 -8 -40 -65 -20 -82 -37 -112 -58 -108 -28 5 -43 65 -36 148 7 102
29 135 138 219 148 113 356 336 356 383 0 25 -32 23 -56 -3 -92 -104 -400
-358 -414 -342 -4 4 -15 41 -25 81 -18 76 -44 120 -63 108 -7 -4 -12 -20 -12
-36 0 -30 -56 -88 -70 -73 -14 15 -22 71 -11 78 18 11 12 25 -14 35 -14 5 -26
15 -26 22 -1 7 -2 20 -3 28 0 8 -11 16 -24 18 -13 2 -39 14 -58 27 l-34 23 37
28 c33 25 39 26 67 15 86 -35 126 -43 221 -43 105 -1 218 23 293 61 65 33 159
109 198 161 45 59 64 62 143 23 137 -70 212 -203 261 -461 44 -238 70 -625 50
-762 -6 -41 -16 -154 -22 -251 l-11 -177 32 -198 c51 -311 45 -292 94 -302 23
-5 45 -6 48 -3 4 3 -9 94 -29 201 -35 192 -35 198 -32 420 11 684 3 885 -41
1116 -39 206 -94 320 -203 422 -58 53 -155 112 -187 112 -7 0 -9 9 -5 28 4 15
9 72 12 127 17 302 -158 540 -441 600 -87 18 -209 18 -295 -1z m218 -64 c68
-9 192 -54 192 -70 0 -13 -78 -51 -85 -40 -9 15 -35 12 -35 -4 0 -18 -22 -26
-71 -26 -32 0 -39 3 -39 19 0 31 -18 34 -36 6 -15 -23 -22 -26 -73 -23 -46 2
-56 6 -53 20 5 29 -19 31 -47 4 -31 -30 -88 -36 -98 -11 -5 14 -7 14 -24 -1
-10 -9 -24 -14 -30 -12 -21 7 86 85 147 107 46 18 123 36 169 40 6 0 43 -4 83
-9z m318 -188 c74 -108 110 -261 93 -390 -29 -208 -211 -362 -457 -387 -204
-20 -395 110 -468 319 -40 112 -37 276 7 375 35 80 89 120 89 66 0 -32 9 -32
35 1 14 17 33 27 63 31 40 5 42 4 42 -20 0 -38 17 -42 35 -7 16 30 18 31 78
28 59 -3 62 -4 65 -30 4 -34 19 -36 33 -4 10 20 22 26 78 34 60 9 67 8 80 -9
19 -27 31 -24 31 9 0 22 9 32 48 53 46 25 48 25 77 8 17 -9 49 -44 71 -77z
m-700 -961 c33 -20 64 -75 64 -113 0 -28 -23 -40 -142 -78 -36 -12 -72 -27
-78 -35 -6 -7 -15 -41 -20 -74 -9 -67 -15 -81 -35 -81 -18 0 -27 25 -34 90 -5
46 -9 55 -27 58 -23 3 -34 -27 -34 -95 0 -41 -15 -73 -34 -73 -21 0 -29 27
-35 110 -5 57 -10 75 -21 75 -15 0 -21 -16 -40 -92 -20 -82 -64 -40 -64 62 0
44 7 75 24 109 28 59 71 81 178 90 41 3 111 19 155 35 101 35 105 35 143 12z"/>
<path d="M6851 6911 c-18 -12 -5 -87 19 -111 29 -29 85 -35 145 -16 93 29 82
62 -31 100 -96 32 -117 36 -133 27z"/>
<path d="M6535 6858 c-92 -66 -110 -109 -52 -127 93 -29 150 -17 163 35 7 29
-1 82 -17 101 -17 19 -60 15 -94 -9z m72 -72 c-4 -9 -16 -16 -27 -16 -29 0
-38 30 -15 47 16 11 21 11 33 -1 8 -8 12 -22 9 -30z"/>
<path d="M6748 6666 c-58 -21 -88 -45 -104 -81 -34 -82 -7 -128 71 -123 45 3
48 5 61 43 16 48 39 67 79 63 28 -3 30 -6 30 -43 0 -30 4 -40 18 -43 24 -5
123 44 131 65 12 30 -26 87 -74 111 -52 26 -151 30 -212 8z"/>
<path d="M2106 7361 c-111 -19 -126 -30 -126 -96 0 -84 35 -85 166 -2 82 52
99 67 99 87 0 32 -14 33 -139 11z"/>
<path d="M6179 7226 c-20 -14 -43 -35 -52 -49 -23 -36 -39 -106 -32 -144 6
-36 22 -44 32 -15 21 63 56 125 97 170 25 29 46 55 46 57 0 15 -60 2 -91 -19z"/>
<path d="M7905 7204 c-87 -42 -156 -254 -125 -382 13 -58 36 -85 51 -61 5 8 9
50 9 94 0 100 20 181 66 264 19 35 34 72 32 82 -3 17 -5 17 -33 3z"/>
<path d="M8018 7003 c-9 -3 -26 -23 -37 -47 -29 -59 -28 -140 2 -196 37 -71
47 -63 40 34 -4 54 -1 107 7 146 7 33 11 62 9 63 -2 2 -12 2 -21 0z"/>
<path d="M9099 6335 c-77 -66 -159 -109 -285 -150 -130 -43 -148 -54 -173
-103 -80 -156 -39 -319 75 -297 27 5 41 2 56 -11 25 -23 81 -23 107 0 16 14
23 15 41 6 26 -14 72 -5 93 18 9 9 24 39 34 66 l18 49 143 47 c131 43 224 90
226 115 2 22 -58 14 -170 -23 -66 -22 -143 -45 -172 -52 -69 -16 -89 -34 -110
-99 -27 -84 -47 -77 -68 24 -11 49 -35 53 -46 8 -4 -18 -12 -48 -16 -65 -5
-23 -14 -33 -27 -33 -17 0 -20 8 -23 50 -3 71 -10 95 -27 95 -9 0 -20 -21 -30
-54 -36 -122 -92 -80 -65 49 14 70 49 111 103 125 152 40 261 95 340 171 44
42 58 62 55 80 -5 36 -22 33 -79 -16z"/>
<path d="M8600 5713 c0 -5 -9 -39 -20 -78 -26 -94 -26 -95 14 -95 l34 0 4 83
c4 76 -1 96 -24 97 -5 0 -8 -3 -8 -7z"/>
<path d="M7970 5420 c0 -22 3 -40 6 -40 4 0 81 -6 173 -14 91 -8 270 -22 396
-31 308 -21 415 -31 422 -39 5 -5 -17 -345 -32 -491 -2 -22 -6 -85 -10 -140
-3 -55 -8 -124 -11 -154 l-6 -53 -41 6 c-127 21 -855 126 -869 126 -9 0 -10
-36 -2 -77 5 -28 10 -31 72 -42 142 -24 254 -42 441 -71 106 -16 195 -31 198
-33 2 -2 -9 -9 -24 -14 -15 -6 -86 -33 -158 -61 -94 -37 -139 -49 -161 -46
l-30 6 2 -64 3 -63 38 -3 c26 -3 128 24 332 85 251 75 295 91 302 110 9 24 54
626 65 868 7 150 7 151 -18 179 -19 23 -34 29 -74 32 -59 5 -988 64 -1003 64
-6 0 -11 -18 -11 -40z"/>
<path d="M5640 5362 l-23 -18 47 -340 c26 -186 62 -445 80 -574 18 -129 38
-245 44 -257 7 -12 12 -50 12 -85 0 -35 4 -68 8 -75 29 -45 1362 -262 1637
-267 80 -1 80 -1 355 111 350 142 406 167 414 188 3 9 6 50 6 91 0 65 -2 75
-22 88 -14 9 -150 30 -353 56 -340 43 -355 46 -355 89 0 9 -21 174 -45 366
-25 193 -48 379 -52 415 -8 94 -23 118 -75 124 -56 7 -397 29 -998 66 -267 16
-524 32 -571 35 -74 5 -89 3 -109 -13z m315 -92 c61 -5 270 -21 465 -35 195
-13 461 -32 590 -41 129 -9 238 -19 242 -23 6 -6 26 -148 48 -356 6 -55 18
-149 26 -210 7 -60 18 -150 23 -200 5 -49 17 -152 26 -229 9 -76 15 -140 13
-141 -2 -2 -59 5 -128 16 -108 16 -876 124 -1247 175 -67 10 -127 20 -133 24
-7 4 -18 54 -25 111 -8 57 -26 178 -40 269 -72 454 -95 605 -95 627 0 22 4 23
63 23 34 0 112 -5 172 -10z m1874 -1102 c19 -2 0 -12 -69 -37 -52 -18 -107
-34 -122 -35 -14 0 -24 -4 -22 -8 6 -10 -67 -31 -76 -22 -4 5 -11 41 -14 80
l-7 71 142 -23 c78 -13 154 -24 168 -26z m-1511 -118 c125 -16 274 -36 332
-44 58 -8 170 -22 250 -32 80 -9 235 -29 345 -43 l200 -26 -2 -29 c-1 -16 -4
-30 -6 -33 -4 -3 -273 34 -722 101 -284 43 -659 108 -678 118 -26 13 -9 31 24
24 16 -3 131 -19 257 -36z m1747 30 c-27 -12 -43 -12 -25 0 8 5 22 9 30 9 10
0 8 -3 -5 -9z m-45 -14 c0 -2 -13 -9 -30 -15 -35 -12 -41 -5 -7 9 25 10 37 12
37 6z m-199 -65 c-10 -7 -11 -9 0 -13 7 -2 -50 -31 -126 -64 -77 -32 -142 -60
-146 -62 -13 -6 -19 32 -7 44 7 7 72 32 143 57 129 45 163 55 136 38z"/>
<path d="M6405 5031 c-45 -11 -69 -26 -104 -66 -38 -44 -43 -98 -10 -115 28
-16 44 -7 73 39 58 91 196 68 196 -34 0 -24 -13 -42 -71 -96 l-70 -65 3 -55 3
-54 45 0 45 0 6 42 c3 24 7 44 10 46 110 85 137 130 124 214 -5 37 -16 56 -48
89 -57 56 -122 74 -202 55z"/>
<path d="M6432 4510 c-45 -42 -17 -110 44 -110 44 0 67 21 67 60 0 61 -67 91
-111 50z"/>
<path d="M6178 4273 c7 -3 16 -2 19 1 4 3 -2 6 -13 5 -11 0 -14 -3 -6 -6z"/>
<path d="M7776 3981 c-4 -5 3 -7 14 -4 23 6 26 13 6 13 -8 0 -17 -4 -20 -9z"/>
<path d="M8273 5184 c-40 -20 -65 -57 -61 -92 4 -38 47 -38 66 0 23 48 101 52
135 6 18 -23 18 -30 7 -57 -7 -17 -28 -40 -46 -52 -43 -26 -64 -56 -64 -90 0
-32 21 -52 52 -47 17 2 24 11 26 33 3 21 19 44 54 75 43 39 51 51 55 90 11
113 -114 188 -224 134z"/>
<path d="M8317 4792 c-24 -26 -21 -49 8 -68 36 -24 75 -6 75 34 0 51 -50 71
-83 34z"/>
<path d="M8208 4393 c7 -3 16 -2 19 1 4 3 -2 6 -13 5 -11 0 -14 -3 -6 -6z"/>
<path d="M8248 4383 c6 -2 18 -2 25 0 6 3 1 5 -13 5 -14 0 -19 -2 -12 -5z"/>
</g>
</svg>
