<?xml version="1.0" standalone="no"?>
<!DOCTYPE svg PUBLIC "-//W3C//DTD SVG 20010904//EN"
 "http://www.w3.org/TR/2001/REC-SVG-20010904/DTD/svg10.dtd">
<svg version="1.0" xmlns="http://www.w3.org/2000/svg"
 width="1024.000000pt" height="1024.000000pt" viewBox="0 0 1024.000000 1024.000000"
 preserveAspectRatio="xMidYMid meet">

<g transform="translate(0.000000,1024.000000) scale(0.100000,-0.100000)"
fill="#000000" stroke="none">
<path d="M7316 9438 c-8 -14 -16 -65 -20 -124 -6 -92 -5 -102 13 -118 23 -21
57 -14 65 12 14 44 25 214 16 233 -15 26 -56 25 -74 -3z"/>
<path d="M6858 9399 c-27 -15 -22 -54 18 -149 41 -96 66 -125 94 -110 10 6 21
19 25 29 8 26 -72 219 -96 231 -21 12 -20 12 -41 -1z"/>
<path d="M3430 9317 c-108 -33 -176 -73 -251 -147 -77 -77 -121 -159 -127
-240 -4 -49 -1 -60 22 -87 71 -85 193 -61 245 47 45 92 67 117 137 151 119 59
236 38 282 -51 50 -99 22 -165 -132 -315 -98 -95 -116 -117 -131 -164 -20 -63
-16 -174 8 -233 27 -64 104 -85 186 -52 57 23 71 50 71 136 0 90 12 112 110
199 81 72 153 162 183 229 27 61 29 204 4 275 -35 102 -135 202 -246 246 -86
34 -260 37 -361 6z"/>
<path d="M7710 9238 c-63 -98 -68 -113 -47 -142 27 -36 56 -16 118 79 32 50
58 99 58 111 1 26 -17 44 -46 44 -19 0 -36 -19 -83 -92z"/>
<path d="M6475 9156 c-16 -11 -18 -19 -10 -39 10 -25 168 -167 186 -167 24 0
49 22 49 43 0 25 -41 68 -128 136 -59 45 -69 48 -97 27z"/>
<path d="M7170 9060 c-263 -42 -479 -214 -561 -446 -75 -213 -59 -366 65 -612
71 -141 89 -200 88 -286 0 -39 6 -86 14 -104 12 -29 12 -38 -1 -62 -19 -36
-19 -58 -1 -91 11 -22 11 -30 0 -50 -19 -34 -17 -92 4 -120 10 -13 24 -37 32
-53 8 -16 30 -36 48 -44 24 -12 35 -26 43 -56 21 -76 106 -136 193 -136 45 0
108 36 140 79 18 24 39 41 58 45 41 8 115 73 132 118 9 22 13 50 10 68 -4 17
-2 30 4 30 16 0 44 68 40 100 -1 15 4 37 13 47 8 10 27 47 42 83 42 101 63
130 193 263 66 68 137 151 157 183 55 92 88 202 94 319 7 131 -13 222 -73 345
-110 223 -341 371 -599 385 -44 2 -105 0 -135 -5z m250 -116 c147 -37 274
-127 362 -257 72 -106 92 -173 92 -312 1 -92 -3 -133 -18 -175 -33 -100 -94
-190 -196 -290 -126 -125 -167 -176 -215 -274 l-40 -81 -44 -3 c-61 -5 -315
34 -387 58 -103 35 -100 32 -107 123 -8 107 -31 176 -105 322 -77 153 -94 212
-94 328 0 216 118 410 312 511 62 32 150 61 215 70 45 6 163 -5 225 -20z
m-331 -1463 c57 -12 120 -21 140 -21 20 0 60 -3 89 -6 40 -5 52 -11 52 -24 0
-24 -20 -30 -99 -30 -180 0 -401 52 -401 94 0 40 9 43 63 25 29 -10 99 -27
156 -38z m-80 -142 c46 -11 136 -23 200 -27 106 -6 116 -9 116 -27 0 -33 -41
-46 -125 -40 -106 8 -260 35 -292 51 -46 23 -49 83 -4 70 11 -4 59 -16 105
-27z m156 -189 c18 -1 17 -3 -9 -26 -19 -17 -36 -24 -50 -20 -12 3 -31 6 -44
6 -22 0 -72 40 -72 58 0 5 35 3 78 -4 42 -7 86 -13 97 -14z"/>
<path d="M7164 8652 c-84 -30 -154 -99 -154 -153 0 -14 10 -35 23 -47 36 -34
70 -28 119 22 56 56 107 67 166 37 29 -15 44 -30 52 -56 18 -55 -8 -91 -105
-142 -94 -49 -110 -66 -126 -138 -10 -47 -10 -57 4 -79 33 -50 137 -39 137 14
0 38 23 69 69 91 113 53 167 116 177 206 6 55 -13 119 -50 168 -60 78 -207
115 -312 77z"/>
<path d="M7137 7994 c-51 -28 -60 -86 -21 -133 21 -26 33 -31 69 -31 35 0 48
5 64 26 31 39 28 89 -8 125 -33 32 -62 36 -104 13z"/>
<path d="M7010 7150 c0 -12 42 -30 71 -30 16 0 18 2 7 14 -9 10 -15 11 -20 2
-5 -7 -8 -3 -8 9 0 17 -2 17 -10 5 -6 -10 -10 -11 -10 -2 0 6 -7 12 -15 12 -8
0 -15 -5 -15 -10z"/>
<path d="M8075 9022 c-16 -10 -56 -34 -89 -53 -61 -36 -85 -71 -65 -95 20 -24
55 -15 143 37 93 54 108 72 95 107 -10 27 -42 29 -84 4z"/>
<path d="M4480 8828 c-21 -14 -40 -39 -49 -63 -8 -22 -52 -136 -98 -253 -45
-118 -83 -219 -83 -227 0 -20 27 -37 48 -31 11 4 38 36 61 71 58 90 154 217
222 297 61 71 78 114 60 160 -23 60 -105 84 -161 46z"/>
<path d="M6242 8805 c-25 -18 -29 -47 -7 -65 17 -14 188 -60 227 -60 38 0 55
33 34 65 -12 18 -36 28 -113 45 -54 13 -103 24 -108 26 -6 3 -20 -3 -33 -11z"/>
<path d="M2433 8650 c-40 -24 -63 -67 -63 -118 0 -52 30 -89 97 -118 60 -27
278 -180 397 -279 81 -68 108 -78 125 -46 12 21 -8 56 -79 141 -54 65 -243
311 -279 364 -18 25 -45 53 -61 61 -40 21 -99 19 -137 -5z"/>
<path d="M8152 8651 c-47 -4 -67 -11 -78 -25 -20 -28 -18 -43 9 -61 20 -13 39
-14 128 -4 110 11 129 19 129 53 0 46 -30 52 -188 37z"/>
<path d="M4905 8438 c-11 -6 -34 -24 -51 -40 -17 -16 -98 -79 -180 -141 -104
-78 -150 -119 -152 -135 -6 -39 23 -35 135 18 100 48 174 79 296 124 53 20 77
53 77 109 0 61 -68 97 -125 65z"/>
<path d="M3614 8091 c-86 -39 -118 -143 -72 -230 64 -119 244 -109 300 16 30
69 19 126 -37 179 -59 57 -118 68 -191 35z"/>
<path d="M4685 7689 c-16 -6 -47 -24 -67 -41 l-38 -29 -105 12 c-82 10 -127
10 -209 1 -218 -26 -394 -106 -547 -250 -177 -167 -265 -353 -285 -602 -24
-304 117 -619 361 -805 41 -32 75 -59 75 -61 0 -2 -28 -18 -62 -35 -141 -71
-282 -197 -373 -334 -152 -229 -327 -698 -355 -955 -19 -168 9 -277 93 -359
82 -82 197 -120 415 -136 72 -6 92 -11 92 -23 0 -19 -106 -580 -175 -927 -110
-552 -166 -804 -238 -1082 -33 -125 -38 -136 -97 -215 -118 -156 -170 -301
-141 -391 17 -50 75 -103 140 -128 174 -66 540 -65 728 1 84 29 120 58 151
120 25 50 27 66 28 180 2 122 3 129 58 305 31 99 88 299 127 445 39 146 83
310 98 365 16 55 41 155 57 222 16 68 32 123 35 123 3 0 9 -62 12 -138 4 -75
11 -234 18 -352 14 -268 17 -825 5 -945 -25 -263 82 -343 502 -376 222 -17
453 12 540 68 62 40 85 90 80 172 -4 83 -37 139 -149 256 l-76 80 -6 843 c-3
463 -3 842 1 842 4 0 106 -16 227 -36 121 -19 250 -36 287 -37 85 -3 107 16
138 116 12 40 34 113 50 162 16 50 77 245 135 435 59 190 127 410 152 490 92
294 143 475 143 510 0 39 -29 93 -58 109 -10 5 -85 19 -166 31 -139 19 -149
22 -172 49 -24 29 -44 36 -165 56 -34 5 -37 8 -42 47 -8 57 -40 87 -107 97
-72 11 -117 -3 -162 -50 l-38 -39 -88 1 c-72 1 -96 -3 -130 -20 l-42 -21 0 25
c0 14 0 28 -1 31 0 3 51 30 114 59 425 195 799 485 894 691 35 77 42 182 18
256 -59 181 -345 477 -800 828 -268 207 -382 276 -548 332 -75 25 -111 32
-197 34 -60 2 -118 -1 -135 -7z m245 -136 c72 -20 213 -91 320 -161 201 -130
521 -392 711 -581 273 -273 323 -380 249 -527 -53 -106 -228 -266 -449 -409
-102 -66 -331 -190 -444 -240 l-58 -25 -24 54 c-13 30 -28 57 -34 60 -19 12
-22 -34 -7 -108 9 -41 16 -95 16 -119 l0 -44 -91 13 c-159 21 -188 -1 -238
-177 -17 -63 -56 -190 -86 -284 -41 -128 -54 -161 -55 -132 0 52 -34 113 -72
133 -52 27 -127 15 -194 -31 -51 -35 -139 -120 -196 -189 l-24 -28 -174 11
c-95 6 -175 12 -176 14 -2 2 8 75 32 227 20 127 22 159 9 162 -12 3 -57 -106
-114 -277 l-41 -120 -91 -1 c-69 -1 -94 -5 -107 -17 -12 -13 -13 -20 -5 -28
25 -25 489 -89 646 -89 l79 0 116 118 c133 133 164 154 189 130 22 -23 10 -60
-34 -109 -31 -34 -34 -42 -22 -54 11 -11 28 -12 84 -5 110 15 228 -4 249 -39
20 -32 -33 -57 -129 -60 -102 -4 -93 -45 13 -55 95 -10 102 -13 102 -46 0 -52
-26 -69 -120 -78 -82 -7 -85 -8 -85 -32 0 -22 6 -26 63 -39 67 -16 79 -33 44
-64 -45 -41 -87 -48 -351 -57 -141 -5 -326 -14 -411 -21 -182 -13 -444 -5
-562 17 -164 31 -226 85 -242 212 -17 130 78 479 207 767 129 287 269 451 472
552 113 57 121 57 231 25 144 -43 260 -56 359 -42 252 38 412 107 550 240 31
30 75 59 115 75 173 72 363 184 449 265 l53 50 37 -29 c20 -15 42 -26 49 -24
28 10 10 53 -47 117 -33 36 -65 75 -72 88 -20 38 -202 277 -276 363 -75 87
-139 194 -103 175 25 -13 32 0 17 31 -9 18 -23 25 -54 30 -31 4 -54 17 -99 59
-68 62 -143 100 -196 100 -25 0 -45 7 -58 20 -26 26 -25 36 5 65 21 22 33 25
90 25 62 0 65 1 65 24 0 39 -69 60 -169 52 -107 -10 -183 21 -151 59 30 37
128 40 240 8z m-455 -53 c65 -10 73 -13 110 -55 39 -44 95 -75 135 -75 17 0
20 -6 20 -45 0 -80 47 -135 116 -135 89 0 252 -135 292 -242 57 -152 64 -318
22 -484 -67 -260 -273 -468 -542 -544 -101 -29 -280 -37 -375 -17 -165 36
-313 117 -438 242 -119 119 -176 218 -222 386 -21 76 -24 298 -4 369 26 96 66
185 112 255 165 247 479 387 774 345z m966 -925 c97 -134 94 -122 40 -167 -46
-39 -242 -161 -248 -155 -1 2 6 21 16 43 51 106 81 239 81 363 l0 74 23 -34
c13 -19 52 -74 88 -124z m366 -1102 c15 -19 1 -60 -19 -54 -7 2 -31 9 -53 15
-51 13 -50 13 -34 32 29 35 81 38 106 7z m-172 -88 c66 -8 176 -21 244 -30 69
-8 128 -18 133 -23 5 -5 0 -30 -12 -56 -11 -26 -20 -53 -20 -59 0 -7 -4 -18
-9 -26 -8 -12 -22 -11 -95 4 -47 10 -84 20 -81 23 2 3 -3 11 -13 18 -16 12
-15 13 7 14 38 0 21 7 -34 13 -34 4 -42 3 -25 -3 25 -8 25 -8 -5 -10 -16 -1
-39 -3 -50 -5 -11 -3 -51 8 -90 22 -51 20 -86 27 -131 26 -84 -2 -91 4 -66 61
l21 46 53 0 c29 0 107 -7 173 -15z m-355 -67 c0 -7 -5 -20 -11 -28 -9 -12 -10
-12 -5 4 4 11 1 23 -6 28 -10 6 -8 8 5 8 9 0 17 -6 17 -12z m-102 -77 c67 -8
75 -12 105 -46 32 -37 36 -38 132 -51 55 -7 154 -20 220 -29 258 -34 339 -43
354 -38 24 9 61 45 61 60 0 7 4 13 10 13 5 0 7 -7 4 -15 -4 -8 -5 -15 -3 -16
2 0 40 -6 84 -12 44 -7 79 -17 79 -22 -1 -6 -29 -98 -62 -205 -33 -107 -97
-314 -142 -460 -128 -417 -221 -704 -230 -714 -6 -5 -53 -2 -117 8 -59 9 -166
26 -238 38 -71 11 -236 38 -365 60 -129 22 -264 44 -300 49 -116 17 -110 14
-99 56 6 21 21 70 34 108 13 39 26 82 29 96 4 19 14 29 33 34 46 11 99 51 117
89 9 19 32 59 51 88 19 29 35 56 35 61 0 4 12 33 26 63 18 38 25 68 23 97 -1
23 1 59 5 80 12 55 -7 110 -49 145 l-35 28 34 105 c19 57 49 151 66 209 17 58
33 111 35 118 5 14 6 14 103 3z m652 -61 c20 -6 21 -8 5 -8 -11 0 -33 4 -50 8
-27 7 -27 8 -5 8 14 0 36 -4 50 -8z m-1305 -1082 c-4 -18 -25 -90 -46 -161
-47 -157 -49 -184 -11 -221 31 -29 110 -49 322 -80 58 -9 150 -24 205 -35 55
-10 125 -22 156 -26 31 -4 61 -10 67 -14 8 -4 13 -254 18 -846 5 -697 4 -838
-7 -827 -20 18 -29 15 -29 -13 0 -18 32 -58 116 -146 174 -183 193 -242 89
-284 -46 -18 -72 -20 -300 -20 -226 1 -258 3 -335 23 -47 12 -96 31 -110 41
-38 27 -45 83 -30 216 21 184 6 755 -35 1320 -9 116 -18 219 -20 230 -3 16 6
26 38 43 70 37 104 68 90 83 -10 10 -32 6 -110 -19 -54 -17 -124 -36 -157 -42
-64 -11 -86 -23 -86 -49 0 -9 -15 -72 -34 -141 -18 -69 -57 -215 -86 -325
-135 -517 -212 -800 -252 -924 l-21 -64 -18 24 c-28 38 -33 16 -18 -78 7 -49
14 -123 14 -165 0 -66 -3 -80 -23 -101 -48 -51 -237 -82 -451 -74 -165 6 -243
24 -279 64 -39 43 -17 109 82 251 100 144 104 153 145 313 49 191 110 455 150
649 49 238 178 896 201 1025 24 136 68 357 72 360 7 5 523 42 606 44 l94 1 -7
-32z"/>
<path d="M4366 5239 c-15 -12 -26 -30 -26 -45 0 -29 4 -30 46 -3 25 15 38 18
52 10 33 -17 56 -64 62 -121 4 -42 9 -56 23 -58 12 -3 22 7 32 31 33 79 -44
207 -124 207 -24 0 -48 -8 -65 -21z"/>
<path d="M4193 5224 c-19 -8 -49 -63 -73 -132 l-21 -64 26 -44 c30 -51 130
-134 161 -134 29 0 41 31 17 43 -10 6 -44 37 -75 70 -72 74 -75 91 -32 158 13
22 30 39 37 39 17 0 82 -93 113 -161 21 -44 26 -49 43 -39 35 18 34 30 -7 91
-23 33 -44 73 -47 89 -12 56 -93 103 -142 84z"/>
<path d="M4721 6974 c-23 -30 -26 -59 -10 -101 16 -43 49 -73 80 -73 74 0 79
134 7 184 -32 23 -54 20 -77 -10z"/>
<path d="M4180 6838 c-26 -28 -26 -73 3 -128 27 -55 64 -72 105 -49 36 20 42
81 13 138 -33 63 -83 80 -121 39z"/>
<path d="M4616 6440 c-22 -11 -47 -27 -57 -36 -30 -27 -61 -106 -62 -156 -1
-87 37 -99 123 -40 50 33 61 37 120 37 86 0 93 6 88 67 -11 112 -118 177 -212
128z"/>
<path d="M2198 7610 c-26 -5 -71 -16 -100 -26 -38 -13 -86 -18 -168 -19 -132
-1 -208 -19 -311 -70 -81 -41 -178 -129 -220 -199 -21 -34 -47 -61 -80 -81
-27 -16 -77 -57 -111 -90 -127 -124 -184 -254 -182 -410 2 -103 24 -173 81
-258 27 -39 40 -74 54 -139 22 -111 65 -192 138 -262 90 -86 211 -138 351
-151 45 -5 85 -17 130 -40 164 -84 338 -88 506 -11 32 15 72 37 89 50 19 14
51 25 88 30 31 3 86 17 121 30 182 69 283 193 325 403 10 49 28 107 39 130 49
94 63 220 38 327 -8 33 -12 82 -9 110 14 138 -78 307 -210 385 -22 14 -46 40
-59 64 -28 55 -117 141 -180 173 -63 32 -188 64 -242 63 -23 -1 -62 -5 -88 -9z
m163 -80 c76 -14 167 -61 214 -111 l40 -42 -35 8 c-19 5 -76 9 -126 10 -90 1
-93 2 -136 37 -25 20 -66 47 -91 59 -26 13 -47 26 -47 30 0 8 38 14 96 17 17
1 56 -3 85 -8z m-518 -115 l-58 -65 -60 0 c-33 0 -85 -7 -115 -15 -77 -21 -87
-20 -64 6 37 42 171 115 239 132 11 2 42 5 68 6 l48 1 -58 -65z m302 25 c40
-17 80 -39 89 -49 16 -17 13 -20 -56 -45 -82 -31 -87 -32 -143 -17 -22 5 -61
11 -87 13 -27 2 -48 5 -48 9 0 20 130 118 158 119 7 0 46 -14 87 -30z m463
-148 c66 -20 81 -45 89 -144 6 -67 5 -71 -13 -63 -10 4 -39 15 -64 23 -56 19
-79 38 -98 82 -8 19 -27 51 -43 71 -43 54 -39 63 24 55 28 -4 76 -14 105 -24z
m-236 -26 c15 -19 30 -45 33 -59 l7 -25 -64 18 c-34 10 -89 23 -120 30 -32 6
-58 15 -58 19 0 9 118 49 150 50 17 1 34 -10 52 -33z m-652 -11 c0 -28 -39
-68 -92 -97 -67 -35 -181 -140 -216 -197 -18 -29 -22 -32 -28 -17 -14 38 12
168 45 222 20 33 91 67 176 84 48 9 115 12 115 5z m297 -9 c13 -13 -9 -19 -62
-18 -30 1 -76 -3 -103 -7 -26 -5 -49 -7 -51 -5 -2 2 4 13 15 25 17 20 27 21
107 16 48 -2 91 -7 94 -11z m840 -146 c27 -53 38 -139 20 -157 -4 -4 -25 10
-46 31 -37 36 -38 40 -44 125 -4 49 -9 97 -13 107 -11 35 55 -50 83 -106z
m-493 52 c38 -15 68 -32 67 -37 0 -6 -22 -11 -48 -13 -48 -3 -62 6 -94 61 -13
23 -4 22 75 -11z m-444 -7 c0 -3 -12 -22 -28 -44 -15 -21 -36 -56 -46 -78 -10
-23 -28 -45 -40 -51 -11 -5 -42 -28 -68 -52 -62 -54 -84 -51 -81 13 2 55 36
115 93 165 26 22 52 33 95 40 33 5 63 10 68 11 4 0 7 -1 7 -4z m209 -6 c42 -9
101 -43 101 -57 0 -18 -273 -92 -287 -78 -8 8 44 81 81 114 41 35 42 36 105
21z m-825 -71 c-11 -53 -6 -162 12 -233 l16 -65 -45 -49 c-45 -48 -107 -156
-107 -186 0 -30 -18 -14 -40 37 -48 112 -35 263 32 375 31 52 119 153 133 153
4 0 3 -15 -1 -32z m286 -70 c-11 -24 -20 -60 -20 -80 0 -36 -3 -39 -61 -69
-34 -16 -63 -28 -66 -25 -17 17 129 216 158 216 4 0 -1 -19 -11 -42z m1050 17
c27 -13 51 -28 54 -33 6 -10 -26 -132 -35 -132 -15 0 -82 117 -86 152 -7 46 0
47 67 13z m-170 -5 c0 -5 -2 -10 -4 -10 -3 0 -8 5 -11 10 -3 6 -1 10 4 10 6 0
11 -4 11 -10z m-35 -58 c23 -16 41 -38 43 -51 3 -21 -25 -101 -35 -101 -2 0
-18 16 -35 36 l-31 35 -23 -28 c-13 -15 -23 -23 -24 -16 0 7 6 18 14 25 11 11
9 20 -15 55 -16 23 -37 47 -47 52 -15 9 -15 12 -2 21 26 19 111 3 155 -28z
m-412 -78 c-18 -37 -33 -75 -33 -85 0 -50 -51 16 -57 75 l-5 42 48 16 c83 27
85 26 47 -48z m776 12 c11 -20 9 -30 -13 -74 -38 -75 -51 -77 -42 -6 9 81 16
104 30 104 7 0 18 -11 25 -24z m-590 -12 c60 -50 32 -109 -57 -121 -34 -5 -39
-2 -50 21 -18 40 -15 58 17 94 36 39 50 40 90 6z m-369 -55 c0 -11 -4 -17 -10
-14 -5 3 -10 13 -10 21 0 8 5 14 10 14 6 0 10 -9 10 -21z m-135 -16 c-4 -10
-10 -28 -12 -40 -7 -33 -21 -28 -31 10 -11 40 -7 47 25 47 20 0 24 -3 18 -17z
m888 -10 c8 -16 22 -53 32 -83 l18 -54 -64 -58 c-35 -32 -68 -58 -74 -58 -6 0
-8 30 -4 82 4 62 13 98 33 141 15 31 32 57 36 57 5 0 16 -12 23 -27z m-985
-130 c10 -19 8 -26 -13 -49 -14 -15 -38 -54 -52 -86 -15 -32 -30 -58 -34 -58
-13 0 -60 70 -74 111 -21 58 -19 122 3 142 9 8 42 27 72 41 l55 26 16 -53 c8
-28 21 -62 27 -74z m1298 91 c11 -43 -2 -152 -22 -181 -15 -23 -19 -25 -22
-10 -2 9 -8 17 -14 17 -6 0 -8 -12 -4 -31 8 -41 -12 -77 -68 -122 -58 -48 -69
-47 -51 4 8 23 15 72 15 110 l0 68 71 85 c38 47 74 86 79 86 5 0 13 -12 16
-26z m-522 -60 c-6 -31 -3 -40 16 -54 20 -15 22 -22 15 -66 -10 -74 -14 -77
-89 -77 -36 0 -69 2 -72 6 -4 3 13 28 36 54 36 40 43 56 46 98 2 32 10 54 21
63 28 20 34 14 27 -24z m-501 4 c8 -13 32 -53 55 -89 23 -36 42 -68 42 -71 0
-3 -30 1 -66 8 -80 17 -144 58 -154 99 -3 11 78 73 97 74 7 1 19 -9 26 -21z
m366 -41 c-31 -58 -101 -117 -139 -117 -18 0 -84 82 -94 117 -7 22 -6 22 76
16 46 -3 99 -1 118 4 44 13 53 8 39 -20z m-874 -156 c9 -19 39 -58 65 -86 27
-27 52 -63 56 -79 7 -29 7 -29 -30 -22 -54 10 -123 42 -178 82 -42 31 -47 39
-42 62 10 44 37 115 58 151 l20 35 16 -55 c9 -30 25 -69 35 -88z m314 7 c6
-29 23 -80 36 -112 13 -33 23 -61 21 -63 -4 -5 -110 33 -134 48 -29 18 -28 38
4 102 48 94 56 97 73 25z m939 -103 c-21 -54 -29 -62 -71 -83 -52 -25 -154
-49 -164 -38 -4 3 3 16 14 29 11 12 33 41 48 64 15 24 51 58 79 77 28 19 65
48 81 64 l30 31 3 -42 c2 -26 -6 -65 -20 -102z m-637 3 c32 -18 58 -37 56 -43
-5 -16 -109 -65 -138 -65 -14 0 -33 6 -42 13 -19 13 -89 166 -81 178 5 9 125
-39 205 -83z m360 -6 c-24 -44 -74 -57 -121 -32 -21 11 -21 12 -4 31 13 15 31
19 76 19 54 0 58 -2 49 -18z m454 -101 c-40 -115 -109 -195 -208 -242 -85 -40
-94 -37 -57 16 17 25 40 66 51 90 29 65 66 104 123 130 28 12 60 30 71 38 29
22 36 12 20 -32z m-1439 -42 c30 -11 75 -22 99 -26 25 -3 45 -11 45 -17 0 -19
66 -148 94 -185 14 -19 26 -38 26 -42 0 -11 -102 15 -153 40 -90 43 -184 145
-220 237 -20 51 -13 60 25 33 15 -11 53 -29 84 -40z m833 37 c37 -16 50 -26
40 -32 -20 -12 -175 -18 -183 -6 -6 9 60 61 79 61 6 0 34 -10 64 -23z m-588
-12 c12 -14 11 -16 -5 -13 -11 2 -21 10 -24 17 -5 17 13 15 29 -4z m91 -90
c38 -9 64 -11 81 -5 21 8 28 4 60 -34 20 -23 62 -57 94 -76 l58 -33 -72 -22
c-39 -13 -93 -26 -120 -29 -47 -6 -49 -5 -90 37 -45 46 -113 153 -113 176 0
10 6 12 23 7 12 -4 48 -13 79 -21z m392 -4 c44 -5 81 -12 83 -14 5 -5 -84 -76
-96 -76 -6 0 -30 12 -54 26 -87 55 -108 92 -43 80 17 -3 67 -10 110 -16z m426
16 c0 -16 -63 -109 -100 -148 -43 -45 -47 -47 -90 -42 -25 3 -70 12 -102 21
l-56 16 66 63 c58 56 72 64 107 65 22 0 65 7 95 14 63 14 80 17 80 11z m-340
-236 c36 -12 72 -24 80 -27 30 -10 -113 -56 -193 -61 -78 -5 -207 19 -207 38
0 5 26 14 57 20 32 7 80 23 108 36 55 25 60 25 155 -6z"/>
<path d="M7967 6582 l-27 -28 0 -762 0 -762 -42 -2 c-41 -1 -41 -2 12 -8 l55
-7 -45 -2 c-58 -2 -84 -17 -44 -25 53 -10 158 -25 259 -36 108 -12 269 -42
350 -65 28 -8 111 -30 184 -50 75 -21 176 -57 225 -81 110 -53 190 -110 179
-127 -4 -7 -8 -16 -9 -22 -1 -5 -5 -23 -9 -40 -3 -16 -7 -35 -7 -42 -1 -7 -5
-10 -10 -7 -5 4 -7 12 -4 20 3 8 2 13 -2 12 -4 0 -45 37 -92 83 -112 111 -257
188 -410 219 -25 5 -63 14 -86 21 -23 7 -50 9 -60 5 -18 -7 -18 -8 4 -26 13
-11 40 -22 60 -25 134 -22 263 -80 390 -175 100 -75 134 -121 140 -194 4 -46
1 -56 -21 -79 -17 -19 -38 -29 -68 -32 -65 -7 -74 2 -71 79 5 98 -12 141 -83
211 -105 106 -302 190 -585 249 -138 28 -385 75 -435 82 -27 3 -75 13 -105 20
-30 8 -77 13 -105 13 l-50 -2 50 -7 c28 -4 106 -24 175 -44 69 -19 134 -36
145 -36 11 0 27 -5 35 -11 12 -8 10 -10 -10 -5 -14 2 -74 7 -135 10 -107 6
-108 5 -60 -8 28 -8 103 -26 168 -41 l117 -27 0 -219 0 -219 -27 6 c-16 3 -34
7 -40 10 -9 2 -13 32 -13 103 l0 99 -27 6 c-54 10 -150 26 -353 56 -113 16
-270 41 -349 55 -79 14 -146 24 -148 21 -3 -3 13 -31 36 -63 23 -33 41 -62 41
-66 0 -4 -59 -7 -131 -7 -72 0 -129 -4 -127 -9 7 -19 91 -81 110 -81 20 0 21
-1 3 -20 -17 -19 -17 -21 0 -40 26 -29 56 -36 350 -80 149 -23 373 -61 499
-86 127 -24 238 -42 247 -39 10 3 29 15 43 26 l26 20 0 241 0 241 38 -7 c21
-3 92 -22 158 -42 205 -62 356 -144 409 -222 46 -68 27 -119 -69 -182 -171
-111 -491 -210 -963 -299 -87 -17 -229 -44 -316 -61 -87 -16 -169 -30 -182
-30 -13 0 -26 -4 -29 -9 -7 -11 120 -51 163 -51 43 0 282 36 441 66 74 14 149
28 165 30 17 2 93 21 170 42 77 22 142 36 145 32 7 -10 50 -20 50 -11 0 11 53
12 60 1 3 -5 22 -11 43 -14 32 -4 67 -24 67 -40 0 -8 -112 -47 -124 -42 -7 3
-7 5 2 5 6 1 12 6 12 12 0 5 -4 8 -9 5 -5 -3 -11 1 -15 9 -10 27 -44 18 -51
-15 -4 -17 -12 -30 -18 -30 -8 0 -7 -3 1 -9 10 -6 7 -11 -15 -19 -15 -5 -118
-42 -228 -82 -110 -39 -202 -73 -204 -76 -3 -2 0 -9 5 -14 12 -12 246 43 439
104 77 24 145 40 150 36 6 -5 45 -10 88 -12 70 -3 77 -1 77 16 0 12 5 16 14
13 10 -4 13 -1 9 9 -3 7 -9 14 -14 14 -5 0 -9 7 -9 16 0 10 -5 12 -12 7 -7 -4
-22 -9 -33 -10 -15 -2 -13 2 8 13 31 17 63 12 51 -7 -4 -7 -3 -9 3 -6 13 8 73
-15 73 -28 0 -16 -39 -46 -61 -48 -15 -1 -19 -9 -19 -38 0 -21 -6 -40 -12 -42
-10 -4 -10 -6 0 -6 7 -1 31 8 52 19 22 11 40 18 40 15 0 -9 -243 -123 -339
-160 -46 -18 -80 -35 -75 -38 5 -2 72 -1 149 5 125 8 150 13 230 45 185 73
369 174 490 268 81 63 205 188 205 207 0 5 10 42 21 80 19 61 21 87 16 178 -3
60 -1 112 4 119 6 8 5 8 -3 1 -8 -7 -21 7 -46 48 -18 31 -61 84 -94 118 l-60
61 54 35 c29 19 62 40 73 47 12 8 13 11 4 8 -12 -4 -16 1 -16 19 0 13 4 24 10
24 6 0 8 2 5 5 -9 10 -38 -7 -31 -18 3 -6 1 -7 -5 -3 -21 13 -100 -33 -111
-65 -5 -16 -13 -29 -16 -29 -3 0 -41 20 -84 45 -143 83 -256 112 -663 175
-141 22 -259 40 -262 40 -3 0 -6 353 -6 784 l0 785 -22 15 c-33 23 -61 20 -91
-12z"/>
<path d="M8150 6353 l0 -219 33 -11 c17 -6 68 -21 112 -33 44 -12 123 -44 176
-71 79 -40 106 -49 148 -49 93 0 102 15 55 91 -19 31 -20 38 -8 60 7 13 13 18
14 12 0 -8 14 -13 34 -13 32 0 78 25 138 75 l27 23 -27 10 c-15 6 -67 23 -115
38 -51 15 -86 31 -84 38 2 6 36 36 76 66 l72 55 -173 42 c-95 23 -234 54 -308
68 -74 14 -143 28 -152 31 -17 5 -18 -10 -18 -213z"/>
<path d="M6996 6078 c5 -7 30 -46 56 -87 50 -76 58 -97 34 -88 -28 11 -202 18
-244 10 l-43 -8 54 -75 c31 -41 65 -85 76 -96 12 -12 30 -48 41 -80 l20 -59
78 -19 c42 -10 120 -38 173 -62 53 -24 103 -44 112 -44 10 0 21 15 28 40 7 22
15 40 18 40 3 0 107 -18 231 -40 123 -22 226 -40 227 -40 2 0 3 97 3 215 0
214 0 215 -22 220 -13 2 -93 21 -178 40 -246 57 -358 82 -455 100 -49 10 -115
24 -145 31 -67 17 -73 17 -64 2z"/>
<path d="M2880 6060 c-49 -49 -17 -104 112 -191 61 -42 84 -46 101 -17 9 13 2
27 -29 70 -22 29 -50 70 -63 91 -41 66 -84 84 -121 47z"/>
<path d="M8990 5880 c-69 -21 -145 -45 -169 -54 -24 -9 -51 -16 -60 -16 -28 0
-40 -14 -49 -58 -13 -54 1 -69 69 -78 88 -12 70 -26 -71 -58 -107 -25 -307
-46 -431 -46 l-116 0 -7 -160 c-4 -88 -4 -165 0 -171 5 -9 57 -10 183 -6 241
8 472 41 679 97 105 29 232 80 232 93 0 6 13 -1 28 -16 15 -15 36 -27 45 -27
51 0 254 186 295 271 19 39 47 149 40 154 -19 12 -468 115 -500 115 -24 -1
-99 -18 -168 -40z"/>
<path d="M2459 5580 c-25 -15 -42 -65 -35 -104 10 -53 24 -59 119 -51 45 3
107 6 138 6 63 0 82 9 77 34 -2 13 -28 26 -90 45 -48 15 -101 39 -118 54 -33
27 -63 32 -91 16z"/>
<path d="M7488 5033 c7 -3 16 -2 19 1 4 3 -2 6 -13 5 -11 0 -14 -3 -6 -6z"/>
<path d="M8776 4943 c-3 -7 1 -13 8 -13 7 0 18 6 24 13 8 10 6 13 -8 13 -11 0
-22 -6 -24 -13z"/>
<path d="M8989 4943 c-1 -5 -1 -11 0 -15 0 -4 -5 -5 -12 -2 -15 6 -57 -31 -57
-51 0 -8 8 -19 18 -24 15 -8 25 -3 53 26 19 20 28 33 22 29 -12 -6 -18 11 -14
37 0 4 -1 7 -4 7 -3 0 -6 -3 -6 -7z"/>
<path d="M9010 3836 c0 -2 7 -7 16 -10 8 -3 12 -2 9 4 -6 10 -25 14 -25 6z"/>
</g>
</svg>
