<?xml version="1.0" standalone="no"?>
<!DOCTYPE svg PUBLIC "-//W3C//DTD SVG 20010904//EN"
 "http://www.w3.org/TR/2001/REC-SVG-20010904/DTD/svg10.dtd">
<svg version="1.0" xmlns="http://www.w3.org/2000/svg"
 width="1024.000000pt" height="1024.000000pt" viewBox="0 0 1024.000000 1024.000000"
 preserveAspectRatio="xMidYMid meet">

<g transform="translate(0.000000,1024.000000) scale(0.100000,-0.100000)"
fill="#000000" stroke="none">
<path d="M6423 9075 c-62 -27 -63 -35 -63 -435 l0 -361 -240 3 c-172 2 -243 6
-248 15 -4 6 -28 20 -53 31 -42 18 -47 19 -75 3 -17 -9 -29 -24 -29 -36 0 -19
-8 -20 -202 -25 -111 -3 -205 -8 -209 -12 -4 -5 0 -8 9 -8 24 0 21 -17 -4 -25
-14 -5 -19 -13 -16 -25 3 -11 1 -20 -4 -22 -5 -2 80 -3 189 -3 133 0 207 -4
223 -12 34 -17 88 -31 129 -35 31 -3 35 0 35 22 l0 25 245 0 245 0 0 -155 0
-155 -460 -5 -460 -6 -71 -26 c-39 -14 -81 -31 -92 -37 l-21 -11 2 432 2 433
50 13 c50 14 555 31 555 19 0 -3 -4 -16 -9 -30 l-9 -24 71 17 c102 24 158 7
211 -63 16 -22 20 -41 18 -92 -1 -55 2 -66 19 -79 27 -18 41 -13 62 23 23 39
22 134 -2 186 -36 79 -147 150 -313 199 -47 14 -48 14 -48 -9 0 -22 0 -22
-212 -28 -246 -6 -378 -22 -378 -45 0 -9 -3 -12 -7 -9 -3 4 -9 48 -13 97 -7
102 -23 133 -81 162 -32 17 -105 18 -1104 18 -1211 0 -1119 6 -1163 -80 l-22
-45 2 -627 c3 -619 3 -627 24 -655 12 -15 36 -37 55 -48 33 -19 55 -20 557
-23 287 -2 522 -4 522 -5 0 -1 -27 -31 -60 -66 -74 -78 -141 -210 -165 -326
-41 -198 28 -461 160 -612 l45 -51 0 -565 c0 -576 2 -608 39 -651 43 -49 55
-51 409 -54 l333 -3 -6 -67 c-4 -37 -10 -85 -14 -107 -4 -22 -4 -94 0 -160 6
-98 13 -136 39 -210 66 -187 165 -323 322 -442 113 -86 299 -163 458 -189 166
-28 356 -2 489 66 42 22 70 39 64 40 -7 0 -13 10 -13 23 0 13 -6 29 -12 36 -7
8 -8 11 -2 8 6 -3 11 0 11 7 0 9 -19 5 -63 -15 -35 -16 -68 -29 -74 -29 -6 0
-10 80 -10 230 l0 230 1170 0 1170 0 0 -610 c0 -597 0 -610 -20 -630 -20 -20
-33 -20 -1149 -20 l-1130 0 -20 26 c-19 24 -21 40 -21 159 0 121 -2 133 -17
130 -10 -2 -35 -7 -56 -10 l-39 -6 4 -163 c3 -176 9 -197 65 -233 24 -16 62
-18 371 -21 l344 -3 -4 -68 c-5 -96 -37 -140 -132 -186 -101 -48 -188 -59
-413 -52 -145 4 -206 10 -265 25 -187 50 -312 155 -343 289 -12 50 -12 60 1
74 13 15 13 25 -5 90 -11 41 -24 101 -28 134 -6 43 -13 61 -24 63 -20 4 -31
-23 -64 -153 -29 -115 -30 -128 -11 -144 7 -6 16 -30 19 -53 3 -23 24 -79 46
-124 61 -123 154 -197 311 -248 140 -46 183 -51 420 -50 199 0 234 3 305 22
186 52 274 151 289 327 l4 50 291 3 291 2 0 -59 c0 -33 3 -62 8 -64 4 -3 6 21
4 52 l-4 58 78 6 c42 4 262 7 488 7 457 0 460 1 499 67 17 29 18 63 20 410 l2
378 140 3 c166 3 190 0 175 -28 -14 -27 -12 -154 6 -305 8 -71 17 -216 21
-321 5 -175 4 -196 -15 -260 -59 -195 -197 -261 -585 -280 -70 -3 -144 -3
-163 1 -32 5 -35 9 -31 31 2 13 1 24 -4 24 -4 0 -50 -11 -101 -25 -112 -30
-175 -31 -260 -5 -88 27 -139 81 -174 184 -8 22 -12 31 -10 20 3 -16 -1 -20
-14 -17 -10 3 -27 -4 -38 -15 -11 -11 -24 -17 -27 -14 -12 11 5 -39 31 -95 27
-56 73 -102 134 -133 50 -25 152 -50 210 -50 25 0 92 -13 148 -29 l104 -29 -5
23 c-4 22 0 24 47 29 28 3 121 7 206 10 399 13 582 123 644 391 21 92 15 296
-18 575 -13 113 -23 236 -22 275 1 69 1 70 31 76 17 4 56 7 88 8 51 1 57 -1
57 -19 0 -26 21 -26 95 0 72 25 98 25 152 1 44 -21 83 -78 83 -123 0 -41 -20
-97 -47 -128 -44 -53 -95 -71 -228 -84 l-120 -11 -3 -41 c-4 -60 6 -64 128
-49 115 15 206 44 259 83 46 34 88 104 101 169 12 56 5 137 -11 128 -5 -4 -6
1 -3 9 3 8 0 24 -6 37 -10 18 -14 19 -22 8 -8 -11 -9 -11 -5 3 12 37 -93 107
-186 124 -38 6 -39 8 -32 38 4 17 10 85 14 151 l6 120 55 7 c115 14 212 60
279 133 85 92 126 221 141 435 12 181 -12 289 -71 326 -25 16 -39 50 -26 63 8
8 14 5 24 -11 12 -21 13 -19 7 17 -4 22 -13 54 -20 70 -8 17 -13 21 -11 9 4
-17 -2 -20 -32 -23 -19 -1 -37 -4 -39 -5 -8 -8 20 -86 28 -81 6 4 7 -7 3 -26
-3 -18 -2 -30 3 -26 5 3 8 -24 6 -64 -3 -49 -8 -69 -17 -69 -16 0 -2 -69 22
-106 13 -21 15 -42 10 -127 -7 -106 -22 -171 -59 -253 -12 -27 -22 -52 -23
-56 0 -5 -4 -8 -8 -7 -5 1 -21 -10 -35 -24 -39 -37 -116 -68 -183 -74 -58 -6
-59 -5 -59 19 l0 25 -67 -20 c-55 -16 -110 -21 -287 -26 -207 -6 -219 -7 -232
-27 -13 -18 -12 -24 7 -48 l21 -27 193 3 c183 3 195 2 222 -18 33 -25 41 -65
32 -167 -6 -61 -10 -73 -41 -103 -33 -34 -38 -35 -144 -45 -60 -5 -187 -12
-281 -16 l-173 -6 0 364 c0 416 0 416 -78 456 l-43 22 -1159 1 c-1309 1 -1225
6 -1261 -74 -16 -36 -19 -68 -19 -243 l0 -203 -122 1 c-70 1 -145 7 -173 15
-67 18 -120 66 -139 127 -17 50 -22 197 -8 197 5 0 5 21 1 48 -4 26 -8 99 -8
164 l-1 116 469 4 c456 3 470 4 497 24 15 11 37 33 48 48 20 26 21 44 26 339
l5 312 413 3 412 2 0 -115 0 -115 -270 0 c-301 0 -324 -4 -360 -62 -18 -30
-20 -50 -20 -248 0 -118 3 -225 6 -236 6 -24 42 -44 79 -44 25 0 25 1 25 88
l0 87 868 -1 c477 0 924 -2 994 -2 l127 -2 3 -57 3 -58 53 -3 52 -3 0 221 c0
250 -4 266 -72 301 -32 17 -60 19 -210 19 l-173 0 30 25 c17 14 65 53 107 86
43 32 92 77 109 99 l32 40 116 0 c195 0 298 -33 394 -126 85 -81 118 -173 119
-328 1 -117 -11 -171 -55 -243 -51 -87 -162 -151 -238 -138 -24 4 -40 2 -44
-5 -5 -9 -56 -11 -180 -9 -185 4 -205 0 -205 -46 0 -12 9 -30 20 -40 18 -16
39 -18 203 -16 223 2 325 22 415 80 95 62 138 126 173 262 29 114 23 271 -15
372 -82 218 -276 336 -558 337 -49 0 -88 2 -88 5 0 3 9 31 19 63 40 119 52
384 22 464 -14 37 -17 93 -5 91 6 -1 19 16 29 38 18 39 18 40 -5 90 -36 77
-67 87 -119 39 -25 -22 -32 -35 -28 -52 3 -13 10 -41 16 -63 5 -22 13 -124 16
-227 7 -209 -3 -310 -40 -393 -22 -50 -24 -52 -70 -58 -26 -4 -141 -7 -254 -7
l-207 0 -2 -35 c-2 -23 2 -35 10 -35 9 0 8 -3 -2 -10 -10 -6 58 -10 203 -10
125 0 217 -4 217 -9 0 -10 -106 -89 -171 -129 -20 -12 -49 -22 -64 -22 -21 0
-41 -13 -72 -45 l-43 -45 -395 0 -395 0 1 114 1 115 261 3 c239 3 265 5 294
23 53 32 65 71 71 232 l5 143 26 1 c17 1 20 3 8 6 -9 2 -14 9 -11 15 4 6 0 14
-7 19 -11 7 -15 70 -17 329 l-3 320 156 0 155 0 -2 -187 -3 -187 -25 -6 c-26
-7 -28 -14 -15 -81 15 -75 -45 -143 -136 -155 -40 -6 -44 -8 -44 -34 0 -25 5
-30 35 -35 19 -4 43 -13 52 -22 15 -13 22 -12 67 13 50 28 51 28 65 9 14 -19
17 -15 54 65 21 47 47 109 57 137 18 50 18 55 2 88 -14 29 -17 67 -17 205 0
168 0 170 -22 170 -12 0 -18 3 -14 8 4 4 209 9 454 12 443 5 447 5 478 27 67
48 64 6 64 1024 0 1034 4 974 -72 1009 -42 19 -77 20 -1453 19 -1179 0 -1415
-2 -1442 -14z m242 -160 c14 -13 25 -31 25 -38 0 -25 -34 -57 -67 -63 -26 -5
-37 -1 -57 19 -31 32 -32 46 -5 81 27 34 71 35 104 1z m179 4 c15 -12 26 -30
26 -44 0 -26 -42 -65 -70 -65 -28 0 -70 39 -70 65 0 26 42 65 70 65 10 0 29
-9 44 -21z m199 -11 c26 -30 21 -56 -15 -78 -42 -26 -51 -25 -85 4 -24 21 -26
27 -18 52 19 54 80 65 118 22z m-1916 -53 c12 -17 14 -96 11 -587 -3 -496 -5
-569 -18 -583 -13 -12 -60 -17 -255 -23 -132 -5 -246 -6 -252 -4 -7 2 -10 9
-6 14 4 7 -34 9 -118 6 -97 -4 -141 -11 -203 -32 -54 -18 -83 -23 -90 -16 -6
6 -207 10 -582 10 -535 0 -573 1 -594 18 l-22 18 -2 588 c-1 582 -1 588 20
604 18 16 101 17 1058 12 1023 -5 1038 -5 1053 -25z m3567 -106 c49 -35 90
-35 99 1 10 37 45 24 69 -25 l22 -45 193 0 193 0 0 -753 c0 -635 -2 -756 -14
-773 -14 -18 -34 -19 -620 -22 l-605 -2 -3 282 c-3 274 -4 284 -26 319 -44 72
-8 69 -811 69 l-721 0 0 440 0 440 988 0 c853 0 991 2 1008 15 10 8 39 15 65
15 38 0 50 5 79 35 19 19 35 35 37 35 1 0 22 -14 47 -31z m-2406 -1002 c18
-14 15 -23 -24 -67 -58 -64 -116 -80 -291 -80 -137 0 -148 1 -170 22 -43 40
-132 20 -152 -35 -7 -16 -4 -28 12 -44 28 -31 49 -36 96 -23 29 8 57 7 103 -1
35 -7 101 -15 148 -19 59 -4 70 -7 37 -8 -42 -2 -48 -4 -43 -20 5 -14 -3 -22
-32 -35 -21 -9 -50 -17 -63 -17 -32 0 -49 -17 -49 -50 0 -14 5 -31 12 -38 9
-9 250 -12 1025 -12 l1013 0 0 -618 0 -619 -26 -24 -26 -24 -691 0 -691 0 -2
424 c-3 479 2 455 -84 499 l-44 22 -543 0 c-299 0 -543 -3 -543 -6 0 -24 122
-203 178 -260 39 -40 56 -50 78 -49 17 1 20 1 7 -2 -13 -2 -23 -8 -23 -12 0
-16 80 -71 103 -71 13 0 32 -7 43 -15 16 -12 77 -14 367 -15 l347 0 0 -595 0
-596 -25 -24 -24 -25 -1066 0 -1066 0 -24 25 -25 24 0 476 c0 261 -4 475 -9
475 -16 0 -61 53 -61 72 0 18 2 18 31 2 17 -8 61 -36 97 -61 86 -58 204 -117
320 -159 91 -33 96 -34 252 -34 147 0 162 2 180 20 25 25 26 52 1 74 -16 15
-39 17 -168 15 -142 -2 -152 -1 -240 29 -326 110 -553 332 -608 592 -29 140
-9 299 52 411 66 122 207 234 356 283 121 40 133 41 160 12 l24 -26 252 0 252
0 -14 -27 c-52 -104 -69 -323 -35 -448 9 -33 18 -66 20 -72 2 -10 -85 -13
-411 -13 -384 0 -414 1 -427 17 -12 17 -13 16 -8 -4 4 -15 0 -23 -15 -28 -12
-3 -33 -22 -47 -40 -24 -32 -25 -36 -11 -67 8 -18 18 -45 21 -60 9 -41 69
-139 121 -196 98 -109 259 -204 401 -238 118 -27 645 -9 675 24 4 4 10 21 13
38 l7 32 -363 -2 -363 -1 -69 28 c-75 30 -172 82 -182 98 -3 6 2 17 12 24 11
9 14 14 7 15 -7 0 -13 5 -13 11 0 6 7 9 15 5 9 -3 15 0 15 8 0 17 -22 26 -60
26 -21 0 -38 11 -64 42 -40 46 -41 49 -25 81 9 20 9 21 -4 4 -18 -21 -30 -10
-36 33 0 5 -9 7 -18 3 -10 -3 -15 -3 -12 1 4 4 17 10 30 13 36 11 859 15 859
5 0 -5 29 -53 65 -108 l65 -98 -24 -13 c-14 -7 -55 -17 -93 -22 -66 -9 -64 -9
44 -8 l112 2 98 -96 c109 -107 146 -125 175 -89 27 34 22 49 -34 99 -295 263
-436 589 -372 861 37 160 156 288 319 346 38 14 97 19 250 24 293 10 628 8
643 -3z m1552 -99 c-29 -129 -50 -155 -125 -159 -150 -7 -164 0 -175 100 -5
43 -14 77 -21 82 -8 5 58 9 157 9 l172 0 -8 -32z m-2197 -795 c-51 -2 -136 -2
-190 0 -54 1 -12 3 92 3 105 0 149 -2 98 -3z m2714 -130 c-3 -10 -5 -4 -5 12
0 17 2 24 5 18 2 -7 2 -21 0 -30z m-2807 -27 c0 -2 -7 -7 -16 -10 -8 -3 -12
-2 -9 4 6 10 25 14 25 6z m3181 -1143 c9 -11 14 -43 14 -97 l0 -81 -990 0
-990 0 -3 83 c-2 53 1 89 9 98 10 12 161 14 979 14 887 0 969 -1 981 -17z
m-3399 -470 c2 -60 1 -126 -4 -148 -12 -66 -9 -197 7 -257 38 -148 128 -224
296 -252 29 -5 38 -12 43 -32 7 -28 0 -47 -15 -39 -5 4 -9 4 -9 1 0 -2 -3 -13
-6 -23 -4 -14 -4 -15 4 -4 8 12 13 11 31 -1 11 -8 18 -18 13 -22 -4 -4 0 -6 8
-4 20 4 28 16 41 63 14 52 32 65 90 65 l48 0 3 -156 c2 -86 0 -158 -5 -161
-14 -8 -184 -16 -212 -9 -21 5 -26 12 -22 26 3 11 1 18 -3 15 -13 -8 -42 26
-36 42 3 8 1 11 -4 8 -6 -3 -10 0 -10 7 -1 7 -12 -6 -26 -29 -14 -24 -30 -43
-35 -43 -16 0 -135 47 -194 78 -95 49 -144 86 -238 179 -74 75 -95 103 -137
188 -27 55 -54 120 -59 145 -13 55 -14 147 -3 154 5 3 5 29 1 58 -4 29 -8 99
-8 156 l-1 102 219 0 219 0 4 -107z m860 -226 c10 -12 18 -30 18 -40 0 -22
-43 -67 -65 -67 -26 0 -73 29 -80 49 -7 24 9 67 32 80 26 16 75 4 95 -22z
m178 13 c14 1 132 4 264 6 275 5 286 3 286 -65 0 -28 -7 -45 -26 -65 l-27 -26
-250 0 c-221 0 -248 2 -231 14 18 14 18 16 2 32 -14 14 -20 16 -30 6 -19 -19
-66 -14 -88 8 -42 42 -11 107 45 95 16 -4 41 -6 55 -5z"/>
<path d="M3121 8796 c-7 -8 -11 -36 -9 -63 l3 -48 80 0 80 0 3 48 c4 66 -7 77
-83 77 -42 0 -66 -5 -74 -14z"/>
<path d="M3347 8783 c-9 -8 -9 -66 -1 -87 5 -12 20 -16 63 -16 63 0 77 -6 60
-26 -6 -7 -13 -47 -16 -89 -5 -63 -9 -75 -21 -70 -9 3 -41 -10 -73 -30 -35
-21 -76 -38 -106 -41 -81 -11 -105 -53 -62 -108 l20 -26 178 0 c166 0 180 1
205 21 33 26 32 69 -1 84 -38 16 -47 46 -31 102 8 27 13 58 11 69 -17 85 -16
103 11 134 29 35 31 43 16 71 -10 17 -22 19 -129 19 -65 0 -121 -3 -124 -7z"/>
<path d="M3727 8573 c-21 -24 -16 -51 12 -75 21 -16 44 -18 252 -18 216 0 230
1 249 20 24 24 25 38 4 68 -14 21 -22 22 -132 21 -112 -1 -327 -14 -288 -17
18 -2 18 -3 1 -29 -17 -25 -17 -27 1 -40 16 -12 14 -13 -22 -13 -21 0 -44 4
-50 8 -14 9 -14 43 -1 60 17 22 -7 35 -26 15z"/>
<path d="M4433 8532 c-10 -6 -13 -87 -15 -330 -3 -275 -1 -323 12 -336 20 -20
521 -26 545 -6 13 11 15 60 15 330 0 175 -3 325 -6 334 -5 14 -39 16 -273 16
-146 0 -272 -4 -278 -8z"/>
<path d="M3725 8380 c-21 -24 -19 -67 4 -80 12 -6 112 -10 254 -10 214 0 235
2 250 18 22 24 21 55 -2 76 -16 15 -45 16 -255 14 -204 -2 -238 -4 -251 -18z
m428 3 c-13 -2 -35 -2 -50 0 -16 2 -5 4 22 4 28 0 40 -2 28 -4z"/>
<path d="M3301 8183 c-101 -4 -121 -12 -121 -48 0 -49 22 -55 212 -55 173 0
175 0 198 25 22 23 22 25 6 50 -15 22 -23 25 -80 25 -35 0 -76 1 -92 3 -16 2
-72 2 -123 0z"/>
<path d="M3737 8172 c-22 -25 -21 -48 3 -72 19 -19 33 -20 248 -20 209 0 230
2 245 18 22 24 21 55 -1 75 -16 15 -49 17 -249 17 -210 0 -231 -2 -246 -18z"/>
<path d="M3197 7972 c-20 -22 -22 -85 -3 -101 9 -8 157 -10 532 -9 l519 3 3
48 c2 27 -2 55 -9 63 -10 12 -92 14 -519 14 -478 0 -508 -1 -523 -18z"/>
<path d="M8548 8661 c-96 -10 -98 -16 -91 -209 l6 -163 126 7 c116 6 130 5
178 -16 84 -36 88 -32 91 91 l3 106 101 7 c134 9 178 32 178 91 0 50 -19 59
-74 35 -36 -15 -65 -19 -129 -17 -79 2 -82 3 -85 27 -2 14 -8 29 -13 34 -10
11 -208 16 -291 7z m193 -142 c8 -16 3 -25 -26 -52 -20 -19 -50 -41 -66 -51
-28 -17 -29 -16 -54 8 -29 29 -34 86 -10 106 12 10 21 10 44 0 25 -10 34 -9
52 3 25 18 45 13 60 -14z"/>
<path d="M8097 8422 c-13 -15 -17 -39 -16 -113 0 -52 4 -112 8 -134 l9 -40 1
38 c1 44 40 117 78 147 31 24 85 26 107 4 25 -24 19 -63 -15 -102 l-32 -36 29
-24 28 -25 -27 -23 c-36 -31 -105 -41 -144 -20 -17 8 -33 12 -37 9 -3 -4 -6
-39 -6 -78 0 -110 -13 -105 291 -105 185 0 258 3 267 12 8 8 12 59 12 165 0
125 -3 155 -15 159 -7 3 -54 -6 -102 -20 -48 -14 -98 -26 -110 -26 -36 0 -46
32 -34 104 6 35 11 77 11 94 l0 32 -143 0 c-127 0 -146 -2 -160 -18z"/>
<path d="M8939 8404 c-13 -12 -15 -30 -11 -82 4 -57 1 -71 -16 -92 -18 -23
-23 -24 -51 -13 -17 6 -33 8 -35 4 -7 -11 1 -869 9 -880 4 -7 52 -11 125 -11
94 0 122 3 134 16 14 14 16 75 16 525 0 333 -4 517 -10 530 -9 16 -22 19 -78
19 -48 0 -72 -5 -83 -16z"/>
<path d="M5880 7481 c0 -5 9 -7 20 -4 11 3 20 7 20 9 0 2 -9 4 -20 4 -11 0
-20 -4 -20 -9z"/>
<path d="M4514 7382 c6 -16 -4 -19 -98 -29 -157 -16 -261 -72 -306 -165 -10
-21 -10 -21 3 -5 27 33 42 21 42 -33 l-1 -50 46 52 c25 29 44 57 42 63 -2 5
-1 7 3 3 4 -3 25 2 48 12 23 10 77 23 120 29 112 16 110 16 102 -18 -3 -16 -2
-31 2 -34 5 -3 58 14 118 39 61 24 115 44 121 44 18 0 26 32 12 45 -11 11
-220 65 -249 65 -6 0 -8 -8 -5 -18z m-334 -147 c-13 -16 -34 -10 -24 6 3 5 10
7 15 4 5 -4 9 2 10 12 0 11 3 13 6 5 3 -7 -1 -19 -7 -27z"/>
<path d="M5386 7168 c-19 -27 -20 -58 -3 -81 11 -16 20 -16 82 -7 39 5 151 10
251 10 169 0 182 1 199 20 15 17 16 23 5 33 -10 9 -11 9 -6 0 5 -9 -2 -13 -24
-13 -18 0 -33 -6 -36 -15 -11 -27 -34 -17 -34 14 0 16 -6 32 -12 34 -7 3 10 6
37 8 88 4 -115 17 -287 18 -151 1 -157 0 -172 -21z"/>
<path d="M6886 7171 c59 -6 60 -7 60 -36 -1 -28 -4 -30 -46 -36 -30 -4 -7 -6
67 -7 122 -2 139 1 154 29 8 16 4 22 -23 39 -29 17 -49 20 -153 18 -93 -1
-106 -3 -59 -7z"/>
<path d="M6703 7000 c-21 -19 -21 -26 -16 -164 4 -88 2 -150 -4 -158 -5 -7 -9
-20 -8 -28 0 -8 -6 -18 -15 -22 -13 -6 -13 -7 1 -7 14 -1 17 -17 21 -107 2
-58 1 -133 -3 -167 -4 -39 -2 -71 5 -87 l11 -25 506 -3 c425 -2 508 0 524 12
19 14 20 31 23 371 2 310 1 361 -13 381 l-15 24 -498 0 c-483 0 -499 -1 -519
-20z m470 -175 c36 -19 89 -44 119 -55 67 -26 146 -83 158 -116 15 -37 -9 -73
-79 -122 -58 -42 -255 -142 -277 -142 -6 0 -23 9 -38 21 l-26 20 0 188 c0 175
1 190 21 215 27 34 43 33 122 -9z"/>
<path d="M6553 6655 c0 -22 2 -30 4 -17 2 12 2 30 0 40 -3 9 -5 -1 -4 -23z"/>
<path d="M4565 6625 c-38 -12 -39 -13 -15 -19 14 -4 57 -6 95 -4 l70 3 -32 18
c-37 20 -62 20 -118 2z"/>
<path d="M5144 6306 c-19 -28 -21 -743 -1 -769 11 -15 57 -17 515 -18 464 0
505 1 523 17 18 16 19 36 19 383 0 310 -2 370 -15 388 l-15 22 -506 -2 c-494
-1 -506 -2 -520 -21z m520 -203 c121 -56 223 -118 236 -143 19 -35 11 -65 -27
-102 -42 -39 -50 -44 -212 -123 -62 -30 -124 -55 -137 -55 -14 0 -30 10 -40
25 -15 23 -16 48 -10 218 10 259 13 262 190 180z"/>
<path d="M5627 4303 c-3 -5 -12 -26 -21 -47 -16 -39 -16 -39 4 -21 11 10 18
20 16 23 -3 2 -1 15 4 28 9 23 7 33 -3 17z"/>
<path d="M5674 4273 c2 -9 8 -19 15 -21 10 -3 10 0 2 17 -14 25 -20 27 -17 4z"/>
<path d="M2464 8436 c6 -26 10 -25 -119 -42 -72 -9 -197 -57 -250 -95 -25 -18
-59 -54 -76 -80 -54 -85 -63 -226 -17 -284 19 -24 22 -25 38 -10 14 12 19 35
21 93 5 102 36 164 103 209 55 38 156 70 245 80 l62 6 -6 -36 -7 -37 38 15
c227 85 251 100 206 124 -30 16 -215 81 -231 81 -9 0 -11 -7 -7 -24z"/>
<path d="M1850 7744 c-215 -38 -365 -170 -378 -331 -4 -49 -2 -55 31 -88 29
-29 42 -35 77 -35 60 0 95 25 126 90 33 70 49 88 99 111 121 56 250 -15 226
-124 -11 -45 -34 -75 -98 -125 -105 -84 -143 -149 -143 -248 0 -98 35 -165 94
-180 42 -10 97 5 128 36 25 25 28 36 28 90 0 34 5 71 12 83 6 12 55 65 108
117 85 84 99 102 115 155 60 186 -24 356 -208 424 -57 21 -169 34 -217 25z"/>
<path d="M2649 7315 c-15 -8 -29 -20 -32 -27 -3 -7 -42 -102 -86 -212 -45
-109 -81 -208 -79 -220 2 -12 11 -22 23 -23 15 -2 45 30 120 128 55 73 121
156 148 186 39 45 47 61 47 94 0 75 -71 112 -141 74z"/>
<path d="M3494 7132 c-12 -10 -29 -33 -38 -51 -9 -17 -29 -36 -44 -42 -73 -26
-74 -25 67 -29 47 -2 69 24 73 85 3 44 1 50 -17 52 -11 2 -30 -5 -41 -15z"/>
<path d="M1031 7091 c-44 -41 -44 -101 0 -142 17 -16 35 -29 40 -29 9 0 158
-100 302 -202 74 -53 92 -58 102 -28 5 16 -22 56 -122 182 -181 228 -201 248
-251 248 -30 0 -47 -7 -71 -29z"/>
<path d="M2999 6989 c-34 -9 -329 -255 -329 -275 0 -23 28 -28 68 -11 211 89
307 127 317 127 24 0 50 41 50 80 0 62 -45 96 -106 79z"/>
<path d="M1946 6740 c-66 -20 -114 -99 -102 -165 18 -95 131 -145 214 -95 43
26 76 99 68 146 -15 79 -106 137 -180 114z"/>
<path d="M8807 6610 c9 -22 18 -38 20 -36 5 5 -24 76 -31 76 -2 0 3 -18 11
-40z"/>
<path d="M2447 6598 c-30 -29 -72 -122 -64 -143 8 -18 16 -15 105 41 58 38 68
68 32 104 -26 26 -43 25 -73 -2z"/>
<path d="M3057 6533 c10 -3 10 -7 0 -18 -7 -7 -15 -11 -18 -9 -3 2 -14 -3 -24
-10 -23 -17 -13 -46 15 -46 25 0 130 50 130 61 0 15 -38 29 -77 28 -21 0 -33
-3 -26 -6z"/>
<path d="M1533 6500 c-45 -18 -56 -75 -20 -107 23 -22 185 -76 199 -67 9 6
-60 109 -104 156 -27 29 -39 32 -75 18z"/>
<path d="M8063 6393 c9 -2 23 -2 30 0 6 3 -1 5 -18 5 -16 0 -22 -2 -12 -5z"/>
<path d="M2593 6330 c-18 -4 -44 -15 -59 -25 -22 -14 -33 -15 -63 -7 -90 26
-159 32 -251 22 -126 -14 -229 -51 -326 -116 -137 -90 -228 -206 -282 -356
-24 -66 -26 -87 -26 -228 -1 -145 1 -161 28 -244 37 -112 101 -210 199 -303
l74 -70 -36 -13 c-65 -23 -155 -83 -216 -145 -107 -109 -324 -451 -415 -654
-59 -133 -74 -193 -74 -301 0 -115 24 -182 87 -235 78 -67 231 -102 395 -91
84 6 92 5 92 -11 0 -20 -61 -318 -110 -538 -70 -317 -133 -567 -264 -1047 -18
-63 -32 -92 -79 -150 -84 -107 -111 -165 -105 -233 10 -114 94 -154 338 -162
130 -4 171 -2 252 15 174 36 219 79 239 232 7 49 32 140 61 224 101 285 203
585 253 751 l53 170 6 -55 c12 -114 26 -280 35 -430 21 -326 24 -390 25 -560
2 -187 7 -210 58 -257 99 -92 578 -125 749 -52 71 31 99 68 99 131 0 70 -22
109 -117 206 l-83 86 -10 245 c-5 135 -14 377 -20 536 -6 160 -13 344 -17 411
l-6 121 244 125 244 124 33 67 c18 37 83 190 144 340 60 149 143 353 183 452
40 99 89 218 109 263 20 46 36 94 36 107 0 30 -37 75 -62 75 -18 0 -449 -188
-640 -280 l-88 -42 -137 31 c-76 17 -140 35 -144 39 -4 4 -10 39 -14 77 l-6
70 78 39 c322 158 615 383 680 521 23 49 28 74 28 135 0 66 -4 83 -35 142 -97
186 -390 478 -715 713 -100 72 -187 112 -282 131 -82 15 -92 16 -140 4z m206
-131 c35 -16 87 -46 115 -66 305 -222 537 -443 660 -628 78 -117 92 -176 61
-250 -44 -107 -289 -292 -608 -460 l-123 -65 -22 45 c-12 25 -26 45 -32 45
-14 0 -12 -35 9 -180 10 -69 17 -127 15 -129 -2 -2 -88 10 -191 28 -104 18
-276 46 -383 62 -107 16 -207 34 -222 40 -28 11 -63 0 -84 -29 -6 -8 -24 -95
-40 -194 -27 -170 -31 -181 -56 -200 -27 -18 -28 -18 -28 -1 0 10 9 55 19 100
10 45 16 85 13 88 -3 3 -36 -57 -74 -132 -38 -76 -75 -146 -83 -157 -10 -14
-34 -20 -98 -27 -160 -16 -189 -49 -44 -50 50 0 116 -4 144 -8 58 -8 69 -4
135 59 48 46 159 106 181 97 29 -11 19 -39 -30 -82 -27 -24 -44 -46 -40 -53 5
-7 39 -9 110 -5 84 5 108 3 135 -11 63 -33 34 -66 -58 -66 -110 0 -125 -35
-19 -46 108 -11 124 -23 88 -68 -18 -23 -27 -26 -89 -26 -72 0 -96 -13 -66
-36 10 -7 35 -16 57 -19 44 -8 49 -23 18 -51 -18 -17 -44 -20 -198 -25 -97 -4
-232 -10 -301 -14 -221 -13 -344 20 -388 105 -33 64 -27 174 18 285 93 237
312 588 441 710 72 67 101 85 208 129 56 23 66 24 90 12 74 -39 247 -61 356
-45 164 22 279 77 394 187 40 38 92 75 131 94 58 28 190 113 262 170 25 19 28
20 43 4 20 -20 34 -21 41 -2 6 15 -113 179 -206 286 -42 47 -60 78 -69 114 -7
28 -23 73 -37 102 -16 35 -23 61 -18 78 5 21 3 24 -14 19 -14 -3 -32 8 -63 42
-49 52 -105 85 -144 85 -15 0 -28 7 -32 17 -9 23 32 53 73 53 18 0 36 5 39 10
11 17 -48 32 -110 27 -60 -4 -115 12 -115 34 0 5 15 17 33 25 44 20 117 10
196 -27z m-384 -5 c43 -11 65 -21 65 -31 0 -25 55 -71 93 -78 31 -6 37 -11 37
-32 0 -32 39 -69 88 -82 100 -27 195 -222 195 -401 1 -267 -179 -491 -451
-561 -303 -77 -622 109 -725 424 -31 97 -29 266 6 372 15 45 41 103 59 130
137 206 406 316 633 259z m661 -740 c20 -29 35 -55 33 -57 -58 -41 -143 -96
-146 -94 -1 2 6 26 17 53 10 28 22 78 26 112 8 72 11 71 70 -14z m802 -961
c-22 -54 -75 -183 -118 -288 -43 -104 -117 -289 -165 -410 -48 -121 -93 -230
-99 -241 -6 -13 -73 -54 -161 -99 -82 -42 -191 -100 -242 -127 l-92 -49 26 83
c14 46 47 148 74 228 27 80 70 210 95 290 26 80 70 216 98 304 l51 158 175 80
c240 109 373 167 386 168 7 0 -6 -43 -28 -97z m-1463 -19 c744 -126 815 -140
815 -158 -1 -6 -39 -123 -86 -261 -46 -137 -91 -272 -99 -300 -8 -27 -27 -94
-42 -148 -22 -77 -31 -96 -43 -90 -8 3 -33 8 -56 11 -41 4 -41 4 -36 -27 4
-32 11 -37 28 -22 5 4 24 11 43 15 24 4 32 3 28 -7 -2 -7 -17 -57 -32 -112
-14 -55 -30 -104 -35 -109 -5 -5 -58 3 -122 17 -175 40 -316 66 -408 77 -47 5
-177 24 -290 41 l-205 32 14 77 15 78 50 6 c28 3 74 6 103 6 77 0 150 19 183
46 16 14 36 46 46 72 10 26 26 55 36 65 33 33 49 76 47 130 -1 29 1 68 5 87
15 74 -53 130 -158 130 -49 0 -54 2 -49 20 8 31 -6 89 -28 111 -12 12 -33 19
-59 19 -25 0 -40 5 -40 13 0 15 38 207 45 224 2 8 15 11 32 8 15 -3 150 -26
298 -51z m-370 -1169 c83 -14 204 -31 270 -40 131 -17 505 -97 565 -121 30
-12 43 -13 59 -4 16 8 22 8 25 -2 4 -11 32 -814 43 -1191 l3 -119 52 -46 c73
-65 127 -122 144 -154 13 -25 13 -29 -5 -47 -31 -31 -139 -44 -312 -39 -175 6
-290 28 -324 62 -21 21 -22 32 -28 277 -6 254 -33 647 -63 918 l-16 144 26 20
c14 10 26 26 26 34 0 13 -8 14 -42 8 -24 -4 -74 -13 -112 -19 l-69 -11 -29
-95 c-151 -490 -355 -1080 -373 -1080 -10 0 -13 -23 -12 -82 0 -46 -5 -93 -11
-104 -27 -50 -184 -80 -382 -72 -149 7 -200 23 -200 63 0 28 81 153 125 195
14 13 25 29 25 35 0 6 29 117 65 245 114 407 261 1021 291 1216 l6 41 52 -4
c28 -3 119 -15 201 -28z"/>
<path d="M2567 5792 c-32 -35 -15 -125 25 -138 25 -7 58 22 58 51 0 36 -21 85
-40 95 -24 13 -24 13 -43 -8z"/>
<path d="M2150 5701 c-16 -31 -12 -76 11 -105 25 -32 54 -34 70 -5 13 25 6 93
-11 114 -18 21 -57 18 -70 -4z"/>
<path d="M2420 5398 c-66 -45 -94 -154 -50 -193 20 -18 22 -18 62 5 27 15 66
26 108 29 l65 6 3 53 c3 49 0 56 -31 87 -30 30 -42 35 -80 35 -29 0 -55 -7
-77 -22z"/>
<path d="M2926 4334 c-4 -9 -4 -19 -1 -22 2 -3 7 3 11 12 4 9 4 19 1 22 -2 3
-7 -3 -11 -12z"/>
<path d="M2855 4059 c-4 -6 -5 -12 -2 -15 2 -3 7 2 10 11 7 17 1 20 -8 4z"/>
<path d="M2835 4020 c-3 -6 1 -7 9 -4 18 7 21 14 7 14 -6 0 -13 -4 -16 -10z"/>
<path d="M2850 3995 c0 -8 4 -15 10 -15 5 0 7 7 4 15 -4 8 -8 15 -10 15 -2 0
-4 -7 -4 -15z"/>
<path d="M2801 3550 c-10 -5 -9 -8 2 -13 7 -3 19 -2 26 3 10 5 9 8 -2 13 -7 3
-19 2 -26 -3z"/>
<path d="M9460 5886 c0 -11 30 -66 36 -66 2 0 -3 15 -12 33 -19 36 -24 44 -24
33z"/>
<path d="M9390 5826 c0 -9 29 -66 34 -66 9 0 -8 51 -20 61 -8 6 -14 8 -14 5z"/>
<path d="M8750 4826 l0 -116 55 0 55 0 0 110 0 110 -32 0 c-18 0 -43 3 -55 6
-23 6 -23 6 -23 -110z"/>
<path d="M8750 4391 c0 -121 0 -121 71 -121 l39 0 0 115 0 115 -55 0 -55 0 0
-109z"/>
<path d="M4510 4327 c-32 -16 -70 -73 -70 -104 0 -14 12 -37 28 -52 26 -26 31
-28 82 -20 109 15 105 17 254 -95 383 -287 733 -391 1101 -326 278 48 447 143
643 359 98 107 116 137 106 177 -16 62 -86 49 -119 -20 -21 -44 -181 -199
-263 -255 -228 -154 -517 -205 -801 -142 -199 45 -355 118 -540 251 -60 43
-119 81 -132 85 -58 16 -77 27 -72 41 10 26 -27 85 -63 100 -41 17 -121 18
-154 1z"/>
<path d="M7610 4291 c0 -20 17 -37 27 -28 7 8 -7 47 -18 47 -5 0 -9 -9 -9 -19z"/>
<path d="M7760 4260 c-13 -39 -12 -42 15 -70 32 -34 38 -32 104 30 42 39 44
43 25 54 -24 14 -61 23 -100 25 -27 1 -32 -3 -44 -39z"/>
<path d="M3974 3996 c-7 -17 12 -56 27 -56 6 0 8 -4 4 -9 -3 -6 21 -38 52 -73
32 -35 76 -84 96 -111 21 -26 43 -45 48 -41 27 16 69 11 164 -21 61 -20 145
-40 202 -46 120 -14 303 -7 403 17 l75 18 -42 9 c-24 6 -43 14 -43 18 0 5 -9
9 -20 9 -11 0 -20 5 -20 10 0 6 8 10 17 10 9 0 14 2 11 5 -3 3 -25 2 -49 -2
-42 -7 -43 -7 -14 -13 l30 -6 -37 -5 c-20 -3 -34 -1 -32 3 3 4 -10 8 -28 8
-25 0 -29 -3 -18 -10 12 -8 9 -9 -12 -8 -15 1 -25 5 -23 9 4 6 -155 18 -292
22 -28 1 -55 5 -59 10 -4 4 8 5 27 2 23 -3 16 1 -21 13 -71 24 -100 40 -100
55 0 7 -14 23 -31 36 -17 14 -28 30 -25 38 9 21 -25 29 -40 9 -14 -20 -38 -16
-94 16 -42 25 -93 41 -85 27 4 -5 0 -9 -8 -9 -9 0 -17 15 -21 40 -6 40 -31 55
-42 26z"/>
<path d="M5091 3791 c-9 -6 -5 -8 13 -8 33 0 37 -4 40 -37 2 -16 -3 -30 -13
-36 -30 -18 -1 -10 43 12 l45 21 -52 28 c-59 32 -57 32 -76 20z"/>
<path d="M8578 3761 l42 -6 -25 -27 c-16 -18 -20 -28 -12 -31 7 -3 2 -6 -10
-6 -12 -1 -24 5 -26 12 -3 7 -6 5 -6 -5 -1 -16 10 -18 94 -18 l95 0 0 45 0 45
-97 -2 c-68 -1 -85 -3 -55 -7z"/>
<path d="M5241 3707 c-8 -10 -7 -14 4 -14 8 0 12 4 9 8 -2 4 6 10 18 12 22 4
22 4 2 6 -12 0 -27 -5 -33 -12z"/>
<path d="M5058 3683 c7 -3 16 -2 19 1 4 3 -2 6 -13 5 -11 0 -14 -3 -6 -6z"/>
<path d="M6276 3644 c8 -3 10 -20 7 -44 -4 -30 -2 -40 8 -41 8 0 5 -4 -6 -9
-12 -5 66 -9 196 -9 231 -1 239 1 239 50 0 54 -22 59 -250 58 -113 0 -200 -3
-194 -5z"/>
<path d="M5209 3563 l-24 -27 33 23 c32 23 39 31 24 31 -5 0 -19 -12 -33 -27z"/>
<path d="M5049 3533 c-13 -16 -12 -17 4 -4 16 13 21 21 13 21 -2 0 -10 -8 -17
-17z"/>
<path d="M5165 3520 c-4 -6 -10 -8 -15 -5 -4 3 -13 -2 -19 -9 -21 -26 6 -26
29 -1 13 14 21 25 17 25 -3 0 -9 -5 -12 -10z"/>
<path d="M4923 3449 c-37 -24 -39 -26 -18 -26 8 0 15 4 15 9 0 5 5 6 10 3 6
-3 13 1 16 10 5 13 9 13 23 3 14 -12 15 -11 2 5 -7 9 -14 17 -15 17 0 0 -16
-10 -33 -21z"/>
<path d="M5040 3435 c0 -9 5 -15 11 -13 6 2 11 8 11 13 0 5 -5 11 -11 13 -6 2
-11 -4 -11 -13z"/>
<path d="M4785 3374 c-49 -24 -113 -52 -142 -61 -43 -14 -53 -21 -53 -39 0
-13 5 -26 10 -29 25 -15 6 -33 -47 -45 -32 -7 -74 -16 -93 -21 -19 -5 -48 -9
-65 -10 -18 -1 -23 -3 -12 -6 62 -16 490 118 472 148 -3 4 -1 10 5 14 5 3 10
1 10 -5 0 -6 12 -5 30 5 17 9 28 20 25 25 -3 6 0 7 8 4 8 -3 18 0 23 7 4 8 3
10 -4 5 -7 -4 -12 -1 -12 8 0 9 -7 16 -16 16 -8 0 -12 5 -8 11 4 8 0 8 -15 0
-19 -11 -25 -8 -22 12 1 9 10 13 -94 -39z m80 16 c-3 -5 -11 -10 -16 -10 -6 0
-7 5 -4 10 3 6 11 10 16 10 6 0 7 -4 4 -10z"/>
<path d="M4153 3273 c2 -25 -2 -28 -43 -34 -25 -3 -98 -10 -163 -14 -172 -10
-145 -36 78 -72 85 -13 105 -20 132 -46 38 -35 64 -32 113 13 20 19 44 30 64
31 l31 2 -35 6 c-47 8 -18 21 53 22 29 1 43 4 33 6 -10 3 -28 13 -39 23 -19
19 -19 19 14 29 29 8 24 9 -26 4 -48 -4 -64 -2 -74 11 -7 9 -19 16 -25 16 -15
-1 36 -39 52 -40 6 0 12 -4 12 -9 0 -5 -15 -4 -35 2 -19 6 -35 15 -35 21 0 6
-4 5 -9 -2 -6 -10 -10 -9 -14 7 -3 12 0 21 6 21 19 1 -53 30 -74 30 -13 0 -17
-7 -16 -27z m47 13 c0 -2 -7 -9 -15 -16 -12 -10 -15 -10 -15 4 0 9 7 16 15 16
8 0 15 -2 15 -4z"/>
<path d="M4558 3283 c7 -3 16 -2 19 1 4 3 -2 6 -13 5 -11 0 -14 -3 -6 -6z"/>
<path d="M7452 3170 c0 -14 2 -19 5 -12 2 6 2 18 0 25 -3 6 -5 1 -5 -13z"/>
</g>
</svg>
