<?xml version="1.0" standalone="no"?>
<!DOCTYPE svg PUBLIC "-//W3C//DTD SVG 20010904//EN"
 "http://www.w3.org/TR/2001/REC-SVG-20010904/DTD/svg10.dtd">
<svg version="1.0" xmlns="http://www.w3.org/2000/svg"
 width="1024.000000pt" height="1024.000000pt" viewBox="0 0 1024.000000 1024.000000"
 preserveAspectRatio="xMidYMid meet">

<g transform="translate(0.000000,1024.000000) scale(0.100000,-0.100000)"
fill="#000000" stroke="none">
<path d="M6498 9219 c-20 -11 -158 -202 -158 -218 0 -19 26 -12 89 23 88 50
148 93 155 111 11 30 6 55 -14 75 -22 22 -46 25 -72 9z"/>
<path d="M4250 9213 c-43 -14 -55 -83 -17 -107 30 -20 238 -78 256 -71 18 7
-10 38 -96 106 -66 53 -119 79 -143 72z"/>
<path d="M5565 9120 c-281 -39 -515 -270 -574 -565 l-18 -90 -399 -27 c-219
-15 -402 -27 -406 -27 -13 -2 -38 -32 -38 -47 0 -8 16 -31 35 -52 41 -46 56
-103 44 -167 -10 -56 -23 -80 -65 -128 -43 -47 -45 -87 -8 -116 15 -12 41 -21
61 -21 32 0 34 -2 29 -27 -3 -16 -11 -80 -17 -143 -6 -63 -12 -116 -12 -117
-1 0 -15 -3 -31 -5 l-30 -3 -38 164 c-21 90 -43 171 -50 179 -11 13 -37 14
-173 9 -303 -12 -886 -82 -932 -112 -49 -32 -66 -96 -67 -240 0 -174 21 -299
131 -773 61 -265 61 -261 -2 -262 -95 -1 -166 -54 -184 -140 -16 -73 -14 -227
4 -287 8 -27 24 -58 35 -68 46 -42 19 -47 -250 -54 l-224 -6 -13 -25 c-16 -33
-34 -39 -128 -39 -93 -1 -143 18 -215 78 -88 74 -104 76 -204 24 -133 -70
-339 -300 -417 -467 -17 -36 -29 -75 -27 -88 3 -22 7 -23 95 -25 90 -1 214
-31 228 -54 4 -5 -12 -30 -34 -56 -23 -27 -60 -79 -84 -118 -49 -81 -51 -82
-205 -84 -126 -1 -142 -8 -142 -61 0 -38 -1 -39 -52 -54 -72 -21 -96 -40 -104
-82 -14 -76 55 -433 107 -555 24 -54 57 -79 107 -79 33 0 33 -1 5 -122 -14
-63 -17 -68 -42 -68 -89 -2 -222 -19 -235 -30 -27 -21 -18 -53 25 -92 39 -36
41 -41 37 -82 -5 -43 -28 -89 -84 -166 -14 -19 -23 -42 -21 -52 4 -13 -6 -19
-47 -29 -99 -23 -112 -45 -122 -199 -9 -133 2 -224 30 -257 21 -24 32 -27 132
-35 60 -6 119 -12 132 -14 l23 -5 -31 -57 c-49 -92 -136 -187 -256 -280 -49
-37 -59 -64 -35 -93 13 -17 45 -25 161 -45 80 -13 155 -24 167 -24 71 0 -14
-58 -160 -109 -123 -43 -127 -46 -127 -86 0 -46 35 -68 155 -95 146 -33 272
-41 505 -34 254 8 281 4 653 -87 247 -61 248 -61 290 -45 23 9 89 57 146 106
58 50 113 90 123 90 11 0 72 -29 137 -65 64 -36 129 -65 143 -65 14 0 45 7 69
16 92 32 330 85 481 107 87 12 158 25 158 28 0 3 -59 14 -130 24 -174 24 -295
17 -462 -25 l-128 -32 -75 47 c-41 25 -75 51 -75 56 0 5 28 23 63 40 78 39
107 66 107 99 0 61 -42 84 -178 96 l-74 7 -40 54 c-44 57 -81 83 -121 83 -14
0 -80 -18 -147 -41 l-123 -41 -81 12 c-45 6 -151 23 -236 37 -222 38 -411 37
-525 -1 -44 -15 -102 -44 -130 -65 l-50 -38 -119 8 c-65 5 -143 13 -172 19
l-54 11 81 76 c50 48 103 112 142 171 l61 94 53 -6 c28 -3 150 -1 269 4 155 8
220 8 229 0 18 -15 208 3 388 35 124 22 139 23 198 10 149 -32 225 -69 443
-219 165 -113 177 -116 276 -58 144 83 349 330 438 530 59 129 59 134 24 189
-46 73 -89 163 -102 211 -16 62 0 99 76 182 35 39 64 74 64 78 0 5 -19 22 -42
39 -70 48 -74 49 -50 11 12 -19 22 -40 22 -46 0 -15 -330 -262 -350 -262 -32
0 -64 77 -136 327 -9 33 -25 60 -42 74 -26 21 -33 21 -187 16 -88 -3 -239 -13
-335 -23 -185 -17 -502 -15 -550 4 -23 9 -19 13 65 51 132 61 314 166 402 233
43 32 81 58 86 58 21 0 3 19 -24 25 -29 7 -229 -46 -304 -80 -52 -23 -84 -26
-115 -10 -16 8 -54 15 -85 15 -35 0 -54 4 -50 10 9 14 -2 12 -28 -4 -12 -7
-58 -19 -102 -26 -44 -7 -83 -18 -86 -23 -8 -11 -159 -28 -188 -20 -24 6 -26
13 -82 269 -60 275 -70 344 -52 351 7 3 159 1 336 -3 l322 -9 0 -218 c0 -198
2 -218 17 -223 10 -3 21 -16 24 -30 3 -13 9 -24 13 -24 22 1 89 24 171 58 l95
40 8 73 c4 41 4 126 1 190 l-6 116 153 6 c255 10 939 3 947 -10 4 -6 7 -98 7
-205 l0 -193 -65 0 c-36 0 -236 5 -444 9 l-379 9 6 -24 c4 -13 7 -36 7 -51 l0
-26 403 -4 c366 -3 405 -5 430 -21 22 -14 27 -25 27 -56 0 -97 10 -126 66
-187 29 -32 56 -55 59 -53 2 3 -4 37 -15 75 -11 38 -20 99 -20 136 0 86 5 89
178 121 73 14 136 27 139 30 3 4 2 18 -1 33 -7 27 -7 27 -74 20 -37 -4 -97 -9
-133 -13 l-66 -6 -6 54 c-4 30 -7 120 -7 201 0 135 2 148 19 158 11 6 91 10
186 10 162 0 169 1 216 27 27 14 47 28 45 30 -2 3 -73 8 -156 13 -88 5 -157
13 -164 20 -17 17 -15 358 3 369 7 5 162 11 345 14 428 7 666 37 901 117 49
16 97 30 107 30 10 0 18 4 18 9 0 17 -47 76 -63 79 -10 2 -47 -8 -83 -22 -59
-24 -245 -76 -321 -90 -31 -5 -35 -2 -92 78 -72 102 -85 126 -74 136 20 18
482 319 519 338 60 31 97 78 91 117 -4 26 -1 33 23 47 l29 16 6 -56 c12 -110
66 -389 110 -567 24 -99 47 -199 51 -222 4 -24 9 -43 11 -43 17 0 93 55 93 67
0 8 -11 56 -25 107 -41 152 -73 317 -114 580 -40 253 -49 331 -40 340 4 5 138
19 514 57 116 11 316 34 445 50 129 17 265 33 301 36 l67 6 11 -89 c25 -182
64 -403 97 -549 35 -153 140 -514 153 -528 5 -4 18 36 31 90 36 158 39 166 59
199 26 42 102 78 166 78 27 0 102 -5 165 -11 76 -7 315 -9 703 -6 l589 6 -7
-90 -7 -90 43 -6 c24 -3 46 -4 48 -1 3 2 8 35 12 73 4 37 17 86 28 107 48 89
37 94 -196 94 l-193 0 0 23 c0 12 -7 44 -15 71 -24 80 -20 204 11 293 29 85
27 112 -13 139 -25 17 -55 20 -286 24 l-258 5 -4 70 c-4 77 -51 251 -87 323
-39 79 -54 83 -305 88 -120 3 -237 7 -260 10 -42 5 -42 6 -28 28 23 34 45 151
45 236 0 147 -41 266 -98 288 -15 6 -110 13 -212 17 -237 7 -629 25 -655 30
-18 4 -20 12 -20 73 0 48 -6 77 -18 95 -16 26 -16 26 16 48 17 13 56 43 85 67
29 25 54 43 56 41 1 -2 23 -43 48 -90 56 -106 119 -192 153 -207 32 -15 90
-15 115 -2 10 5 28 27 41 47 35 58 108 143 173 202 109 99 224 130 352 97 34
-9 67 -16 73 -16 19 0 12 29 -29 110 -64 127 -108 190 -194 276 -120 119 -235
169 -373 162 l-58 -3 75 -29 c171 -66 298 -143 380 -232 53 -57 105 -131 120
-169 10 -26 9 -27 -17 -20 -15 3 -58 6 -96 6 -59 0 -82 -6 -146 -36 -67 -31
-92 -52 -207 -170 l-131 -135 -27 21 c-33 26 -90 110 -146 216 l-43 82 30 68
c72 160 83 359 29 518 -104 304 -422 500 -741 455z m254 -141 c190 -49 322
-182 371 -375 25 -97 25 -161 0 -258 -27 -106 -73 -190 -145 -262 -92 -93
-196 -138 -344 -150 -160 -12 -353 52 -453 149 -111 107 -161 227 -160 382 0
149 49 264 157 376 151 156 333 199 574 138z m-826 -696 c9 -43 31 -107 47
-142 24 -50 28 -66 18 -73 -7 -4 -52 -8 -99 -8 -47 0 -186 -7 -310 -15 -413
-27 -392 -26 -384 -7 23 57 27 142 11 213 -9 40 -15 74 -13 75 4 4 524 30 638
33 l76 1 16 -77z m297 -421 c20 -16 20 -19 6 -47 -18 -34 -21 -111 -6 -150 7
-19 6 -27 -3 -30 -6 -2 -147 -6 -312 -10 -164 -4 -302 -8 -305 -10 -5 -3 -311
-9 -339 -6 -11 1 -13 18 -8 92 8 101 17 127 50 133 21 4 732 42 843 45 36 1
58 -4 74 -17z m-1305 -2 c3 -5 24 -114 46 -242 51 -299 109 -617 154 -836 19
-95 35 -182 35 -192 0 -20 -10 -20 -377 -20 -208 0 -415 -3 -460 -7 -81 -6
-83 -6 -92 19 -9 25 -112 523 -197 953 -24 126 -39 224 -34 229 15 15 734 101
877 105 23 0 45 -3 48 -9z m1859 -65 c32 -21 34 -53 5 -84 -34 -37 -62 -41
-264 -41 -182 0 -195 1 -205 19 -15 28 -12 73 5 98 18 26 43 29 271 26 134 -1
166 -4 188 -18z m-2855 -245 c15 -68 51 -260 51 -274 0 -6 -11 -23 -23 -38
l-24 -28 -11 53 c-24 108 -42 245 -42 316 0 73 0 74 18 50 10 -13 24 -49 31
-79z m3336 -15 c270 -8 507 -15 527 -15 58 0 73 -36 73 -180 0 -123 -22 -215
-53 -227 -16 -7 -857 13 -1057 24 l-120 7 85 12 c47 7 130 13 185 14 55 1 120
5 145 9 l45 8 -38 7 c-21 5 -145 9 -275 10 l-237 1 3 122 c3 111 -2 154 -23
206 -7 16 3 17 121 17 71 0 350 -7 619 -15z m-816 -58 c14 -81 14 -173 0 -253
l-11 -63 -41 -5 c-23 -3 -172 -8 -332 -11 -159 -3 -423 -8 -586 -12 l-297 -6
-11 59 c-7 32 -23 114 -38 182 -14 67 -24 124 -22 127 3 2 137 9 299 16 162 6
372 14 465 18 94 4 258 8 366 9 l197 2 11 -63z m-2394 -556 c8 -47 12 -87 10
-90 -3 -2 -5 3 -5 12 0 13 -5 15 -24 7 -27 -10 -22 -23 -55 143 l-22 108 23
28 23 27 17 -75 c10 -42 24 -114 33 -160z m3190 110 l100 -6 -1 -98 c-1 -54
-5 -102 -10 -107 -5 -4 -103 -18 -219 -30 -375 -38 -479 -50 -540 -61 -57 -10
-699 -14 -715 -4 -4 3 -13 26 -20 52 -7 27 -26 71 -42 100 l-28 51 40 -5 c24
-3 40 -2 40 5 0 16 -76 42 -124 42 -76 0 -168 13 -154 21 9 6 6 11 -12 18 -14
5 -23 11 -20 12 26 12 1517 21 1705 10z m-1725 -21 c-13 -9 -13 -10 0 -11 8 0
-23 -7 -70 -15 -93 -15 -221 -15 -232 1 -24 32 -8 35 155 35 108 0 157 -4 147
-10z m2867 -86 c17 -7 38 -25 47 -41 12 -25 56 -178 56 -197 0 -3 -176 -6
-392 -6 l-392 0 -24 28 c-18 21 -21 22 -13 5 16 -32 15 -33 -38 -33 l-48 0 -5
52 c-7 68 -42 102 -99 96 l-39 -3 7 40 c11 75 8 74 156 77 280 7 751 -4 784
-18z m-2631 -129 c41 -100 154 -427 154 -446 0 -10 -8 -20 -17 -23 -35 -10
-338 -17 -351 -8 -27 19 -201 507 -186 522 11 11 110 17 262 16 l114 -1 24
-60z m3262 -331 c71 -6 70 -5 47 -99 -17 -70 -19 -211 -4 -274 5 -24 7 -46 4
-50 -7 -7 -1031 -2 -1062 6 -13 3 -23 11 -23 17 0 20 -52 40 -97 37 -68 -4
-83 4 -83 50 0 26 5 42 15 45 8 3 17 14 20 25 4 11 11 17 16 13 5 -3 0 19 -11
49 -20 54 -50 160 -50 177 0 5 46 11 103 12 162 5 1055 -2 1125 -8z m-3693
-18 c29 -29 40 -106 30 -212 -8 -89 -20 -135 -37 -146 -19 -11 -1385 -10
-1407 2 -32 17 -46 69 -46 175 0 113 21 182 59 190 42 10 143 11 754 13 l623
2 24 -24z m2347 -223 c5 -6 15 -10 21 -7 7 2 21 -9 31 -26 23 -40 15 -76 -19
-82 -28 -6 -28 -4 -44 86 -11 59 -13 99 -4 61 3 -11 9 -25 15 -32z m-4746
-272 c27 -21 63 -45 80 -54 53 -27 147 -37 233 -26 121 17 116 18 119 -19 3
-29 -10 -48 -113 -172 -168 -202 -275 -293 -344 -293 -20 0 -74 16 -121 36
-128 53 -217 77 -302 84 -43 3 -78 10 -78 15 0 17 32 73 88 152 63 90 179 209
266 273 76 56 106 57 172 4z m1297 -41 c6 -24 29 -26 62 -4 14 9 48 17 77 18
48 1 53 -1 56 -22 3 -17 9 -22 25 -20 16 2 21 9 19 26 l-3 22 323 0 c178 0
328 -4 333 -8 6 -4 10 -59 10 -127 1 -66 3 -129 5 -140 9 -36 -40 -48 -230
-56 -252 -11 -1064 -11 -1093 0 -34 13 -47 58 -47 157 0 85 10 126 37 156 14
16 38 18 218 18 194 0 203 -1 208 -20z m-548 -17 c-4 -10 -9 -63 -12 -118 -4
-83 -2 -110 14 -157 l20 -58 -127 0 c-70 0 -129 2 -132 5 -2 3 2 44 10 92 7
49 12 125 10 171 l-4 82 114 0 c105 0 114 -1 107 -17z m-324 -251 c-13 -48
-31 -65 -65 -60 -25 3 -25 3 22 65 49 64 61 62 43 -5z m-5 -342 l-1 -180 -60
0 c-40 0 -69 -6 -84 -16 -24 -18 -24 -10 -5 -166 3 -32 3 -58 -2 -58 -5 -1
-28 -5 -52 -9 -53 -10 -53 -10 -81 133 -11 54 -25 104 -31 110 -12 12 -128 24
-241 25 -116 1 -171 11 -164 29 9 25 95 149 116 168 18 17 22 17 73 1 103 -33
160 -18 270 70 62 50 121 69 222 72 l41 1 -1 -180z m1199 37 c1 -72 4 -144 8
-159 l7 -28 -557 3 -558 2 -3 152 -3 152 58 4 c32 2 281 4 553 5 l495 2 0
-133z m-2304 -607 c26 -124 51 -244 57 -267 11 -47 5 -53 -53 -53 -35 0 -41 9
-74 120 -20 67 -71 331 -71 370 0 33 4 40 28 49 64 23 62 26 113 -219z m446
-276 c-3 -3 -12 -4 -19 -1 -8 3 -5 6 6 6 11 1 17 -2 13 -5z m-247 -164 c0 -5
8 -10 18 -11 11 -1 9 -4 -8 -9 -14 -5 52 -6 150 -3 l175 6 -19 -22 c-11 -12
-20 -36 -20 -55 l0 -33 -180 -11 c-99 -5 -184 -8 -188 -6 -12 8 -10 33 9 96
15 49 21 58 40 58 13 0 23 -4 23 -10z m1434 -169 c3 -5 19 -61 36 -125 16 -64
43 -143 60 -176 16 -33 30 -65 30 -71 0 -28 -345 27 -800 128 -154 34 -238 59
-228 68 2 2 44 0 93 -5 50 -4 144 -11 210 -14 l120 -5 -145 24 c-188 31 -271
51 -281 67 -5 7 -9 27 -9 43 l0 30 193 2 c105 2 269 11 362 22 187 20 351 26
359 12z m-1068 -107 c9 -47 0 -94 -30 -159 -17 -38 -31 -56 -48 -59 -23 -5
-644 -76 -665 -76 -7 0 1 27 20 68 27 56 32 79 32 139 l0 72 70 5 c66 5 223
17 455 35 173 13 158 16 166 -25z m384 -282 c0 -65 -178 -215 -329 -276 -84
-34 -111 -52 -111 -75 0 -18 40 -59 78 -80 23 -13 14 -19 -41 -30 -45 -8 -48
-7 -76 24 -38 44 -55 119 -48 211 3 43 1 76 -4 80 -10 6 -160 -4 -524 -37
-279 -24 -285 -24 -285 0 0 16 11 22 53 30 46 9 456 60 742 91 55 6 134 18
175 26 161 33 370 53 370 36z m263 -22 c155 -33 377 -68 477 -75 74 -5 105 -3
141 9 41 14 53 14 115 1 38 -8 108 -17 156 -21 47 -4 92 -10 98 -14 16 -10
-87 -217 -166 -336 -118 -176 -303 -338 -364 -316 -8 3 -70 43 -137 88 -196
133 -295 178 -463 208 -209 38 -299 59 -375 89 -74 28 -78 31 -55 40 166 69
282 152 380 272 38 47 69 75 81 75 11 0 61 -9 112 -20z m-513 -941 c249 -42
801 -119 858 -119 21 0 13 -18 -10 -25 -43 -13 -213 -134 -303 -216 -49 -44
-103 -90 -120 -100 -52 -33 -77 -29 -440 69 -219 60 -293 67 -535 53 -119 -6
-236 -9 -260 -6 -67 9 -184 36 -193 45 -5 4 8 13 30 20 79 26 213 101 313 176
57 42 122 85 145 95 95 42 296 45 515 8z m595 -9 c4 -6 -6 -10 -22 -10 -22 0
-25 2 -13 10 19 12 27 12 35 0z"/>
<path d="M5621 8957 c-15 -15 -14 -42 3 -56 19 -16 46 11 39 38 -6 24 -27 33
-42 18z"/>
<path d="M5882 8888 c-14 -14 -16 -44 -3 -52 19 -12 42 7 39 32 -3 29 -18 38
-36 20z"/>
<path d="M5365 8870 c-8 -13 13 -40 30 -40 15 0 24 19 18 38 -6 15 -39 16 -48
2z"/>
<path d="M6037 8733 c-12 -11 -8 -43 6 -44 38 -4 60 13 50 38 -5 13 -45 18
-56 6z"/>
<path d="M5223 8723 c-20 -7 -15 -40 6 -46 19 -5 41 9 41 25 0 11 -33 26 -47
21z"/>
<path d="M5427 8673 c-20 -20 -2 -54 64 -118 100 -99 109 -120 109 -252 0 -59
4 -114 9 -121 4 -8 19 -12 32 -10 23 3 24 6 29 123 3 66 11 132 17 146 6 14
41 49 77 78 63 50 84 80 71 101 -12 20 -40 9 -112 -46 -47 -35 -80 -53 -91
-50 -10 3 -48 40 -85 81 -64 71 -98 90 -120 68z m231 -182 c8 -5 12 -22 10
-42 -2 -29 -7 -34 -30 -37 -22 -3 -30 2 -40 22 -9 22 -8 29 7 46 20 22 33 24
53 11z"/>
<path d="M6118 8493 c-24 -6 -30 -30 -12 -48 19 -18 36 -19 52 -3 26 26 -1 60
-40 51z"/>
<path d="M5134 8475 c-10 -24 19 -49 45 -40 16 5 21 13 19 28 -4 28 -55 37
-64 12z"/>
<path d="M5215 8234 c-15 -15 -15 -18 -1 -33 12 -12 21 -13 33 -5 25 16 27 31
4 43 -15 9 -23 7 -36 -5z"/>
<path d="M6024 8235 c-4 -10 2 -25 15 -38 20 -20 22 -20 38 -4 14 13 15 21 7
35 -15 23 -52 28 -60 7z"/>
<path d="M5367 8084 c-4 -4 -7 -16 -7 -26 0 -13 7 -18 26 -18 21 0 25 4 22 22
-3 23 -27 35 -41 22z"/>
<path d="M5877 8084 c-11 -12 -8 -41 6 -53 22 -17 55 12 41 36 -12 19 -36 28
-47 17z"/>
<path d="M5622 8028 c-16 -16 -15 -34 4 -53 19 -18 44 -4 44 24 0 17 -18 41
-30 41 -3 0 -11 -5 -18 -12z"/>
<path d="M3493 7444 c-7 -18 33 -238 48 -266 19 -35 58 -21 146 53 76 64 84
74 81 102 -3 29 -10 34 -108 78 -112 51 -157 59 -167 33z"/>
<path d="M3470 6680 c0 -5 7 -10 15 -10 8 0 15 5 15 10 0 6 -7 10 -15 10 -8 0
-15 -4 -15 -10z"/>
<path d="M6650 6834 c0 -12 11 -26 34 -44 18 -14 19 -14 8 6 -13 24 -42 51
-42 38z"/>
<path d="M4473 6820 c-27 -11 -27 -11 -11 -63 l12 -40 158 5 c87 3 162 8 165
12 4 4 1 26 -7 49 l-15 42 -140 2 c-77 1 -150 -2 -162 -7z"/>
<path d="M6993 6403 c9 -2 25 -2 35 0 9 3 1 5 -18 5 -19 0 -27 -2 -17 -5z"/>
<path d="M3607 5903 c-12 -11 -8 -23 8 -23 8 0 15 7 15 15 0 16 -12 20 -23 8z"/>
<path d="M6513 8848 c-142 -56 -137 -68 25 -68 112 0 131 2 145 18 20 22 22
63 5 80 -21 21 -70 13 -175 -30z"/>
<path d="M2444 8814 c-11 -41 6 -279 27 -397 42 -235 124 -352 276 -395 83
-23 269 -20 398 7 129 27 167 38 190 55 21 15 21 16 -30 151 -40 103 -65 243
-72 390 -3 72 -10 135 -15 142 -5 7 -23 9 -42 6 -64 -10 -415 17 -544 42 -165
32 -180 32 -188 -1z m236 -90 c58 -9 188 -19 290 -23 l185 -6 7 -107 c8 -129
19 -192 60 -325 17 -57 29 -105 26 -108 -14 -14 -196 -46 -293 -51 -143 -8
-213 5 -264 52 -77 69 -133 253 -147 483 -7 109 -6 113 12 107 10 -3 66 -13
124 -22z"/>
<path d="M4226 8824 c-20 -20 -21 -68 -1 -84 30 -25 281 16 272 44 -4 12 -177
55 -224 56 -17 0 -39 -7 -47 -16z"/>
<path d="M7745 8147 c-15 -18 -52 -96 -84 -172 -32 -77 -69 -162 -83 -190 -43
-82 -127 -196 -196 -264 -52 -51 -63 -67 -55 -80 6 -9 106 -48 234 -92 123
-41 267 -95 319 -118 151 -70 207 -59 336 62 168 155 295 394 365 682 10 44
19 99 19 121 l0 42 -302 5 c-209 4 -329 10 -388 21 -123 23 -135 21 -165 -17z
m179 -65 c72 -13 144 -17 349 -16 236 1 257 -1 257 -16 0 -43 -52 -214 -93
-308 -82 -185 -256 -411 -360 -467 l-36 -19 -78 33 c-105 45 -275 103 -407
140 -59 16 -110 32 -113 35 -3 3 3 16 13 29 146 186 202 283 280 484 46 119
58 137 83 128 8 -3 55 -13 105 -23z"/>
<path d="M2076 7361 c-27 -30 -171 -123 -254 -165 -142 -71 -316 -116 -451
-116 -85 0 -88 -25 -18 -145 116 -199 341 -346 590 -386 101 -16 260 -6 357
21 144 41 330 142 330 179 0 12 -23 32 -67 57 -36 22 -88 59 -115 83 -76 68
-182 217 -256 358 -37 70 -74 129 -83 131 -8 1 -23 -6 -33 -17z m54 -176 c76
-159 173 -284 295 -380 86 -67 88 -62 -38 -120 -115 -52 -195 -69 -332 -69
-101 1 -134 5 -210 28 -156 47 -285 139 -376 269 -27 39 -49 75 -49 81 0 7 37
17 88 24 165 23 324 86 492 196 46 31 86 56 87 56 2 0 21 -38 43 -85z"/>
<path d="M5630 6373 c-46 -59 -85 -109 -86 -111 -1 -2 -25 13 -53 33 -39 29
-57 36 -77 31 -43 -11 -27 -45 46 -97 105 -76 94 -80 211 76 83 111 101 140
92 153 -25 40 -47 26 -133 -85z"/>
<path d="M8972 6210 c0 -14 2 -19 5 -12 2 6 2 18 0 25 -3 6 -5 1 -5 -13z"/>
<path d="M4915 6100 c-3 -5 3 -10 15 -10 12 0 18 5 15 10 -3 6 -10 10 -15 10
-5 0 -12 -4 -15 -10z"/>
<path d="M5676 6033 c-15 -15 -41 -50 -58 -76 -17 -26 -33 -46 -37 -45 -3 2
-28 15 -54 28 -47 24 -49 24 -63 6 -7 -10 -11 -23 -7 -28 10 -18 126 -88 144
-88 25 0 141 173 137 203 -4 32 -32 32 -62 0z"/>
<path d="M8965 5899 c-5 -16 -2 -26 11 -35 11 -8 24 -18 30 -23 9 -7 15 2 22
30 5 21 7 39 3 40 -3 0 -18 3 -33 5 -21 4 -28 0 -33 -17z"/>
<path d="M8008 5853 c17 -2 47 -2 65 0 17 2 3 4 -33 4 -36 0 -50 -2 -32 -4z"/>
<path d="M6992 5818 c-24 -6 -33 -16 -40 -41 -9 -32 -143 -575 -239 -966 l-48
-193 -146 -82 c-81 -44 -180 -109 -220 -143 -41 -34 -85 -70 -99 -81 -16 -14
-22 -24 -15 -30 6 -6 107 38 284 124 151 74 282 134 292 134 11 0 108 -16 216
-34 109 -19 306 -53 438 -76 132 -22 314 -54 405 -70 149 -27 418 -71 700
-116 58 -9 111 -19 118 -23 7 -4 -154 -89 -388 -205 l-400 -199 -107 17 c-146
24 -897 166 -1293 244 -80 16 -146 26 -148 21 -4 -9 69 -120 89 -135 8 -6 140
-37 294 -68 356 -73 756 -159 861 -186 45 -11 139 -31 209 -45 71 -14 130 -26
131 -28 8 -8 -264 -129 -288 -129 -15 0 -27 -4 -25 -9 3 -13 -149 -78 -182
-79 -14 0 -81 31 -150 69 -203 111 -343 156 -465 149 l-58 -3 39 -48 c36 -43
53 -54 164 -98 68 -28 135 -58 149 -67 14 -9 27 -17 30 -17 24 -4 49 -18 45
-26 -4 -5 1 -9 10 -9 9 0 55 -21 103 -46 83 -44 90 -46 142 -39 96 13 171 5
202 -22 32 -29 83 11 56 44 -17 21 8 38 182 127 154 78 253 113 550 190 96 25
207 54 245 65 39 10 91 24 118 31 26 7 47 17 47 22 0 13 -78 3 -227 -29 -233
-49 -273 -57 -279 -51 -11 12 26 67 68 101 40 32 154 108 329 217 40 25 88 55
106 67 24 16 49 23 83 23 53 0 347 -66 368 -83 9 -7 10 -27 6 -73 -4 -36 -1
-104 6 -158 12 -85 12 -97 -3 -120 -9 -14 -25 -30 -35 -35 -9 -5 -103 -28
-207 -51 -107 -24 -281 -72 -400 -112 -173 -57 -213 -68 -232 -59 -13 6 -26
19 -30 28 -25 69 -84 98 -141 69 -34 -18 -39 -27 -48 -97 -8 -62 -24 -74 -125
-94 -135 -28 -268 -65 -477 -136 -317 -106 -382 -123 -474 -116 l-78 5 0 -49
0 -49 93 0 c153 0 251 21 625 131 216 64 399 109 445 109 45 0 95 -32 210
-134 167 -146 252 -197 422 -251 l99 -32 -49 -16 c-177 -57 -743 -206 -904
-238 -128 -26 -249 -28 -310 -5 -46 17 -230 136 -451 292 -128 91 -177 121
-184 113 -2 -2 -6 -21 -10 -41 l-7 -37 98 -69 c139 -99 288 -212 291 -220 2
-7 -321 -166 -387 -190 -53 -19 -91 -11 -241 53 -172 74 -262 105 -319 112
-42 5 -51 1 -98 -33 -29 -22 -53 -42 -53 -45 0 -3 38 -11 85 -18 47 -6 115
-21 150 -32 68 -21 373 -154 389 -170 26 -24 87 -7 227 62 176 87 320 147 369
155 28 5 49 0 91 -22 102 -52 275 -36 664 63 99 25 192 48 206 50 14 3 70 -9
125 -25 154 -48 262 -73 335 -79 106 -9 264 33 451 121 42 20 81 36 86 36 16
0 52 46 52 68 0 28 -6 31 -123 52 -140 25 -198 49 -296 122 l-84 63 179 6
c189 6 243 16 311 55 62 36 83 68 83 127 0 78 -30 126 -172 273 -70 74 -128
139 -128 145 0 6 15 29 34 50 52 57 62 100 48 213 -7 52 -12 134 -12 181 0 48
-4 95 -10 105 -11 21 -70 42 -184 65 -44 8 -88 22 -97 31 -10 9 -23 13 -29 9
-12 -8 -134 12 -161 26 -15 8 -15 15 -4 71 8 34 12 65 9 69 -3 6 112 542 211
977 37 164 41 193 25 222 -16 30 -100 48 -482 100 -200 28 -473 66 -608 85
-198 28 -865 116 -971 128 -14 2 -39 -1 -57 -5z m403 -173 c359 -51 683 -95
1175 -160 430 -57 400 -51 400 -78 0 -12 -12 -69 -26 -127 -29 -121 -142 -619
-180 -795 -15 -66 -27 -121 -28 -122 -2 -2 -137 20 -302 48 -340 57 -556 91
-1109 178 -481 75 -507 80 -511 84 -5 5 82 379 172 750 39 158 70 267 77 267
7 0 156 -20 332 -45z m1485 -2765 c11 -7 8 -10 -15 -9 -16 0 -39 4 -50 9 -16
7 -14 9 15 9 19 0 42 -4 50 -9z m344 -238 c48 -12 90 -23 92 -25 8 -8 -157
-68 -243 -88 -77 -18 -97 -20 -155 -10 -37 6 -102 26 -143 45 l-77 33 144 46
c79 25 152 53 163 61 17 13 25 11 75 -14 30 -15 95 -37 144 -48z"/>
<path d="M7718 5338 c-22 -19 -101 -374 -87 -399 18 -35 53 -32 240 19 195 54
226 71 215 115 -7 28 -308 277 -335 277 -9 0 -24 -6 -33 -12z"/>
<path d="M5758 5713 c-8 -10 -30 -40 -48 -68 -18 -27 -35 -52 -36 -54 -2 -2
-24 7 -49 20 -35 19 -49 22 -62 13 -10 -6 -18 -17 -18 -24 0 -17 122 -92 144
-88 23 4 132 168 129 193 -4 26 -40 31 -60 8z"/>
<path d="M5830 5356 c-28 -42 -55 -76 -60 -76 -6 0 -10 -15 -10 -34 0 -26 5
-36 20 -41 11 -3 24 -4 28 -1 20 12 123 187 120 203 -2 10 -13 19 -25 21 -17
3 -32 -12 -73 -72z"/>
<path d="M4435 5258 c-34 -18 -55 -51 -55 -88 0 -29 21 -63 126 -205 152 -207
149 -204 169 -184 14 14 12 28 -20 135 -79 266 -95 310 -118 332 -25 24 -69
28 -102 10z"/>
<path d="M5462 5235 c-21 -17 -34 -43 -47 -92 -10 -37 -38 -135 -62 -217 -34
-115 -41 -151 -32 -162 6 -8 15 -14 20 -14 4 0 67 88 139 196 99 149 130 203
130 227 -1 77 -87 113 -148 62z"/>
<path d="M5955 5086 c-28 -12 -191 -178 -279 -285 -42 -51 -43 -77 -3 -74 37
2 361 187 387 221 29 36 22 98 -15 129 -30 26 -47 28 -90 9z"/>
<path d="M4960 4995 c-11 -13 -10 -33 5 -116 17 -90 33 -124 50 -107 10 9 36
171 33 201 -3 29 -7 32 -39 35 -23 2 -40 -2 -49 -13z"/>
<path d="M4115 4886 c-52 -52 -26 -81 131 -146 96 -39 129 -49 138 -40 8 9 -7
29 -64 82 -141 131 -166 143 -205 104z"/>
<path d="M4030 4605 c-17 -21 -8 -48 21 -62 32 -16 168 -22 170 -8 3 14 -129
85 -156 85 -13 0 -28 -7 -35 -15z"/>
<path d="M6043 4577 c-92 -36 -113 -51 -96 -68 16 -16 226 -7 247 10 19 16 21
62 4 79 -19 19 -68 13 -155 -21z"/>
<path d="M4901 4490 c-124 -17 -271 -71 -358 -131 -44 -30 -53 -33 -133 -34
-101 -1 -139 -17 -227 -99 -98 -91 -177 -241 -231 -438 -26 -98 -34 -112 -139
-263 -205 -295 -265 -412 -285 -555 -19 -134 24 -255 113 -320 137 -99 315
-102 622 -9 76 22 144 38 152 35 7 -2 19 -22 25 -43 16 -58 32 -242 25 -295
l-7 -46 -71 38 c-253 137 -513 68 -627 -163 -67 -138 -73 -262 -19 -401 60
-153 221 -263 454 -313 78 -16 303 -19 318 -4 15 15 11 63 -7 76 -9 7 -56 15
-106 19 -273 21 -491 136 -549 291 -53 141 -2 316 117 398 60 42 149 60 224
47 84 -15 185 -66 285 -142 302 -233 303 -233 408 -263 33 -10 116 -20 194
-24 153 -8 199 -24 245 -84 72 -94 85 -186 36 -258 -33 -48 -39 -93 -14 -103
9 -3 33 -6 54 -6 31 0 44 6 69 35 17 20 31 39 31 43 1 4 5 27 9 51 11 57 -2
150 -29 206 -28 59 -91 127 -151 167 l-50 32 93 94 c199 200 324 264 474 240
114 -18 197 -80 257 -193 28 -54 32 -69 32 -145 0 -73 -4 -93 -27 -141 -68
-137 -208 -216 -424 -240 -60 -6 -117 -15 -126 -20 -22 -12 -25 -74 -4 -82 66
-26 247 -12 374 28 202 64 325 215 339 415 10 138 -35 255 -142 369 -36 38
-65 75 -65 82 0 8 -20 104 -45 214 -25 110 -45 205 -45 210 0 7 37 6 113 -3
221 -26 400 -2 501 67 91 63 136 159 136 292 0 224 -110 361 -505 632 -77 52
-152 108 -167 124 -15 15 -59 84 -98 153 -105 182 -152 249 -227 326 -90 91
-162 128 -252 128 -48 0 -77 -5 -106 -21 -31 -16 -46 -18 -65 -11 -92 35 -288
53 -399 38z m188 -110 c46 -5 106 -17 132 -25 43 -15 47 -19 51 -53 4 -30 0
-43 -23 -69 -81 -93 -24 -210 124 -257 31 -10 61 -24 68 -32 6 -8 22 -74 34
-147 28 -164 53 -232 112 -297 54 -60 53 -69 -10 -162 -53 -77 -138 -148 -232
-193 -115 -55 -183 -69 -330 -69 -146 0 -215 14 -324 66 -109 51 -263 224
-271 303 -1 11 -2 86 -1 167 l1 147 58 40 c141 97 178 188 112 279 -25 35 -30
52 -30 97 l0 55 61 40 c75 48 148 77 259 100 102 22 103 22 209 10z m464 -31
c93 -48 178 -161 310 -416 l72 -138 160 -113 c304 -214 407 -308 462 -420 36
-73 44 -190 18 -246 -70 -146 -268 -177 -683 -106 -117 20 -166 14 -195 -21
-10 -12 -17 -32 -15 -43 2 -17 9 -20 38 -18 69 6 84 -7 113 -105 26 -85 59
-222 71 -293 l6 -35 -77 3 c-92 5 -165 -10 -250 -48 -92 -42 -133 -74 -296
-229 l-147 -141 -80 0 c-43 0 -103 5 -132 11 -77 16 -203 80 -283 146 l-70 56
-1 191 c0 200 -15 290 -62 385 -30 61 -50 62 -232 2 -194 -63 -273 -81 -366
-81 -278 -1 -354 204 -183 493 51 87 184 287 249 377 26 36 51 80 55 97 15 71
77 247 109 310 68 135 155 233 226 253 43 12 80 -5 80 -37 0 -25 -23 -51 -99
-112 -49 -38 -82 -87 -74 -107 8 -20 17 -18 78 22 63 40 117 53 140 34 31 -26
16 -53 -80 -145 l-95 -91 0 -109 c0 -201 -13 -239 -212 -612 -26 -49 -31 -66
-22 -80 6 -9 16 -19 22 -21 18 -6 82 70 153 179 82 126 92 129 160 54 148
-161 338 -238 594 -239 297 -1 536 112 680 323 38 56 51 68 64 61 9 -4 81 -52
160 -105 117 -78 150 -95 175 -93 27 3 31 7 31 33 0 27 -17 43 -155 152 -207
163 -300 250 -333 311 -18 33 -36 94 -52 178 -40 208 -43 212 -166 259 -72 28
-105 59 -93 89 15 40 92 38 174 -4 53 -27 90 -27 90 0 0 29 -43 66 -122 106
-56 28 -68 39 -68 59 0 48 80 61 153 24z"/>
<path d="M5265 3569 c-16 -5 -58 -6 -93 -3 -69 7 -92 -3 -92 -41 0 -30 16 -35
121 -35 126 0 194 33 159 75 -14 17 -50 18 -95 4z"/>
<path d="M4755 3498 c-31 -13 -75 -21 -115 -22 -59 -1 -65 -3 -68 -23 -8 -58
116 -71 213 -22 91 46 64 105 -30 67z"/>
<path d="M5035 3244 c-118 -46 -125 -48 -178 -35 -41 9 -53 9 -64 -2 -29 -29
22 -73 99 -83 32 -4 60 0 112 20 78 30 128 33 179 11 41 -17 63 -12 72 16 21
67 -117 113 -220 73z"/>
<path d="M6736 4471 c-16 -18 -15 -19 27 -29 82 -21 156 -26 182 -12 14 7 25
17 25 20 0 8 -152 40 -191 40 -14 0 -34 -8 -43 -19z"/>
<path d="M6985 4437 c-26 -20 -12 -33 44 -41 48 -6 101 5 101 22 0 5 -26 14
-57 21 -70 14 -65 14 -88 -2z"/>
<path d="M6629 4411 l-23 -19 39 -11 c22 -6 68 -16 103 -23 54 -10 67 -9 99 6
20 10 32 21 27 26 -11 10 -155 40 -194 40 -15 0 -38 -9 -51 -19z"/>
<path d="M7144 4406 c-25 -19 -18 -25 57 -42 49 -12 69 -12 91 -3 47 19 33 35
-41 48 -87 14 -83 14 -107 -3z"/>
<path d="M6892 4364 c-12 -8 -22 -19 -22 -23 0 -7 236 -51 276 -51 23 0 73 35
63 44 -7 7 -235 46 -269 46 -14 0 -36 -7 -48 -16z"/>
<path d="M7335 4367 c-23 -18 -14 -23 74 -42 63 -13 76 -13 106 0 19 7 35 18
35 23 0 11 -107 32 -161 32 -20 0 -43 -6 -54 -13z"/>
<path d="M6508 4355 c-16 -9 -28 -20 -28 -24 0 -5 60 -20 133 -34 106 -20 137
-23 156 -14 47 23 34 35 -61 56 -139 31 -169 33 -200 16z"/>
<path d="M7567 4334 c-15 -8 -25 -19 -22 -23 3 -5 34 -14 70 -20 55 -10 70 -9
96 4 38 20 32 27 -39 42 -73 15 -72 15 -105 -3z"/>
<path d="M7235 4306 l-30 -24 26 -10 c55 -22 115 -24 148 -8 51 27 41 38 -44
51 -22 4 -47 9 -55 11 -8 2 -28 -7 -45 -20z"/>
<path d="M6824 4296 c-52 -23 -49 -34 13 -46 32 -7 76 -16 97 -20 29 -6 47 -5
68 6 46 24 34 39 -39 53 -38 7 -77 14 -88 16 -11 3 -34 -2 -51 -9z"/>
<path d="M7758 4296 c-26 -19 -23 -23 30 -34 91 -20 120 -22 146 -11 39 18 27
32 -40 46 -76 16 -115 16 -136 -1z"/>
<path d="M7438 4274 c-16 -8 -28 -19 -28 -24 0 -28 179 -36 206 -9 19 20 16
21 -80 38 -72 13 -65 14 -98 -5z"/>
<path d="M7068 4249 c-21 -11 -38 -23 -38 -28 0 -11 68 -28 141 -37 45 -5 61
-3 88 14 30 18 31 21 15 29 -11 6 -46 15 -79 22 -33 7 -67 14 -75 16 -8 2 -32
-5 -52 -16z"/>
<path d="M7986 4251 c-19 -21 -29 -17 127 -47 27 -6 87 14 87 28 0 8 -5 9 -98
28 -75 14 -96 13 -116 -9z"/>
<path d="M7640 4231 c-29 -23 -28 -24 75 -44 72 -14 113 -9 135 18 9 11 4 16
-27 24 -21 6 -65 13 -98 16 -50 5 -64 3 -85 -14z"/>
<path d="M8224 4215 c-27 -20 -9 -30 83 -45 65 -10 77 -10 100 5 32 21 23 29
-51 44 -79 15 -108 14 -132 -4z"/>
<path d="M7301 4199 c-18 -11 -30 -24 -25 -28 5 -4 42 -13 82 -19 67 -11 76
-10 114 9 22 11 36 24 32 29 -7 7 -133 30 -161 30 -4 0 -23 -9 -42 -21z"/>
<path d="M7878 4194 c-16 -8 -28 -19 -28 -23 0 -5 33 -14 73 -21 39 -6 78 -13
85 -15 17 -6 83 27 79 39 -4 12 -106 35 -152 35 -16 0 -42 -7 -57 -15z"/>
<path d="M7518 4164 c-50 -27 -39 -33 110 -58 36 -6 102 20 102 40 0 7 -30 16
-75 23 -95 14 -104 14 -137 -5z"/>
<path d="M6801 4132 c-35 -20 -66 -42 -68 -49 -3 -7 29 -19 84 -31 130 -30
399 -82 424 -82 28 0 159 72 159 87 0 13 15 10 -275 63 -121 23 -229 43 -240
45 -11 3 -49 -12 -84 -33z"/>
<path d="M8123 4155 c-34 -24 -28 -32 27 -44 69 -15 106 -14 140 4 54 28 39
36 -90 50 -42 5 -60 2 -77 -10z"/>
<path d="M7755 4127 c-23 -11 -34 -22 -28 -28 5 -5 46 -15 91 -21 72 -11 85
-10 118 6 22 10 33 21 28 26 -5 5 -46 15 -90 23 -76 13 -84 12 -119 -6z"/>
<path d="M7988 4090 c-21 -11 -38 -24 -38 -29 0 -9 108 -31 153 -31 15 0 41 9
58 19 28 17 30 20 13 29 -11 5 -39 12 -64 16 -25 4 -54 9 -65 11 -11 3 -37 -4
-57 -15z"/>
<path d="M8881 3636 c-17 -20 -6 -36 25 -36 21 0 25 4 22 22 -4 27 -30 35 -47
14z"/>
<path d="M8607 3569 c-22 -13 -22 -48 -1 -56 20 -8 48 8 52 30 4 21 -29 38
-51 26z"/>
<path d="M7847 3364 c-4 -4 -7 -16 -7 -26 0 -14 6 -19 23 -16 14 2 22 10 22
23 0 20 -25 32 -38 19z"/>
</g>
</svg>
