<?xml version="1.0" standalone="no"?>
<!DOCTYPE svg PUBLIC "-//W3C//DTD SVG 20010904//EN"
 "http://www.w3.org/TR/2001/REC-SVG-20010904/DTD/svg10.dtd">
<svg version="1.0" xmlns="http://www.w3.org/2000/svg"
 width="1024.000000pt" height="1024.000000pt" viewBox="0 0 1024.000000 1024.000000"
 preserveAspectRatio="xMidYMid meet">

<g transform="translate(0.000000,1024.000000) scale(0.100000,-0.100000)"
fill="#000000" stroke="none">
<path d="M2400 8875 c-90 -20 -214 -84 -283 -146 -95 -85 -167 -209 -167 -287
1 -81 102 -148 170 -112 11 6 46 45 79 88 32 43 75 93 95 110 151 132 359 117
359 -26 0 -72 -43 -128 -199 -260 -88 -74 -108 -125 -101 -253 5 -102 21 -146
59 -173 28 -20 98 -21 143 -2 53 22 66 52 64 139 -3 92 3 102 114 196 101 84
137 127 178 216 96 203 4 422 -208 497 -76 26 -216 33 -303 13z"/>
<path d="M3334 8261 c-24 -15 -40 -40 -71 -117 -22 -55 -66 -156 -98 -226 -58
-128 -63 -158 -25 -158 26 0 313 270 347 328 44 74 31 147 -32 177 -44 20 -83
19 -121 -4z"/>
<path d="M1394 8244 c-41 -20 -64 -63 -64 -118 0 -63 26 -89 190 -182 74 -42
165 -96 201 -119 37 -24 76 -48 87 -54 25 -13 52 -5 52 16 0 24 -321 443 -352
459 -35 18 -75 18 -114 -2z"/>
<path d="M3671 7826 c-111 -75 -271 -209 -271 -228 0 -42 24 -37 235 44 159
62 195 86 195 132 0 44 -27 75 -70 82 -29 5 -45 0 -89 -30z"/>
<path d="M2472 7690 c-54 -33 -74 -75 -69 -149 3 -59 6 -66 43 -101 56 -52
108 -60 172 -28 63 31 92 76 92 143 0 63 -28 111 -80 137 -47 24 -117 23 -158
-2z"/>
<path d="M1937 7684 c-16 -17 -6 -55 18 -66 32 -14 57 5 53 41 -2 21 -9 27
-33 29 -17 2 -34 0 -38 -4z"/>
<path d="M3007 7684 c-14 -15 -6 -54 13 -64 31 -16 62 4 58 38 -2 22 -9 28
-33 30 -17 2 -34 0 -38 -4z"/>
<path d="M6716 7662 c-3 -5 -2 -18 1 -30 5 -20 11 -22 67 -20 l61 2 -50 4
c-38 3 -45 6 -30 12 18 8 18 9 -5 10 -14 2 -29 2 -35 0 -7 -1 -7 2 0 9 6 5 26
11 45 14 34 4 34 4 -7 5 -23 1 -44 -2 -47 -6z"/>
<path d="M7265 7641 c17 -5 22 -9 13 -10 -10 0 -18 -7 -18 -15 0 -8 -10 -17
-22 -19 -13 -2 -4 -5 18 -6 24 0 52 -9 65 -20 23 -18 23 -20 8 -53 -9 -18 -35
-49 -58 -68 -152 -128 -157 -135 -175 -278 -17 -122 -34 -163 -86 -201 -63
-45 -131 -57 -246 -42 -212 28 -313 93 -344 222 -19 76 0 127 73 205 l59 64
-58 -5 c-70 -7 -100 -33 -129 -111 -10 -27 -19 -50 -21 -52 -3 -5 -640 41
-809 58 -55 6 -162 14 -238 19 -77 5 -141 12 -145 15 -10 10 42 58 83 77 36
17 68 18 330 18 160 0 408 -6 552 -12 144 -7 273 -9 285 -5 19 5 18 6 -9 7
-23 1 -45 12 -72 36 l-38 35 -259 21 c-217 17 -310 19 -576 15 -537 -10 -669
-37 -746 -151 -42 -62 -41 -76 20 -285 25 -85 62 -226 83 -313 29 -120 43
-161 58 -168 10 -6 20 -9 21 -7 1 2 11 18 22 36 l20 32 -72 287 c-40 158 -70
291 -67 296 7 11 158 5 548 -23 149 -11 353 -24 455 -30 236 -13 453 -29 507
-36 38 -6 42 -9 52 -47 6 -23 19 -60 30 -81 12 -22 18 -42 16 -45 -3 -2 -141
4 -308 15 -166 10 -333 19 -372 19 -38 0 -72 3 -75 6 -7 8 -380 43 -387 35 -4
-3 14 -6 38 -7 34 0 39 -2 24 -9 -11 -5 -33 -9 -48 -9 -16 -1 -26 -5 -23 -10
3 -5 -7 -14 -22 -20 -15 -7 -38 -28 -52 -47 -14 -19 -31 -42 -38 -50 -13 -13
-8 -18 11 -15 5 1 6 -3 2 -9 -3 -6 -17 -8 -30 -6 -14 3 -27 0 -31 -5 -3 -5
-10 -6 -16 -3 -8 5 -9 -7 -5 -41 4 -27 9 -50 10 -52 2 -2 39 6 82 17 43 11 90
20 105 20 44 0 119 -27 180 -64 75 -46 106 -46 211 3 96 45 184 64 267 58 41
-3 47 -3 22 3 l-35 7 33 2 c17 0 32 5 32 9 0 5 14 6 31 4 23 -3 28 -7 18 -14
-10 -7 -8 -8 6 -3 206 75 468 51 648 -58 45 -27 53 -29 115 -23 37 4 101 16
142 27 41 11 119 23 173 26 54 3 94 9 89 12 -11 7 -12 41 -1 41 5 0 11 -10 14
-23 5 -20 16 -24 95 -35 158 -21 267 -75 357 -177 l52 -58 48 7 c132 18 180
18 232 1 64 -21 102 -52 125 -102 l17 -38 157 -2 c86 -1 208 -8 271 -14 98
-10 118 -15 138 -35 13 -13 26 -24 28 -24 3 0 17 0 33 -1 23 0 21 -3 -17 -16
-28 -10 -45 -12 -50 -5 -3 6 -56 12 -118 14 -102 3 -111 1 -95 -12 11 -8 29
-30 41 -47 29 -43 53 -42 136 2 36 19 81 37 100 41 27 5 34 11 31 23 -6 22
-25 118 -32 166 -3 22 -10 44 -14 49 -5 5 -37 12 -72 16 -37 4 -51 8 -33 10
26 2 27 3 7 7 -16 3 -22 9 -18 20 4 9 2 21 -3 27 -6 7 -4 22 4 41 7 17 14 24
14 17 2 -21 41 10 42 33 1 17 2 16 10 -5 6 -18 7 -12 2 20 -9 71 -28 115 -50
118 -11 2 -44 -6 -73 -18 -31 -12 -85 -23 -131 -25 -66 -4 -81 -2 -102 15 -14
11 -33 21 -44 21 -10 1 -2 5 17 9 23 5 -8 8 -90 9 -216 2 -1099 48 -1109 57
-2 2 7 25 21 51 14 27 29 63 33 81 l7 34 77 -6 c125 -10 555 -25 1071 -36 354
-8 488 -15 497 -24 16 -14 67 -232 119 -503 l39 -203 44 -15 c25 -8 46 -15 48
-15 7 0 -16 120 -134 706 -20 97 -11 128 45 170 82 63 193 89 250 60 87 -46
182 -220 237 -436 45 -174 55 -255 62 -472 7 -231 -5 -393 -42 -574 -22 -111
-22 -112 -4 -165 10 -30 19 -65 19 -79 1 -60 17 -50 43 27 79 241 120 614 98
898 -32 415 -153 754 -312 871 -87 64 -107 67 -374 65 -151 -1 -303 4 -410 13
-332 30 -444 36 -815 42 -206 3 -377 7 -379 9 -2 2 9 14 23 27 18 15 29 36 33
64 4 35 1 46 -23 73 -25 28 -37 33 -89 36 -44 3 -52 2 -30 -4z m-2159 -222
c-14 -11 -33 -34 -42 -51 l-15 -29 -82 6 c-125 9 -168 15 -162 24 19 32 161
68 269 70 l59 1 -27 -21z m2294 1 c8 -5 11 -10 5 -10 -5 0 -17 5 -25 10 -8 5
-10 10 -5 10 6 0 17 -5 25 -10z m18 -67 c-10 -2 -28 -2 -40 0 -13 2 -5 4 17 4
22 1 32 -1 23 -4z m150 -10 c-16 -2 -40 -2 -55 0 -16 2 -3 4 27 4 30 0 43 -2
28 -4z m457 -18 c132 -9 313 -22 403 -30 89 -8 164 -15 166 -15 2 0 -8 -13
-24 -30 -15 -16 -33 -43 -40 -60 l-12 -30 -162 0 c-88 1 -298 5 -466 11 -168
6 -316 10 -330 11 -14 0 -18 2 -9 5 14 3 15 9 6 32 -17 46 -2 78 51 106 40 21
56 24 112 20 36 -3 173 -12 305 -20z m-755 2 c0 -2 -12 -14 -27 -28 l-28 -24
24 28 c23 25 31 32 31 24z m1623 -63 c12 -4 9 -12 -14 -36 -15 -17 -33 -45
-40 -61 l-13 -30 -74 7 c-41 3 -88 6 -104 6 -34 0 -36 17 -6 55 39 50 76 65
160 65 42 0 83 -3 91 -6z m-1475 -71 c-16 -2 -40 -2 -55 0 -16 2 -3 4 27 4 30
0 43 -2 28 -4z m-327 -276 c-6 -8 -8 -17 -4 -20 3 -4 0 -7 -7 -7 -8 0 -32 -9
-55 -20 -22 -11 -56 -22 -75 -25 -29 -4 -27 -3 11 10 25 8 65 28 90 45 49 33
57 36 40 17z m-1806 -27 c-3 -6 4 -10 17 -10 18 0 20 -2 8 -10 -20 -13 -7 -22
43 -31 25 -5 6 -5 -45 -2 -95 6 -173 20 -128 23 23 1 23 2 5 10 -17 7 -17 9
-2 9 9 1 17 6 17 11 0 6 21 10 46 10 27 0 43 -4 39 -10z m-142 -27 c-7 -2 -21
-2 -30 0 -10 3 -4 5 12 5 17 0 24 -2 18 -5z m1547 -13 c20 -6 21 -8 5 -8 -11
0 -29 3 -40 8 -25 11 1 11 35 0z m183 -17 c-7 -2 -19 -2 -25 0 -7 3 -2 5 12 5
14 0 19 -2 13 -5z m-1395 -10 c-10 -2 -26 -2 -35 0 -10 3 -2 5 17 5 19 0 27
-2 18 -5z m1555 -10 c-7 -2 -19 -2 -25 0 -7 3 -2 5 12 5 14 0 19 -2 13 -5z
m695 -160 c-16 -2 -40 -2 -55 0 -16 2 -3 4 27 4 30 0 43 -2 28 -4z m175 -10
c-18 -2 -48 -2 -65 0 -18 2 -4 4 32 4 36 0 50 -2 33 -4z m165 -10 c-15 -2 -42
-2 -60 0 -18 2 -6 4 27 4 33 0 48 -2 33 -4z m165 -10 c-13 -2 -35 -2 -50 0
-16 2 -5 4 22 4 28 0 40 -2 28 -4z m144 -10 c-20 -2 -52 -2 -70 0 -17 2 0 4
38 4 39 0 53 -2 32 -4z m160 -10 c-20 -2 -52 -2 -70 0 -17 2 0 4 38 4 39 0 53
-2 32 -4z m-394 -70 c-7 -2 -21 -2 -30 0 -10 3 -4 5 12 5 17 0 24 -2 18 -5z
m624 -155 c-3 -8 -6 -5 -6 6 -1 11 2 17 5 13 3 -3 4 -12 1 -19z"/>
<path d="M6600 7490 c-12 -8 -11 -10 8 -10 12 0 22 5 22 10 0 13 -11 13 -30 0z"/>
<path d="M5328 7409 c11 -11 22 -34 26 -50 5 -27 9 -29 49 -29 28 0 44 5 45
13 0 6 3 29 5 50 l4 37 -74 0 -74 0 19 -21z"/>
<path d="M6715 7357 c-43 -20 -93 -80 -101 -122 -14 -76 15 -136 79 -166 53
-23 91 -24 142 0 112 51 146 188 65 266 -26 25 -40 30 -93 32 -38 2 -74 -2
-92 -10z"/>
<path d="M2145 7166 c-312 -83 -511 -279 -595 -581 -6 -22 -13 -88 -17 -147
-14 -241 52 -418 221 -597 38 -39 56 -66 48 -68 -7 -3 -39 -25 -72 -50 -193
-145 -365 -444 -465 -809 -75 -275 -108 -478 -126 -784 -20 -349 13 -497 134
-605 67 -61 141 -88 244 -89 77 -1 83 -3 83 -21 0 -37 -50 -527 -71 -687 -38
-303 -104 -570 -168 -678 -120 -203 -128 -264 -48 -348 147 -154 695 -190 888
-58 63 43 70 72 68 269 -2 197 -6 170 107 742 87 441 92 464 93 430 1 -11 12
-126 26 -255 57 -523 64 -613 68 -811 4 -196 6 -210 30 -263 32 -68 85 -106
190 -133 101 -25 464 -26 580 0 157 34 237 89 239 163 3 62 -28 109 -138 211
-77 72 -105 104 -109 127 -20 118 -140 1538 -150 1776 -16 386 -44 771 -80
1108 -8 74 -15 151 -15 172 0 35 3 39 33 45 17 4 102 30 187 57 364 117 625
286 708 459 41 85 48 140 28 220 -33 125 -134 274 -366 539 -51 58 -143 170
-205 250 -174 224 -255 297 -374 336 -63 20 -180 16 -228 -9 -31 -17 -33 -16
-115 23 -142 68 -202 82 -383 86 -145 4 -169 2 -250 -20z m467 -143 c117 -41
188 -87 188 -122 1 -14 7 -39 14 -56 9 -21 10 -42 4 -69 -14 -60 20 -117 117
-198 47 -39 85 -80 93 -99 8 -19 16 -74 19 -124 12 -218 -90 -411 -283 -531
-344 -215 -867 -97 -1024 230 -94 195 -96 476 -6 653 78 155 245 279 450 334
57 15 97 18 206 16 120 -3 145 -7 222 -34z m528 -78 c59 -30 150 -127 229
-243 35 -51 104 -138 154 -195 210 -237 343 -413 392 -518 48 -103 24 -190
-78 -286 -115 -109 -286 -200 -538 -285 -127 -43 -166 -52 -224 -52 -38 0 -73
-5 -77 -11 -15 -20 -8 -184 16 -375 28 -219 42 -439 51 -770 9 -343 43 -919
75 -1285 34 -374 93 -902 103 -913 6 -8 55 -50 109 -94 98 -80 122 -113 97
-129 -76 -50 -385 -74 -574 -45 -105 15 -151 36 -167 74 -6 16 -14 135 -19
282 -4 166 -16 331 -32 470 -39 323 -68 669 -70 813 -2 124 -1 129 22 148 13
10 49 26 80 35 98 28 130 64 75 84 -38 15 -281 -15 -313 -38 -27 -20 -29 -28
-180 -787 -134 -672 -145 -751 -133 -879 11 -117 4 -172 -28 -198 -87 -71
-501 -60 -664 17 -18 9 -39 27 -46 39 -11 21 -9 32 13 79 14 30 52 98 86 152
l61 97 45 271 c45 270 103 732 125 982 17 201 17 201 55 224 56 33 80 91 80
196 0 77 -4 98 -27 149 -16 32 -28 73 -28 92 0 57 77 494 109 617 17 64 53
174 81 244 53 133 57 152 38 171 -51 51 -145 -84 -218 -313 -57 -178 -162
-658 -162 -740 0 -17 14 -53 30 -80 41 -68 57 -140 42 -194 -10 -38 -14 -42
-38 -39 -22 2 -32 14 -55 61 -23 46 -32 57 -52 57 -33 0 -39 -29 -32 -144 3
-51 1 -99 -4 -109 -26 -45 -88 7 -110 93 -24 95 -65 91 -62 -6 1 -29 -2 -54
-7 -54 -16 0 -69 70 -80 107 -25 86 -34 260 -22 433 30 429 159 918 315 1200
73 132 181 255 261 298 47 25 152 21 276 -11 261 -67 472 -52 669 48 80 40
121 53 212 65 93 13 225 57 319 106 73 38 86 40 118 18 12 -8 32 -14 45 -12
19 3 22 8 19 38 -5 64 -133 260 -267 411 -48 53 -54 66 -60 117 -12 97 -42
148 -139 236 -72 66 -86 84 -84 105 5 42 46 55 125 41 43 -7 69 -8 76 -1 30
30 -48 75 -151 87 -34 3 -65 10 -67 14 -10 17 8 39 43 54 45 19 99 12 162 -19z
m126 -897 c13 -21 24 -41 24 -46 0 -12 -71 -50 -136 -72 -82 -29 -89 -27 -59
17 14 21 39 77 56 125 l32 88 29 -38 c17 -20 41 -54 54 -74z"/>
<path d="M2803 6525 c-44 -31 -51 -182 -8 -199 55 -21 104 104 68 173 -21 42
-32 46 -60 26z"/>
<path d="M2416 6435 c-43 -46 -57 -130 -32 -190 16 -38 47 -46 88 -24 48 26
77 168 42 217 -21 30 -68 29 -98 -3z"/>
<path d="M2635 6126 c-84 -36 -166 -201 -123 -244 18 -18 39 -15 111 18 37 17
84 30 105 30 50 0 62 14 62 75 0 104 -70 158 -155 121z"/>
<path d="M5013 7103 c9 -2 25 -2 35 0 9 3 1 5 -18 5 -19 0 -27 -2 -17 -5z"/>
<path d="M5118 7093 c7 -3 16 -2 19 1 4 3 -2 6 -13 5 -11 0 -14 -3 -6 -6z"/>
<path d="M5183 7083 c9 -2 23 -2 30 0 6 3 -1 5 -18 5 -16 0 -22 -2 -12 -5z"/>
<path d="M5021 7024 c0 -11 3 -14 6 -6 3 7 2 16 -1 19 -3 4 -6 -2 -5 -13z"/>
<path d="M9101 6961 c-35 -35 -38 -102 -9 -203 12 -40 28 -51 28 -19 0 22 26
36 34 18 2 -7 4 13 3 43 -4 122 56 42 102 -135 11 -44 37 -159 57 -255 45
-214 57 -415 30 -515 -15 -60 -15 -60 9 -84 l24 -25 16 38 c22 52 32 422 16
556 -16 125 -65 327 -69 284 -2 -18 -12 -40 -22 -49 -17 -16 -19 -15 -30 5
-16 29 -9 81 13 94 14 8 20 8 27 -4 26 -41 -15 91 -51 161 -50 99 -129 139
-178 90z"/>
<path d="M5041 6954 c0 -11 3 -14 6 -6 3 7 2 16 -1 19 -3 4 -6 -2 -5 -13z"/>
<path d="M5051 6914 c0 -11 3 -14 6 -6 3 7 2 16 -1 19 -3 4 -6 -2 -5 -13z"/>
<path d="M8403 6883 c9 -2 23 -2 30 0 6 3 -1 5 -18 5 -16 0 -22 -2 -12 -5z"/>
<path d="M5960 6550 c-294 -67 -480 -115 -512 -131 -62 -32 -72 -56 -65 -160
11 -143 41 -189 124 -189 38 0 45 -3 55 -27 6 -16 13 -101 16 -190 4 -151 6
-163 27 -183 28 -27 41 -13 55 60 22 114 1 378 -33 418 -8 10 -26 12 -69 7
-55 -7 -58 -6 -67 18 -17 45 -25 144 -11 152 33 20 449 105 516 105 62 0 84
-21 84 -82 0 -32 -5 -40 -30 -53 -47 -24 -52 -52 -35 -171 33 -221 114 -423
207 -516 11 -11 18 -21 16 -22 -2 -2 -66 -15 -143 -30 -181 -35 -354 -77 -353
-85 3 -14 -15 -40 -23 -35 -5 3 -9 3 -9 0 0 -14 102 -231 122 -260 50 -72 151
-206 155 -206 2 0 1 5 -2 10 -10 16 12 12 29 -6 14 -14 14 -34 0 -34 -3 0 -3
4 0 8 3 5 -1 9 -9 9 -13 0 -12 -3 1 -19 10 -11 25 -16 38 -13 12 3 54 1 95 -4
l74 -9 50 39 c82 66 123 82 213 87 90 5 126 -6 182 -58 29 -26 34 -28 40 -12
4 9 7 73 6 142 -1 204 -40 286 -242 501 -119 127 -168 196 -213 294 -28 62
-79 239 -79 275 0 10 16 30 35 44 46 35 60 87 45 164 -15 75 -45 136 -76 157
-39 25 -118 27 -214 5z m203 -1181 c32 -43 2 -99 -54 -99 -60 0 -90 69 -48
111 28 28 76 22 102 -12z m248 -78 c39 -40 39 -79 -2 -126 -25 -29 -38 -35
-69 -35 -52 0 -100 46 -100 97 0 51 45 93 100 93 33 0 48 -6 71 -29z m186
-238 c-3 -10 -5 -4 -5 12 0 17 2 24 5 18 2 -7 2 -21 0 -30z"/>
<path d="M9186 6467 c16 -47 44 -60 44 -20 0 13 -4 23 -9 23 -5 0 -13 9 -16
20 -3 11 -13 20 -20 20 -12 0 -11 -7 1 -43z"/>
<path d="M6903 6323 c-18 -15 -35 -88 -106 -453 l-85 -434 27 -48 c14 -26 30
-46 36 -45 14 5 30 74 91 397 69 369 93 483 103 493 4 4 72 -1 152 -12 243
-34 448 -59 834 -101 204 -22 418 -45 477 -52 59 -6 112 -14 117 -18 7 -4 4
-42 -10 -110 -11 -58 -53 -296 -94 -529 -41 -233 -77 -426 -80 -429 -3 -3 -72
2 -153 12 -248 29 -233 29 -274 4 -68 -43 -148 -109 -148 -122 0 -7 11 -18 23
-25 20 -11 31 -9 70 9 52 24 63 35 47 45 -15 9 7 35 31 35 10 0 22 -7 27 -15
7 -13 19 -14 73 -6 107 15 177 -3 276 -70 23 -16 47 -29 53 -29 7 0 34 14 60
31 46 30 48 34 54 88 4 31 18 119 31 196 14 77 38 228 55 335 38 243 53 333
80 484 23 126 21 159 -9 175 -21 12 -299 47 -761 96 -387 41 -913 102 -951
110 -17 4 -33 0 -46 -12z"/>
<path d="M7522 5911 c-12 -7 -33 -102 -76 -333 -3 -17 1 -35 13 -49 17 -21 21
-21 67 -10 119 29 335 103 341 116 13 36 -11 64 -151 173 -139 108 -165 122
-194 103z"/>
<path d="M9380 5776 c0 -2 8 -10 18 -17 15 -13 16 -12 3 4 -13 16 -21 21 -21
13z"/>
<path d="M5295 5650 c-164 -81 -423 -186 -654 -265 -91 -30 -171 -61 -178 -67
-22 -18 -16 -42 51 -206 65 -159 139 -363 133 -368 -1 -1 -41 19 -87 46 -146
85 -146 85 -175 72 -19 -9 -25 -19 -25 -41 0 -36 23 -54 160 -131 156 -88 182
-107 201 -149 21 -47 32 -55 58 -42 31 17 35 62 11 148 -24 88 -158 477 -191
554 -12 27 -20 51 -18 53 2 1 86 30 186 64 208 71 358 131 522 208 63 30 117
54 121 54 4 0 26 -53 49 -117 79 -218 181 -411 283 -540 52 -67 81 -78 112
-47 27 26 18 58 -33 126 -55 73 -150 237 -200 346 -18 40 -56 139 -84 220 -48
134 -54 147 -77 149 -14 1 -87 -29 -165 -67z"/>
<path d="M5298 5308 c-15 -12 -66 -121 -83 -176 l-6 -22 -42 28 c-53 36 -99
52 -151 52 -45 0 -66 -13 -66 -41 0 -23 37 -49 70 -49 38 -1 101 -33 138 -71
31 -32 33 -37 27 -84 -8 -55 -36 -128 -54 -140 -7 -4 -20 0 -30 9 -39 36 -101
10 -101 -42 0 -48 33 -72 97 -72 75 0 144 78 168 188 l7 34 21 -20 c35 -32
104 -62 141 -62 49 0 96 41 96 84 0 19 -8 40 -18 49 -34 31 -82 16 -82 -25 0
-22 -3 -22 -39 -3 -45 23 -101 94 -101 127 0 36 21 86 59 142 33 48 38 75 19
94 -16 16 -50 15 -70 0z"/>
<path d="M6800 5111 c0 -59 3 -81 13 -81 7 0 22 -7 34 -15 20 -14 21 -17 6
-47 -15 -30 -15 -32 7 -50 15 -12 39 -18 74 -18 60 0 90 -14 66 -31 -12 -8 -9
-9 10 -3 84 23 108 47 74 75 -11 9 -14 22 -9 45 5 28 1 35 -23 53 -20 14 -32
34 -38 62 -13 60 -43 79 -137 86 l-77 6 0 -82z m146 -12 c9 -16 -20 -41 -39
-33 -27 10 -21 44 7 44 14 0 28 -5 32 -11z m42 -111 c19 -19 14 -28 -13 -28
-18 0 -25 5 -25 20 0 22 20 26 38 8z"/>
<path d="M7748 4873 c6 -2 18 -2 25 0 6 3 1 5 -13 5 -14 0 -19 -2 -12 -5z"/>
<path d="M6732 4823 c4 -48 18 -51 93 -17 56 24 58 27 40 40 -11 8 -43 14 -78
14 l-58 0 3 -37z"/>
<path d="M9087 4833 c-11 -10 -8 -51 3 -58 12 -7 80 40 80 56 0 10 -73 13 -83
2z"/>
<path d="M3939 4494 c-39 -11 -40 -43 -4 -311 44 -324 77 -578 110 -853 79
-660 75 -633 101 -660 26 -27 35 -28 1039 -155 783 -99 1687 -215 1900 -245
687 -96 946 -124 1010 -110 59 13 438 181 680 301 259 128 393 211 410 253 7
17 25 132 39 256 15 124 41 331 57 460 92 716 127 1024 118 1046 -11 31 -23
30 -106 -7 -37 -17 -108 -48 -158 -69 -513 -215 -788 -329 -828 -344 -42 -16
-58 -17 -130 -7 -45 6 -217 25 -382 41 -410 41 -907 89 -980 95 -264 22 -288
26 -314 54 -33 35 -59 39 -544 82 -362 33 -368 33 -402 15 -27 -15 -46 -17
-87 -12 -29 3 -98 11 -153 16 -55 6 -185 19 -290 30 -104 11 -235 24 -290 29
-303 31 -684 78 -760 95 -11 2 -27 2 -36 0z m182 -89 c55 -8 109 -20 119 -25
21 -11 20 -5 65 -430 30 -280 75 -703 125 -1154 5 -50 8 -92 5 -94 -7 -7 -186
18 -206 28 -10 6 -20 18 -23 27 -11 37 -96 647 -171 1228 -24 193 -47 367 -50
387 -5 34 1 44 28 47 4 1 53 -6 108 -14z m734 -105 c171 -17 382 -40 469 -50
88 -11 166 -20 173 -20 10 0 13 -39 13 -180 l0 -181 -32 5 c-43 7 -244 29
-613 66 -377 38 -485 51 -485 59 -1 3 -11 84 -24 178 -12 95 -21 174 -19 176
1 2 49 -2 105 -9 57 -7 243 -27 413 -44z m926 -35 c74 -8 213 -21 309 -30 96
-9 210 -23 254 -31 43 -8 80 -14 81 -14 10 0 14 -190 8 -335 -9 -190 -5 -183
-87 -170 -37 6 -43 11 -64 56 -30 62 -63 102 -117 139 -33 23 -45 39 -53 73
-16 62 -41 80 -117 85 -36 2 -75 2 -88 -2 -30 -7 -82 -59 -97 -96 -7 -17 -27
-35 -52 -46 -22 -10 -59 -38 -83 -62 -41 -41 -44 -43 -54 -23 -12 22 -28 429
-18 455 8 20 11 20 178 1z m3289 -21 c0 -8 -4 -12 -10 -9 -5 3 -18 1 -27 -4
-10 -6 -12 -11 -5 -11 6 0 12 -11 12 -24 0 -21 -6 -25 -59 -34 -33 -6 -76 -19
-98 -30 -48 -25 -269 -112 -282 -112 -11 0 -31 -32 -31 -49 0 -6 10 -11 22
-11 20 0 320 115 378 145 42 22 80 63 81 87 1 17 3 18 6 6 2 -10 -3 -66 -11
-125 -13 -85 -21 -112 -37 -125 -12 -10 -26 -18 -33 -18 -6 1 2 8 17 16 16 9
27 18 24 20 -3 3 -19 -3 -36 -14 -17 -10 -29 -21 -26 -24 5 -5 -20 -17 -290
-138 -77 -35 -146 -67 -152 -73 -7 -5 -13 -6 -13 -1 0 29 31 295 36 307 5 14
111 62 409 186 66 27 121 50 123 50 1 1 2 -6 2 -15z m-2385 -144 c55 -5 251
-25 435 -44 184 -20 421 -43 525 -52 105 -9 191 -18 193 -20 4 -3 -17 -269
-24 -303 -5 -23 -7 -24 -72 -18 -206 18 -853 81 -1006 97 -99 11 -185 20 -193
20 -10 0 -13 34 -13 165 l0 165 28 0 c15 -1 72 -5 127 -10z m1748 -192 c-4
-99 -19 -233 -63 -565 -11 -83 -33 -297 -50 -475 -17 -178 -36 -368 -43 -423
l-12 -100 -80 -40 c-76 -38 -85 -40 -170 -40 -96 0 -192 11 -213 24 -12 7 27
524 113 1501 8 91 15 170 15 176 0 7 6 14 13 17 13 5 198 -14 279 -28 23 -3
57 4 113 24 44 16 85 30 91 30 8 1 10 -31 7 -101z m-2471 66 c3 -3 -5 -28 -18
-55 -21 -43 -23 -57 -16 -98 5 -26 8 -55 6 -64 -1 -9 4 -17 12 -17 12 0 12 -4
4 -20 -6 -11 -18 -20 -28 -20 -15 0 -15 -2 -2 -10 13 -8 13 -10 -1 -10 -23 0
-53 36 -45 55 3 9 2 13 -3 10 -14 -8 -25 78 -17 128 4 23 14 52 22 65 20 30
71 52 86 36z m-1345 -89 c114 -13 305 -34 423 -45 451 -42 480 -46 480 -65 0
-7 15 -27 34 -43 32 -28 34 -33 26 -64 -4 -18 -11 -50 -15 -70 -4 -29 -11 -38
-26 -38 -11 0 -33 -7 -49 -15 -22 -12 -31 -25 -39 -65 -6 -28 -11 -64 -11 -80
0 -22 -5 -30 -17 -30 -37 0 -974 88 -978 91 -2 2 -6 41 -10 87 -7 74 -6 82 9
76 12 -5 16 0 16 20 0 27 -25 37 -33 14 -2 -7 -9 23 -15 67 -23 163 -25 185
-14 185 6 0 105 -11 219 -25z m4313 -70 c-14 -8 -29 -14 -35 -14 -5 0 1 6 15
14 14 8 30 14 35 14 6 0 -1 -6 -15 -14z m-3140 -30 c0 -23 -6 -38 -15 -41 -26
-10 -65 -89 -76 -153 -10 -55 -14 -62 -33 -59 -19 3 -21 9 -19 61 2 70 36 149
83 195 44 42 60 41 60 -3z m3327 13 c-3 -8 -6 -5 -6 6 -1 11 2 17 5 13 3 -3 4
-12 1 -19z m-2976 -68 c41 -60 59 -115 59 -184 0 -38 3 -45 23 -49 12 -2 4 -5
-19 -6 l-41 -1 -6 69 c-7 81 -23 125 -67 174 -31 36 -33 61 -3 55 9 -2 33 -28
54 -58z m2679 35 c-25 -13 -49 -24 -55 -24 -5 0 10 11 35 24 25 13 50 24 55
24 6 0 -10 -11 -35 -24z m180 -36 c0 -16 -4 -28 -9 -25 -8 5 -3 56 5 56 2 0 4
-14 4 -31z m108 -36 c-3 -38 -4 -60 -1 -51 4 16 10 18 65 20 16 0 29 7 31 17
11 41 6 -45 -10 -159 l-18 -125 -7 80 c-7 75 -10 82 -43 113 l-35 32 6 70 c4
39 9 70 12 70 3 0 3 -30 0 -67z m-378 32 c-14 -8 -29 -14 -35 -14 -5 0 1 6 15
14 14 8 30 14 35 14 6 0 -1 -6 -15 -14z m-1994 -29 c44 -22 91 -28 429 -61
418 -40 626 -63 634 -71 5 -5 -28 -396 -34 -402 -3 -4 -1050 90 -1177 105
l-46 6 -7 53 c-6 54 -43 114 -69 114 -23 0 -76 58 -76 84 0 21 7 27 42 37 50
13 128 85 128 118 0 16 6 21 28 22 15 0 36 4 47 9 32 14 48 11 101 -14z m1934
4 c-8 -5 -19 -10 -25 -10 -5 0 -3 5 5 10 8 5 20 10 25 10 6 0 3 -5 -5 -10z
m-2683 -16 c-3 -3 -12 -4 -19 -1 -8 3 -5 6 6 6 11 1 17 -2 13 -5z m2887 -10
c39 -15 -2 -58 -64 -68 -18 -2 -36 -9 -39 -14 -3 -5 -34 -18 -69 -30 -58 -19
-63 -20 -60 -4 2 11 27 25 68 39 35 12 71 31 80 42 12 17 27 25 67 40 1 1 8
-2 17 -5z m213 -106 c-3 -7 -5 -2 -5 12 0 14 2 19 5 13 2 -7 2 -19 0 -25z
m-110 -15 c-3 -10 -5 -4 -5 12 0 17 2 24 5 18 2 -7 2 -21 0 -30z m-474 -110
c7 3 21 -1 30 -8 15 -11 15 -13 3 -18 -9 -4 -18 -2 -21 3 -4 6 -14 10 -23 9
-11 0 -12 -3 -4 -6 6 -2 12 -12 12 -21 0 -14 -2 -14 -9 -3 -6 9 -11 -11 -15
-60 -6 -68 -5 -139 2 -139 1 0 19 7 39 15 20 8 38 14 40 11 2 -2 -19 -13 -48
-25 -28 -12 -52 -21 -54 -19 -2 2 3 73 10 158 8 85 16 166 17 180 1 14 3 1 5
-28 3 -38 8 -52 16 -49z m316 62 c-19 -20 -77 -36 -84 -25 -3 5 16 16 42 24
61 19 60 19 42 1z m-3134 -55 c50 -5 196 -19 325 -30 240 -21 326 -32 336 -43
13 -13 16 -179 5 -291 -12 -124 -36 -199 -73 -233 -11 -9 -18 -13 -17 -8 4 17
-19 62 -34 68 -8 3 -25 -5 -38 -19 -23 -25 -114 -63 -152 -65 -21 0 -21 -1 -2
-9 l20 -8 -20 -8 c-18 -8 -17 -9 10 -15 28 -6 27 -7 -10 -8 -71 -1 -248 27
-309 49 -81 31 -149 98 -171 170 -19 62 -32 313 -21 404 9 65 0 62 151 46z
m3275 -23 c0 -8 -11 -19 -25 -25 -37 -17 -45 -14 -12 4 15 8 27 19 27 24 0 6
2 10 5 10 3 0 5 -6 5 -13z m-4285 -72 c83 -8 276 -26 430 -40 154 -14 289 -28
300 -30 19 -4 22 -16 32 -152 8 -96 19 -168 32 -206 l20 -58 -47 6 c-26 3
-184 21 -352 40 -432 48 -585 66 -587 69 -4 4 -43 329 -43 358 0 34 0 34 215
13z m4492 -17 c-3 -8 -6 -5 -6 6 -1 11 2 17 5 13 3 -3 4 -12 1 -19z m-110 -20
c-3 -8 -6 -5 -6 6 -1 11 2 17 5 13 3 -3 4 -12 1 -19z m-2327 -148 c52 -6 212
-22 355 -35 420 -41 670 -66 672 -69 2 -2 -4 -86 -12 -187 -8 -101 -15 -197
-15 -214 0 -16 -4 -35 -8 -42 -6 -9 -115 1 -462 42 -250 29 -520 61 -600 70
-80 9 -160 18 -178 21 l-33 5 20 25 c46 58 81 213 81 357 l0 48 43 -5 c23 -3
85 -10 137 -16z m1785 -60 c-3 -5 -12 -10 -18 -10 -7 0 -6 4 3 10 19 12 23 12
15 0z m-35 -15 c0 -2 -10 -9 -22 -15 -22 -11 -22 -10 -4 4 21 17 26 19 26 11z
m-3670 -230 c118 -14 341 -39 494 -56 254 -28 285 -33 336 -59 31 -16 85 -36
120 -45 35 -9 82 -26 104 -37 85 -44 345 -43 452 2 l52 22 233 -27 c330 -37
987 -114 1029 -121 85 -13 80 -8 79 -82 0 -37 -4 -87 -7 -112 l-7 -45 -55 3
c-30 2 -206 23 -390 47 -184 25 -461 60 -615 80 -154 20 -386 49 -515 66 -340
44 -647 81 -1140 139 -239 28 -436 53 -438 55 -2 2 -9 49 -16 105 l-12 101 40
-6 c23 -3 138 -17 256 -30z"/>
<path d="M4414 4215 c-9 -22 3 -33 45 -40 50 -8 128 3 146 21 7 8 24 15 37 15
44 3 -77 17 -150 18 -55 1 -74 -3 -78 -14z"/>
<path d="M4681 4194 c0 -11 3 -14 6 -6 3 7 2 16 -1 19 -3 4 -6 -2 -5 -13z"/>
<path d="M4528 4033 c6 -2 18 -2 25 0 6 3 1 5 -13 5 -14 0 -19 -2 -12 -5z"/>
<path d="M4598 4023 c7 -3 16 -2 19 1 4 3 -2 6 -13 5 -11 0 -14 -3 -6 -6z"/>
<path d="M8630 4065 c-14 -8 -20 -14 -14 -15 5 0 19 7 30 15 24 18 16 19 -16
0z"/>
<path d="M8914 4040 c-81 -41 -113 -67 -95 -79 27 -17 175 33 187 64 6 15 -11
45 -26 45 -4 0 -33 -13 -66 -30z"/>
<path d="M8570 4040 c-9 -6 -10 -10 -3 -10 6 0 15 5 18 10 8 12 4 12 -15 0z"/>
<path d="M7200 3950 c20 -13 60 -13 60 0 0 6 -17 10 -37 10 -28 0 -34 -3 -23
-10z"/>
<path d="M8315 3767 c-9 -95 -34 -340 -46 -447 -22 -198 -23 -250 -6 -250 19
0 32 45 41 140 4 36 13 103 21 150 8 47 19 157 25 245 5 88 13 176 16 195 4
19 3 32 -1 28 -4 -4 -16 -3 -25 2 -16 9 -19 2 -25 -63z"/>
<path d="M8171 3094 c0 -11 3 -14 6 -6 3 7 2 16 -1 19 -3 4 -6 -2 -5 -13z"/>
<path d="M8161 3014 c0 -11 3 -14 6 -6 3 7 2 16 -1 19 -3 4 -6 -2 -5 -13z"/>
<path d="M8131 2714 c0 -11 3 -14 6 -6 3 7 2 16 -1 19 -3 4 -6 -2 -5 -13z"/>
<path d="M8123 2625 c0 -27 2 -38 4 -22 2 15 2 37 0 50 -2 12 -4 0 -4 -28z"/>
<path d="M8093 2315 c0 -22 2 -30 4 -17 2 12 2 30 0 40 -3 9 -5 -1 -4 -23z"/>
<path d="M8135 2300 c-3 -6 1 -7 9 -4 18 7 21 14 7 14 -6 0 -13 -4 -16 -10z"/>
<path d="M6785 3400 c-3 -5 3 -10 14 -10 12 0 21 5 21 10 0 6 -6 10 -14 10 -8
0 -18 -4 -21 -10z"/>
<path d="M5855 3298 c-48 -26 -60 -85 -28 -139 16 -27 16 -32 -7 -104 -14 -46
-20 -79 -14 -84 15 -14 177 -30 192 -18 16 13 15 29 -5 109 -16 64 -16 69 0
97 20 34 21 60 5 96 -21 47 -95 69 -143 43z"/>
<path d="M4560 3250 c8 -5 22 -10 30 -10 13 0 13 1 0 10 -8 5 -22 10 -30 10
-13 0 -13 -1 0 -10z"/>
<path d="M7917 4255 c-32 -17 -59 -36 -60 -41 -1 -5 77 -16 173 -25 145 -14
181 -14 210 -3 19 7 28 13 20 13 -8 0 -24 -4 -35 -8 -12 -5 -24 -3 -32 4 -6 7
-40 18 -75 25 -72 14 -113 32 -121 55 -8 19 -11 19 -80 -20z"/>
</g>
</svg>
