<?xml version="1.0" standalone="no"?>
<!DOCTYPE svg PUBLIC "-//W3C//DTD SVG 20010904//EN"
 "http://www.w3.org/TR/2001/REC-SVG-20010904/DTD/svg10.dtd">
<svg version="1.0" xmlns="http://www.w3.org/2000/svg"
 width="1024.000000pt" height="1024.000000pt" viewBox="0 0 1024.000000 1024.000000"
 preserveAspectRatio="xMidYMid meet">

<g transform="translate(0.000000,1024.000000) scale(0.100000,-0.100000)"
fill="#000000" stroke="none">
<path d="M6499 9390 c-517 -6 -548 -8 -580 -26 -18 -11 -42 -35 -54 -54 -20
-34 -20 -47 -17 -540 4 -661 20 -1452 31 -1463 4 -4 13 -2 20 6 13 17 30 757
31 1353 0 209 2 383 4 385 2 2 164 3 358 1 l354 -2 2 -1293 c2 -1513 6 -1721
39 -1907 l6 -35 9 30 c4 17 10 77 14 135 3 58 8 119 11 135 3 17 8 739 12
1605 l6 1575 150 6 c278 11 1633 5 1645 -7 15 -15 8 -4763 -8 -4984 -39 -544
-91 -798 -213 -1045 -186 -375 -584 -557 -1214 -554 -115 1 -237 4 -270 8 -58
6 -59 7 -66 41 -10 49 -32 62 -147 90 l-101 23 -20 86 c-12 47 -29 116 -40
152 l-19 65 43 52 c82 98 100 142 59 142 -9 0 -41 -20 -73 -44 l-58 -45 -27
91 c-15 50 -26 91 -24 93 2 1 68 10 148 20 183 22 256 52 293 120 6 11 29 99
52 195 24 96 64 263 89 370 26 107 56 236 66 285 11 50 47 205 80 345 105 442
131 572 125 612 -10 55 -59 127 -101 144 -35 15 -287 46 -669 84 -115 11 -253
25 -305 30 -52 6 -171 17 -265 25 -93 8 -428 39 -743 70 -609 59 -618 59 -675
15 -57 -45 -66 -69 -102 -292 -20 -117 -60 -346 -90 -508 -71 -384 -134 -752
-205 -1195 -17 -104 -38 -226 -46 -270 -12 -63 -13 -90 -5 -121 16 -61 62
-118 117 -145 44 -21 61 -23 164 -22 63 1 167 7 230 12 63 6 118 7 122 3 4 -4
2 -18 -5 -32 -17 -34 -97 -47 -342 -56 -183 -6 -204 -5 -235 11 -22 12 -59 19
-100 20 -67 2 -145 26 -272 83 -83 38 -102 63 -87 117 33 119 118 213 247 277
95 46 99 67 10 49 -75 -16 -176 -65 -220 -108 l-36 -36 -30 59 c-16 33 -51 87
-76 122 -51 69 -53 81 -31 202 7 41 11 77 9 79 -2 2 -10 1 -18 -2 -17 -7 -29
-33 -74 -162 -56 -163 -64 -203 -72 -383 -4 -95 -9 -174 -11 -176 -2 -2 -105
-18 -229 -35 -124 -17 -306 -43 -405 -58 -99 -14 -207 -28 -241 -30 l-61 -5 7
43 c4 24 15 73 24 109 20 82 20 134 1 150 -21 17 -19 37 14 142 39 121 96 359
116 478 9 52 23 129 31 170 9 41 18 85 20 98 4 22 6 21 52 -17 93 -79 202 -99
337 -61 273 75 390 120 493 188 l60 40 41 -40 c43 -43 95 -126 155 -248 20
-41 85 -143 144 -226 59 -83 112 -159 118 -169 9 -16 13 -10 28 37 17 55 17
57 -3 95 -12 21 -53 81 -91 133 -41 56 -99 154 -139 236 l-70 142 24 73 c12
41 41 112 63 159 96 205 116 265 116 365 0 58 -5 81 -28 128 -15 31 -36 62
-47 67 -14 8 -19 22 -19 54 0 51 -32 181 -61 251 -87 208 -244 371 -459 476
-92 45 -157 65 -275 84 -114 19 -170 19 -281 0 -230 -40 -405 -135 -541 -294
-45 -53 -82 -85 -124 -107 -71 -38 -109 -66 -171 -127 -92 -89 -116 -148 -127
-317 -6 -87 -11 -111 -30 -136 -51 -69 -25 -182 94 -403 l55 -102 -33 -27
c-17 -15 -47 -44 -66 -64 -33 -36 -37 -38 -96 -38 -155 0 -542 -53 -665 -91
-138 -43 -227 -117 -283 -237 -32 -66 -32 -69 -32 -222 0 -171 7 -228 91 -728
30 -178 52 -328 49 -332 -8 -14 25 -40 50 -40 12 0 141 18 286 40 386 59 351
57 392 26 149 -114 388 -90 540 52 l52 49 135 22 c298 47 611 93 914 135 l319
44 45 -33 c41 -32 42 -34 20 -39 -52 -12 -594 -86 -747 -103 -191 -20 -204
-27 -199 -102 3 -42 6 -46 49 -68 26 -12 74 -30 108 -39 34 -8 94 -30 134 -48
97 -44 320 -126 361 -133 38 -6 622 89 1211 197 116 21 268 48 340 60 128 22
163 32 177 54 4 6 8 43 8 82 0 55 -4 74 -18 87 -11 10 -68 24 -147 37 -141 23
-183 36 -169 50 5 5 176 29 379 54 204 25 386 48 406 51 l37 5 31 -123 c17
-67 42 -162 55 -212 13 -49 22 -93 20 -97 -2 -3 -35 -10 -72 -13 -37 -4 -134
-20 -217 -35 -82 -15 -222 -40 -310 -55 -186 -31 -237 -47 -254 -78 -6 -12
-13 -55 -14 -96 -2 -69 0 -75 24 -93 15 -11 73 -33 130 -50 541 -152 601 -168
650 -168 39 0 209 33 379 74 58 14 166 39 240 55 492 111 570 136 570 181 0
16 5 19 23 15 262 -59 724 -36 985 51 327 108 492 247 642 540 89 174 162 478
190 789 31 348 32 482 37 2718 l5 2287 378 0 c208 0 381 -3 383 -7 3 -5 7
-321 11 -703 9 -992 15 -1190 35 -1198 9 -3 19 -10 22 -15 11 -15 19 478 21
1339 l3 820 -29 38 c-16 21 -43 44 -60 51 -66 27 -1640 40 -2917 25z m2734
-152 c22 -26 22 -39 -4 -72 -27 -35 -73 -33 -101 5 -16 21 -17 30 -7 51 22 49
76 57 112 16z m-361 5 c24 -21 23 -58 -2 -83 -57 -57 -147 22 -93 82 20 22 70
23 95 1z m182 -5 c21 -30 20 -50 -4 -76 -29 -31 -73 -29 -99 4 -12 15 -21 30
-21 34 0 4 9 19 21 34 27 34 81 36 103 4z m-2484 -8 c11 -11 20 -24 20 -30 0
-20 -45 -37 -88 -33 -34 4 -43 10 -48 29 -4 14 -1 31 6 39 19 22 86 19 110 -5z
m-3488 -3210 c298 -64 546 -305 614 -598 40 -172 -3 -480 -88 -631 -64 -113
-185 -225 -303 -281 -91 -43 -168 -60 -300 -67 -136 -6 -207 6 -329 57 l-72
30 4 83 c5 109 -8 174 -70 345 l-51 143 13 97 c26 183 13 240 -62 282 -24 13
-38 29 -38 41 0 52 -90 122 -172 136 -21 3 -38 9 -38 13 0 26 125 167 196 220
188 141 432 186 696 130z m1708 -326 c153 -15 198 -22 157 -25 -36 -3 -42 -5
-40 -17 2 -7 -1 -12 -5 -12 -5 0 -14 -15 -21 -33 -13 -32 -17 -34 -65 -36 -29
-1 -65 3 -80 9 -36 13 -77 -8 -106 -55 -20 -33 -30 -39 -56 -36 -7 1 -14 -6
-18 -14 -3 -9 -10 -14 -15 -10 -5 3 -13 -5 -17 -17 -4 -12 -22 -37 -40 -55
-18 -17 -38 -47 -43 -65 -10 -31 -10 -30 -5 12 3 25 14 95 24 155 10 61 22
126 25 146 8 56 44 79 110 73 17 -2 104 -11 195 -20z m303 -31 c-7 -2 -19 -2
-25 0 -7 3 -2 5 12 5 14 0 19 -2 13 -5z m-2923 -78 c10 -13 6 -29 -23 -93 -47
-103 -67 -184 -67 -272 0 -86 14 -84 29 3 29 165 109 327 162 327 40 0 38 -72
-6 -185 -33 -86 -46 -223 -23 -243 13 -10 17 -1 31 69 18 86 50 167 84 208
l20 25 27 -27 c31 -31 33 -67 11 -172 -22 -103 -19 -131 26 -264 72 -218 86
-339 50 -449 -10 -31 -22 -95 -25 -142 -22 -273 -215 -973 -324 -1170 -42 -76
-121 -159 -180 -189 -22 -11 -72 -26 -110 -33 -59 -10 -76 -9 -123 6 -72 23
-110 50 -147 105 -128 187 -107 441 80 996 64 191 141 344 208 418 29 32 55
57 59 57 4 0 13 -12 19 -26 26 -55 -48 -274 -220 -654 -90 -197 -110 -256
-106 -307 3 -38 3 -38 51 57 26 52 52 99 56 105 53 64 210 412 277 610 63 190
61 203 -80 449 -117 203 -123 220 -116 306 2 28 4 24 20 -37 10 -41 53 -103
71 -103 13 0 11 65 -5 142 -8 36 -18 98 -22 136 -13 138 40 281 124 334 l34
21 -25 -49 c-46 -90 -60 -159 -55 -258 5 -86 29 -166 50 -166 4 0 7 55 7 123
0 99 3 133 20 181 26 75 65 140 93 161 28 19 32 19 48 0z m4410 -66 c109 -11
152 -19 99 -19 -29 0 -49 -17 -49 -42 0 -10 -6 -18 -12 -18 -9 0 -8 -3 2 -10
15 -9 -16 -8 -157 6 -52 5 -63 9 -70 27 -4 12 -6 28 -4 35 1 7 -5 15 -14 18
-8 3 -15 11 -15 16 0 7 19 8 53 4 28 -3 104 -11 167 -17z m-2763 -487 c-5 -49
-52 -171 -62 -160 -2 2 4 49 15 104 11 54 23 117 26 139 l7 40 9 -35 c6 -19 8
-59 5 -88z m-147 -372 c0 -5 -5 -10 -11 -10 -5 0 -7 5 -4 10 3 6 8 10 11 10 2
0 4 -4 4 -10z m-13 -26 c-3 -3 -12 -4 -19 -1 -8 3 -5 6 6 6 11 1 17 -2 13 -5z
m-4 -20 c-7 -3 -9 -12 -6 -21 8 -21 -16 -34 -38 -20 -17 10 -17 13 -2 29 9 10
26 18 37 17 12 0 16 -3 9 -5z m654 -76 c-4 -45 -25 -107 -26 -76 -1 19 21 118
26 118 2 0 2 -19 0 -42z m-657 6 c0 -8 -4 -12 -10 -9 -5 3 -10 10 -10 16 0 5
5 9 10 9 6 0 10 -7 10 -16z m1803 -336 c13 -29 30 -92 32 -123 0 -5 -4 -15
-10 -21 -11 -13 -28 1 -37 31 -4 11 -15 43 -26 72 -14 37 -17 54 -9 62 19 19
34 12 50 -21z m-1964 -638 c33 -53 49 -90 45 -100 -4 -8 -16 -42 -28 -75 -22
-67 -29 -75 -67 -75 -26 0 -27 1 -33 93 -4 51 -2 123 3 162 6 39 11 77 11 85
0 21 12 6 69 -90z m2098 84 c-3 -3 -12 -4 -19 -1 -8 3 -5 6 6 6 11 1 17 -2 13
-5z m-1460 -136 c-3 -8 -6 -5 -6 6 -1 11 2 17 5 13 3 -3 4 -12 1 -19z m34 -43
c32 -6 51 -33 39 -54 -5 -10 -5 -23 1 -32 15 -23 10 -49 -8 -49 -20 1 -64 37
-80 64 -11 19 6 103 17 86 4 -6 17 -13 31 -15z m-342 -365 c16 -8 -63 -20
-114 -17 -19 1 -29 -2 -27 -10 2 -14 -59 -16 -113 -4 -25 6 -19 8 37 14 36 4
79 14 95 22 27 14 90 12 122 -5z m1006 11 l50 -7 -65 -11 c-36 -7 -114 -19
-175 -28 -60 -10 -177 -30 -260 -45 -82 -16 -186 -34 -230 -40 -44 -6 -105
-17 -135 -25 -30 -7 -109 -21 -175 -29 -66 -9 -145 -21 -175 -26 -30 -5 -98
-17 -150 -25 -52 -9 -115 -20 -140 -25 -38 -7 -60 -4 -150 25 -58 18 -127 41
-155 49 l-50 16 83 -4 c54 -3 95 0 115 9 48 19 232 28 257 13 17 -11 4 -15
-97 -25 -65 -7 -133 -10 -150 -6 -37 6 -45 -10 -14 -27 28 -14 111 -12 221 6
52 9 127 19 165 23 39 4 104 15 145 24 186 39 338 67 368 67 18 0 61 9 95 21
34 12 94 22 132 24 65 3 273 39 283 50 7 7 148 4 207 -4z m-790 -62 c-3 -4
-33 -12 -68 -18 -97 -17 -187 15 -101 36 39 9 176 -5 169 -18z m-530 1 c3 -5
18 -10 32 -10 39 0 23 -9 -38 -20 -39 -8 -71 -8 -115 1 -65 13 -123 4 -74 -11
17 -5 0 -8 -50 -8 -41 0 -86 3 -100 7 -20 6 -11 10 45 20 39 6 93 15 120 20
71 12 173 13 180 1z m325 -31 c14 0 -27 -11 -90 -24 -115 -24 -210 -32 -224
-18 -18 18 208 57 269 47 11 -2 31 -4 45 -5z m1920 -24 c0 -8 -2 -15 -4 -15
-2 0 -6 7 -10 15 -3 8 -1 15 4 15 6 0 10 -7 10 -15z m-2646 -4 c15 -6 3 -11
-45 -20 -83 -17 -136 -17 -185 0 l-39 14 45 6 c65 9 202 9 224 0z m2749 -281
c-1 -36 -18 -59 -32 -44 -5 5 -12 28 -16 51 l-7 42 29 -8 c24 -7 28 -13 26
-41z"/>
<path d="M3310 5325 c0 -2 10 -10 23 -16 20 -11 21 -11 8 4 -13 16 -31 23 -31
12z"/>
<path d="M3223 5279 c-8 -8 -8 -19 0 -40 15 -40 24 -36 29 11 4 40 -7 51 -29
29z"/>
<path d="M3331 5203 c-14 -49 -14 -139 -1 -105 11 27 19 27 64 5 35 -18 47
-33 26 -33 -14 0 -49 -78 -50 -108 0 -36 28 -81 55 -88 54 -13 111 67 85 117
-10 17 -9 23 1 30 12 7 12 12 1 30 -16 24 -18 21 31 44 22 10 55 33 74 51 29
28 33 36 23 53 -14 26 -35 27 -62 1 -29 -27 -81 -50 -114 -50 -32 0 -90 41
-99 70 -10 31 -23 24 -34 -17z"/>
<path d="M3140 5172 c0 -11 -17 -31 -42 -48 -57 -40 -109 -38 -216 5 -66 27
-86 31 -95 22 -9 -10 -4 -20 27 -47 21 -18 59 -43 84 -55 44 -22 44 -22 23
-38 -31 -23 -41 -119 -17 -156 20 -30 45 -32 79 -5 37 29 44 79 19 130 l-19
40 21 0 c34 0 121 45 145 76 14 18 21 39 19 58 -3 33 -28 49 -28 18z"/>
<path d="M2830 5000 c-8 -5 -12 -11 -10 -14 8 -7 60 6 60 15 0 12 -31 11 -50
-1z"/>
<path d="M3215 4810 c-4 -7 -3 -16 3 -22 13 -13 54 0 49 15 -5 16 -43 21 -52
7z"/>
<path d="M3200 4683 c-101 -37 -179 -95 -150 -113 9 -5 33 2 72 21 43 22 71
29 113 29 48 0 55 3 55 19 0 39 -44 61 -90 44z"/>
<path d="M6930 9144 c0 -40 65 -57 93 -26 30 32 21 42 -38 42 -44 0 -55 -3
-55 -16z"/>
<path d="M7419 8778 l7 -33 437 0 c378 0 439 2 447 15 7 11 5 19 -9 30 -16 14
-66 15 -387 12 -203 -1 -391 -4 -419 -5 -27 -1 -57 2 -66 6 -14 7 -16 4 -10
-25z"/>
<path d="M7109 8713 c-9 -10 -8 -13 4 -13 8 0 20 6 26 13 8 10 7 14 -4 14 -9
0 -20 -6 -26 -14z"/>
<path d="M7729 8290 c0 -3 -2 -12 -4 -21 -2 -12 7 -18 34 -23 43 -7 111 -7 94
1 -7 2 -13 10 -13 18 0 17 -48 36 -82 33 -16 -1 -28 -5 -29 -8z"/>
<path d="M2773 7615 c-70 -19 -111 -37 -164 -71 -33 -22 -54 -28 -84 -26 -23
2 -71 -4 -108 -12 -224 -52 -347 -219 -293 -399 7 -25 24 -58 36 -74 32 -41
104 -89 155 -103 33 -9 50 -21 61 -41 22 -44 82 -97 130 -115 33 -13 46 -23
50 -43 11 -48 14 -52 61 -73 72 -32 176 -30 235 5 50 29 71 67 66 118 -3 31 1
37 52 70 65 43 100 79 133 137 19 34 37 49 88 73 123 58 183 140 183 249 0
188 -190 321 -454 319 -52 0 -118 -7 -147 -14z m223 -56 c101 -14 171 -41 223
-85 116 -100 110 -249 -13 -331 -58 -40 -66 -40 -66 -8 0 36 -24 90 -60 135
-42 53 -102 80 -177 80 -53 0 -63 3 -77 25 -27 42 -69 76 -121 100 l-50 23 50
22 c45 20 153 47 197 49 9 1 51 -4 94 -10z m-521 -155 c-14 -25 -28 -68 -31
-95 -6 -41 -12 -51 -40 -68 -57 -34 -69 -63 -66 -163 2 -48 0 -88 -3 -88 -20
0 -75 33 -102 61 -34 36 -63 104 -63 148 1 36 35 110 68 144 52 54 163 106
229 107 l32 0 -24 -46z m230 2 c48 -29 79 -76 55 -84 -18 -6 -62 -50 -77 -76
-10 -19 -12 -19 -41 6 -29 24 -104 44 -123 33 -13 -9 -10 56 4 81 40 68 50 75
96 69 24 -3 63 -16 86 -29z m260 -125 c79 -36 82 -68 7 -78 -52 -7 -112 26
-112 62 0 37 45 44 105 16z m-171 -38 c-10 -41 -22 -50 -41 -30 -16 15 -15 18
2 37 27 30 47 26 39 -7z m-154 -43 c30 -17 63 -34 73 -37 19 -6 17 -30 -2 -25
-6 1 -29 -7 -51 -18 -21 -11 -56 -20 -76 -20 -31 0 -35 2 -24 15 10 12 7 21
-19 50 -17 20 -31 39 -31 44 0 32 64 27 130 -9z m-170 -50 c7 -22 11 -43 7
-46 -10 -10 -68 7 -74 22 -6 15 35 77 46 70 4 -3 13 -23 21 -46z m608 -34 c-3
-39 -5 -40 -53 -53 -49 -14 -248 -14 -261 0 -4 3 11 26 32 51 35 41 42 45 69
38 58 -14 134 -7 163 15 25 20 28 20 40 5 7 -10 12 -35 10 -56z m-538 -78 c47
-1 100 2 118 6 52 12 38 -10 -21 -32 -64 -24 -198 -48 -220 -39 -12 4 -17 18
-17 42 0 35 1 36 28 31 15 -4 65 -7 112 -8z m314 -54 c28 -3 78 -1 111 4 33 6
62 8 63 7 9 -9 -38 -57 -87 -89 -52 -35 -55 -35 -126 -29 -95 8 -155 -2 -201
-33 -36 -25 -38 -25 -79 -10 -23 9 -54 29 -69 45 l-28 29 54 7 c89 12 174 36
214 61 27 17 48 23 68 19 17 -3 53 -8 80 -11z m-70 -163 c8 -13 -19 -21 -70
-21 -44 0 -60 14 -26 23 31 8 91 7 96 -2z m76 -55 c0 -8 -16 -28 -37 -43 -29
-23 -46 -28 -92 -28 -56 0 -136 30 -129 49 2 5 35 8 73 7 39 -1 90 5 115 13
59 19 70 19 70 2z"/>
<path d="M3599 6825 c-128 -41 -187 -181 -120 -287 16 -25 42 -55 59 -67 17
-11 40 -41 52 -66 12 -25 33 -54 47 -65 20 -15 23 -25 18 -48 -21 -98 225
-145 249 -47 5 19 13 25 33 25 51 0 108 25 152 67 24 24 53 43 63 43 26 0 89
34 115 62 45 48 56 132 27 194 -25 52 -107 120 -167 139 -29 9 -72 26 -97 37
-33 15 -63 20 -110 19 -95 -3 -117 -2 -200 4 -51 3 -90 0 -121 -10z m130 -41
l31 -6 -25 -30 c-14 -16 -25 -38 -25 -48 0 -11 -10 -20 -27 -25 -44 -10 -72
-44 -89 -107 -9 -32 -20 -58 -25 -58 -14 0 -49 52 -59 91 -18 66 22 137 95
170 43 19 75 22 124 13z m264 -21 c61 -22 107 -83 107 -145 0 -21 -2 -38 -4
-38 -2 0 -20 7 -39 15 -20 8 -47 15 -59 15 -19 0 -27 10 -41 49 -9 27 -30 62
-47 77 -16 15 -27 31 -24 36 8 13 53 9 107 -9z m-141 -50 c36 -38 58 -73 58
-92 0 -15 -61 -2 -85 19 -11 10 -30 21 -42 25 -13 3 -23 11 -23 17 0 13 39 68
49 68 4 0 23 -17 43 -37z m323 -23 c54 -37 90 -106 81 -154 -8 -42 -77 -106
-114 -106 -12 0 -13 52 -1 133 8 59 7 74 -10 113 -11 24 -15 44 -10 44 6 0 30
-13 54 -30z m-465 -97 c8 -21 16 -41 18 -45 4 -9 -40 3 -55 15 -16 12 -17 39
-1 55 18 18 23 15 38 -25z m103 5 c7 -11 8 -24 1 -39 l-10 -22 -21 22 c-12 13
-23 32 -26 42 -5 17 -1 20 20 17 14 -2 31 -10 36 -20z m75 -30 c-6 -18 -28
-21 -28 -4 0 9 7 16 16 16 9 0 14 -5 12 -12z m153 -18 c47 -26 -2 -42 -54 -17
-15 6 -27 15 -27 20 0 11 58 9 81 -3z m-304 -60 c12 0 34 -5 50 -12 l28 -11
-37 -7 c-44 -8 -134 2 -149 17 -6 6 -8 20 -5 31 7 20 7 21 49 2 23 -11 52 -20
64 -20z m220 4 c22 -24 29 -26 79 -21 55 6 55 6 52 -21 -3 -25 -6 -27 -48 -25
-82 3 -128 14 -155 35 l-26 20 33 18 c18 10 35 18 37 19 2 0 15 -11 28 -25z
m-194 -85 c38 0 72 2 74 5 3 3 20 -1 38 -8 17 -8 65 -19 105 -26 l73 -12 -32
-20 c-53 -34 -112 -35 -180 -4 -45 20 -69 25 -98 21 -33 -6 -43 -2 -73 25
l-35 31 29 -6 c17 -4 61 -6 99 -6z m-18 -124 c22 -8 55 -14 73 -15 45 0 37
-24 -9 -28 -36 -3 -100 24 -107 46 -5 15 -6 15 43 -3z"/>
<path d="M2650 6539 c0 -14 85 -59 112 -59 35 0 57 26 37 44 -16 15 -149 29
-149 15z"/>
<path d="M2755 6400 c-12 -4 -27 -16 -35 -25 -13 -15 -12 -19 9 -36 28 -23 69
-24 99 -3 32 22 27 42 -14 59 -20 8 -37 15 -38 14 0 0 -10 -4 -21 -9z"/>
<path d="M1891 6150 c-156 -56 -284 -206 -326 -381 -30 -127 -19 -131 41 -13
31 59 69 127 85 151 45 65 125 139 207 191 114 73 112 71 77 71 -16 0 -54 -8
-84 -19z"/>
<path d="M3652 6158 c-18 -18 -15 -26 15 -52 26 -22 29 -23 50 -7 30 21 29 26
-11 50 -39 25 -39 24 -54 9z"/>
<path d="M3626 6047 c-18 -13 -18 -15 4 -37 20 -20 23 -21 38 -6 13 12 14 21
6 33 -14 23 -27 26 -48 10z"/>
<path d="M2039 6031 c-95 -37 -194 -118 -243 -199 -32 -54 -57 -143 -39 -141
4 0 31 32 58 71 58 82 151 165 253 228 39 24 72 48 72 52 0 14 -53 8 -101 -11z"/>
<path d="M4015 5720 c-3 -5 3 -26 13 -47 32 -63 54 -178 61 -312 l7 -126 24
50 c21 43 24 64 24 150 0 91 -3 106 -31 168 -50 105 -81 144 -98 117z"/>
<path d="M3885 5626 c40 -72 64 -170 66 -266 0 -36 4 -73 8 -83 6 -17 8 -16
20 9 39 85 32 194 -19 295 -27 52 -79 109 -101 109 -5 0 7 -29 26 -64z"/>
<path d="M3269 3684 c-9 -11 -22 -30 -29 -44 -7 -14 -31 -49 -52 -77 -42 -58
-39 -65 13 -30 36 24 93 123 87 152 -3 16 -4 16 -19 -1z"/>
<path d="M2386 2869 c-98 -12 -198 -45 -319 -105 -158 -79 -207 -133 -207
-226 1 -86 57 -161 158 -212 52 -26 311 -112 442 -147 153 -41 394 -27 521 30
29 13 49 16 63 10 12 -4 82 -18 156 -30 109 -17 158 -20 257 -15 231 12 346
48 553 169 118 69 269 137 305 137 9 0 24 -7 32 -16 24 -24 125 -15 187 16 87
45 99 108 29 152 -31 19 -51 23 -113 22 -85 0 -136 -20 -145 -57 -5 -17 -26
-30 -93 -56 -89 -35 -167 -75 -282 -144 -36 -22 -94 -51 -130 -64 -145 -56
-389 -78 -563 -52 -97 14 -103 18 -83 57 57 109 -41 278 -236 409 -156 104
-336 146 -532 122z m552 -298 c17 -10 32 -75 22 -91 -10 -16 -60 38 -60 66 0
32 13 41 38 25z"/>
</g>
</svg>
