<?xml version="1.0" standalone="no"?>
<!DOCTYPE svg PUBLIC "-//W3C//DTD SVG 20010904//EN"
 "http://www.w3.org/TR/2001/REC-SVG-20010904/DTD/svg10.dtd">
<svg version="1.0" xmlns="http://www.w3.org/2000/svg"
 width="1024.000000pt" height="1024.000000pt" viewBox="0 0 1024.000000 1024.000000"
 preserveAspectRatio="xMidYMid meet">

<g transform="translate(0.000000,1024.000000) scale(0.100000,-0.100000)"
fill="#000000" stroke="none">
<path d="M7573 9428 c-12 -20 -67 -183 -99 -295 -16 -57 -31 -103 -34 -103 -3
0 -13 14 -22 30 -46 82 -107 -22 -84 -144 8 -40 19 -43 72 -24 28 10 36 9 52
-5 25 -23 32 -22 100 17 79 47 124 94 120 126 -4 32 -30 37 -79 14 -22 -9 -41
-15 -44 -13 -2 3 15 90 39 195 45 194 46 214 5 214 -10 0 -21 -6 -26 -12z"/>
<path d="M5776 9294 c-7 -19 3 -40 62 -124 106 -152 153 -209 175 -212 23 -4
67 10 67 22 0 8 41 28 55 26 13 -1 22 45 24 115 1 43 -3 60 -18 73 -22 20 -50
12 -56 -18 -28 -141 -15 -144 -183 42 -81 90 -113 109 -126 76z"/>
<path d="M9135 9000 c-105 -115 -133 -137 -120 -98 18 59 17 76 -4 83 -34 10
-58 -3 -94 -53 -47 -64 -67 -106 -67 -138 0 -23 3 -25 23 -20 67 19 65 19 82
-13 24 -47 55 -42 99 17 19 27 78 102 131 168 97 120 113 157 70 161 -14 2
-50 -30 -120 -107z"/>
<path d="M8483 8843 c9 -2 23 -2 30 0 6 3 -1 5 -18 5 -16 0 -22 -2 -12 -5z"/>
<path d="M5995 8823 c-101 -41 -188 -126 -241 -236 -56 -118 -45 -141 25 -47
64 85 157 176 224 218 43 26 57 40 55 55 -4 27 -16 29 -63 10z"/>
<path d="M6475 8823 c-335 -53 -607 -250 -701 -507 -55 -153 -52 -365 8 -494
39 -83 104 -89 271 -27 l87 32 -45 -51 c-201 -228 -310 -413 -398 -677 -46
-137 -65 -232 -78 -392 -34 -410 67 -765 313 -1094 l31 -42 -59 -66 c-135
-151 -154 -185 -154 -275 0 -54 36 -136 76 -174 45 -41 109 -58 172 -46 68 12
114 40 235 140 l99 82 71 -38 c40 -20 77 -41 82 -45 6 -4 52 -24 101 -43 305
-116 841 -167 1200 -115 167 25 151 30 230 -77 71 -95 110 -119 194 -119 71 1
106 15 165 67 80 70 95 155 45 250 -16 31 -27 63 -25 70 3 7 41 37 84 65 419
282 671 857 607 1388 -37 314 -149 600 -353 904 -25 37 -28 57 -13 96 l10 26
69 -60 c223 -191 364 -229 449 -121 32 42 80 143 98 211 11 41 18 101 18 169
1 187 -55 311 -214 471 -130 131 -276 228 -416 275 -148 49 -338 43 -462 -16
-151 -71 -207 -188 -148 -312 27 -57 118 -160 200 -227 42 -34 76 -68 76 -75
0 -13 -31 -46 -42 -46 -4 0 -41 20 -83 45 -134 80 -296 156 -440 209 l-140 51
3 35 c5 51 15 56 70 40 86 -25 143 -24 182 2 94 63 93 210 -2 268 -66 40 -412
130 -501 130 -107 0 -161 -50 -162 -150 0 -84 32 -122 128 -151 94 -30 102
-37 90 -86 l-9 -38 -145 4 c-188 4 -427 -27 -557 -73 -68 -25 -41 -3 90 70
146 82 239 165 259 232 15 52 1 109 -39 152 -40 43 -136 97 -227 127 -69 22
-101 26 -225 28 -80 2 -158 1 -175 -2z m330 -116 c113 -32 210 -87 152 -87
-13 0 -80 -14 -148 -31 -254 -64 -489 -196 -689 -386 -91 -86 -180 -189 -233
-267 l-26 -39 -12 29 c-17 44 -23 210 -10 275 53 252 289 453 606 515 85 16
287 11 360 -9z m854 -128 c85 -22 166 -47 180 -54 l26 -14 -35 0 c-37 -1 -177
22 -245 39 -22 5 -50 10 -62 10 -21 0 -21 -1 7 -32 16 -17 27 -35 24 -39 -2
-4 2 -10 8 -13 16 -8 -21 0 -91 19 -78 21 -103 63 -61 105 29 29 73 26 249
-21z m993 -75 c74 -19 178 -67 219 -101 62 -52 160 -235 180 -335 15 -73 4
-180 -21 -210 l-19 -23 -70 76 c-151 164 -433 386 -622 488 l-71 39 29 20 c79
56 254 78 375 46z m-988 -29 c6 -11 16 -24 21 -28 6 -5 3 -7 -7 -4 -9 3 -33 9
-52 13 -20 3 -33 10 -30 15 3 5 -1 9 -8 9 -9 0 -9 3 2 10 23 15 62 7 74 -15z
m-1169 -183 c2 -15 4 -67 5 -117 l3 -89 -34 -22 c-43 -29 -56 -29 -64 -1 -12
40 -37 91 -61 123 l-23 31 22 20 c28 25 107 78 127 85 20 7 23 3 25 -30z
m1078 -161 c369 -77 696 -301 904 -619 203 -308 282 -705 217 -1080 -45 -258
-190 -551 -382 -770 -162 -184 -441 -369 -673 -447 -179 -60 -298 -79 -504
-79 -196 -1 -309 17 -459 71 -456 164 -801 569 -908 1066 -28 133 -31 432 -5
572 46 252 143 478 294 684 80 109 273 297 379 368 205 138 447 224 724 257
82 10 318 -4 413 -23z m1101 -143 c25 -29 46 -62 46 -73 0 -12 -15 -43 -32
-70 -18 -26 -48 -73 -66 -102 l-34 -54 -61 57 c-34 32 -68 63 -75 69 -10 9 4
33 73 118 47 59 90 107 95 107 4 0 29 -24 54 -52z m32 -650 c32 -51 66 -115
76 -141 10 -27 31 -74 47 -105 54 -108 105 -301 115 -437 3 -47 2 -59 -3 -35
-5 19 -9 27 -10 17 -1 -13 -8 -17 -28 -14 -16 2 -34 0 -40 -6 -9 -6 -13 -6
-13 2 0 7 -4 10 -9 7 -4 -3 -11 39 -15 94 -3 54 -17 164 -31 245 -18 106 -22
152 -15 166 7 12 7 19 1 19 -5 0 -11 -5 -13 -11 -2 -6 -23 42 -48 107 -24 66
-52 134 -63 152 -10 17 -17 32 -14 32 3 0 32 -42 63 -92z m127 -958 c4 -36 3
-46 -3 -30 -8 25 -13 97 -6 89 2 -2 6 -29 9 -59z m99 -160 l-9 -24 -12 22
c-10 18 -9 22 4 22 8 0 15 6 16 13 0 7 2 8 5 1 3 -6 1 -21 -4 -34z m-2836
-771 c4 -8 1 -8 -14 0 -12 6 -24 16 -28 22 -4 8 -1 8 14 0 12 -6 24 -16 28
-22z m-18 -62 c16 -23 37 -57 46 -76 18 -33 17 -33 -11 -63 -51 -55 -124 -108
-148 -108 -60 0 -96 38 -97 101 0 47 19 79 102 164 59 62 64 65 72 45 4 -11
21 -40 36 -63z m2019 -54 c-4 -3 -1 -13 6 -21 9 -13 9 -14 0 -8 -7 4 -13 3
-13 -3 0 -8 -40 -27 -48 -22 -11 7 -32 -34 -32 -65 l0 -38 -30 29 c-16 16 -30
32 -30 36 0 4 33 27 73 53 69 43 88 54 74 39z m137 -140 c30 -54 60 -110 67
-125 34 -77 -66 -168 -141 -128 -14 8 -150 211 -150 225 0 2 19 14 43 28 23
14 58 41 76 61 19 20 38 36 42 36 5 0 33 -44 63 -97z"/>
<path d="M7095 7984 c-70 -11 -255 -59 -313 -80 -272 -103 -490 -279 -654
-529 -157 -240 -221 -443 -234 -735 -8 -175 10 -310 62 -470 66 -202 167 -364
311 -501 244 -230 528 -339 887 -339 237 0 388 32 586 126 285 135 515 361
663 652 96 188 135 334 144 542 15 361 -107 694 -349 955 -149 160 -388 293
-638 355 -66 17 -123 22 -260 25 -96 2 -188 1 -205 -1z m355 -115 c84 -13 267
-72 350 -114 160 -80 349 -247 447 -393 177 -264 242 -643 163 -944 -65 -248
-218 -498 -403 -659 -272 -237 -558 -339 -917 -326 -178 6 -295 34 -443 105
-421 202 -649 574 -649 1061 0 487 254 925 658 1133 270 140 509 181 794 137z"/>
<path d="M7352 7862 c-19 -13 -37 -139 -22 -157 7 -8 8 -15 4 -15 -21 0 -36
-48 -50 -158 -14 -109 -19 -125 -74 -238 -56 -113 -60 -126 -60 -191 0 -38 7
-92 15 -119 15 -50 18 -117 6 -166 -4 -20 -19 -34 -51 -50 -91 -46 -115 -159
-50 -240 19 -24 28 -43 24 -55 -4 -10 -52 -112 -107 -226 l-101 -209 18 -66
c9 -37 26 -76 37 -87 19 -19 19 -19 55 0 43 23 92 77 110 121 9 21 14 71 14
133 0 106 18 220 45 287 14 36 21 42 55 48 38 6 89 45 120 94 13 19 28 23 112
32 95 10 172 4 297 -20 136 -26 237 -6 389 76 113 62 110 77 -25 108 -112 25
-187 21 -372 -23 -91 -21 -218 -44 -283 -50 l-116 -12 -41 43 c-22 24 -41 52
-41 63 0 41 29 123 75 210 47 89 47 89 42 170 -2 44 -10 112 -17 152 -13 65
-12 80 9 187 13 68 20 128 16 146 -4 20 -2 35 8 45 8 8 20 42 26 76 9 54 8 65
-6 81 -17 19 -40 23 -61 10z m-154 -1201 c21 -13 10 -46 -16 -49 -27 -4 -40
22 -22 43 14 17 20 18 38 6z"/>
<path d="M6820 7706 c0 -2 9 -6 20 -9 11 -3 18 -1 14 4 -5 9 -34 13 -34 5z"/>
<path d="M6827 7662 c-15 -2 -25 -8 -22 -13 8 -12 42 -11 50 2 9 14 5 15 -28
11z"/>
<path d="M7827 7632 c-23 -25 -21 -59 3 -72 39 -21 80 24 65 70 -8 25 -46 26
-68 2z"/>
<path d="M6347 7376 c-5 -14 24 -62 48 -78 21 -16 54 -8 61 14 13 43 -94 105
-109 64z"/>
<path d="M8188 7204 c-60 -34 -71 -71 -27 -94 14 -8 30 -5 69 15 57 29 81 65
60 90 -18 22 -48 18 -102 -11z"/>
<path d="M6100 6875 c0 -19 7 -26 38 -36 49 -14 86 -9 90 14 6 32 -17 47 -74
47 -51 0 -54 -2 -54 -25z"/>
<path d="M8280 6845 c0 -8 5 -15 10 -15 6 0 10 7 10 15 0 8 -4 15 -10 15 -5 0
-10 -7 -10 -15z"/>
<path d="M6125 6600 c3 -5 8 -10 11 -10 2 0 4 5 4 10 0 6 -5 10 -11 10 -5 0
-7 -4 -4 -10z"/>
<path d="M8242 6588 c-16 -16 -15 -43 2 -57 8 -7 38 -16 68 -21 41 -6 58 -5
76 6 30 19 26 54 -8 71 -32 16 -122 17 -138 1z"/>
<path d="M6165 6345 c-76 -39 -78 -92 -2 -82 40 6 77 31 77 53 0 13 -27 44
-38 44 -4 0 -20 -7 -37 -15z"/>
<path d="M8010 6075 c-20 -25 -3 -58 47 -92 53 -36 74 -40 93 -18 18 21 4 51
-44 90 -46 38 -76 44 -96 20z"/>
<path d="M6454 5910 c-24 -10 -80 -71 -89 -99 -9 -29 11 -61 39 -61 23 0 66
40 102 95 28 43 -3 83 -52 65z"/>
<path d="M7547 5713 c-13 -12 -7 -48 18 -100 19 -42 29 -53 48 -53 27 0 47 17
47 40 0 8 -11 39 -25 68 -21 45 -28 52 -53 52 -16 0 -32 -3 -35 -7z"/>
<path d="M6640 5669 c0 -5 5 -7 10 -4 6 3 10 8 10 11 0 2 -4 4 -10 4 -5 0 -10
-5 -10 -11z"/>
<path d="M6958 5653 c-9 -10 -20 -44 -25 -75 -11 -67 3 -101 40 -96 23 3 39
38 51 114 11 62 -31 97 -66 57z"/>
<path d="M5074 8722 c-16 -10 -44 -68 -44 -90 0 -26 57 -75 131 -113 l61 -30
35 28 c85 67 80 57 41 88 -52 41 -212 125 -224 117z"/>
<path d="M9450 8640 c-69 -33 -130 -60 -137 -60 -8 0 -7 9 5 29 14 24 14 31 3
45 -18 22 -47 20 -87 -5 -36 -22 -43 -36 -20 -45 8 -3 19 -18 26 -33 6 -15 19
-33 29 -41 16 -11 17 -18 9 -42 -13 -37 -8 -42 22 -20 13 9 92 51 174 93 143
72 151 77 151 105 0 46 -35 40 -175 -26z"/>
<path d="M4410 8375 c-6 -8 -10 -18 -8 -23 3 -8 412 -455 495 -539 54 -56 81
-41 112 65 12 40 28 75 35 78 14 5 100 -55 249 -174 78 -62 92 -68 114 -54 16
10 53 92 53 118 0 11 9 29 20 39 11 10 18 20 16 23 -6 6 15 27 32 33 21 7 -67
119 -94 119 -29 0 -39 -14 -60 -88 -9 -35 -23 -66 -30 -69 -6 -2 -89 63 -184
146 -95 83 -181 151 -190 151 -30 0 -47 -25 -65 -100 -9 -38 -21 -73 -26 -76
-8 -5 -194 156 -356 308 -62 59 -91 70 -113 43z"/>
<path d="M9370 8329 c0 -6 18 -31 39 -57 22 -26 50 -76 63 -111 13 -34 28 -64
33 -65 6 0 11 23 13 52 2 39 -2 62 -18 90 -35 60 -130 127 -130 91z"/>
<path d="M3522 7973 c-29 -12 -42 -70 -68 -319 -15 -142 -28 -279 -28 -304 -1
-41 1 -45 23 -45 22 0 29 11 61 90 20 50 72 162 115 250 96 198 109 238 92
274 -17 36 -72 61 -132 60 -27 0 -56 -3 -63 -6z"/>
<path d="M9735 7943 c-57 -12 -101 -34 -102 -52 -1 -16 9 -20 80 -26 45 -5 91
-7 102 -6 54 7 56 62 3 80 -32 11 -47 12 -83 4z"/>
<path d="M2331 7829 c-71 -28 -100 -75 -86 -140 4 -17 59 -108 122 -202 63
-95 123 -189 134 -209 25 -48 55 -66 77 -44 14 13 14 22 3 68 -7 29 -30 139
-52 243 -22 105 -44 205 -50 222 -20 62 -83 88 -148 62z"/>
<path d="M4059 7675 c-14 -8 -51 -51 -81 -97 -133 -200 -208 -320 -208 -333 0
-12 28 -35 44 -35 3 0 45 33 93 73 48 40 127 103 175 140 100 78 138 119 138
150 0 51 -67 118 -117 117 -10 -1 -30 -7 -44 -15z"/>
<path d="M9742 7565 c-96 -13 -195 -30 -234 -41 -26 -8 -22 -20 12 -34 39 -16
355 -9 388 9 28 15 29 56 3 71 -23 12 -36 12 -169 -5z"/>
<path d="M5513 7539 c-79 -87 -143 -236 -165 -388 -6 -42 -17 -83 -25 -91 -12
-13 -18 -12 -53 8 -68 39 -132 22 -145 -38 -11 -49 14 -75 93 -99 38 -11 77
-30 87 -41 13 -14 24 -57 36 -146 20 -141 26 -164 40 -164 5 0 9 55 9 128 0
79 4 132 11 139 6 6 28 9 50 6 37 -5 39 -4 39 20 0 16 -8 30 -19 36 -26 14
-51 82 -51 140 0 115 60 325 125 435 46 78 23 117 -32 55z"/>
<path d="M5210 7535 c0 -29 52 -91 67 -82 16 10 -2 78 -23 94 -27 20 -44 15
-44 -12z"/>
<path d="M1820 7441 c-34 -34 -46 -74 -32 -106 6 -12 46 -44 89 -71 43 -26
133 -83 201 -126 126 -79 155 -90 166 -62 4 11 -17 39 -70 93 -42 42 -112 122
-156 179 -101 130 -142 149 -198 93z"/>
<path d="M2940 7421 c-24 -45 -3 -151 30 -151 36 0 53 106 24 148 -19 27 -40
28 -54 3z"/>
<path d="M4226 7165 c-102 -44 -156 -80 -156 -104 0 -27 16 -30 100 -15 41 7
101 13 133 14 73 0 102 24 94 77 -12 74 -51 81 -171 28z"/>
<path d="M1686 6984 c-20 -19 -21 -78 -2 -93 11 -9 53 -10 163 -4 138 7 148 9
148 28 0 23 -59 48 -168 71 -88 18 -122 18 -141 -2z"/>
<path d="M3005 6964 c-223 -34 -384 -99 -562 -229 -81 -59 -97 -63 -163 -40
-23 8 -59 15 -78 15 -86 0 -179 -80 -238 -203 -55 -117 -67 -191 -69 -447 -1
-197 -4 -229 -20 -260 -25 -49 -94 -143 -162 -222 -264 -307 -332 -394 -406
-523 -95 -167 -132 -296 -125 -442 9 -188 114 -313 318 -379 77 -24 99 -27
240 -27 164 -1 255 12 418 59 45 13 86 24 91 24 11 0 -18 -153 -31 -161 -5 -3
-66 -9 -136 -13 -238 -12 -557 -45 -634 -65 -90 -23 -124 -40 -173 -83 -97
-85 -98 -152 -10 -532 35 -154 63 -281 62 -282 -1 -1 -47 -7 -102 -13 -314
-37 -561 -74 -574 -86 -7 -7 -11 -21 -8 -29 8 -19 63 -21 182 -6 44 5 134 14
200 20 66 6 229 22 363 37 133 14 245 23 248 20 3 -3 -18 -41 -47 -84 -146
-217 -235 -319 -387 -440 -51 -41 -96 -82 -99 -90 -3 -8 -1 -31 5 -51 11 -35
10 -38 -23 -72 -57 -58 -46 -125 24 -152 91 -34 585 -102 842 -115 125 -6 133
-8 206 -45 91 -46 137 -48 234 -14 56 20 75 22 120 15 47 -8 202 -26 379 -46
47 -5 52 -7 33 -16 -31 -14 -35 -34 -12 -56 12 -11 92 -63 178 -117 133 -83
274 -174 625 -405 71 -48 104 -49 225 -13 222 68 406 154 796 374 105 59 239
133 298 166 119 64 139 84 112 114 -16 18 -173 104 -490 270 -66 35 -220 116
-342 182 -138 73 -233 118 -251 118 -20 0 -50 -16 -97 -54 -65 -52 -233 -151
-241 -143 -3 2 27 90 66 196 38 105 70 200 70 211 0 11 -13 34 -29 52 -22 26
-27 40 -24 65 4 22 -1 37 -14 50 -18 18 -40 20 -209 26 -231 8 -346 24 -549
77 -166 42 -271 51 -358 29 -38 -9 -49 -7 -109 20 -37 17 -75 31 -84 31 -10 0
-15 2 -12 6 7 6 13 7 1203 129 634 65 1552 167 1715 191 111 16 150 33 150 63
0 47 -68 54 -310 31 -197 -20 -925 -100 -946 -105 -26 -6 -28 -1 -49 210 -18
168 -90 786 -103 882 -5 35 -7 64 -6 66 2 2 29 0 61 -4 32 -4 128 -8 213 -8
531 -2 896 105 992 293 29 56 34 146 14 226 -44 176 -156 323 -521 685 -155
154 -296 300 -312 325 -17 25 -58 100 -93 168 -133 263 -323 459 -557 576
-122 61 -252 73 -342 31 l-54 -25 -96 21 c-93 21 -347 35 -426 23z m295 -128
c52 -8 113 -21 135 -28 35 -12 40 -17 48 -56 5 -28 20 -54 43 -77 29 -29 33
-38 24 -54 -24 -46 -9 -109 41 -166 41 -46 82 -73 179 -115 41 -18 77 -34 79
-36 2 -2 10 -45 17 -96 17 -114 36 -175 80 -255 l35 -62 -10 -80 c-23 -184
-102 -335 -244 -467 -149 -139 -323 -212 -542 -230 -99 -7 -250 15 -344 53
-130 51 -285 166 -357 265 l-36 49 24 57 c61 140 63 272 8 432 l-32 95 48 44
c67 60 84 88 84 139 0 55 -23 103 -66 142 -34 30 -34 31 -28 92 3 38 1 74 -5
92 -13 32 -16 29 84 98 144 101 379 170 595 177 25 0 88 -6 140 -13z m582 -44
c155 -79 298 -212 403 -377 21 -32 65 -115 97 -183 l59 -125 342 -346 c350
-354 425 -443 474 -560 15 -37 23 -77 23 -117 0 -74 -23 -114 -94 -161 -139
-94 -534 -151 -964 -140 -165 4 -205 2 -217 -9 -10 -10 -12 -33 -9 -91 12
-177 45 -539 79 -852 31 -286 35 -336 23 -348 -10 -9 -86 -22 -229 -38 -249
-28 -346 -39 -559 -65 -85 -10 -254 -30 -375 -45 -121 -14 -312 -37 -425 -50
-195 -24 -280 -30 -280 -21 0 8 60 404 110 728 27 179 50 335 50 346 0 15 30
39 115 92 118 73 150 105 119 117 -22 8 -66 -4 -289 -80 -257 -89 -393 -118
-571 -125 -127 -4 -149 -2 -215 18 -122 37 -191 96 -223 193 -54 162 39 369
325 723 184 228 302 376 325 409 50 72 49 65 49 355 0 297 3 323 56 437 31 64
77 113 109 113 31 0 33 -19 6 -55 -58 -76 -107 -215 -76 -215 5 0 23 26 39 58
72 144 180 231 211 172 15 -27 -13 -87 -72 -160 -58 -71 -83 -119 -69 -133 7
-7 17 -5 33 7 13 9 38 28 57 41 62 45 151 24 151 -35 0 -21 -15 -38 -93 -103
-27 -22 -50 -52 -57 -72 -11 -32 -8 -44 23 -123 49 -122 62 -193 48 -267 -13
-73 -30 -106 -205 -405 -75 -129 -171 -302 -212 -385 -78 -159 -94 -218 -62
-238 26 -17 57 17 143 158 41 66 81 129 88 140 37 52 328 175 416 175 13 0 52
-18 85 -39 267 -173 679 -181 974 -19 95 52 209 144 258 208 30 39 44 50 66
50 58 0 367 -31 451 -45 48 -8 89 -15 91 -15 2 0 37 -34 77 -76 85 -87 123
-112 145 -93 8 6 14 18 14 26 0 65 -343 528 -521 703 -145 142 -190 227 -223
419 -18 104 -33 121 -168 192 -98 52 -138 86 -138 119 0 47 87 57 178 21 95
-38 124 -23 66 33 -50 48 -124 83 -209 97 -80 13 -95 22 -95 55 0 40 36 56
116 52 61 -3 85 -10 156 -46z m395 -1230 c46 -63 83 -116 80 -118 -5 -5 -224
13 -308 24 l-46 7 33 85 c18 47 38 114 45 148 l12 64 49 -49 c27 -26 88 -99
135 -161z m-1807 -313 c0 -4 -19 -10 -42 -14 -24 -4 -65 -16 -93 -26 -27 -11
-53 -19 -57 -19 -7 0 61 118 85 148 8 10 21 3 59 -35 26 -26 48 -50 48 -54z
m-20 -2141 c55 -10 124 -40 134 -57 8 -12 -16 -73 -104 -262 -40 -85 -94 -203
-120 -264 -26 -60 -57 -131 -69 -157 l-21 -46 -56 30 c-111 60 -168 69 -509
78 -280 7 -406 18 -443 39 -9 5 3 20 42 50 128 99 262 261 368 443 27 48 57
89 67 92 9 3 88 17 176 31 270 44 398 50 535 23z m600 -82 c174 -44 384 -76
506 -76 34 0 81 -3 105 -6 l44 -6 -65 -132 c-78 -155 -138 -295 -190 -443 -25
-72 -43 -109 -54 -111 -9 -2 -105 15 -214 38 -293 62 -344 70 -492 77 -125 5
-143 4 -243 -21 -60 -15 -111 -25 -114 -23 -2 3 19 50 46 106 74 146 261 570
261 590 0 16 37 41 76 50 63 16 147 5 334 -43z m671 -303 c-122 -326 -209
-543 -220 -553 -3 -3 -7 -12 -9 -20 -2 -8 -10 -26 -19 -39 l-15 -24 -182 6
c-123 4 -246 15 -386 36 -113 16 -260 35 -327 42 -117 12 -123 14 -132 38 -5
14 -12 33 -16 43 -5 13 4 18 52 28 122 26 394 -4 778 -85 157 -33 197 -33 224
1 11 14 39 74 62 132 73 189 201 472 214 472 3 0 -8 -35 -24 -77z m532 -296
c106 -57 317 -169 469 -248 153 -79 276 -148 274 -154 -4 -14 -465 -277 -649
-371 -154 -78 -316 -145 -453 -187 l-81 -24 -294 191 c-162 105 -336 218 -386
250 -51 32 -93 62 -93 66 0 4 13 13 29 19 22 10 66 9 205 -4 195 -17 241 -13
274 30 11 13 41 85 68 160 l49 136 130 69 c72 39 159 92 195 119 36 27 66 50
68 50 2 1 89 -46 195 -102z m-2893 -51 c63 -8 187 -16 275 -17 283 -3 439 -20
523 -55 34 -14 36 -16 17 -26 -11 -6 -30 -20 -42 -31 -21 -19 -32 -19 -255
-14 -147 3 -268 11 -328 21 -118 21 -342 66 -350 71 -3 2 -4 20 -2 39 4 31 7
35 26 31 11 -3 73 -12 136 -19z m943 -156 c45 0 47 -1 47 -30 0 -32 -22 -50
-62 -50 -36 0 -70 28 -63 51 4 11 2 19 -4 19 -6 0 -11 5 -11 11 0 7 9 9 23 5
12 -3 43 -6 70 -6z"/>
<path d="M3325 6313 c-28 -42 -33 -73 -10 -73 8 0 15 6 15 13 0 7 11 29 25 49
29 43 30 48 10 48 -8 0 -26 -17 -40 -37z"/>
<path d="M3596 6205 c-69 -53 -110 -67 -163 -53 -68 17 -78 16 -81 -14 -4 -32
27 -56 84 -65 27 -4 47 -16 67 -39 56 -67 158 -67 165 0 4 36 -11 54 -33 36
-12 -10 -18 -10 -30 0 -22 19 -18 33 16 55 46 30 80 84 68 107 -14 27 -30 23
-93 -27z"/>
<path d="M2912 6229 c3 -8 24 -17 49 -21 24 -4 56 -17 71 -28 32 -24 38 -25
38 -7 0 30 -49 60 -106 65 -45 4 -56 2 -52 -9z"/>
<path d="M3071 6061 c-32 -45 -68 -55 -181 -48 -79 4 -102 2 -111 -9 -19 -23
8 -43 90 -64 40 -10 75 -21 79 -24 3 -3 -3 -15 -12 -25 -14 -16 -23 -18 -42
-10 -32 12 -44 -14 -19 -41 34 -37 111 -19 154 36 12 15 21 33 21 42 0 8 20
32 44 54 51 44 62 68 46 98 -15 28 -45 25 -69 -9z"/>
<path d="M3134 5735 c-166 -45 -261 -111 -318 -222 -20 -41 -21 -144 -1 -183
20 -38 62 -70 93 -70 14 0 72 22 128 50 165 81 261 95 427 63 110 -21 134 -14
165 47 84 167 -99 331 -368 329 -41 0 -98 -6 -126 -14z"/>
<path d="M2299 3026 c9 -11 9 -15 -1 -19 -7 -2 7 -7 32 -12 25 -4 67 -16 93
-28 33 -13 51 -17 58 -10 23 23 -100 83 -169 83 -20 0 -22 -3 -13 -14z"/>
<path d="M2100 2920 c-14 -4 -20 -9 -15 -10 6 -1 1 -5 -10 -9 -12 -5 22 -10
90 -13 77 -4 126 -12 165 -27 65 -25 70 -25 70 -6 0 24 -42 44 -124 60 -84 16
-137 18 -176 5z"/>
<path d="M2093 2798 c-37 -18 -27 -25 42 -32 36 -4 93 -15 128 -26 69 -22 97
-25 97 -11 0 42 -211 96 -267 69z"/>
<path d="M1943 2693 c9 -2 23 -2 30 0 6 3 -1 5 -18 5 -16 0 -22 -2 -12 -5z"/>
<path d="M2046 2689 c5 -8 -10 -13 -28 -10 -5 0 -8 -3 -8 -8 0 -4 28 -12 63
-15 34 -4 95 -19 135 -32 40 -14 78 -24 84 -22 22 8 -36 48 -96 67 -67 21
-159 33 -150 20z"/>
<path d="M2010 2573 c0 -6 17 -17 38 -26 20 -9 65 -28 99 -42 75 -33 100 -29
59 8 -38 35 -196 83 -196 60z"/>
<path d="M9283 6908 c-4 -7 -6 -94 -4 -193 3 -208 -14 -366 -61 -575 -42 -187
-44 -200 -24 -200 21 0 38 28 77 125 76 190 108 497 74 710 -9 61 -21 118 -26
128 -11 20 -25 22 -36 5z"/>
<path d="M9473 6912 c-9 -5 -12 -69 -11 -222 0 -241 -11 -335 -68 -562 -19
-75 -34 -151 -34 -168 0 -37 23 -49 50 -25 27 25 76 167 107 313 23 111 27
151 27 317 1 154 -3 204 -17 262 -20 74 -34 97 -54 85z"/>
<path d="M1583 6592 c-36 -23 -67 -187 -44 -231 7 -12 16 -19 21 -16 13 8 100
195 100 214 0 34 -45 53 -77 33z"/>
<path d="M1825 6576 c-72 -44 -120 -130 -137 -246 -9 -59 -9 -83 -1 -91 17
-17 29 -4 43 48 19 71 64 154 115 218 65 80 55 116 -20 71z"/>
<path d="M9626 6228 c-15 -24 -60 -185 -71 -253 -8 -51 14 -86 42 -69 41 25
103 178 103 255 0 78 -42 116 -74 67z"/>
<path d="M1692 6097 c-19 -23 -25 -73 -12 -98 21 -41 53 -69 77 -69 27 0 30
18 7 61 -8 17 -19 49 -22 72 -8 44 -30 59 -50 34z"/>
<path d="M5322 6049 c-40 -23 -58 -41 -73 -72 -51 -112 11 -171 92 -87 37 38
40 45 46 115 3 42 2 75 -3 75 -5 0 -33 -14 -62 -31z"/>
<path d="M5465 5923 c8 -35 13 -39 26 -26 8 8 8 17 0 32 -17 31 -35 27 -26 -6z"/>
<path d="M5581 5731 c-16 -37 -11 -81 11 -95 28 -17 37 3 30 63 -8 62 -24 75
-41 32z"/>
<path d="M9040 5683 c0 -9 38 -56 85 -104 47 -47 85 -93 85 -100 0 -8 -9 -20
-21 -27 -13 -8 -19 -21 -17 -35 2 -17 15 -25 63 -38 33 -9 95 -31 138 -48 43
-17 88 -31 100 -31 52 0 63 52 20 91 -39 35 -252 194 -345 257 -81 54 -108 63
-108 35z"/>
<path d="M9127 5136 c4 -20 10 -23 38 -20 27 2 35 -1 40 -17 9 -27 37 -25 33
3 -2 14 -15 25 -38 33 -80 28 -78 28 -73 1z"/>
<path d="M7905 4514 c-16 -2 -109 -14 -205 -25 -96 -11 -362 -47 -590 -79
-228 -32 -471 -66 -540 -75 -422 -54 -638 -87 -677 -106 -51 -24 -99 -77 -125
-137 -11 -24 -32 -127 -48 -235 -16 -106 -45 -285 -64 -400 -20 -114 -36 -209
-36 -211 0 -3 -15 -9 -32 -15 -29 -9 -576 -132 -876 -197 -337 -72 -507 -120
-524 -147 -14 -23 -20 -134 -8 -157 7 -14 51 -41 113 -70 189 -88 607 -290
949 -459 147 -72 275 -131 284 -131 18 0 318 79 419 110 33 10 96 28 140 40
198 53 762 227 1221 376 194 63 359 114 367 114 26 0 57 49 57 89 l0 37 163
-82 c89 -45 179 -85 199 -89 39 -7 59 2 133 60 66 53 121 75 233 96 196 37
344 88 505 174 76 41 85 54 70 96 -13 33 -12 33 38 19 43 -12 72 -60 59 -95
-8 -21 -8 -21 43 -8 28 7 59 13 69 13 9 0 20 5 24 12 13 21 -48 56 -138 78
-127 31 -193 55 -196 72 -1 8 13 34 33 59 43 54 47 104 12 137 -13 12 -175 79
-363 151 -310 118 -626 241 -631 245 -3 3 39 158 103 376 66 228 63 298 -13
343 -33 19 -113 29 -168 21z m-40 -142 c-6 -5 -39 -14 -75 -20 -36 -7 -123
-23 -195 -37 -434 -81 -583 -107 -775 -135 -240 -34 -431 -64 -530 -85 -36 -7
-108 -19 -160 -25 -169 -21 -173 -27 -234 -350 -26 -135 -60 -308 -76 -385
-55 -263 -180 -887 -180 -900 0 -7 -47 -55 -54 -55 -3 0 -6 12 -6 28 0 41 65
441 110 672 58 307 76 402 120 663 48 289 72 351 151 392 30 16 170 41 279 50
134 11 311 35 475 65 88 15 205 33 260 40 55 6 210 24 345 40 394 48 566 61
545 42z m205 -724 c186 -89 306 -138 574 -235 99 -35 191 -70 205 -78 26 -13
25 -14 -59 -51 -155 -69 -367 -180 -456 -240 -49 -32 -121 -90 -162 -128 l-74
-70 -41 23 c-103 57 -278 141 -295 141 -7 0 -12 6 -12 13 0 33 44 187 90 317
28 80 68 193 88 253 20 59 39 106 42 104 3 -1 48 -23 100 -49z m788 -429 c-13
-37 -4 -95 18 -120 16 -18 13 -20 -78 -62 -127 -59 -198 -82 -357 -112 -139
-27 -165 -37 -239 -87 -57 -39 -66 -28 -17 22 78 80 210 163 440 276 127 62
233 114 237 114 4 0 2 -14 -4 -31z m-3286 -141 c-14 -67 -19 -78 -37 -78 -19
1 -19 1 -2 14 19 15 23 41 7 51 -13 8 -184 -27 -310 -64 -52 -16 -176 -48
-275 -71 -99 -24 -209 -51 -244 -60 -71 -18 -95 -40 -71 -64 16 -15 162 -66
189 -66 9 0 21 -4 27 -10 5 -5 54 -25 109 -45 55 -20 143 -52 195 -72 224 -82
245 -85 291 -52 42 29 36 39 -23 39 -58 1 -124 23 -98 34 101 40 170 48 170
19 0 -10 -7 -61 -15 -113 -8 -52 -15 -125 -15 -162 0 -38 -3 -68 -7 -68 -5 0
-93 38 -198 84 -104 46 -246 109 -315 139 -134 59 -662 306 -669 313 -16 16
187 65 849 203 107 23 254 56 325 75 72 18 131 32 132 32 1 -1 -6 -36 -15 -78z
m-123 -102 c-13 -28 -75 -42 -140 -31 -40 7 -45 25 -6 26 12 0 38 6 57 13 19
8 50 14 67 15 31 1 32 0 22 -23z m-250 -55 l23 -18 -82 -21 c-76 -19 -85 -19
-118 -5 l-37 16 73 17 c40 9 75 20 79 24 11 11 38 6 62 -13z m291 -3 c30 -3
35 -7 38 -30 3 -24 0 -28 -23 -28 -29 0 -85 26 -85 39 0 24 13 41 24 32 6 -5
27 -11 46 -13z m-603 -100 c-48 -13 -71 -15 -101 -7 -21 6 -36 12 -34 14 2 2
35 12 73 23 63 17 71 18 96 3 l28 -16 -62 -17z m468 40 c14 -6 25 -14 25 -18
0 -9 -102 -40 -131 -40 -13 1 -37 7 -54 14 l-30 13 60 20 c70 25 95 27 130 11z
m166 -78 c-6 -43 -8 -45 -45 -51 -28 -5 -52 -1 -84 13 -53 24 -47 30 50 54 38
9 71 21 74 26 10 16 12 5 5 -42z m-395 2 c22 -12 24 -11 -68 -36 -42 -12 -64
-14 -85 -6 -15 6 -35 13 -43 16 -9 3 13 15 50 27 65 23 105 22 146 -1z m175
-61 c28 -13 38 -22 29 -25 -8 -3 -38 -14 -65 -24 -50 -18 -50 -18 -105 4 -32
13 -49 24 -40 27 8 3 33 12 55 20 55 21 76 20 126 -2z"/>
<path d="M5135 2541 c-8 -15 3 -31 21 -31 9 0 14 7 12 17 -4 20 -24 28 -33 14z"/>
<path d="M5260 2475 c0 -8 9 -15 20 -15 11 0 20 7 20 15 0 8 -9 15 -20 15 -11
0 -20 -7 -20 -15z"/>
</g>
</svg>
