<svg xmlns="http://www.w3.org/2000/svg" width="16" height="16" viewBox="0 0 833 793" version="1.1"><path d="M 385.813 56.052 C 283.761 65.129, 186.777 121.367, 129.264 204.814 C 96.520 252.324, 78.213 300.104, 71.338 356 C 68.936 375.532, 68.953 417.858, 71.371 436.500 C 77.246 481.806, 91.327 523.534, 114.057 563 C 179.272 676.230, 305.656 744.580, 435.845 737.026 C 445.935 736.441, 459.414 735.277, 465.798 734.440 C 561.576 721.885, 644.079 674.336, 699.936 599.500 C 734.925 552.623, 754.568 504.215, 763.646 442.500 C 766.152 425.456, 766.177 376.776, 763.688 359.109 C 760.287 334.970, 752.764 302.659, 747.035 287.593 L 745.933 284.693 735.216 299.138 C 729.322 307.083, 721.800 317.318, 718.500 321.883 L 712.500 330.183 694.453 329.524 L 676.406 328.865 668.453 337.203 C 664.079 341.789, 657.134 349.582, 653.021 354.521 C 638.916 371.455, 632.638 378.128, 628.572 380.510 C 624.201 383.070, 610.226 386.874, 595.217 389.588 C 590.111 390.511, 586.061 391.382, 586.217 391.524 C 586.372 391.666, 594.825 392.514, 605 393.409 C 615.175 394.304, 625.638 395.295, 628.250 395.612 L 633 396.188 632.999 402.844 C 632.996 431.680, 624.785 466.528, 611.790 492.864 C 582.879 551.454, 528.045 591.131, 458 604.146 C 442.556 607.016, 407.660 607.765, 391.134 605.582 C 310.500 594.932, 244.138 543.142, 217.063 469.733 C 197.347 416.274, 199.984 357.560, 224.395 306.500 C 248.437 256.212, 290.960 217.891, 344.003 198.711 C 398.403 179.040, 460.817 182.652, 513.500 208.520 C 557.609 230.179, 591.230 264.135, 613.482 309.500 C 616.989 316.650, 621.091 326.100, 622.599 330.500 C 624.106 334.900, 625.468 338.668, 625.626 338.873 C 625.783 339.078, 630.769 334.848, 636.706 329.473 C 642.643 324.098, 647.914 319.332, 648.420 318.881 C 649.630 317.801, 645.200 306.416, 638.174 292.551 C 619.221 255.151, 589.114 221.629, 553 197.717 C 533.443 184.768, 502.069 170.913, 478.732 164.919 C 437.154 154.241, 391.415 154.842, 350 166.611 C 243 197.018, 171.449 294.659, 175.310 405 C 176.146 428.888, 181.729 457.439, 190.041 480.329 C 197.732 501.511, 212.587 527.561, 228.061 547 C 235.934 556.890, 254.384 575.192, 264.610 583.256 C 300.235 611.346, 347.503 630.301, 393.876 635.091 C 412.361 637.001, 447.263 635.781, 465 632.605 C 505.071 625.431, 543.536 608.704, 574 585.206 C 592.956 570.584, 616.135 544.492, 627.974 524.448 C 652.523 482.886, 664.883 431.394, 661.928 383 C 661.248 371.874, 661.358 369.110, 662.553 367.283 C 665.093 363.399, 679.235 347.510, 680.389 347.244 C 681 347.103, 690.498 349.200, 701.496 351.905 C 715.990 355.469, 721.694 356.503, 722.226 355.661 C 722.629 355.023, 724.175 351.575, 725.660 348 C 727.144 344.425, 728.669 341.132, 729.048 340.682 C 730.786 338.616, 734.978 378.071, 734.979 396.500 C 734.982 505.564, 676.195 606.378, 580.238 661.867 C 539.316 685.531, 493.235 699.938, 445.034 704.138 C 427.340 705.680, 389.901 704.624, 373.500 702.120 C 297.282 690.485, 230.028 654.051, 178.472 596.467 C 138.343 551.647, 110.700 491.047, 102.993 431 C 101.151 416.649, 100.616 385.749, 101.927 369.500 C 105.242 328.418, 115.759 292.600, 136.220 252.708 C 167.519 191.685, 224.853 138.237, 288 111.215 C 332.999 91.959, 373.619 84.165, 423.243 85.263 C 464.682 86.180, 495.267 92.156, 532.286 106.569 C 605.928 135.243, 666.803 190.928, 701.318 261.191 C 706.368 271.471, 710.757 279.909, 711.072 279.941 C 711.386 279.973, 716.759 274.310, 723.011 267.356 L 734.379 254.711 730.200 246.550 C 713.771 214.465, 692.450 185.338, 666.061 158.927 C 606.108 98.926, 530.221 63.602, 445 56.029 C 432.008 54.874, 398.906 54.887, 385.813 56.052 M 395 264.490 C 366.138 269.433, 341.929 281.247, 321.281 300.466 C 287.652 331.766, 273.147 377.382, 281.998 424 C 286.355 446.947, 297.100 468.470, 313.703 487.508 C 334.985 511.912, 368.562 529.099, 402.858 533.144 C 417.011 534.813, 439.028 533.683, 452.239 530.609 C 493.316 521.051, 526.527 494.650, 544.667 457.135 C 551.986 441.999, 556.933 418.946, 556.983 399.750 C 556.992 396.038, 556.835 393, 556.634 393 C 556.433 393, 551.285 394.125, 545.194 395.500 C 539.103 396.875, 533.867 398, 533.560 398 C 533.252 398, 532.999 401.488, 532.997 405.750 C 532.978 452.386, 498.010 495.473, 450.375 507.557 C 395.275 521.534, 339.837 497.069, 314.909 447.774 C 306.735 431.610, 303.087 416.463, 303.042 398.500 C 302.965 367.286, 314.249 340.648, 337.065 318.179 C 361.878 293.743, 399.270 281.938, 434.668 287.364 C 458.264 290.981, 480.078 301.618, 497.386 317.947 C 511.782 331.528, 525.571 354.184, 530.014 371.554 C 531.109 375.835, 532.171 379.504, 532.374 379.707 C 532.721 380.054, 537.112 377.567, 548.250 370.714 C 550.862 369.107, 553 367.654, 553 367.486 C 553 367.318, 551.636 363.007, 549.969 357.906 C 538.827 323.809, 510.891 292.536, 477.138 276.373 C 465.752 270.920, 447.649 265.586, 435.500 264.104 C 423.822 262.679, 404.498 262.863, 395 264.490 M 405 357.882 C 397.116 360.427, 393.957 362.272, 387.699 367.992 C 377.510 377.304, 373.454 387.522, 374.239 401.902 C 375.011 416.046, 380.694 427.004, 391.524 435.233 C 398.698 440.685, 405.970 443.208, 416.098 443.761 C 426.970 444.354, 434.066 442.424, 443.128 436.408 C 450.771 431.335, 453.849 427.651, 458.305 418.244 C 461.328 411.862, 461.499 410.882, 461.478 400 C 461.457 389.231, 461.257 388.076, 458.331 381.840 C 450.761 365.703, 435.326 355.921, 417.645 356.054 C 413.685 356.084, 408.048 356.899, 405 357.882" stroke="none" fill="#000000" fill-rule="evenodd"/></svg>